<svg width="512pt" height="512pt" viewBox="0 0 512 512" version="1.1" xmlns="http://www.w3.org/2000/svg">
<g id="#fffff">
<path fill="#fff" opacity="1.00" d=" M 243.47 115.53 C 248.54 111.30 255.79 109.95 262.05 112.00 C 269.08 114.21 274.63 120.59 275.69 127.90 C 276.17 131.57 275.97 135.27 276.00 138.96 C 276.00 171.31 276.00 203.65 276.00 236.00 C 310.66 236.01 345.32 235.99 379.98 236.01 C 387.00 235.74 394.02 239.29 397.77 245.26 C 402.13 251.80 401.96 260.96 397.37 267.34 C 393.56 272.95 386.81 276.22 380.06 275.99 C 345.37 276.02 310.69 275.99 276.00 276.00 C 275.99 310.69 276.02 345.37 275.99 380.06 C 276.22 386.80 272.95 393.55 267.35 397.36 C 260.77 402.11 251.23 402.12 244.66 397.36 C 239.05 393.56 235.78 386.81 236.01 380.06 C 235.98 345.38 236.01 310.69 236.00 276.00 C 201.31 275.99 166.62 276.01 131.93 275.99 C 125.68 276.18 119.41 273.43 115.51 268.51 C 111.30 263.44 109.95 256.20 112.01 249.94 C 114.15 243.17 120.14 237.78 127.12 236.44 C 130.70 235.82 134.36 236.02 137.98 236.00 C 170.66 236.00 203.33 236.00 236.00 236.00 C 236.01 201.33 235.99 166.66 236.01 131.99 C 235.81 125.73 238.54 119.44 243.47 115.53 Z" />
</g>
</svg>
