<svg width="512pt" height="512pt" viewBox="0 0 512 512" version="1.1" xmlns="http://www.w3.org/2000/svg">
<g id="#007ee5">
<path fill="#007ee5" opacity="1.00" d=" M 219.48 0.00 L 223.58 0.00 C 229.81 0.63 235.85 3.26 240.23 7.78 C 315.74 83.26 391.21 158.77 466.72 234.25 C 470.36 237.73 473.96 241.50 475.74 246.31 C 479.67 255.86 477.18 267.54 469.74 274.69 C 393.41 351.07 317.04 427.40 240.70 503.76 C 236.38 508.36 230.45 511.10 224.26 512.00 L 219.53 512.00 C 213.33 511.31 207.32 508.64 202.94 504.13 C 196.44 497.59 189.81 491.18 183.43 484.52 C 174.51 474.85 174.91 458.43 184.25 449.18 C 235.49 397.84 286.85 346.60 338.10 295.27 C 245.40 295.24 152.70 295.31 60.00 295.24 C 46.88 295.27 35.03 283.98 34.47 270.86 C 34.30 261.26 34.38 251.64 34.43 242.03 C 34.59 231.66 41.68 221.94 51.39 218.40 C 56.66 216.29 62.43 216.77 67.98 216.73 C 158.02 216.73 248.06 216.74 338.10 216.73 C 286.81 165.39 235.48 114.09 184.20 62.75 C 177.69 56.11 175.27 45.86 178.08 37.01 C 179.44 32.31 182.36 28.22 185.89 24.88 C 191.75 19.08 197.53 13.20 203.40 7.41 C 207.69 3.14 213.51 0.69 219.48 0.00 Z" />
</g>
</svg>
