<svg width="70pt" height="70pt" viewBox="0 0 70 70" xmlns="http://www.w3.org/2000/svg"><g fill="#f6f6f6"><path d="M0 0h70v70H0V0m12.35 6.64c.2 1.48.41 2.96.64 4.44-2.3.19-5.93-.9-7 1.89-.48 3.67.42 7.52 2.15 10.77 1.9 3.55 6 4.92 9.72 5.59 2.23 3.57 4.2 7.54 7.77 9.99 1.44 1.05 3.2 1.64 4.54 2.82.44 2.26-.56 4.43-1.36 6.49-2.69.74-5.18 2.06-7.15 4.04-1.62.07-3.24.12-4.85.15-.1 3.49-.1 6.98-.2 10.48 4.78.67 9.62.22 14.43.34 6.68-.23 13.4.48 20.04-.38-.08-3.46-.05-6.92-.15-10.37-1.46-.07-2.92-.13-4.38-.22-1.91-2.09-4.52-3.27-7.19-4.06-1.05-2.12-1.42-4.44-1.48-6.78 5.4-2.37 8.87-7.32 11.53-12.37 3.94-.63 8.32-1.94 10.41-5.67 1.77-3.27 2.57-7.12 2.32-10.82-1.36-2.68-4.73-1.74-7.14-1.88.27-1.47.55-2.94.85-4.4-2.26-.41-4.56-.35-6.83-.34-12.22.21-24.47-.42-36.67.29z"/><path d="M14.45 8.44c13.06-.22 26.12-.18 39.18-.05-1.15 7.23-3.28 14.32-6.48 20.91-2.37 4.62-5.75 9.62-11.18 10.73-5.35 1.1-10.43-2.31-13.32-6.57-4.97-7.42-6.68-16.38-8.2-25.02m17.32 10c-1.62.45-3.38.53-4.83 1.46 1.24 1.23 2.45 2.48 3.68 3.72-.38 1.76-1.1 3.61-.24 5.36 1.47-.79 2.93-1.6 4.4-2.42 1.56.82 3.12 1.64 4.69 2.44.4-1.91.09-3.85-.32-5.73 1.06-.99 2.46-1.75 3.08-3.14-.72-1.76-3.19-1.14-4.72-1.57-.84-1.6-1.57-3.27-2.58-4.79-1.15 1.48-1.78 3.37-3.16 4.67zm-21.42 5.09c-2.13-3-2.45-6.81-2.5-10.38 1.84.04 3.68.03 5.52.08.66 4.81 2.2 9.42 3.73 14.01-2.48-.71-5.19-1.5-6.75-3.71zm44.2-10.29c1.87-.06 3.74-.08 5.62-.14-.18 3.81-.35 8.07-3.03 11.07-1.72 2.02-4.46 2.49-6.89 3.13 1.83-4.56 3.39-9.23 4.3-14.06z"/><path d="M34.64 17.75c.53.83 1.07 1.65 1.61 2.48.71.12 2.11.35 2.81.47-1.67 1.22-2.51 3.02-1.72 5.08-1.73-1.42-3.53-1.45-5.4-.09.23-.65.7-1.96.93-2.61-.73-.76-1.44-1.52-2.15-2.28 1.89-.24 3.66-.89 3.92-3.05zm-2.27 24.33c1.17.04 2.33.07 3.5.11.12 2.85.54 6.07 2.68 8.16 1.76.8 3.66 1.3 5.31 2.35-6.46.02-12.92.13-19.37 0 1.98-1.53 5.16-1.41 6.33-3.86 1.29-2.01 1.36-4.45 1.55-6.76zm-13.7 12.81c10.1-.22 20.2-.05 30.29-.09-.06 2.3.02 4.61-.04 6.91-10.04-.08-20.08-.05-30.12 0-.08-2.27-.04-4.55-.13-6.82z"/></g><g fill="#e22a2a"><path d="M12.35 6.64c12.2-.71 24.45-.08 36.67-.29 2.27-.01 4.57-.07 6.83.34-.3 1.46-.58 2.93-.85 4.4 2.41.14 5.78-.8 7.14 1.88.25 3.7-.55 7.55-2.32 10.82-2.09 3.73-6.47 5.04-10.41 5.67-2.66 5.05-6.13 10-11.53 12.37.06 2.34.43 4.66 1.48 6.78 2.67.79 5.28 1.97 7.19 4.06 1.46.09 2.92.15 4.38.22.1 3.45.07 6.91.15 10.37-6.64.86-13.36.15-20.04.38-4.81-.12-9.65.33-14.43-.34.1-3.5.1-6.99.2-10.48 1.61-.03 3.23-.08 4.85-.15 1.97-1.98 4.46-3.3 7.15-4.04.8-2.06 1.8-4.23 1.36-6.49-1.34-1.18-3.1-1.77-4.54-2.82-3.57-2.45-5.54-6.42-7.77-9.99-3.72-.67-7.82-2.04-9.72-5.59-1.73-3.25-2.63-7.1-2.15-10.77 1.07-2.79 4.7-1.7 7-1.89-.23-1.48-.44-2.96-.64-4.44m2.1 1.8c1.52 8.64 3.23 17.6 8.2 25.02 2.89 4.26 7.97 7.67 13.32 6.57 5.43-1.11 8.81-6.11 11.18-10.73 3.2-6.59 5.33-13.68 6.48-20.91-13.06-.13-26.12-.17-39.18.05m-4.1 15.09c1.56 2.21 4.27 3 6.75 3.71-1.53-4.59-3.07-9.2-3.73-14.01-1.84-.05-3.68-.04-5.52-.08.05 3.57.37 7.38 2.5 10.38m44.2-10.29c-.91 4.83-2.47 9.5-4.3 14.06 2.43-.64 5.17-1.11 6.89-3.13 2.68-3 2.85-7.26 3.03-11.07-1.88.06-3.75.08-5.62.14M32.37 42.08c-.19 2.31-.26 4.75-1.55 6.76-1.17 2.45-4.35 2.33-6.33 3.86 6.45.13 12.91.02 19.37 0-1.65-1.05-3.55-1.55-5.31-2.35-2.14-2.09-2.56-5.31-2.68-8.16-1.17-.04-2.33-.07-3.5-.11m-13.7 12.81c.09 2.27.05 4.55.13 6.82 10.04-.05 20.08-.08 30.12 0 .06-2.3-.02-4.61.04-6.91-10.09.04-20.19-.13-30.29.09z"/><path d="M31.77 18.44c1.38-1.3 2.01-3.19 3.16-4.67 1.01 1.52 1.74 3.19 2.58 4.79 1.53.43 4-.19 4.72 1.57-.62 1.39-2.02 2.15-3.08 3.14.41 1.88.72 3.82.32 5.73-1.57-.8-3.13-1.62-4.69-2.44-1.47.82-2.93 1.63-4.4 2.42-.86-1.75-.14-3.6.24-5.36-1.23-1.24-2.44-2.49-3.68-3.72 1.45-.93 3.21-1.01 4.83-1.46m2.87-.69c-.26 2.16-2.03 2.81-3.92 3.05.71.76 1.42 1.52 2.15 2.28-.23.65-.7 1.96-.93 2.61 1.87-1.36 3.67-1.33 5.4.09-.79-2.06.05-3.86 1.72-5.08-.7-.12-2.1-.35-2.81-.47-.54-.83-1.08-1.65-1.61-2.48z"/></g></svg>