<svg width="70pt" height="70pt" viewBox="0 0 70 70" xmlns="http://www.w3.org/2000/svg"><g fill="#f6f6f6"><path d="M0 0h70v70H0V0m16.25 9.23c-4.43 3.2-7.95 7.48-11.9 11.22-1.25 1.6-3.69 3.2-2.84 5.52 1.33 2.4 3.54 4.13 5.53 5.95 8.19 6.81 16.38 13.61 24.54 20.44 3.27 2.99 7.14 5.48 11.59 6.17 8.66 1.88 17.25-.85 25.56-3.02-.81-3.53-.38-8.1-3.72-10.42-4.43-1.95-9.83-1.28-13.85-4.29-6.2-4.74-8.89-12.44-13.6-18.37-2.82-2.93-5.97.32-7.93 2.49-4.46-2.53-8.15-6.74-8.88-11.97-.12-2.21-1.99-5.06-4.5-3.72z"/><path d="M15.2 13.84c-1-1.64 1.46-2.91 2.8-2.96 1.24 3.13 1.58 6.65 3.7 9.4 1.89 3.09 5.13 4.83 7.91 6.97 2.74 3.61 4.72 7.94 8.53 10.62 4.28 3.49 9.92 4.06 14.88 6.08 3.85 1.56 8.18 1.39 11.92 3.27-9.26 1.39-19.67.98-27.52-4.72-10.1-7.04-17.29-17.53-22.22-28.66z"/><path d="M11.78 15.9l1.65-1.41c5.46 12.55 13.83 24.36 25.79 31.42 8.29 4.68 18.17 4.14 27.31 3.32-3.14 1.91-6.89 2.12-10.45 2.47-6.38.52-13.27-.19-18.63-4-7.35-5.25-14.26-11.11-21.27-16.8-.01-5.32-1.49-10.54-4.4-15zm-5.74 6c1.5-1.52 3.01-3.03 4.54-4.52 2 3.71 3.3 7.74 3.77 11.93-2.98-2.22-5.83-4.63-8.31-7.41zm25.49 3.6c1.62-1.97 3.98-3.01 6.2-1.11-1.97.8-4.08 1.13-6.2 1.11z"/><path d="M2.94 25.12c.43-.52 1.29-1.54 1.72-2.05 3.92 4.53 8.88 7.95 13.42 11.82 6.68 5.34 13.14 11.01 20.33 15.68 8.29 4.67 18.19 3.4 27.11 1.63.43.48 1.29 1.45 1.71 1.94-7.2 2.31-14.87 3.46-22.43 2.66-3.5-.39-6.96-1.64-9.66-3.96-8.55-7.12-17.08-14.28-25.67-21.35-2.34-1.95-4.5-4.1-6.53-6.37zm29.18 2.59c2.34-.22 4.66-.54 6.99-.88a9.49 9.49 0 00-2.5 2.97c1.06.11 3.19.32 4.25.43-.84.46-2.53 1.36-3.37 1.82 1.49.38 3 .65 4.52.89-.57.53-1.73 1.57-2.3 2.1 1.32.17 2.64.33 3.96.47 1.3 1.58 2.59 3.16 3.85 4.77-6.83-1.59-12.01-6.63-15.4-12.57z"/></g><path fill="#e11d1d" d="M16.25 9.23c2.51-1.34 4.38 1.51 4.5 3.72.73 5.23 4.42 9.44 8.88 11.97 1.96-2.17 5.11-5.42 7.93-2.49 4.71 5.93 7.4 13.63 13.6 18.37 4.02 3.01 9.42 2.34 13.85 4.29 3.34 2.32 2.91 6.89 3.72 10.42-8.31 2.17-16.9 4.9-25.56 3.02-4.45-.69-8.32-3.18-11.59-6.17-8.16-6.83-16.35-13.63-24.54-20.44-1.99-1.82-4.2-3.55-5.53-5.95-.85-2.32 1.59-3.92 2.84-5.52 3.95-3.74 7.47-8.02 11.9-11.22m-1.05 4.61c4.93 11.13 12.12 21.62 22.22 28.66 7.85 5.7 18.26 6.11 27.52 4.72-3.74-1.88-8.07-1.71-11.92-3.27-4.96-2.02-10.6-2.59-14.88-6.08-3.81-2.68-5.79-7.01-8.53-10.62-2.78-2.14-6.02-3.88-7.91-6.97-2.12-2.75-2.46-6.27-3.7-9.4-1.34.05-3.8 1.32-2.8 2.96m-3.42 2.06c2.91 4.46 4.39 9.68 4.4 15 7.01 5.69 13.92 11.55 21.27 16.8 5.36 3.81 12.25 4.52 18.63 4 3.56-.35 7.31-.56 10.45-2.47-9.14.82-19.02 1.36-27.31-3.32-11.96-7.06-20.33-18.87-25.79-31.42l-1.65 1.41m-5.74 6c2.48 2.78 5.33 5.19 8.31 7.41-.47-4.19-1.77-8.22-3.77-11.93-1.53 1.49-3.04 3-4.54 4.52m25.49 3.6c2.12.02 4.23-.31 6.2-1.11-2.22-1.9-4.58-.86-6.2 1.11m-28.59-.38c2.03 2.27 4.19 4.42 6.53 6.37 8.59 7.07 17.12 14.23 25.67 21.35 2.7 2.32 6.16 3.57 9.66 3.96 7.56.8 15.23-.35 22.43-2.66-.42-.49-1.28-1.46-1.71-1.94-8.92 1.77-18.82 3.04-27.11-1.63-7.19-4.67-13.65-10.34-20.33-15.68-4.54-3.87-9.5-7.29-13.42-11.82-.43.51-1.29 1.53-1.72 2.05m29.18 2.59c3.39 5.94 8.57 10.98 15.4 12.57a250.67 250.67 0 00-3.85-4.77c-1.32-.14-2.64-.3-3.96-.47.57-.53 1.73-1.57 2.3-2.1-1.52-.24-3.03-.51-4.52-.89.84-.46 2.53-1.36 3.37-1.82-1.06-.11-3.19-.32-4.25-.43a9.49 9.49 0 012.5-2.97c-2.33.34-4.65.66-6.99.88z"/></svg>