<svg width="512pt" height="512pt" viewBox="0 0 512 512" xmlns="http://www.w3.org/2000/svg"><g fill="#fff"><path d="M251.49 144.63c3.03-.25 6.06-.33 9.09.02l-.18 1.2c.51-.11 1.55-.33 2.07-.43l.08 1.15h2.08c27.55 27.39 54.96 54.91 82.43 82.38 1.08 1.38 3.61 2.68 2.27 4.79l1.6-.31c-.18.56-.55 1.67-.73 2.23l1.2-.22c.21 3.02.29 6.04-.07 9.05l-1.07-.19c.12.55.37 1.64.5 2.19l-1.4-.2.28 2.14-1.26-.03c.35 2.03-.4 2.62-2.25 1.76 2.59 3.29-2.83 1.03-1.67 3.4l-1.09.09-.83-1.3.15 2.03c-.57-.02-1.72-.07-2.29-.1l.07 1.03c-2.71.47-5.47.05-8.17.37l.5-1.34-3.45.16.35-1.25-1.81.56c-.08-.36-.25-1.09-.33-1.45l-1.28.21c-14.74-15.13-29.9-29.98-44.8-45-6.74-6.6-13.22-13.52-20.11-19.92l.3-1.36c-1.86.55-2.54-.1-2.03-1.95l-1.18.31-1.11-.99.32-1.37c-.85 0-2.53.01-3.38.02.62 1.81-.02 2.5-1.91 2.06.46 1.8-.2 2.45-2 1.97 1.22 1.84-1.27 1.98-1.82 3.19-16.36 16.33-32.69 32.68-49.04 49.02-3.88 4.09-8.28 7.84-11.82 12.15-3.14-2.71.48 3.47-3.18 1.61l-.13 1.3c-.49-.08-1.48-.25-1.98-.33l.22 1.1c-.85 0-2.56.02-3.42.02l.23 1.22c-2.29-.26-4.7-.22-7.02-.06l.23-1.25-3.19.12.11-1.25c-.47.1-1.42.29-1.89.38l-.12-1.2c-1.26.4-3.78-1.51-2.88-3.06l-1.48.41.52-1.26-1.27-.11.32-1.94-1.23.12c.04-.8.11-2.39.15-3.19l-1.27.24c.18-2.37.24-4.83-.06-7.19l1.26.36c.01-.88.03-2.66.03-3.55l2.03.27-1.38-.9.18-.98 1.22-.05c-1.18-1.64 1.24-1.87 1.74-3.03 16.61-16.71 33.54-33.35 49.95-50.1l1.29.27-.3-1.28c10.1-9.83 20.13-19.85 29.97-29.97l1.31.23-.1-1.3 2.12.32-.18-1.54c.54.17 1.61.49 2.15.65l-.16-1.15z"/><path d="M251.5 240.65c3.02-.35 6.04-.24 9.07-.07l-.21 1.22 2.19-.72-.28 1.59c.57-.05 1.7-.17 2.27-.22l-.2 1.24 1.22-.27c27.05 27.07 54.37 54.37 81.52 81.53 1.04 1.42 3.55 2.59 2.28 4.75l1.47-.21c-.16.55-.46 1.65-.61 2.2l1.16-.25c.28 3.01.25 6.02-.02 9.04l-1.14-.1c.14.53.42 1.6.56 2.14l-1.5-.22c.09.55.26 1.64.35 2.18-2.35-1.5-.18 3.6-3.25 1.92.4 1.71-.24 2.33-1.92 1.87l.02 1.27c-.52-.07-1.56-.2-2.08-.27l.23 1.15-2.21-.2.04 1.1c-2.71.51-5.51-.07-8.16.45l.53-1.4-3.5.2.37-1.3c-.54.08-1.62.25-2.16.34l.07-1.2c-2.09 1.2-1.76-1.73-3.13-1.85-20.94-20.87-42.04-42.04-63.02-63.05-.53-1.2-3.07-1.37-1.82-3.13l-1.22.24c-.27-.25-.81-.76-1.08-1.01l.35-1.32c-.84 0-2.53-.01-3.38-.01.59 1.9-.07 2.58-1.98 2.06l.32 1.23c-21.45 21.07-42.66 42.69-64.1 63.89-.2.32-.61.95-.82 1.27l-1.57-.61c.85 1.89.27 2.63-1.73 2.19l-.08 1.5c-.52-.14-1.56-.4-2.08-.54l.32 1.25c-1.48.25-2.92.16-4.31-.26l.42 1.43c-2.06-.29-4.2-.37-6.27-.12l.25-1.25c-.81.03-2.42.08-3.22.11l.1-1.26c-.48.09-1.46.25-1.94.34l-.06-1.28-1.29.53.32-1.46-1.57.5.84-1.54c-1.78.63-2.51.02-2.2-1.8l-1.2-.12.32-1.93-1.26.11.16-3.2-1.25.26c.15-2.37.25-4.86-.07-7.2l1.27.41c-.01-.86-.04-2.56-.05-3.41l1.2.3c-.11-.52-.35-1.58-.47-2.1l1.41-.04c-.49-1.31 0-2.08 1.49-2.32.14-1.31 1.55-1.79 2.26-2.74 20.65-20.67 41.32-41.33 61.97-61.99 1.32-.53 1.37-3.41 3.3-1.72l-.39-1.35c.26-.27.79-.83 1.05-1.1l1.46.5-.57-1.5c4.26-3.63 8.2-7.83 12.06-11.93l1.3.28-.11-1.43c.54.11 1.63.32 2.18.43l-.2-1.49c.53.15 1.6.44 2.13.58l-.15-1.11z"/></g></svg>