<svg version="1.0" xmlns="http://www.w3.org/2000/svg"
 width="256.000000pt" height="256.000000pt" viewBox="0 0 256.000000 256.000000"
 preserveAspectRatio="xMidYMid meet">

<g transform="translate(0.000000,256.000000) scale(0.100000,-0.100000)"
fill="#fff" stroke="none">
<path d="M1135 2534 c-95 -15 -200 -40 -275 -66 -502 -178 -840 -655 -840
-1188 0 -533 338 -1010 840 -1188 150 -53 238 -67 420 -67 182 0 270 14 420
67 503 178 840 654 840 1188 0 529 -334 1005 -830 1185 -134 48 -234 66 -395
70 -82 2 -163 1 -180 -1z m505 -603 l0 -129 -106 -4 c-133 -4 -134 -5 -134
-140 l0 -98 120 0 120 0 -1 -27 c0 -16 -6 -75 -12 -133 l-12 -105 -107 -3
-108 -3 0 -389 0 -390 -165 0 -165 0 0 390 0 390 -75 0 -75 0 0 135 0 135 74
0 74 0 5 133 c6 165 21 212 92 283 73 73 106 82 308 83 l167 1 0 -129z"/>
</g>
</svg>
