<svg version="1.0" xmlns="http://www.w3.org/2000/svg"
 width="512.000000pt" height="512.000000pt" viewBox="0 0 512.000000 512.000000"
 preserveAspectRatio="xMidYMid meet">

<g transform="translate(0.000000,512.000000) scale(0.100000,-0.100000)"
fill="#fff" stroke="none">
<path d="M2315 5109 c-800 -83 -1501 -518 -1927 -1196 -604 -961 -490 -2237
274 -3068 425 -462 951 -737 1583 -827 119 -17 512 -16 635 1 622 86 1148 360
1572 820 349 378 572 862 650 1406 17 118 17 512 0 630 -59 416 -191 769 -410
1099 -92 140 -185 254 -315 385 -399 404 -893 653 -1462 737 -123 18 -478 26
-600 13z m355 -1879 c121 -27 123 -31 121 -357 -1 -145 1 -279 5 -298 8 -43
38 -75 70 -75 72 0 268 279 379 540 60 140 32 130 355 130 313 0 320 -2 320
-68 0 -76 -75 -200 -278 -464 -138 -178 -162 -218 -162 -267 0 -32 14 -50 161
-195 216 -214 279 -298 279 -369 0 -39 -22 -63 -69 -77 -17 -5 -134 -10 -260
-11 l-229 -3 -66 33 c-53 26 -87 55 -183 157 -65 69 -132 134 -149 145 -92 56
-157 -18 -171 -194 -7 -86 -14 -102 -55 -123 -47 -24 -312 -15 -423 15 -110
29 -264 108 -361 184 -196 156 -411 462 -641 915 -130 258 -140 292 -87 312
13 5 126 10 251 10 208 1 229 0 252 -18 14 -10 31 -30 38 -43 7 -13 39 -80 72
-149 101 -213 243 -420 313 -456 41 -21 67 -9 92 44 19 43 21 63 21 247 0 185
-2 204 -22 248 -17 38 -31 52 -65 67 -24 11 -51 20 -60 20 -21 0 -22 4 -8 29
15 29 61 54 120 67 67 15 378 17 440 4z"/>
</g>
</svg>
