<svg width="40" height="50" fill="none" xmlns="http://www.w3.org/2000/svg"><circle cx="9.999" cy="44.001" r="4" fill="#142251"/><ellipse cx="19.504" cy="25.713" rx="11.5" ry="8" transform="rotate(25.844 19.504 25.713)" fill="#AFB4C4"/><path d="M29.404 30.508c-.872 1.8-2.732 2.969-5.125 3.347-2.392.378-5.267-.047-8.044-1.392-2.778-1.346-4.893-3.338-6.08-5.449-1.186-2.112-1.422-4.296-.55-6.096.871-1.8 2.731-2.969 5.125-3.347 2.391-.378 5.266.047 8.043 1.392 2.778 1.346 4.894 3.338 6.08 5.449 1.187 2.112 1.423 4.297.55 6.096z" stroke="#142251" stroke-opacity=".44"/><mask id="a" fill="#fff"><path fill-rule="evenodd" clip-rule="evenodd" d="M28.813 19.11l-9.9-4.794-4.232 8.738a1.516 1.516 0 00-.036.073l-.184.381.05.024c-.344 1.584 1.191 3.673 3.685 4.88 2.493 1.209 5.084 1.118 6.114-.133l.05.024 4.453-9.192z"/></mask><path fill-rule="evenodd" clip-rule="evenodd" d="M28.813 19.11l-9.9-4.794-4.232 8.738a1.516 1.516 0 00-.036.073l-.184.381.05.024c-.344 1.584 1.191 3.673 3.685 4.88 2.493 1.209 5.084 1.118 6.114-.133l.05.024 4.453-9.192z" fill="#AFB4C4"/><path d="M18.913 14.316l.436-.9-.9-.436-.436.9.9.436zm9.9 4.795l.9.436.436-.9-.9-.436-.436.9zm-14.132 3.943l.89.455.005-.01.005-.009-.9-.436zm-.036.073l.9.436.005-.01.004-.009-.909-.417zm-.184.381l-.9-.436-.436.9.9.436.436-.9zm.05.024l.977.212.167-.769-.709-.343-.436.9zm9.799 4.747l.436-.9-.708-.343-.5.608.772.635zm.05.024l-.436.9.9.436.436-.9-.9-.436zm-5.883-13.087l9.9 4.795.872-1.8-9.9-4.795-.872 1.8zm-2.896 8.274l4.232-8.738-1.8-.872-4.232 8.738 1.8.872zm-.018.036l.008-.017-1.781-.91-.027.055 1.8.872zm-.009.018l.009-.018-1.8-.872a3.06 3.06 0 00-.026.056l1.817.834zm-.193.4l.184-.381-1.8-.872-.184.381 1.8.872zm-.415-1.312l-.05-.024-.871 1.8.05.024.871-1.8zm3.686 4.881c-1.124-.544-1.998-1.273-2.543-1.999-.559-.746-.688-1.37-.601-1.77l-1.955-.424c-.257 1.184.21 2.397.956 3.393.76 1.016 1.9 1.936 3.27 2.6l.873-1.8zm4.906.13c-.26.316-.83.601-1.762.626-.907.023-2.02-.212-3.144-.756l-.872 1.8c1.37.664 2.799.988 4.068.955 1.244-.032 2.484-.418 3.254-1.354l-1.544-1.27zm1.258-.24l-.05-.024-.872 1.8.05.024.872-1.8zm3.117-8.728l-4.453 9.193 1.8.871 4.453-9.192-1.8-.872z" fill="#142251" fill-opacity=".44" mask="url(#a)"/><ellipse cx="26.262" cy="11.763" rx="9.5" ry="7.5" transform="rotate(25.844 26.262 11.763)" fill="#AFB4C4"/><path d="M34.362 15.687c-1.64 3.386-6.573 4.594-11.152 2.376-4.578-2.217-6.688-6.837-5.048-10.223 1.64-3.386 6.573-4.594 11.151-2.377 4.579 2.218 6.689 6.838 5.049 10.224z" stroke="#142251" stroke-opacity=".44"/><g filter="url(#filter0_f_1_11082)"><ellipse cx="23.548" cy="9.338" rx="4" ry="3.5" transform="rotate(25.844 23.548 9.338)" fill="#E4E7F1"/></g><path fill="#9DA7CA" d="M14.667 32.259l1.8.872-5.667 11.7-1.8-.872z"/><defs><filter id="filter0_f_1_11082" x="15.637" y="1.736" width="15.822" height="15.202" filterUnits="userSpaceOnUse" color-interpolation-filters="sRGB"><feFlood flood-opacity="0" result="BackgroundImageFix"/><feBlend in="SourceGraphic" in2="BackgroundImageFix" result="shape"/><feGaussianBlur stdDeviation="2" result="effect1_foregroundBlur_1_11082"/></filter></defs></svg>