<svg width="1351" height="729" fill="none" xmlns="http://www.w3.org/2000/svg"><g filter="url(#filter0_i_1_11147)"><circle cx="726" cy="726" r="726" fill="#CFD2DC"/></g><mask id="a" style="mask-type:alpha" maskUnits="userSpaceOnUse" x="0" y="0" width="1452" height="1452"><circle cx="726" cy="726" r="726" fill="#0D0E12"/></mask><g mask="url(#a)"><g filter="url(#filter1_f_1_11147)"><circle cx="725.999" cy="726" r="580.8" fill="#F2F3F8"/><circle cx="725.999" cy="726" r="580.8" fill="#fff" fill-opacity=".2"/></g><g opacity=".12"><path d="M323.601-243.239l.533 38.024c3.862 275.3 301.615 445.548 540.828 309.234l34.379-19.59c224.849-128.126 504.479 33.125 506.209 291.908l.61 90.5c1.25 187.24 185.97 317.938 362.96 256.813v0" stroke="url(#paint0_linear_1_11147)"/><path d="M310.98-221.38l.533 38.024c3.862 275.3 301.615 445.548 540.828 309.234l34.379-19.59c224.84-128.126 504.48 33.125 506.21 291.908l.61 90.5c1.25 187.24 185.97 317.938 362.96 256.813v0" stroke="url(#paint1_linear_1_11147)"/><path d="M298.363-199.52l.533 38.024c3.862 275.3 301.614 445.549 540.828 309.235l34.379-19.59C1098.95.022 1378.58 161.274 1380.31 420.057l.61 90.5c1.26 187.24 185.97 317.937 362.96 256.813v0" stroke="url(#paint2_linear_1_11147)"/><path d="M285.74-177.663l.533 38.024c3.862 275.3 301.614 445.549 540.828 309.235l34.378-19.59c224.841-128.127 504.481 33.125 506.211 291.907l.61 90.501c1.25 187.24 185.97 317.937 362.96 256.813v0" stroke="url(#paint3_linear_1_11147)"/><path d="M273.12-155.802l.534 38.024c3.862 275.299 301.614 445.548 540.828 309.234l34.378-19.59c224.85-128.126 504.48 33.125 506.21 291.908l.61 90.5c1.25 187.24 185.97 317.938 362.96 256.813v0" stroke="url(#paint4_linear_1_11147)"/><path d="M260.497-133.943l.534 38.024c3.861 275.299 301.614 445.548 540.828 309.234l34.378-19.59C1061.08 65.599 1340.72 226.85 1342.45 485.633l.61 90.501c1.25 187.239 185.97 317.937 362.95 256.812v0" stroke="url(#paint5_linear_1_11147)"/><path d="M247.88-112.084l.534 38.023c3.861 275.3 301.614 445.549 540.828 309.235l34.378-19.59c224.85-128.127 504.48 33.125 506.21 291.908l.61 90.5c1.25 187.24 185.97 317.937 362.96 256.813v0" stroke="url(#paint6_linear_1_11147)"/><path d="M235.259-90.226l.533 38.024c3.862 275.3 301.615 445.549 540.829 309.235l34.378-19.59c224.841-128.127 504.481 33.125 506.211 291.907l.61 90.501c1.25 187.24 185.97 317.937 362.95 256.813v0" stroke="url(#paint7_linear_1_11147)"/><path d="M222.638-68.367l.533 38.024c3.862 275.3 301.615 445.549 540.829 309.235l34.378-19.59c224.842-128.126 504.482 33.125 506.212 291.908l.61 90.5c1.25 187.24 185.97 317.937 362.95 256.813v0" stroke="url(#paint8_linear_1_11147)"/><path d="M210.019-46.508l.533 38.024c3.862 275.3 301.615 445.549 540.828 309.235l34.379-19.591c224.841-128.126 504.481 33.125 506.211 291.908l.61 90.501c1.25 187.239 185.97 317.937 362.95 256.812v0" stroke="url(#paint9_linear_1_11147)"/><path d="M197.398-24.65l.533 38.025c3.862 275.299 301.614 445.548 540.828 309.234l34.379-19.59c224.845-128.126 504.482 33.125 506.212 291.908l.61 90.5c1.25 187.24 185.97 317.933 362.95 256.813v0" stroke="url(#paint10_linear_1_11147)"/><path d="M184.779-2.79l.533 38.024c3.862 275.299 301.614 445.548 540.828 309.234l34.379-19.59C985.364 196.752 1265 358.003 1266.73 616.786l.61 90.501c1.25 187.239 185.97 317.933 362.95 256.812v0" stroke="url(#paint11_linear_1_11147)"/><path d="M172.16 19.069l.533 38.024c3.862 275.299 301.614 445.548 540.828 309.234l34.378-19.59c224.846-128.126 504.481 33.125 506.211 291.908l.61 90.501c1.25 187.239 185.97 317.934 362.96 256.812v0" stroke="url(#paint12_linear_1_11147)"/><path d="M159.538 40.93l.534 38.023c3.862 275.3 301.614 445.549 540.828 309.235l34.378-19.591c224.845-128.126 504.482 33.125 506.212 291.908l.61 90.501c1.25 187.239 185.97 317.934 362.95 256.814v0" stroke="url(#paint13_linear_1_11147)"/><path d="M146.917 62.788l.534 38.024c3.861 275.3 301.614 445.549 540.828 309.235l34.378-19.591c224.845-128.126 504.483 33.125 506.213 291.908l.61 90.501c1.25 187.24 185.97 317.935 362.95 256.815v0" stroke="url(#paint14_linear_1_11147)"/><path d="M134.595 84.13l.533 38.024c3.862 275.3 301.615 445.549 540.829 309.235l34.378-19.591c224.845-128.126 504.475 33.125 506.215 291.908l.6 90.501c1.26 187.24 185.97 317.933 362.96 256.813v0" stroke="url(#paint15_linear_1_11147)"/><path d="M122.275 105.473l.533 38.024c3.862 275.299 301.614 445.548 540.828 309.234l34.379-19.59c224.845-128.126 504.475 33.125 506.215 291.908l.6 90.5c1.26 187.241 185.97 317.941 362.96 256.811v0" stroke="url(#paint16_linear_1_11147)"/><path d="M109.952 126.813l.534 38.024c3.862 275.299 301.614 445.548 540.828 309.234l34.378-19.59c224.845-128.126 504.478 33.125 506.208 291.908l.61 90.5c1.26 187.241 185.97 317.941 362.96 256.811v0" stroke="url(#paint17_linear_1_11147)"/><path d="M97.63 148.155l.534 38.024c3.861 275.299 301.614 445.548 540.828 309.234l34.378-19.59c224.845-128.126 504.48 33.125 506.21 291.908l.61 90.5c1.25 187.239 185.97 317.939 362.96 256.809v0" stroke="url(#paint18_linear_1_11147)"/><path d="M85.31 169.497l.533 38.024c3.862 275.3 301.615 445.548 540.828 309.234l34.379-19.59c224.845-128.126 504.48 33.125 506.21 291.908l.61 90.501c1.25 187.236 185.97 317.936 362.96 256.816v0" stroke="url(#paint19_linear_1_11147)"/><path d="M72.988 190.839l.533 38.024c3.862 275.299 301.614 445.548 540.828 309.234l34.379-19.59c224.845-128.126 504.482 33.125 506.212 291.908l.61 90.501c1.25 187.244 185.97 317.934 362.95 256.814v0" stroke="url(#paint20_linear_1_11147)"/><path d="M60.665 212.179l.534 38.024c3.862 275.299 301.614 445.548 540.828 309.234l34.378-19.59c224.845-128.126 504.475 33.125 506.215 291.908l.6 90.501c1.26 187.244 185.98 317.934 362.96 256.814v0" stroke="url(#paint21_linear_1_11147)"/><path d="M48.345 233.521l.533 38.024c3.862 275.3 301.615 445.549 540.829 309.235l34.378-19.59C848.93 433.063 1128.56 594.315 1130.3 853.098l.6 90.5c1.26 187.242 185.97 317.942 362.96 256.812v0" stroke="url(#paint22_linear_1_11147)"/><path d="M36.023 254.863l.533 38.024c3.862 275.3 301.614 445.549 540.828 309.235l34.379-19.591c224.845-128.126 504.477 33.125 506.207 291.908l.61 90.501c1.26 187.24 185.97 317.94 362.96 256.81v0" stroke="url(#paint23_linear_1_11147)"/><path d="M23.7 276.206l.534 38.023c3.862 275.3 301.614 445.549 540.828 309.235l34.378-19.59c224.846-128.126 504.48 33.125 506.21 291.908l.61 90.5c1.25 187.238 185.97 317.938 362.96 256.808v0" stroke="url(#paint24_linear_1_11147)"/><path d="M11.38 297.546l.534 38.024c3.861 275.299 301.614 445.548 540.828 309.234l34.378-19.59c224.845-128.126 504.48 33.125 506.21 291.908l.61 90.498c1.25 187.24 185.97 317.94 362.96 256.82v0" stroke="url(#paint25_linear_1_11147)"/><path d="M-.942 318.888l.533 38.024c3.862 275.3 301.615 445.549 540.828 309.235l34.379-19.591c224.845-128.126 504.482 33.125 506.212 291.908l.61 90.496c1.25 187.24 185.97 317.94 362.95 256.82v0" stroke="url(#paint26_linear_1_11147)"/><path d="M-13.264 340.23l.533 38.024c3.862 275.299 301.614 445.548 540.828 309.234l34.379-19.59c224.845-128.126 504.474 33.125 506.214 291.908l.6 90.504c1.26 187.24 185.98 317.93 362.96 256.81v0" stroke="url(#paint27_linear_1_11147)"/><path d="M-25.585 361.572l.534 38.024c3.861 275.3 301.614 445.548 540.828 309.234l34.378-19.59C775 561.114 1054.63 722.365 1056.37 981.148l.6 90.502c1.26 187.24 185.98 317.94 362.96 256.81v0" stroke="url(#paint28_linear_1_11147)"/></g><g opacity=".12" filter="url(#filter2_f_1_11147)"><ellipse cx="1266.87" cy="762.3" rx="254.1" ry="929.28" fill="#D7DAE2"/></g><g style="mix-blend-mode:color-dodge" opacity=".74" filter="url(#filter3_f_1_11147)"><ellipse cx="143.385" cy="1452" rx="254.1" ry="929.28" fill="#E4E7F1"/></g></g><defs><linearGradient id="paint0_linear_1_11147" x1="1326.59" y1="-245.176" x2="795.592" y2="674.545" gradientUnits="userSpaceOnUse"><stop stop-color="#142251"/><stop offset="1" stop-color="#142251" stop-opacity="0"/></linearGradient><linearGradient id="paint1_linear_1_11147" x1="1313.97" y1="-223.317" x2="782.971" y2="696.404" gradientUnits="userSpaceOnUse"><stop stop-color="#142251"/><stop offset="1" stop-color="#142251" stop-opacity="0"/></linearGradient><linearGradient id="paint2_linear_1_11147" x1="1301.36" y1="-201.456" x2="770.354" y2="718.265" gradientUnits="userSpaceOnUse"><stop stop-color="#142251"/><stop offset="1" stop-color="#142251" stop-opacity="0"/></linearGradient><linearGradient id="paint3_linear_1_11147" x1="1288.73" y1="-179.599" x2="757.731" y2="740.122" gradientUnits="userSpaceOnUse"><stop stop-color="#142251"/><stop offset="1" stop-color="#142251" stop-opacity="0"/></linearGradient><linearGradient id="paint4_linear_1_11147" x1="1276.11" y1="-157.739" x2="745.112" y2="761.982" gradientUnits="userSpaceOnUse"><stop stop-color="#142251"/><stop offset="1" stop-color="#142251" stop-opacity="0"/></linearGradient><linearGradient id="paint5_linear_1_11147" x1="1263.49" y1="-135.879" x2="732.489" y2="783.841" gradientUnits="userSpaceOnUse"><stop stop-color="#142251"/><stop offset="1" stop-color="#142251" stop-opacity="0"/></linearGradient><linearGradient id="paint6_linear_1_11147" x1="1250.87" y1="-114.021" x2="719.872" y2="805.7" gradientUnits="userSpaceOnUse"><stop stop-color="#142251"/><stop offset="1" stop-color="#142251" stop-opacity="0"/></linearGradient><linearGradient id="paint7_linear_1_11147" x1="1238.25" y1="-92.162" x2="707.251" y2="827.559" gradientUnits="userSpaceOnUse"><stop stop-color="#142251"/><stop offset="1" stop-color="#142251" stop-opacity="0"/></linearGradient><linearGradient id="paint8_linear_1_11147" x1="1225.63" y1="-70.303" x2="694.63" y2="849.418" gradientUnits="userSpaceOnUse"><stop stop-color="#142251"/><stop offset="1" stop-color="#142251" stop-opacity="0"/></linearGradient><linearGradient id="paint9_linear_1_11147" x1="1213.01" y1="-48.444" x2="682.01" y2="871.277" gradientUnits="userSpaceOnUse"><stop stop-color="#142251"/><stop offset="1" stop-color="#142251" stop-opacity="0"/></linearGradient><linearGradient id="paint10_linear_1_11147" x1="1200.39" y1="-26.585" x2="669.389" y2="893.135" gradientUnits="userSpaceOnUse"><stop stop-color="#142251"/><stop offset="1" stop-color="#142251" stop-opacity="0"/></linearGradient><linearGradient id="paint11_linear_1_11147" x1="1187.77" y1="-4.726" x2="656.77" y2="914.994" gradientUnits="userSpaceOnUse"><stop stop-color="#142251"/><stop offset="1" stop-color="#142251" stop-opacity="0"/></linearGradient><linearGradient id="paint12_linear_1_11147" x1="1175.15" y1="17.133" x2="644.151" y2="936.853" gradientUnits="userSpaceOnUse"><stop stop-color="#142251"/><stop offset="1" stop-color="#142251" stop-opacity="0"/></linearGradient><linearGradient id="paint13_linear_1_11147" x1="1162.53" y1="38.993" x2="631.53" y2="958.714" gradientUnits="userSpaceOnUse"><stop stop-color="#142251"/><stop offset="1" stop-color="#142251" stop-opacity="0"/></linearGradient><linearGradient id="paint14_linear_1_11147" x1="1149.91" y1="60.852" x2="618.909" y2="980.573" gradientUnits="userSpaceOnUse"><stop stop-color="#142251"/><stop offset="1" stop-color="#142251" stop-opacity="0"/></linearGradient><linearGradient id="paint15_linear_1_11147" x1="1137.59" y1="82.194" x2="606.587" y2="1001.91" gradientUnits="userSpaceOnUse"><stop stop-color="#142251"/><stop offset="1" stop-color="#142251" stop-opacity="0"/></linearGradient><linearGradient id="paint16_linear_1_11147" x1="1125.27" y1="103.536" x2="594.266" y2="1023.26" gradientUnits="userSpaceOnUse"><stop stop-color="#142251"/><stop offset="1" stop-color="#142251" stop-opacity="0"/></linearGradient><linearGradient id="paint17_linear_1_11147" x1="1112.95" y1="124.876" x2="581.944" y2="1044.6" gradientUnits="userSpaceOnUse"><stop stop-color="#142251"/><stop offset="1" stop-color="#142251" stop-opacity="0"/></linearGradient><linearGradient id="paint18_linear_1_11147" x1="1100.62" y1="146.219" x2="569.622" y2="1065.94" gradientUnits="userSpaceOnUse"><stop stop-color="#142251"/><stop offset="1" stop-color="#142251" stop-opacity="0"/></linearGradient><linearGradient id="paint19_linear_1_11147" x1="1088.3" y1="167.561" x2="557.301" y2="1087.28" gradientUnits="userSpaceOnUse"><stop stop-color="#142251"/><stop offset="1" stop-color="#142251" stop-opacity="0"/></linearGradient><linearGradient id="paint20_linear_1_11147" x1="1075.98" y1="188.903" x2="544.979" y2="1108.62" gradientUnits="userSpaceOnUse"><stop stop-color="#142251"/><stop offset="1" stop-color="#142251" stop-opacity="0"/></linearGradient><linearGradient id="paint21_linear_1_11147" x1="1063.66" y1="210.243" x2="532.657" y2="1129.96" gradientUnits="userSpaceOnUse"><stop stop-color="#142251"/><stop offset="1" stop-color="#142251" stop-opacity="0"/></linearGradient><linearGradient id="paint22_linear_1_11147" x1="1051.34" y1="231.585" x2="520.337" y2="1151.31" gradientUnits="userSpaceOnUse"><stop stop-color="#142251"/><stop offset="1" stop-color="#142251" stop-opacity="0"/></linearGradient><linearGradient id="paint23_linear_1_11147" x1="1039.02" y1="252.927" x2="508.014" y2="1172.65" gradientUnits="userSpaceOnUse"><stop stop-color="#142251"/><stop offset="1" stop-color="#142251" stop-opacity="0"/></linearGradient><linearGradient id="paint24_linear_1_11147" x1="1026.69" y1="274.269" x2="495.692" y2="1193.99" gradientUnits="userSpaceOnUse"><stop stop-color="#142251"/><stop offset="1" stop-color="#142251" stop-opacity="0"/></linearGradient><linearGradient id="paint25_linear_1_11147" x1="1014.37" y1="295.61" x2="483.372" y2="1215.33" gradientUnits="userSpaceOnUse"><stop stop-color="#142251"/><stop offset="1" stop-color="#142251" stop-opacity="0"/></linearGradient><linearGradient id="paint26_linear_1_11147" x1="1002.05" y1="316.952" x2="471.049" y2="1236.67" gradientUnits="userSpaceOnUse"><stop stop-color="#142251"/><stop offset="1" stop-color="#142251" stop-opacity="0"/></linearGradient><linearGradient id="paint27_linear_1_11147" x1="989.728" y1="338.294" x2="458.727" y2="1258.01" gradientUnits="userSpaceOnUse"><stop stop-color="#142251"/><stop offset="1" stop-color="#142251" stop-opacity="0"/></linearGradient><linearGradient id="paint28_linear_1_11147" x1="977.408" y1="359.636" x2="446.407" y2="1279.36" gradientUnits="userSpaceOnUse"><stop stop-color="#142251"/><stop offset="1" stop-color="#142251" stop-opacity="0"/></linearGradient><filter id="filter0_i_1_11147" x="0" y="0" width="1452" height="1452" filterUnits="userSpaceOnUse" color-interpolation-filters="sRGB"><feFlood flood-opacity="0" result="BackgroundImageFix"/><feBlend in="SourceGraphic" in2="BackgroundImageFix" result="shape"/><feColorMatrix in="SourceAlpha" values="0 0 0 0 0 0 0 0 0 0 0 0 0 0 0 0 0 0 127 0" result="hardAlpha"/><feOffset/><feGaussianBlur stdDeviation="37"/><feComposite in2="hardAlpha" operator="arithmetic" k2="-1" k3="1"/><feColorMatrix values="0 0 0 0 1 0 0 0 0 1 0 0 0 0 1 0 0 0 0.24 0"/><feBlend in2="shape" result="effect1_innerShadow_1_11147"/></filter><filter id="filter1_f_1_11147" x="-58.801" y="-58.8" width="1569.6" height="1569.6" filterUnits="userSpaceOnUse" color-interpolation-filters="sRGB"><feFlood flood-opacity="0" result="BackgroundImageFix"/><feBlend in="SourceGraphic" in2="BackgroundImageFix" result="shape"/><feGaussianBlur stdDeviation="102" result="effect1_foregroundBlur_1_11147"/></filter><filter id="filter2_f_1_11147" x="808.77" y="-370.98" width="916.2" height="2266.56" filterUnits="userSpaceOnUse" color-interpolation-filters="sRGB"><feFlood flood-opacity="0" result="BackgroundImageFix"/><feBlend in="SourceGraphic" in2="BackgroundImageFix" result="shape"/><feGaussianBlur stdDeviation="102" result="effect1_foregroundBlur_1_11147"/></filter><filter id="filter3_f_1_11147" x="-314.715" y="318.72" width="916.2" height="2266.56" filterUnits="userSpaceOnUse" color-interpolation-filters="sRGB"><feFlood flood-opacity="0" result="BackgroundImageFix"/><feBlend in="SourceGraphic" in2="BackgroundImageFix" result="shape"/><feGaussianBlur stdDeviation="102" result="effect1_foregroundBlur_1_11147"/></filter></defs></svg>