<svg width="330" height="376" fill="none" xmlns="http://www.w3.org/2000/svg"><path d="M.007 93.87l164.274 93.872 164.274-93.871L164.281 0 .007 93.87z" fill="#E4E7F1"/><path d="M.007 281.613V93.871l164.274 93.871v187.741L.007 281.613zm164.274-93.871v187.741l164.274-93.87V93.871l-164.274 93.871z" fill="#E4E7F1"/><path d="M164.281 187.742v187.741l164.274-93.87V93.871l-164.274 93.871z" fill="#E4E7F1"/><path d="M164.281 187.742v187.741l164.274-93.87V93.871l-164.274 93.871z" fill="#E4E7F1"/><path d="M164.281 187.742v187.741l164.274-93.87V93.871l-164.274 93.871z" fill="#E4E7F1"/><g filter="url(#filter0_i_1_9417)" fill="#E4E7F1"><path d="M.007 94l164.5 94 164.5-94-164.5-94L.007 94z"/><path d="M.007 282V94l164.5 94v188L.007 282zm164.5-94v188l164.5-94V94l-164.5 94z"/><path d="M164.507 188v188l164.5-94V94l-164.5 94z"/><path d="M164.507 188v188l164.5-94V94l-164.5 94z"/><path d="M164.507 188v188l164.5-94V94l-164.5 94z"/></g><g filter="url(#filter1_i_1_9417)"><path d="M.007 94l164.5 94 164.5-94-164.5-94L.007 94z" fill="#AFB4C4"/><path d="M.007 94l164.5 94 164.5-94-164.5-94L.007 94z" fill="#fff" fill-opacity=".4"/><path d="M.007 282V94l164.5 94v188L.007 282z" fill="#AFB4C4"/><path d="M.007 282V94l164.5 94v188L.007 282z" fill="#fff" fill-opacity=".4"/></g><g filter="url(#filter2_i_1_9417)"><path d="M.007 94l164.5 94 164.5-94-164.5-94L.007 94z" fill="#F2F3F8"/></g><defs><filter id="filter0_i_1_9417" x=".007" y="0" width="329" height="376" filterUnits="userSpaceOnUse" color-interpolation-filters="sRGB"><feFlood flood-opacity="0" result="BackgroundImageFix"/><feBlend in="SourceGraphic" in2="BackgroundImageFix" result="shape"/><feColorMatrix in="SourceAlpha" values="0 0 0 0 0 0 0 0 0 0 0 0 0 0 0 0 0 0 127 0" result="hardAlpha"/><feOffset/><feGaussianBlur stdDeviation="12"/><feComposite in2="hardAlpha" operator="arithmetic" k2="-1" k3="1"/><feColorMatrix values="0 0 0 0 0.811765 0 0 0 0 0.823529 0 0 0 0 0.862745 0 0 0 1 0"/><feBlend in2="shape" result="effect1_innerShadow_1_9417"/></filter><filter id="filter1_i_1_9417" x=".007" y="0" width="329" height="380" filterUnits="userSpaceOnUse" color-interpolation-filters="sRGB"><feFlood flood-opacity="0" result="BackgroundImageFix"/><feBlend in="SourceGraphic" in2="BackgroundImageFix" result="shape"/><feColorMatrix in="SourceAlpha" values="0 0 0 0 0 0 0 0 0 0 0 0 0 0 0 0 0 0 127 0" result="hardAlpha"/><feOffset dy="4"/><feGaussianBlur stdDeviation="42"/><feComposite in2="hardAlpha" operator="arithmetic" k2="-1" k3="1"/><feColorMatrix values="0 0 0 0 1 0 0 0 0 1 0 0 0 0 1 0 0 0 1 0"/><feBlend in2="shape" result="effect1_innerShadow_1_9417"/></filter><filter id="filter2_i_1_9417" x=".007" y="0" width="329" height="380" filterUnits="userSpaceOnUse" color-interpolation-filters="sRGB"><feFlood flood-opacity="0" result="BackgroundImageFix"/><feBlend in="SourceGraphic" in2="BackgroundImageFix" result="shape"/><feColorMatrix in="SourceAlpha" values="0 0 0 0 0 0 0 0 0 0 0 0 0 0 0 0 0 0 127 0" result="hardAlpha"/><feOffset dy="4"/><feGaussianBlur stdDeviation="11"/><feComposite in2="hardAlpha" operator="arithmetic" k2="-1" k3="1"/><feColorMatrix values="0 0 0 0 1 0 0 0 0 1 0 0 0 0 1 0 0 0 0.25 0"/><feBlend in2="shape" result="effect1_innerShadow_1_9417"/></filter></defs></svg>