<svg width="512pt" height="512pt" viewBox="0 0 512 512" version="1.1" xmlns="http://www.w3.org/2000/svg">
<g id="##91989dff">
<path fill="##91989d" opacity="1.00" d=" M 235.36 37.32 C 248.79 25.39 267.41 19.56 285.25 21.84 C 298.91 23.43 311.96 29.61 321.87 39.15 C 333.75 50.50 341.01 66.58 341.51 83.03 C 342.02 95.85 338.51 108.78 331.60 119.60 C 323.42 132.55 310.44 142.41 295.72 146.67 C 277.90 152.04 257.81 149.04 242.34 138.68 C 230.63 131.17 222.15 119.52 217.06 106.70 C 161.71 106.62 106.36 106.68 51.00 106.67 C 45.37 106.57 39.42 107.30 34.14 104.86 C 26.40 101.60 21.10 93.41 21.35 85.00 C 21.36 76.40 27.17 68.19 35.28 65.32 C 39.98 63.54 45.09 64.05 50.01 63.99 C 105.69 64.01 161.38 64.00 217.06 64.00 C 221.15 53.92 227.01 44.43 235.36 37.32 M 273.32 64.37 C 264.32 65.99 256.94 73.97 256.11 83.09 C 254.94 93.02 261.66 103.14 271.34 105.76 C 281.51 109.01 293.43 103.18 297.13 93.18 C 300.25 85.57 298.36 76.25 292.56 70.43 C 287.68 65.38 280.21 63.05 273.32 64.37 Z" />
<path fill="##91989d" opacity="1.00" d=" M 401.32 64.40 C 403.51 63.99 405.74 63.98 407.97 63.97 C 428.34 64.04 448.71 63.97 469.09 64.00 C 476.04 63.91 482.91 67.39 486.83 73.16 C 491.32 79.49 491.91 88.35 488.21 95.20 C 484.62 102.21 476.93 106.80 469.05 106.65 C 448.35 106.70 427.64 106.64 406.94 106.68 C 402.59 106.75 398.12 105.95 394.38 103.62 C 387.34 99.53 383.18 91.15 384.11 83.06 C 384.98 73.97 392.31 65.97 401.32 64.40 Z" />
<path fill="##91989d" opacity="1.00" d=" M 149.47 208.46 C 162.85 196.36 181.50 190.26 199.45 192.44 C 212.72 193.92 225.48 199.64 235.31 208.69 C 247.75 219.93 255.46 236.23 256.14 253.00 C 256.87 267.25 252.60 281.68 244.25 293.25 C 234.79 306.57 220.03 316.00 203.94 318.87 C 186.58 322.24 167.96 317.79 153.88 307.14 C 143.68 299.71 136.36 288.99 131.75 277.35 C 105.17 277.31 78.58 277.34 52.00 277.34 C 48.00 277.30 43.99 277.52 40.00 277.12 C 32.47 276.32 25.74 271.02 22.91 264.04 C 19.85 256.69 21.34 247.65 26.79 241.80 C 30.80 237.18 36.88 234.60 42.97 234.68 C 72.57 234.63 102.16 234.70 131.75 234.65 C 135.73 224.80 141.41 215.51 149.47 208.46 M 186.37 235.43 C 176.62 237.90 169.57 248.00 170.81 258.02 C 171.57 269.37 182.71 278.62 194.02 277.18 C 205.75 276.43 215.05 264.58 213.09 253.00 C 211.73 240.68 198.23 231.83 186.37 235.43 Z" />
<path fill="##91989d" opacity="1.00" d=" M 314.37 235.43 C 317.18 234.67 320.11 234.65 323.00 234.64 C 372.01 234.74 421.03 234.58 470.03 234.72 C 480.82 234.77 490.42 244.29 490.62 255.06 C 491.20 264.02 485.31 272.81 476.94 275.91 C 472.51 277.68 467.66 277.31 463.00 277.35 C 415.32 277.29 367.65 277.39 319.97 277.30 C 309.32 277.54 299.54 268.65 298.78 258.03 C 297.60 248.01 304.60 237.90 314.37 235.43 Z" />
<path fill="##91989d" opacity="1.00" d=" M 204.39 370.50 C 217.75 363.10 233.83 360.89 248.72 364.21 C 264.63 367.61 279.00 377.47 288.01 390.98 C 297.06 404.32 300.74 421.18 298.03 437.07 C 295.91 450.23 289.49 462.64 280.02 472.02 C 268.94 483.12 253.64 489.89 237.96 490.55 C 222.18 491.39 206.22 486.00 194.10 475.89 C 185.20 468.63 178.61 458.84 174.62 448.12 C 130.72 447.83 86.81 448.10 42.92 447.99 C 36.45 448.05 30.04 445.09 26.03 440.00 C 20.77 433.59 19.83 424.02 23.81 416.72 C 27.38 409.72 35.10 405.19 42.95 405.34 C 85.32 405.32 127.69 405.33 170.05 405.34 C 171.59 405.30 173.13 405.20 174.66 405.10 C 179.97 390.47 190.62 377.82 204.39 370.50 M 228.35 406.29 C 219.50 408.88 213.02 417.76 213.36 427.00 C 213.39 435.60 219.18 443.78 227.29 446.64 C 235.12 449.69 244.57 447.38 250.22 441.21 C 255.83 435.32 257.58 426.11 254.38 418.62 C 250.56 408.61 238.52 402.92 228.35 406.29 Z" />
<path fill="##91989d" opacity="1.00" d=" M 359.41 405.61 C 373.58 404.95 387.81 405.52 402.00 405.33 C 424.35 405.34 446.70 405.31 469.05 405.34 C 474.49 405.30 479.94 407.34 483.90 411.10 C 489.25 416.04 491.77 423.85 490.20 430.98 C 488.75 438.31 483.14 444.63 476.02 446.90 C 472.47 448.10 468.68 448.03 464.99 448.02 C 430.63 447.93 396.26 448.09 361.90 447.95 C 351.27 447.83 341.82 438.63 341.39 428.02 C 340.45 417.36 348.80 406.98 359.41 405.61 Z" />
</g>
</svg>
