<svg width="512pt" height="512pt" viewBox="0 0 512 512" version="1.1" xmlns="http://www.w3.org/2000/svg">
<g id="##91989dff">
<path fill="##91989d" opacity="1.00" d=" M 383.76 0.00 L 386.36 0.00 C 391.14 0.65 395.06 4.46 395.80 9.23 C 402.51 40.51 409.21 71.80 415.91 103.08 C 417.56 108.91 413.96 115.84 407.74 116.80 C 377.22 123.53 346.70 130.28 316.08 136.53 C 312.41 137.27 308.28 138.23 304.86 136.14 C 299.80 133.48 297.82 126.50 300.77 121.60 C 302.50 118.24 306.16 116.58 309.73 115.96 C 334.18 110.76 358.63 105.56 383.07 100.27 C 365.28 85.79 345.03 74.32 323.38 66.71 C 283.97 52.66 240.15 51.41 199.98 63.07 C 163.50 73.49 130.28 94.70 105.21 123.16 C 80.83 150.61 64.16 184.87 57.84 221.06 C 51.08 258.93 55.71 298.71 70.80 334.08 C 71.97 336.87 73.08 339.93 72.26 342.97 C 71.41 347.37 67.51 350.81 63.06 351.16 C 58.51 351.94 53.93 349.08 52.20 344.89 C 39.70 316.38 33.23 285.22 33.45 254.08 C 33.67 218.23 42.84 182.49 59.91 150.98 C 83.76 106.71 122.92 70.76 169.35 51.34 C 207.84 35.01 250.98 29.97 292.22 36.78 C 327.01 42.38 360.32 56.56 388.61 77.55 C 384.06 56.03 379.34 34.55 374.85 13.03 C 373.28 7.04 377.85 1.01 383.76 0.00 Z" />
<path fill="##91989d" opacity="1.00" d=" M 443.85 162.84 C 449.02 158.85 457.39 161.13 459.79 167.22 C 478.13 208.90 483.30 256.30 474.00 300.91 C 466.28 338.63 448.38 374.15 422.85 402.95 C 399.21 429.77 369.10 450.92 335.69 463.71 C 291.94 480.51 242.84 482.93 197.62 470.66 C 170.88 463.49 145.63 451.08 123.40 434.61 C 127.94 456.11 132.67 477.57 137.14 499.09 C 138.52 504.86 134.33 511.00 128.52 512.00 L 125.69 512.00 C 120.89 511.54 116.94 507.79 116.23 503.02 C 109.76 473.02 103.41 443.00 96.92 413.00 C 96.19 409.30 94.85 405.28 96.48 401.62 C 97.88 398.09 101.31 395.81 104.95 395.13 C 134.25 388.86 163.56 382.62 192.85 376.29 C 196.20 375.63 199.53 374.56 202.98 374.67 C 208.55 375.07 213.09 380.44 212.57 386.00 C 212.34 390.83 208.45 394.94 203.74 395.78 C 178.81 401.15 153.87 406.51 128.93 411.82 C 143.91 424.00 160.57 434.13 178.40 441.56 C 211.19 455.35 247.70 459.97 282.93 455.23 C 317.78 450.68 351.31 436.62 379.01 415.00 C 408.18 392.37 431.10 361.70 444.18 327.15 C 462.64 279.22 461.23 224.23 440.84 177.14 C 438.31 172.41 439.26 165.94 443.85 162.84 Z" />
<path fill="##91989d" opacity="1.00" d=" M 310.95 190.67 C 316.91 190.66 322.87 190.66 328.83 190.67 C 328.82 206.90 328.85 223.13 328.80 239.35 C 337.36 222.14 362.10 217.71 377.15 228.82 C 381.91 232.31 385.45 237.39 387.19 243.03 C 389.55 250.12 389.16 257.68 389.18 265.04 C 389.18 279.69 389.18 294.34 389.18 308.99 C 383.21 309.00 377.25 309.01 371.29 308.99 C 371.27 293.00 371.34 277.00 371.26 261.01 C 371.15 253.79 369.26 245.39 362.56 241.45 C 352.70 236.09 338.99 239.23 332.63 248.56 C 329.76 252.79 328.85 258.01 328.84 263.04 C 328.81 278.35 328.83 293.67 328.83 308.99 C 322.87 309.00 316.91 309.00 310.95 308.99 C 310.94 269.55 310.93 230.11 310.95 190.67 Z" />
<path fill="##91989d" opacity="1.00" d=" M 145.60 196.40 C 155.50 193.86 166.48 193.71 175.87 198.17 C 182.79 201.46 189.00 206.85 192.05 214.01 C 196.20 223.86 195.44 235.69 189.79 244.81 C 184.81 252.91 178.11 259.75 171.54 266.55 C 163.57 274.68 155.58 282.80 147.61 290.93 C 164.48 290.94 181.34 290.92 198.21 290.94 C 198.22 296.93 198.22 302.93 198.21 308.93 C 172.77 308.94 147.33 308.94 121.89 308.93 C 121.88 303.63 121.89 298.33 121.89 293.03 C 135.61 279.05 149.72 265.43 163.19 251.19 C 168.42 245.22 174.65 239.29 176.30 231.20 C 177.49 225.88 175.77 220.00 171.65 216.37 C 165.97 210.95 157.09 210.49 150.02 213.13 C 143.93 215.41 139.32 220.31 135.76 225.60 C 130.71 222.68 125.66 219.76 120.62 216.83 C 126.74 207.88 134.78 199.28 145.60 196.40 Z" />
<path fill="##91989d" opacity="1.00" d=" M 253.61 197.35 C 260.47 197.32 267.33 197.34 274.20 197.34 C 260.77 219.51 247.26 241.63 233.82 263.79 C 242.70 263.81 251.59 263.80 260.47 263.80 C 260.49 256.98 260.47 250.16 260.48 243.34 C 266.44 243.33 272.40 243.32 278.37 243.35 C 278.36 250.16 278.37 256.98 278.36 263.79 C 282.83 263.80 287.30 263.80 291.77 263.80 C 291.78 269.49 291.78 275.18 291.78 280.86 C 287.30 280.87 282.83 280.86 278.36 280.88 C 278.36 290.25 278.37 299.62 278.36 308.99 C 272.40 309.00 266.43 309.01 260.47 308.99 C 260.48 299.61 260.48 290.24 260.47 280.87 C 244.51 280.86 228.54 280.87 212.58 280.87 C 212.60 275.89 212.53 270.91 212.57 265.93 C 212.52 264.70 212.86 263.57 213.59 262.57 C 226.96 240.85 240.28 219.09 253.61 197.35 Z" />
</g>
</svg>
