<svg width="512pt" height="512pt" viewBox="0 0 512 512" version="1.1" xmlns="http://www.w3.org/2000/svg">
<g id="##91989dff">
<path fill="##91989d" opacity="1.00" d=" M 195.60 0.00 L 200.40 0.00 C 220.04 0.73 239.01 10.32 251.39 25.55 C 261.60 37.91 267.50 53.88 267.18 69.96 C 266.81 87.11 259.52 103.93 247.54 116.16 C 247.49 100.14 247.59 84.12 247.49 68.11 C 247.26 51.62 238.35 35.37 224.06 26.94 C 212.19 19.81 197.23 17.59 183.98 21.95 C 163.87 27.41 149.30 47.23 149.14 67.92 C 149.01 83.99 149.16 100.07 149.07 116.15 C 136.35 103.63 128.98 85.92 129.44 68.05 C 129.61 47.74 139.71 28.05 155.48 15.40 C 166.77 6.14 181.05 0.83 195.60 0.00 Z" />
<path fill="##91989d" opacity="1.00" d=" M 172.41 55.37 C 177.81 45.24 189.34 38.40 200.91 39.61 C 213.09 40.73 223.83 50.20 226.84 61.99 C 228.18 67.22 227.80 72.67 227.85 78.02 C 227.85 137.34 227.84 196.67 227.85 255.99 C 234.41 256.00 240.97 256.02 247.54 255.98 C 247.57 226.34 247.44 196.69 247.60 167.06 C 247.76 151.65 261.58 137.85 277.03 137.94 C 292.55 137.79 306.46 151.66 306.56 167.15 C 306.72 190.20 306.57 213.25 306.64 236.30 C 313.19 236.32 319.74 236.32 326.30 236.30 C 326.39 219.64 326.18 202.97 326.40 186.31 C 326.77 170.69 341.21 156.91 356.89 157.65 C 372.08 158.11 385.39 171.89 385.32 187.10 C 385.44 210.06 385.35 233.02 385.37 255.98 C 391.94 256.02 398.51 256.00 405.08 255.99 C 405.17 239.34 404.95 222.69 405.19 206.05 C 405.50 191.62 417.75 178.71 432.08 177.45 C 445.21 176.10 458.13 185.14 462.42 197.43 C 464.51 203.04 464.14 209.14 464.16 215.03 C 464.15 260.68 464.16 306.33 464.16 351.98 C 464.34 368.26 463.78 384.75 459.38 400.53 C 447.78 446.74 412.25 486.04 367.57 502.52 C 351.96 508.64 335.22 511.39 318.51 512.00 L 314.42 512.00 C 292.91 511.60 271.22 508.14 251.38 499.57 C 232.71 491.69 215.96 479.63 201.79 465.21 C 182.68 446.26 168.71 423.07 154.79 400.25 C 137.01 370.57 118.38 341.42 99.52 312.42 C 84.79 289.63 69.73 267.00 56.91 243.06 C 52.52 233.94 47.76 224.35 48.01 213.98 C 48.07 206.69 53.56 200.19 60.49 198.29 C 67.71 196.33 75.27 198.35 82.02 201.05 C 95.33 206.42 106.67 215.41 118.00 224.01 C 136.03 238.70 152.60 255.06 168.77 271.74 C 168.79 204.81 168.78 137.88 168.78 70.96 C 168.74 65.57 169.72 60.10 172.41 55.37 Z" />
</g>
</svg>
