<svg width="218" height="137" fill="none" xmlns="http://www.w3.org/2000/svg"><path d="M217.604 4.946V131.73a4.947 4.947 0 01-4.948 4.946H4.946A4.946 4.946 0 010 131.73V4.946A4.946 4.946 0 014.946 0h207.71a4.947 4.947 0 014.948 4.946z" fill="#989EB1"/><path d="M197.379 129.619V7.337H11.544V129.62H197.38z" fill="#D5ECF1"/><path d="M208 7a2 2 0 012 2v11a2 2 0 11-4 0V9a2 2 0 012-2zm0 18a2 2 0 012 2v1a2 2 0 11-4 0v-1a2 2 0 012-2z" fill="#fff"/><path d="M183.405 129.619h13.974v-.998l-12.75-2.444-1.224 3.442zM178.47 18.701l4.532-11.363h-52.113L129.94 9.4l48.53 9.3zM11.544 93.008v26.447l11.9-24.166-11.9-2.28zm185.835-70.683V7.338h-6.771l-4.957 12.74 11.728 2.247zM85.036 107.092L74.68 129.619h48.268l3.248-14.639-41.161-7.888zm49.555 9.497l-2.976 13.03h43.04l1.732-5.021-41.796-8.009zM32.817 97.084L18.765 129.62h44.652l11.32-24.501-41.92-8.034zm64.32-40.454L11.546 35.966V77.54l69.756 13.368L97.137 56.63zm19.429-42.058l-37.75-7.234h-67.27V21.44l91.078 23.313 13.943-30.182zM91.57 92.877l105.809 20.277V88.12l-29.819-9.309 19.132-32.756 10.687 1.083v-17.08L126.673 16.51 91.57 92.877z" fill="#EFF0F3"/><path d="M25.73 95.727l7.086 1.358 41.92 8.033 6.565-14.21-69.756-13.367v15.467l11.899 2.28 2.287.439z" fill="#fff"/><path d="M23.443 95.288l-11.899-2.28 11.9 2.28zm61.593 11.804l41.161 7.888 1.192-5.37 7.475 5.788-.273 1.191 41.796 8.009.712-2.063 7.53 3.642 12.75 2.445v-10.395L89.344 97.719l-4.308 9.373z" fill="#fff"/><path d="M89.344 97.72l108.035 20.508v-5.074L91.569 92.877l-2.225 4.842zm88.693-77.937l.432-1.082-48.53-9.3-.492 1.071 48.59 9.311zm7.192 1.379l12.15 2.328v-1.165l-11.728-2.247-.422 1.084zM119.848 7.467l-.677-.13H78.816l37.749 7.235 3.283-7.105z" fill="#fff"/><path d="M185.014 21.715l-7.668-.197.692-1.735-48.59-9.312-2.775 6.038 70.706 13.55v-6.57l-12.15-2.328-.215.554zM74.737 105.118L63.42 129.619h11.263l10.355-22.527-10.3-1.974zm48.523-89.264l-6.694-1.282-13.944 30.182 1.802.462-.337 13.093-6.952-1.679-15.834 34.28 7.422 1.422 34.537-76.477zm-3.411-8.387l10.091 1.934.949-2.063h-10.981l-.059.13z" fill="#fff"/><path d="M88.724 92.332l2.847.545 35.103-76.368-3.413-.655-34.537 76.478zm-.001 0l-7.422-1.423-6.565 14.209 10.3 1.974 4.308-9.373-2.813-.534 2.192-4.853z" fill="#fff"/><path d="M86.532 97.185l2.812.534 2.226-4.842-2.846-.545-2.192 4.853zm36.73-81.331l2.73-6.045 3.458.663.491-1.07-10.091-1.934-3.282 7.104 6.694 1.283z" fill="#fff"/><path d="M123.259 15.855l3.413.654 2.775-6.037-3.457-.663-2.731 6.046zm62.392 4.223l4.956-12.74h-7.606L178.469 18.7l7.182 1.377zm-.422 1.084l.421-1.084-7.181-1.377-.432 1.082 7.192 1.379z" fill="#fff"/><path d="M177.347 21.518l7.668.197.215-.553-7.191-1.38-.692 1.736zM25.73 95.727l-2.287-.439-11.899 24.167v10.164h7.22l14.052-32.535-7.086-1.358zm-2.285-.439l2.287.439-2.287-.439zm152.942 29.31l-1.732 5.021h8.75l1.224-3.442-8.242-1.579z" fill="#fff"/><path d="M177.099 122.535l-.712 2.063 8.242 1.579-7.53-3.642zm-50.901-7.555l-3.249 14.639h8.667l2.976-13.03-8.394-1.609zm8.667.418l-7.475-5.788-1.191 5.37 8.394 1.609.272-1.191zm-32.242-70.644L11.545 21.441v14.525L97.136 56.63l5.487-11.876zm1.803.462l-1.802-.462-5.487 11.877 6.952 1.679.337-13.094z" fill="#fff"/><path d="M167.562 78.81l29.819 9.31V47.138l-10.687-1.083-19.132 32.756z" fill="#EFF0F3"/><path d="M95 70.5L83 98 9.5 83.5" stroke="#989EB1" stroke-width="2"/><path d="M105 57.382C104.957 62.52 95.345 76 95.345 76S85.957 62.364 86 57.226c.043-5.138 4.33-9.269 9.577-9.226 5.247.044 9.465 4.244 9.423 9.382z" fill="#142251"/></svg>