<svg width="44pt" height="36pt" viewBox="0 0 44 36" version="1.1" xmlns="http://www.w3.org/2000/svg">
<g id="#a9d8ffff">
<path fill="#a9d8ff" opacity="1.00" d=" M 0.00 0.00 L 44.00 0.00 L 44.00 36.00 L 0.00 36.00 L 0.00 0.00 M 2.77 5.54 C 2.76 14.76 2.76 23.98 2.77 33.20 C 15.59 33.20 28.41 33.20 41.23 33.20 C 41.24 23.98 41.24 14.76 41.23 5.54 C 28.41 5.53 15.59 5.53 2.77 5.54 Z" />
<path fill="#a9d8ff" opacity="1.00" d=" M 5.53 11.07 C 10.10 11.07 14.67 11.07 19.23 11.07 C 19.24 15.69 19.24 20.31 19.23 24.93 C 14.67 24.93 10.10 24.93 5.53 24.93 C 5.53 20.31 5.53 15.69 5.53 11.07 Z" />
<path fill="#a9d8ff" opacity="1.00" d=" M 24.77 11.07 C 29.35 11.06 33.94 11.07 38.53 11.07 C 38.53 11.77 38.53 13.17 38.53 13.86 C 33.94 13.87 29.35 13.87 24.76 13.86 C 24.76 13.16 24.77 11.77 24.77 11.07 Z" />
<path fill="#a9d8ff" opacity="1.00" d=" M 24.77 16.60 C 29.35 16.60 33.94 16.60 38.52 16.60 C 38.52 17.53 38.52 18.47 38.52 19.40 C 33.94 19.40 29.35 19.40 24.77 19.40 C 24.77 18.70 24.77 17.30 24.77 16.60 Z" />
<path fill="#a9d8ff" opacity="1.00" d=" M 24.76 22.14 C 27.51 22.13 30.25 22.13 33.00 22.13 C 33.00 22.83 33.00 24.23 33.00 24.93 C 30.25 24.93 27.51 24.93 24.77 24.93 C 24.77 24.23 24.76 22.84 24.76 22.14 Z" />
</g>
</svg>
