<svg width="512pt" height="512pt" viewBox="0 0 512 512" xmlns="http://www.w3.org/2000/svg"><path fill="#fff" d="M258.2 12.3c18.89-6.38 39.05-7.22 58.82-7.04 25.02-.04 50.04-.27 75.06-.2 2.3-.25 3.5 2.02 3.29 4.05.06 25.62-.06 51.23-.04 76.85.06 2.38-.02 4.77-.38 7.13-19.33.01-38.66-.01-57.99.01-6.25.06-12.69 1.21-17.98 4.72-6.16 4.35-10.54 11.53-10.38 19.21-.08 16.34-.13 32.68-.19 49.01.12 1.55-.07 3.35 1.01 4.63 1.48 1.42 3.7 1.13 5.59 1.24 26.93-.04 53.86-.08 80.79-.1-3.44 28.29-6.93 56.58-10.39 84.86-25.71.08-51.41-.06-77.11.07.03 83.92.01 167.84.01 251.75-19.44.73-38.9.16-58.34.37-17.02-.05-34.04.16-51.05-.05-3.26.32-5.28-2.75-4.88-5.76-.07-82.01.06-164.03.04-246.04-18.36-.02-36.72 0-55.08-.01v-85c17.02-.04 34.04.16 51.05.03 2.36.31 4.46-1.71 4.08-4.11.13-19.97.01-39.94.05-59.91-.1-12.76.46-25.71 4.2-38 3.45-12.03 9.63-23.33 18.17-32.51 11.16-12.09 25.98-20.45 41.65-25.2z"/></svg>