<svg width="35pt" height="39pt" viewBox="0 0 35 39" version="1.1" xmlns="http://www.w3.org/2000/svg">
<g id="#a9d8ffc9">
<path fill="#a9d8ff" opacity="0.79" d=" M 8.04 0.00 L 17.40 0.00 C 20.84 1.03 24.29 2.00 27.86 2.51 C 29.88 2.65 31.44 4.36 31.62 6.35 C 32.08 10.48 31.74 14.66 31.82 18.81 C 32.90 19.75 33.97 20.69 35.00 21.67 L 35.00 24.81 C 33.04 26.72 31.12 28.69 30.12 31.29 C 28.40 35.33 24.46 37.71 20.43 39.00 L 15.07 39.00 C 9.32 37.91 5.04 33.36 3.36 27.89 C 2.21 27.00 1.08 26.09 0.00 25.13 L 0.00 19.10 L 0.01 21.57 C 1.06 20.66 2.12 19.76 3.18 18.88 C 3.19 17.05 3.18 15.23 3.16 13.41 C 2.10 12.89 1.05 12.35 0.00 11.80 L 0.00 11.26 C 0.21 11.02 0.64 10.55 0.85 10.31 C 1.70 8.08 2.48 5.79 3.88 3.84 C 5.62 1.89 8.24 1.14 10.50 0.01 L 8.04 0.00 M 3.91 6.11 C 6.33 6.05 8.67 6.63 11.04 6.97 C 12.64 6.52 14.04 5.55 15.54 4.86 C 15.10 7.73 12.06 9.20 9.41 8.43 C 6.95 7.82 4.34 7.70 2.55 9.81 C 7.10 9.96 10.87 13.76 15.53 12.81 C 19.87 12.15 25.44 9.38 24.61 4.14 C 18.09 1.04 9.08 0.02 3.91 6.11 M 26.08 3.58 C 26.06 6.68 25.88 9.80 26.26 12.89 C 26.66 14.78 28.49 15.77 29.87 16.90 C 30.06 13.09 29.98 9.28 30.00 5.47 C 28.74 4.75 27.42 4.13 26.08 3.58 M 5.00 11.86 C 5.68 18.89 2.99 27.15 8.01 33.07 C 12.97 39.18 23.68 38.64 27.89 31.94 C 30.81 28.05 29.84 23.02 30.00 18.51 C 26.40 17.46 24.07 14.27 24.41 10.49 C 19.12 15.39 10.99 15.61 5.00 11.86 Z" />
<path fill="#a9d8ff" opacity="0.79" d=" M 6.90 22.83 C 8.44 20.61 11.44 20.35 12.69 23.06 C 10.76 23.02 8.82 22.96 6.90 22.83 Z" />
<path fill="#a9d8ff" opacity="0.79" d=" M 22.33 23.04 C 23.59 20.33 26.57 20.60 28.07 22.88 C 26.16 22.98 24.24 23.01 22.33 23.04 Z" />
<path fill="#a9d8ff" opacity="0.79" d=" M 8.47 28.56 C 11.20 30.01 13.76 32.27 17.04 32.13 C 20.67 32.58 23.58 30.21 26.54 28.56 C 26.42 29.14 26.17 30.31 26.05 30.90 C 23.29 32.53 20.28 34.18 16.96 33.94 C 14.02 33.83 11.41 32.33 8.94 30.89 C 8.82 30.30 8.59 29.14 8.47 28.56 Z" />
</g>
</svg>
