<svg width="70pt" height="70pt" viewBox="0 0 70 70" xmlns="http://www.w3.org/2000/svg"><g fill="#f6f6f6"><path d="M0 0h70v70H0V0m25.66 18.86c-4.97.09-10.65.62-14.03 4.75-3.55 3.89-4.09 9.48-2.9 14.42-2.19.28-4.99-.5-6.41 1.69 2.36.3 4.73.43 7.11.53C14.29 51.1 26.31 54.94 35.1 61.78c9.22-6.42 20.17-11.44 25.91-21.64 2.2 0 4.4-.05 6.6-.22-1.08-2.36-3.89-1.63-5.97-1.97.81-4.76.71-10.13-2.67-13.93-3.92-4.75-10.67-5.81-16.37-4.21-.12-2.52-.29-5.04-.7-7.52-2.33 2.64-1.93 6.33-3.16 9.43-1.04 1.5-2.35 2.8-3.55 4.18-1.6-1.77-3.54-3.27-4.88-5.25-1.33-4.95-.98-10.32-3.26-15.01-1.57 4.23-1.16 8.81-1.39 13.22z"/><path d="M12.92 24.91c3.01-3.64 8.01-4.12 12.41-3.87-.32 5.67-.69 11.33-1.01 17-4.61.11-9.23.21-13.84-.07-.53-4.43-.9-9.57 2.44-13.06zm29.84-3.21c4.72-1.06 10.3-1.12 13.95 2.57 3.92 3.44 3.64 9.07 3.05 13.79-3.82.16-7.65-.15-11.45.18-1.9 1.3-3.1 3.33-4.55 5.08-.38-7.21-.68-14.42-1-21.62z"/><path d="M27.54 21.31c2.01 3.14 1.78 7.01 2.52 10.53 1.39 7.51 1.9 15.2 4 22.56.67-1.47 1.34-2.97 1.67-4.56 1.82-8.72 2.97-17.57 4.99-26.24.85 7.97.54 16.04 1.73 23.97 2.26-2.24 4.19-4.77 6.03-7.35 3.5-.1 7-.13 10.49-.08-4.91 9.69-15.77 13.16-23.82 19.52-8.06-6.31-18.81-9.86-23.81-19.46 4.92-.2 9.84.03 14.75-.12.56-6.25.47-12.56 1.45-18.77z"/><path d="M30.86 23.78c1.5 1.63 2.85 3.38 4.17 5.16 1.06-1.16 2.11-2.33 3.2-3.45-1.13 6.94-2.46 13.85-3.8 20.75-1.48-7.43-2.69-14.93-3.57-22.46z"/></g><path fill="#e01111" d="M25.66 18.86c.23-4.41-.18-8.99 1.39-13.22 2.28 4.69 1.93 10.06 3.26 15.01 1.34 1.98 3.28 3.48 4.88 5.25 1.2-1.38 2.51-2.68 3.55-4.18 1.23-3.1.83-6.79 3.16-9.43.41 2.48.58 5 .7 7.52 5.7-1.6 12.45-.54 16.37 4.21 3.38 3.8 3.48 9.17 2.67 13.93 2.08.34 4.89-.39 5.97 1.97-2.2.17-4.4.22-6.6.22-5.74 10.2-16.69 15.22-25.91 21.64-8.79-6.84-20.81-10.68-25.67-21.53-2.38-.1-4.75-.23-7.11-.53 1.42-2.19 4.22-1.41 6.41-1.69-1.19-4.94-.65-10.53 2.9-14.42 3.38-4.13 9.06-4.66 14.03-4.75m-12.74 6.05c-3.34 3.49-2.97 8.63-2.44 13.06 4.61.28 9.23.18 13.84.07.32-5.67.69-11.33 1.01-17-4.4-.25-9.4.23-12.41 3.87m29.84-3.21c.32 7.2.62 14.41 1 21.62 1.45-1.75 2.65-3.78 4.55-5.08 3.8-.33 7.63-.02 11.45-.18.59-4.72.87-10.35-3.05-13.79-3.65-3.69-9.23-3.63-13.95-2.57m-15.22-.39c-.98 6.21-.89 12.52-1.45 18.77-4.91.15-9.83-.08-14.75.12 5 9.6 15.75 13.15 23.81 19.46 8.05-6.36 18.91-9.83 23.82-19.52-3.49-.05-6.99-.02-10.49.08-1.84 2.58-3.77 5.11-6.03 7.35-1.19-7.93-.88-16-1.73-23.97-2.02 8.67-3.17 17.52-4.99 26.24-.33 1.59-1 3.09-1.67 4.56-2.1-7.36-2.61-15.05-4-22.56-.74-3.52-.51-7.39-2.52-10.53m3.32 2.47c.88 7.53 2.09 15.03 3.57 22.46 1.34-6.9 2.67-13.81 3.8-20.75-1.09 1.12-2.14 2.29-3.2 3.45-1.32-1.78-2.67-3.53-4.17-5.16z"/></svg>