<svg width="512pt" height="512pt" viewBox="0 0 512 512" version="1.1" xmlns="http://www.w3.org/2000/svg">
<g id="##91989dff">
<path fill="##91989d" opacity="1.00" d=" M 316.63 86.64 C 330.24 72.88 348.78 64.16 368.05 62.45 C 378.07 61.52 388.07 63.00 398.04 63.89 C 409.70 65.13 421.40 65.94 433.06 67.19 C 439.11 67.63 444.36 72.82 444.76 78.90 C 445.82 90.26 446.94 101.63 447.94 113.00 C 448.67 122.01 450.15 131.01 449.71 140.08 C 448.95 160.47 440.17 180.34 425.81 194.82 C 405.01 215.67 384.17 236.49 363.31 257.29 C 362.16 258.16 362.00 259.60 362.01 260.95 C 361.98 288.65 362.10 316.36 361.96 344.06 C 362.04 349.60 357.76 353.55 354.08 357.08 C 340.72 370.39 327.40 383.73 314.07 397.08 C 311.65 399.59 308.51 401.60 304.96 401.86 C 299.99 402.58 295.12 399.59 292.75 395.32 C 283.21 378.81 273.68 362.30 264.17 345.78 C 263.46 344.52 262.50 343.22 260.90 343.27 C 250.94 341.75 240.98 340.14 231.02 338.62 C 209.09 335.02 189.39 320.31 179.66 300.33 C 176.00 293.02 173.77 285.05 172.72 276.96 C 171.46 267.70 169.90 258.48 168.65 249.22 C 153.40 240.12 137.88 231.47 122.55 222.50 C 118.90 220.28 114.55 218.63 112.17 214.86 C 108.92 210.00 109.72 202.98 113.96 198.95 C 128.74 184.06 143.61 169.25 158.41 154.38 C 161.11 151.47 164.94 149.67 168.96 149.92 C 195.99 149.93 223.02 149.89 250.06 149.95 C 251.66 149.88 253.57 150.08 254.67 148.65 C 275.31 127.96 295.99 107.31 316.63 86.64 M 334.24 105.24 C 312.44 127.10 290.66 148.99 268.81 170.81 C 266.01 173.74 262.16 175.79 258.02 175.56 C 230.67 175.55 203.31 175.56 175.96 175.55 C 172.84 175.19 171.09 178.24 169.05 180.04 C 160.85 188.66 151.87 196.56 144.07 205.53 C 157.20 212.81 170.12 220.48 183.19 227.87 C 186.08 229.52 189.17 231.16 191.10 233.99 C 192.71 236.26 193.09 239.08 193.54 241.76 C 195.24 253.51 196.97 265.24 198.78 276.97 C 201.68 294.73 216.34 309.79 234.02 313.16 C 246.94 315.40 259.97 316.99 272.92 319.08 C 276.64 319.59 279.98 321.85 281.95 325.05 C 290.45 339.30 298.38 353.91 307.02 368.08 C 316.48 358.86 325.69 349.38 335.11 340.11 C 337.36 338.43 336.48 335.41 336.68 333.01 C 336.65 306.34 336.58 279.65 336.71 252.98 C 336.57 247.58 340.74 243.75 344.32 240.33 C 362.68 222.02 380.99 203.65 399.34 185.33 C 404.44 180.11 410.00 175.23 414.15 169.16 C 420.85 159.51 424.47 147.76 424.35 136.01 C 423.39 121.20 421.76 106.43 420.36 91.66 C 406.56 90.54 392.80 89.03 379.00 87.96 C 362.47 86.79 345.74 93.36 334.24 105.24 Z" />
<path fill="##91989d" opacity="1.00" d=" M 355.41 115.61 C 371.97 112.72 389.52 123.23 394.77 139.19 C 400.72 155.09 393.29 174.41 378.34 182.35 C 363.79 190.82 343.65 186.95 333.24 173.73 C 322.66 161.27 322.45 141.51 332.83 128.86 C 338.34 121.82 346.57 116.97 355.41 115.61 M 357.34 141.44 C 353.17 143.04 350.23 147.52 350.77 152.02 C 351.13 157.12 355.87 161.42 361.00 161.26 C 366.80 161.41 371.98 155.77 371.10 149.97 C 370.71 143.50 363.30 139.03 357.34 141.44 Z" />
<path fill="##91989d" opacity="1.00" d=" M 125.43 266.58 C 131.77 265.18 138.65 269.40 140.31 275.66 C 141.64 280.25 140.05 285.33 136.63 288.60 C 119.66 305.64 102.59 322.58 85.64 339.63 C 82.78 342.66 79.31 345.65 74.94 345.87 C 67.80 346.60 60.92 340.23 61.23 333.03 C 61.12 329.13 63.28 325.62 66.02 323.02 C 82.06 307.06 98.03 291.03 114.03 275.03 C 117.43 271.78 120.53 267.53 125.43 266.58 Z" />
<path fill="##91989d" opacity="1.00" d=" M 161.33 334.34 C 167.79 331.84 175.74 335.67 177.74 342.31 C 179.47 347.14 177.73 352.61 174.06 356.05 C 144.24 385.90 114.41 415.73 84.56 445.55 C 80.99 449.36 75.14 450.88 70.27 448.83 C 64.67 446.66 61.17 440.27 62.50 434.38 C 63.26 429.93 66.94 426.97 69.94 423.94 C 96.46 397.46 122.94 370.94 149.45 344.44 C 153.27 340.95 156.40 336.35 161.33 334.34 Z" />
<path fill="##91989d" opacity="1.00" d=" M 229.30 370.31 C 235.47 368.89 242.23 372.82 244.09 378.87 C 245.71 383.63 244.03 389.03 240.41 392.42 C 222.76 410.09 205.10 427.76 187.44 445.43 C 184.53 448.47 180.30 450.27 176.06 449.64 C 168.96 448.85 163.64 441.26 165.32 434.30 C 166.19 429.59 170.22 426.59 173.36 423.35 C 189.69 407.01 206.01 390.67 222.34 374.32 C 224.26 372.41 226.60 370.83 229.30 370.31 Z" />
</g>
</svg>
