<svg width="512pt" height="512pt" viewBox="0 0 512 512" version="1.1" xmlns="http://www.w3.org/2000/svg">
<g id="##91989dff">
<path fill="##91989d" opacity="1.00" d=" M 16.01 55.94 C 15.74 43.16 27.17 31.74 39.94 32.01 C 183.98 31.99 328.03 31.99 472.07 32.01 C 484.85 31.73 496.24 43.17 495.98 55.94 C 496.02 103.65 496.00 151.37 496.00 199.08 C 496.45 203.66 492.68 208.11 488.00 207.99 C 483.32 208.11 479.53 203.66 480.00 199.08 C 479.99 170.05 480.01 141.03 480.00 112.00 C 330.67 112.00 181.33 112.00 32.00 112.00 C 32.00 186.67 32.00 261.33 32.00 336.00 C 103.69 336.01 175.39 335.99 247.08 336.00 C 250.99 335.68 254.97 338.26 255.77 342.19 C 257.19 347.39 252.34 352.60 247.09 352.00 C 175.39 352.01 103.70 351.99 32.00 352.00 C 32.01 365.03 31.98 378.06 32.00 391.08 C 31.93 393.69 32.75 396.45 34.87 398.11 C 36.78 399.86 39.48 400.02 41.93 400.02 C 125.29 399.95 208.65 400.05 292.00 399.97 C 294.89 400.11 298.18 399.45 300.67 401.31 C 302.81 402.78 304.15 405.31 304.00 407.93 C 304.07 424.32 303.90 440.71 304.06 457.10 C 304.33 468.40 313.70 478.55 324.94 479.77 C 334.27 480.43 343.66 479.62 353.00 480.14 C 357.89 480.47 361.30 486.08 359.54 490.61 C 358.42 494.15 354.69 496.24 351.08 496.00 C 291.04 496.03 231.00 495.95 170.96 496.03 C 167.53 496.19 163.49 495.77 161.46 492.59 C 158.17 488.30 160.79 481.24 166.14 480.28 C 173.38 479.41 180.73 480.62 187.97 479.64 C 197.83 478.14 206.12 469.82 207.64 459.97 C 208.61 452.73 207.42 445.38 208.28 438.14 C 209.28 432.51 216.96 430.02 221.14 433.89 C 224.24 436.27 224.07 440.48 224.03 443.99 C 223.82 451.53 224.68 459.25 222.55 466.60 C 221.30 471.44 218.84 475.84 216.10 479.99 C 242.70 480.01 269.30 480.00 295.91 479.99 C 292.99 475.64 290.46 470.96 289.24 465.84 C 287.67 460.02 288.01 453.95 288.00 448.00 C 288.00 437.33 288.00 426.67 288.00 416.00 C 205.31 415.99 122.62 416.02 39.94 415.99 C 27.17 416.25 15.74 404.84 16.01 392.06 C 15.99 280.02 15.99 167.98 16.01 55.94 M 32.05 55.93 C 31.91 69.29 32.05 82.64 32.00 96.00 C 181.33 96.00 330.67 96.00 480.00 96.00 C 480.02 83.65 479.97 71.31 480.03 58.97 C 480.01 56.20 480.11 53.06 478.11 50.87 C 476.45 48.75 473.69 47.92 471.08 48.00 C 330.72 48.00 190.36 48.00 50.00 48.00 C 46.33 48.04 42.66 47.82 39.00 48.13 C 35.12 48.43 31.96 52.07 32.05 55.93 Z" />
<path fill="##91989d" opacity="1.00" d=" M 53.38 64.45 C 59.00 62.19 65.43 67.99 63.77 73.81 C 62.72 79.43 55.08 81.99 50.86 78.11 C 46.12 74.50 47.67 66.13 53.38 64.45 Z" />
<path fill="##91989d" opacity="1.00" d=" M 85.38 64.45 C 91.00 62.19 97.44 67.99 95.77 73.81 C 94.72 79.43 87.08 81.99 82.87 78.11 C 78.13 74.50 79.66 66.14 85.38 64.45 Z" />
<path fill="##91989d" opacity="1.00" d=" M 117.38 64.45 C 123.00 62.19 129.44 67.99 127.77 73.81 C 126.72 79.43 119.09 81.99 114.86 78.11 C 110.12 74.50 111.66 66.14 117.38 64.45 Z" />
<path fill="##91989d" opacity="1.00" d=" M 69.35 144.48 C 72.17 143.72 75.13 144.04 78.01 143.98 C 129.36 144.07 180.72 143.91 232.07 144.05 C 237.01 143.88 241.07 149.06 239.77 153.81 C 238.97 157.74 234.99 160.30 231.08 160.00 C 178.36 160.00 125.64 160.00 72.92 160.00 C 69.58 160.19 66.11 158.50 64.75 155.35 C 62.72 151.28 65.01 145.82 69.35 144.48 Z" />
<path fill="##91989d" opacity="1.00" d=" M 277.35 144.48 C 280.17 143.72 283.12 144.04 286.01 143.98 C 337.36 144.07 388.72 143.91 440.07 144.05 C 445.01 143.88 449.06 149.05 447.77 153.81 C 446.97 157.74 442.99 160.30 439.09 160.00 C 386.36 160.00 333.64 160.00 280.92 160.00 C 277.58 160.19 274.10 158.50 272.74 155.34 C 270.72 151.28 273.01 145.83 277.35 144.48 Z" />
<path fill="##91989d" opacity="1.00" d=" M 69.35 176.48 C 72.17 175.72 75.13 176.04 78.01 175.98 C 129.36 176.07 180.72 175.91 232.07 176.05 C 237.01 175.88 241.06 181.06 239.77 185.81 C 238.97 189.74 234.99 192.31 231.08 192.00 C 178.36 192.00 125.63 192.00 72.91 192.00 C 69.58 192.19 66.11 190.50 64.75 187.35 C 62.72 183.28 65.01 177.82 69.35 176.48 Z" />
<path fill="##91989d" opacity="1.00" d=" M 277.35 176.48 C 280.17 175.72 283.13 176.04 286.01 175.98 C 337.36 176.07 388.72 175.91 440.07 176.05 C 445.00 175.88 449.06 181.05 447.77 185.80 C 446.97 189.74 442.99 192.31 439.08 192.00 C 386.36 192.00 333.64 192.00 280.92 192.00 C 277.58 192.19 274.10 190.50 272.74 187.34 C 270.72 183.28 273.01 177.83 277.35 176.48 Z" />
<path fill="##91989d" opacity="1.00" d=" M 69.35 208.48 C 71.50 207.85 73.78 208.01 75.99 207.97 C 90.69 208.09 105.38 207.89 120.07 208.05 C 125.01 207.88 129.07 213.06 127.77 217.81 C 126.97 221.74 122.99 224.30 119.08 224.00 C 103.70 224.01 88.30 224.01 72.92 224.00 C 69.58 224.19 66.11 222.50 64.75 219.35 C 62.72 215.28 65.01 209.83 69.35 208.48 Z" />
<path fill="##91989d" opacity="1.00" d=" M 277.35 208.48 C 283.82 207.51 290.47 208.04 297.00 208.14 C 302.79 208.49 306.06 216.04 302.53 220.59 C 299.28 225.34 292.88 223.74 288.01 224.02 C 283.30 223.70 277.35 225.29 273.89 221.14 C 270.26 217.18 272.21 210.02 277.35 208.48 Z" />
<path fill="##91989d" opacity="1.00" d=" M 371.44 208.71 C 396.71 205.88 422.96 211.84 444.32 225.68 C 448.48 227.94 449.60 233.98 446.52 237.57 C 443.63 241.36 438.08 241.15 434.54 238.43 C 408.01 221.66 373.06 219.36 344.55 232.49 C 323.18 242.09 305.60 259.80 296.17 281.25 C 287.59 300.54 285.69 322.71 290.85 343.18 C 296.21 365.10 309.73 384.85 328.07 397.96 C 346.84 411.57 370.68 417.92 393.74 415.50 C 425.41 412.54 454.71 392.49 469.18 364.20 C 480.21 343.20 482.95 318.04 476.70 295.16 C 476.01 292.46 474.96 289.81 474.90 287.00 C 474.88 282.45 479.59 278.77 484.00 279.57 C 486.85 279.95 489.30 282.01 490.25 284.71 C 501.65 318.02 495.78 356.57 475.09 385.03 C 456.31 411.58 425.50 429.22 393.03 431.61 C 370.06 433.53 346.56 428.07 326.80 416.21 C 301.30 401.13 282.21 375.56 275.25 346.74 C 268.95 321.44 271.91 293.96 283.50 270.60 C 299.90 236.89 334.10 212.59 371.44 208.71 Z" />
<path fill="##91989d" opacity="1.00" d=" M 475.46 233.49 C 477.85 230.68 482.17 229.72 485.43 231.58 C 490.06 233.91 490.90 240.68 487.24 244.27 C 452.57 282.58 417.86 320.86 383.19 359.18 C 381.34 361.24 378.98 363.32 376.00 363.11 C 372.74 363.36 370.29 360.91 368.40 358.60 C 355.59 343.08 342.58 327.73 329.82 312.18 C 325.72 307.67 329.06 299.62 335.10 299.24 C 338.82 298.64 341.81 301.33 343.87 304.07 C 354.62 317.08 365.44 330.02 376.26 342.97 C 409.41 306.55 442.37 269.95 475.46 233.49 Z" />
</g>
</svg>
