<svg width="460pt" height="512pt" viewBox="0 0 460 512" version="1.1" xmlns="http://www.w3.org/2000/svg">
<g id="##91989dff">
<path fill="##91989d" opacity="1.00" d=" M 309.50 0.00 L 313.12 0.00 C 319.81 0.75 326.60 1.72 332.92 4.11 C 336.88 7.18 339.51 11.68 342.03 15.95 C 350.57 30.42 355.77 46.62 359.09 63.02 C 367.49 104.72 361.62 148.11 348.14 188.09 C 367.78 188.13 387.42 188.03 407.05 188.13 C 417.71 188.21 428.08 192.20 436.41 198.77 C 448.41 208.13 454.54 222.79 458.29 237.11 C 461.94 253.19 456.47 269.82 447.47 283.16 C 454.51 296.18 458.25 311.74 454.06 326.29 C 450.52 337.10 445.86 347.85 438.03 356.30 C 440.66 365.94 441.23 376.15 439.48 386.01 C 436.95 400.91 428.64 414.54 417.13 424.23 C 416.04 431.68 415.11 439.24 412.34 446.31 C 407.90 458.79 399.26 470.42 386.92 475.91 C 380.41 478.34 373.57 479.74 366.81 481.33 C 342.23 486.62 317.16 489.39 292.07 490.59 C 272.90 490.93 253.67 491.84 234.54 490.21 C 211.22 488.67 188.11 485.06 164.94 482.08 C 156.28 481.02 147.69 479.18 138.94 478.91 C 135.17 478.60 130.79 478.82 127.90 475.93 C 125.16 473.44 124.34 469.58 124.40 466.03 C 124.41 386.69 124.41 307.35 124.39 228.01 C 124.52 223.47 123.64 218.36 126.54 214.45 C 129.47 210.56 134.62 209.71 138.86 207.87 C 168.52 197.22 198.06 184.61 222.99 164.97 C 233.10 156.40 242.17 146.53 249.30 135.34 C 263.18 114.16 270.38 89.17 272.73 64.11 C 274.22 53.40 272.78 42.38 275.57 31.84 C 277.91 22.49 282.55 13.41 290.05 7.17 C 295.51 2.67 302.51 0.49 309.50 0.00 M 304.45 23.63 C 299.51 27.51 297.60 34.00 297.07 40.02 C 296.37 49.30 296.74 58.66 295.38 67.90 C 291.97 102.75 279.12 137.28 255.76 163.72 C 248.39 173.03 239.00 180.40 229.43 187.31 C 204.40 204.70 176.00 216.38 147.46 226.69 C 147.31 304.08 147.49 381.48 147.37 458.88 C 181.10 464.35 215.10 467.91 249.10 471.14 C 289.63 472.58 330.53 469.77 369.98 460.00 C 374.66 458.65 379.82 457.92 383.55 454.52 C 391.61 447.29 394.64 436.24 395.81 425.85 C 396.29 422.23 395.72 418.19 397.89 415.02 C 399.15 412.97 400.86 411.24 402.76 409.77 C 409.89 404.29 415.39 396.56 417.73 387.84 C 419.89 379.03 419.43 369.72 417.04 361.00 C 416.25 357.43 414.53 353.67 415.99 350.03 C 417.62 345.26 422.88 343.48 425.67 339.58 C 429.88 334.00 433.05 327.60 434.73 320.81 C 436.79 311.20 434.15 301.10 429.10 292.85 C 427.44 290.08 425.29 287.31 425.33 283.91 C 425.14 279.76 427.93 276.43 430.24 273.28 C 436.79 264.79 440.77 253.79 439.10 243.00 C 438.77 238.72 435.88 235.32 434.68 231.31 C 430.32 220.17 420.56 209.64 407.96 209.00 C 383.29 208.91 358.62 209.04 333.96 208.94 C 330.34 209.00 327.03 206.84 324.78 204.16 C 322.09 199.93 324.17 194.99 325.70 190.77 C 334.79 166.19 340.53 140.29 341.75 114.07 C 342.57 92.01 340.57 69.59 333.63 48.54 C 330.95 39.21 327.05 30.20 321.97 21.92 C 316.21 20.85 309.48 19.86 304.45 23.63 Z" />
<path fill="##91989d" opacity="1.00" d=" M 0.00 198.07 C 0.44 192.51 5.34 187.99 10.94 188.15 C 37.62 188.00 64.31 188.16 91.00 188.07 C 94.48 188.06 98.39 188.31 101.04 190.89 C 103.61 193.13 104.53 196.63 104.52 199.93 C 104.55 297.94 104.51 395.94 104.55 493.95 C 104.46 497.85 104.94 501.92 103.59 505.67 C 102.07 509.36 98.29 511.52 94.46 512.00 L 10.35 512.00 C 4.67 512.01 -0.04 507.35 0.00 501.65 L 0.00 198.07 M 20.92 208.98 C 20.91 303.01 20.90 397.05 20.92 491.08 C 41.83 491.05 62.74 491.17 83.65 491.03 C 83.60 397.02 83.63 303.01 83.63 209.00 C 62.72 208.93 41.82 208.98 20.92 208.98 Z" />
<path fill="##91989d" opacity="1.00" d=" M 48.24 450.26 C 55.35 446.85 64.27 454.40 62.33 461.95 C 61.16 469.16 51.64 472.47 45.93 468.19 C 39.67 463.85 41.10 452.93 48.24 450.26 Z" />
</g>
</svg>
