<svg width="448pt" height="509pt" viewBox="0 0 448 509" version="1.1" xmlns="http://www.w3.org/2000/svg">
<g id="#91989dff">
<path fill="#91989d" opacity="1.00" d=" M 209.67 0.00 L 238.26 0.00 C 246.53 1.38 254.84 2.54 263.07 4.20 C 293.29 10.74 322.50 24.46 344.62 46.39 C 364.39 65.80 379.34 91.06 382.65 118.90 C 383.29 121.88 382.70 125.64 385.20 127.86 C 388.76 130.07 392.91 131.21 396.33 133.71 C 408.09 141.16 415.35 154.77 415.53 168.64 C 415.74 188.63 416.04 208.63 415.45 228.62 C 415.14 236.95 413.01 245.36 408.32 252.33 C 403.23 259.97 395.36 265.46 386.83 268.61 C 379.81 270.90 372.31 270.46 365.04 270.38 C 359.02 270.19 352.56 270.07 347.31 266.74 C 341.87 263.29 338.97 257.27 336.10 251.74 C 324.42 284.31 306.47 315.67 279.07 337.51 C 285.01 352.06 293.85 365.86 306.60 375.33 C 313.43 380.33 321.96 381.75 330.09 383.24 C 361.73 389.70 393.32 398.53 421.74 414.23 C 431.76 419.71 440.05 429.06 442.40 440.44 C 444.76 453.23 445.90 466.20 447.25 479.13 C 447.90 485.40 447.67 491.70 447.60 497.99 C 447.49 500.66 447.45 503.57 445.86 505.86 C 444.32 508.05 441.47 508.51 439.03 509.00 L 9.26 509.00 C 5.62 508.68 2.16 507.04 0.00 504.03 L 0.00 472.89 C 2.43 459.31 1.97 444.85 8.21 432.23 C 12.73 422.81 21.05 415.60 30.59 411.56 C 55.98 398.81 83.28 390.16 111.08 384.51 C 118.99 382.85 127.24 382.14 134.63 378.62 C 144.04 374.31 151.37 366.59 157.29 358.28 C 161.85 351.74 165.73 344.68 168.50 337.19 C 162.12 332.77 157.10 326.81 151.40 321.62 C 146.74 317.31 140.05 316.86 134.04 317.44 C 124.30 318.35 114.10 318.09 105.04 314.03 C 97.24 310.66 90.95 304.30 87.17 296.75 C 83.01 288.82 81.74 279.86 80.06 271.19 C 74.29 270.54 68.42 270.55 62.75 269.20 C 53.60 266.65 45.34 260.92 39.87 253.14 C 34.50 245.59 31.94 236.27 31.98 227.06 C 31.97 208.72 31.98 190.38 31.98 172.04 C 31.97 165.67 32.87 159.24 35.22 153.30 C 39.22 142.81 47.98 134.63 58.15 130.17 C 60.19 129.06 63.12 128.48 63.83 125.94 C 64.73 121.34 64.92 116.62 65.94 112.04 C 70.21 88.80 82.93 67.92 98.71 50.67 C 120.89 26.60 151.49 11.71 183.11 4.54 C 191.87 2.50 200.83 1.58 209.67 0.00 M 179.36 18.50 C 157.62 24.62 136.41 34.16 119.49 49.41 C 105.42 61.86 94.52 77.74 87.44 95.12 C 83.06 105.31 80.75 116.30 80.03 127.35 C 86.78 126.79 93.54 127.52 99.86 130.02 C 106.90 103.59 119.71 77.78 140.83 59.82 C 160.49 42.76 186.38 34.31 212.09 32.70 C 230.83 31.45 249.93 32.83 267.93 38.43 C 289.95 45.13 309.59 59.09 323.24 77.61 C 334.73 92.93 342.40 110.78 347.66 129.10 C 354.28 128.20 360.90 127.36 367.51 126.42 C 365.59 104.63 357.53 83.27 343.77 66.19 C 334.62 54.61 323.03 45.21 310.64 37.31 C 294.57 26.98 276.80 19.17 258.10 15.15 C 232.13 9.41 204.83 11.19 179.36 18.50 M 206.95 48.83 C 182.58 52.02 159.28 63.38 142.39 81.33 C 125.59 98.73 116.46 122.31 113.75 146.09 C 109.15 185.77 115.65 226.79 133.19 262.74 C 139.01 274.65 146.06 285.89 152.70 297.35 C 153.89 299.29 155.37 301.85 157.98 301.79 C 169.14 301.95 180.31 302.00 191.48 301.87 C 192.67 296.78 194.69 291.21 199.54 288.55 C 205.20 285.48 211.88 286.44 218.06 286.27 C 223.58 286.03 229.59 286.40 234.07 290.04 C 240.78 295.10 241.63 305.80 236.27 312.13 C 232.83 316.36 227.21 318.14 221.90 318.06 C 205.12 318.07 188.34 317.92 171.55 317.95 C 175.06 322.00 179.28 325.31 183.54 328.54 C 186.27 330.53 187.60 334.27 186.27 337.47 C 179.36 354.96 169.55 371.75 155.33 384.31 C 147.35 391.37 137.37 395.92 126.92 397.83 C 95.71 404.19 64.09 411.45 35.93 426.89 C 30.84 429.47 25.95 432.94 23.13 438.02 C 19.78 443.73 19.78 450.53 18.62 456.87 C 16.66 468.74 16.62 480.80 16.97 492.80 C 155.33 492.81 293.69 492.80 432.05 492.80 C 430.98 480.21 429.76 467.63 428.99 455.01 C 428.60 448.41 426.70 441.77 422.74 436.41 C 418.61 430.72 412.61 426.71 406.28 423.82 C 382.56 413.00 357.52 405.18 332.00 399.93 C 321.30 397.63 310.17 395.98 300.56 390.41 C 295.53 387.68 291.42 383.62 287.40 379.62 C 275.68 367.57 267.25 352.67 261.16 337.10 C 259.83 334.08 261.54 330.83 263.82 328.83 C 269.91 323.25 276.47 318.20 282.31 312.33 C 296.48 298.29 306.79 280.85 314.77 262.68 C 321.99 245.72 328.37 228.26 331.72 210.08 C 336.03 187.33 336.19 163.90 333.09 140.99 C 329.34 112.95 314.64 86.19 291.78 69.26 C 267.78 51.31 236.40 44.71 206.95 48.83 M 66.47 143.70 C 56.36 146.65 48.86 156.47 48.26 166.93 C 47.58 187.61 47.93 208.31 48.15 229.00 C 48.15 238.59 53.62 248.25 62.46 252.30 C 68.90 255.34 76.20 254.49 83.09 254.48 C 86.50 254.39 90.36 254.53 93.07 252.10 C 95.84 249.56 95.89 245.48 95.94 242.00 C 95.92 212.99 96.02 183.99 95.96 154.98 C 95.92 151.34 95.47 146.92 92.03 144.83 C 88.40 142.75 84.03 143.21 80.02 143.26 C 75.50 143.51 70.89 142.24 66.47 143.70 M 358.41 143.57 C 353.50 144.33 351.38 149.60 351.64 154.05 C 351.57 183.71 351.67 213.38 351.61 243.04 C 351.61 246.14 351.87 249.58 354.03 252.01 C 356.10 254.18 359.34 253.72 362.05 254.05 C 370.89 254.52 380.50 254.99 388.40 250.31 C 395.56 246.07 399.07 237.63 399.39 229.59 C 400.00 208.97 399.76 188.33 399.43 167.71 C 398.88 155.10 388.26 142.59 375.09 142.93 C 369.54 143.61 363.91 142.59 358.41 143.57 M 111.35 253.86 C 108.18 257.80 105.31 262.04 101.48 265.39 C 99.20 267.32 96.41 269.54 96.70 272.89 C 97.82 281.99 100.55 292.03 108.27 297.77 C 115.79 303.14 125.66 302.61 134.35 301.29 C 126.70 285.47 119.03 269.67 111.35 253.86 Z" />
</g>
</svg>
