<svg xmlns="http://www.w3.org/2000/svg" xmlns:xlink="http://www.w3.org/1999/xlink" xmlns:svgjs="http://svgjs.com/svgjs" width="512pt" height="512pt"><svg width="512pt" height="512pt" viewBox="0 0 512 512" xmlns="http://www.w3.org/2000/svg"><path d="M28.81 35.87c127.7-.16 255.41-.02 383.11-.07 23.75.05 47.5-.09 71.26.07.14 35.33.2 70.67-.03 105.99-151.43.12-302.87.11-454.3.01-.27-35.33-.18-70.67-.04-106m28.21 14.26c-.01 8.65-.01 17.29 0 25.93 5.84.02 11.68-.01 17.52.02-.02 6.44.02 12.88-.02 19.32-5.83 0-11.66.01-17.49-.01-.04 8.65-.01 17.29-.02 25.94 8.64.01 17.28 0 25.92 0 .02-7.55 0-15.1.01-22.65 3.03-.02 6.06-.02 9.09-.01.02 7.56 0 15.11.01 22.66 8.64 0 17.28.01 25.92 0 .01-7.53-.01-15.06.01-22.59 3.03-.01 6.06-.01 9.09 0 .01 7.53-.01 15.06.01 22.59 8.63.01 17.27.01 25.91 0 .02-7.53 0-15.06.02-22.59 3.03-.01 6.06-.01 9.09 0 .02 7.53 0 15.06.01 22.59 8.63.01 17.26.01 25.9 0 .02-7.55-.01-15.11.01-22.66 3.03-.01 6.07-.01 9.1.01.02 7.55 0 15.1.01 22.65 8.64.01 17.28.01 25.91 0 .02-7.53 0-15.06.01-22.59 5.84-.02 11.68 0 17.51-.01-.03-8.65.07-17.3-.05-25.95-5.82.04-11.64.01-17.45.02-.03-7.55 0-15.11-.02-22.66-8.63-.01-17.27-.01-25.9-.01-.02 7.56.01 15.11-.02 22.67h-9.1c-.03-7.55.01-15.11-.02-22.67-8.63.01-17.26 0-25.89.01-.01 7.55.01 15.1-.01 22.66H153c-.04-7.56.01-15.11-.02-22.67-8.64.01-17.28 0-25.91 0-.02 7.56.01 15.11-.01 22.66-3.03.01-6.06.01-9.09 0-.02-7.55 0-15.1-.02-22.66H92.04c-.01 7.56.01 15.11-.01 22.66-3.03.01-6.06.01-9.08 0-.03-7.55 0-15.1-.02-22.66H57.02M272.7 72.81c.19 8.59-.42 17.42.29 25.86 36.42.15 72.84.02 109.27.07.02-8.65.01-17.29 0-25.93-36.52-.02-73.04-.01-109.56 0m156.36 0c-.01 8.64-.02 17.28.01 25.93 8.62-.01 17.25-.01 25.88 0 .02-8.65.01-17.29.01-25.94-8.64 0-17.27-.01-25.9.01zM0 55.34c2.29-.19 4.6-.22 6.9-.25.01 22.49 0 44.98 0 67.46l-6.9-.09V55.34zm505.07-.24c2.31.04 4.62.09 6.93.14v67.16c-2.31.08-4.63.13-6.93.17 0-22.49-.01-44.98 0-67.47zM49.05 163.74c137.96-.01 275.93-.01 413.89 0 .01 5.77.01 11.55 0 17.32-137.96.01-275.92.01-413.89 0-.01-5.77-.01-11.55 0-17.32zm-20.2 39.19c151.43-.1 302.87-.1 454.3 0 .22 35.34.18 70.69.02 106.03-57.72.24-115.44.04-173.16.11-93.73-.07-187.46.13-281.19-.1-.15-35.35-.21-70.7.03-106.04m28.17 14.33c-.02 8.64-.01 17.29 0 25.93 5.84.02 11.68-.01 17.52.02-.01 6.44 0 12.88-.01 19.32-5.84.01-11.68 0-17.52.01v25.92c8.64.01 17.28.01 25.93 0 0-7.53-.01-15.06 0-22.59 3.03-.01 6.06-.01 9.09 0 .02 7.53 0 15.06.01 22.59 8.64.01 17.28.01 25.92 0 .01-7.53-.01-15.06.01-22.59 3.03-.01 6.06-.01 9.09 0 .01 7.53 0 15.06 0 22.59 8.64.01 17.28.01 25.93 0 .01-7.53-.02-15.06.01-22.59 3.03-.01 6.06-.01 9.09 0 .02 7.53 0 15.06.01 22.59 8.63.02 17.26.01 25.9 0 .01-7.55-.01-15.1.01-22.66 3.03-.01 6.07-.01 9.1.01.02 7.55.01 15.1.01 22.65 8.64.01 17.27.01 25.91 0 .02-7.55 0-15.1.02-22.66 5.83-.01 11.67.01 17.51-.01-.07-8.66.12-17.32-.1-25.97-5.81.1-11.61.02-17.41.05-.03-7.54.01-15.07-.02-22.6-8.63-.01-17.27 0-25.9 0-.02 7.55 0 15.1-.01 22.66-3.04 0-6.08.01-9.11 0-.02-7.56.02-15.11-.02-22.67-8.63.01-17.26.01-25.88 0-.03 7.54 0 15.07-.02 22.6-3.03.01-6.06.01-9.09 0-.03-7.53.01-15.07-.02-22.6-8.64.01-17.27.01-25.91 0-.02 7.54.01 15.07-.01 22.6-3.03.01-6.06.01-9.09 0-.02-7.53.01-15.07-.02-22.6-8.63.01-17.27.01-25.9 0-.03 7.53 0 15.07-.02 22.6-3.03.01-6.06.01-9.09 0-.02-7.53.01-15.06-.01-22.6-8.64.01-17.27.01-25.91 0m215.68 22.61c-.02 8.65-.02 17.29 0 25.93h109.56c.01-8.64.01-17.28 0-25.93-36.52-.01-73.04-.01-109.56 0m156.36 0c-.01 8.65-.01 17.29 0 25.93h25.89c.02-8.64.01-17.29.01-25.93-8.64-.01-17.27-.01-25.9 0zM0 222.41c2.3-.08 4.59-.14 6.89-.19.01 22.52.02 45.04 0 67.56-2.3-.06-4.59-.11-6.89-.17v-67.2zm505.08-.18c2.3.04 4.61.1 6.92.15v67.13c-2.31.21-4.62.23-6.92.27-.02-22.52-.02-45.04 0-67.55zM49.05 330.87c137.96-.01 275.93-.01 413.89 0 .01 5.78.01 11.55 0 17.32-137.96.02-275.93.01-413.89.01-.01-5.78-.01-11.55 0-17.33zm-20.19 39.25c151.43-.09 302.86-.1 454.3.01.23 35.33.17 70.67.03 106-106.4.16-212.79.02-319.18.07-45.06-.05-90.13.09-135.19-.07-.15-35.33-.22-70.68.04-106.01m28.17 14.27c-.04 8.65-.02 17.29-.01 25.94 5.84.01 11.68-.01 17.52.01v19.32c-5.84.02-11.68 0-17.52.01 0 8.65-.03 17.29.01 25.94 8.63-.02 17.26-.01 25.89 0 .04-7.56 0-15.12.02-22.67 3.03-.01 6.06-.02 9.09 0 .02 7.56-.02 15.11.02 22.67 8.64-.02 17.27-.02 25.9 0 .05-7.56 0-15.11.03-22.67 3.03-.02 6.06-.01 9.08 0 .03 7.53-.02 15.07.03 22.6 8.62 0 17.24-.03 25.86.02.11-7.54.01-15.08.06-22.62 3.03-.01 6.06-.01 9.09 0 .02 7.55-.02 15.11.02 22.67 8.62-.01 17.23-.03 25.85.01.09-7.56.01-15.12.05-22.68 3.03-.02 6.07-.01 9.11 0 .02 7.55-.02 15.11.01 22.66 8.61.02 17.21-.05 25.81.04.22-7.57.03-15.14.1-22.7 5.84-.03 11.68.02 17.52-.03-.03-8.61-.02-17.22-.01-25.83-5.84-.04-11.68 0-17.52-.02-.02-7.55.03-15.11-.02-22.66-8.63-.01-17.26 0-25.88 0-.04 7.55 0 15.1-.03 22.66-3.03.01-6.07.01-9.1 0-.03-7.56.02-15.11-.03-22.67-8.62.02-17.25.01-25.87.01-.03 7.55 0 15.1-.02 22.66-3.03.01-6.06.01-9.09 0-.04-7.56.02-15.11-.03-22.67-8.63.02-17.26.01-25.89 0-.04 7.54 0 15.07-.02 22.6-3.03.01-6.06.01-9.09 0-.03-7.53.01-15.07-.03-22.6-8.63.01-17.26.01-25.89 0-.03 7.56.01 15.11-.02 22.67-3.03.01-6.06.01-9.09 0-.02-7.56.02-15.11-.02-22.67-8.63.01-17.26.01-25.89 0m215.67 22.68c-.02 8.62-.01 17.24 0 25.86 36.52.01 73.04.01 109.56 0 .01-8.62.01-17.24 0-25.86-36.52-.01-73.04-.01-109.56 0m156.36 0c-.01 8.62-.01 17.24 0 25.86h25.9c0-8.62 0-17.24-.01-25.86-8.63 0-17.26-.01-25.89 0zM0 389.55c2.3-.09 4.6-.14 6.9-.19-.01 22.52.01 45.03-.01 67.54-2.29-.05-4.59-.1-6.89-.14v-67.21zm505.07-.17c2.3.03 4.61.06 6.93.11v67.14c-2.31.22-4.62.24-6.93.28-.01-22.51 0-45.02 0-67.53z" id="SvgjsG1000"/></svg><style>@media (prefers-color-scheme:light){:root{filter:none}}@media (prefers-color-scheme:dark){:root{filter:invert(100%)}}</style></svg>