<svg xmlns="http://www.w3.org/2000/svg" xmlns:xlink="http://www.w3.org/1999/xlink" xmlns:svgjs="http://svgjs.com/svgjs" width="512pt" height="512pt"><svg width="512pt" height="512pt" viewBox="0 0 512 512" xmlns="http://www.w3.org/2000/svg"><g id="SvgjsG1000"><path d="M68.93 60.89C85.09 49.13 105.01 42.67 125 42.68c86.99-.02 173.99-.01 260.98-.01 16.22-.12 32.46 3.88 46.7 11.65 21.1 11.4 37.54 31.04 45.04 53.82 3.02 8.69 4.17 17.85 5.77 26.87 8.22 48.02 16.44 96.04 24.67 144.05 1.43 8.59 3.17 17.14 3.84 25.83v8.81c-1.14 17.64-6.63 35.08-16.69 49.68-17.57 26.22-48.75 42.47-80.3 41.95-102.34.01-204.67 0-307.01 0-8.36-.04-16.76.3-25.05-.92-23.73-3.19-46.02-15.67-61.15-34.23C8.44 354.04.83 333.43 0 312.53v-6.8c.31-4.54.78-9.08 1.61-13.55 9.73-56.68 19.4-113.37 29.14-170.05 4.11-24.36 18.11-46.83 38.18-61.24m59.16 97.98c-.78 5.77 4.01 11.52 9.84 11.72 10.89.17 21.8.04 32.69.06.13 39.11-.02 78.21.08 117.32-.16 5.6 4.75 10.65 10.34 10.66 5.75.31 11.01-4.77 10.92-10.52.1-39.15 0-78.29.05-117.44 10.65-.03 21.3.04 31.95-.03 5.68.14 10.81-4.9 10.67-10.61.19-5.71-4.94-10.8-10.63-10.67-28.36-.05-56.72-.04-85.07-.01-5.37-.23-10.4 4.16-10.84 9.52m132.33-7.5c-3.98 2.81-5.53 8.43-3.51 12.88 17.71 42.57 35.45 85.12 53.19 127.67 1.63 4.27 6.21 7.15 10.77 6.7 4.25-.28 7.93-3.38 9.32-7.34 17.62-42.37 35.33-84.72 52.93-127.1 2.18-4.88.06-11.16-4.73-13.58-5.16-2.89-12.41-.5-14.72 4.98-14.72 34.76-28.84 69.8-43.78 104.46-14.39-34.61-28.81-69.22-43.25-103.82-2.22-6.37-10.87-8.95-16.22-4.85z"/><path d="M0 376.71c20.29 29.25 54.51 48.18 90.07 49.77 13.31.4 26.62.09 39.94.19h271.95c10.01-.05 20.08.34 30.02-1.13 31.92-4.22 61.71-22.38 80.02-48.86v42.81c-.75 16.09-5.32 32.05-13.71 45.84-10.62 17.76-27.14 31.89-46.31 39.67-9.83 4.05-20.33 6.12-30.89 7H92.54c-23.98-.94-47.47-11.1-64.37-28.18C11.43 467.32 1.46 444.5 0 421.1v-44.39z"/></g></svg><style>@media (prefers-color-scheme:light){:root{filter:none}}@media (prefers-color-scheme:dark){:root{filter:invert(100%)}}</style></svg>