<svg width="348" height="344" viewBox="0 0 348 344" fill="none" xmlns="http://www.w3.org/2000/svg">
<path d="M102.505 171.836L85.7299 172.642L69.3856 172.952L37.5662 188.823L45.9106 317.833L135.678 314.808L131.771 185.308L102.505 171.836Z" fill="#F2F3F8"/>
<path d="M25.3498 202.673C21.522 225.847 10.9821 277.698 5.62462 303.742C3.83186 312.449 9.21444 321.015 17.8345 323.192C26.9784 325.5 36.2082 319.741 38.158 310.514L59.6559 208.672C61.4736 198.81 54.6062 189.454 44.6517 188.233C35.3855 187.096 26.8723 193.462 25.3498 202.673Z" fill="#F2F3F8"/>
<path d="M5.58905 303.641L-12.7192 391.105L19.8227 398.825L38.4433 309.387C40.1836 299.942 33.6063 290.983 24.0728 289.812C15.1978 288.725 7.04588 294.82 5.58905 303.641Z" fill="#F2F3F8"/>
<path d="M141.221 363.773L46.6525 366.96L45.9105 317.833L135.342 314.82L141.221 363.773Z" fill="#F2F3F8"/>
<path d="M89.3071 192.708C79.5964 193.035 71.4574 185.426 71.1303 175.716L69.8694 138.293L105.038 137.108L106.299 174.531C106.626 184.241 99.0178 192.38 89.3071 192.708Z" fill="#F2F3F8"/>
<path d="M92.962 192.584L81.9171 178.27C80.4021 175.888 78.3753 173.858 75.9731 172.31L71.4843 169.422C70.5334 168.811 69.3024 168.793 68.3323 169.377L63.9906 171.992C62.9892 172.597 62.4588 173.723 62.6478 174.85L64.9293 188.482C65.1513 189.826 66.8856 190.314 67.8242 189.299L77.1772 179.175C77.6968 178.611 78.6199 178.652 79.0831 179.26L93.0441 195.021L92.962 192.584Z" fill="#F2F3F8"/>
<path d="M92.9629 192.591L108.784 168.166C109.226 167.491 109.245 167.448 110.074 167.971L113.772 170.314C114.627 170.855 115.128 171.948 115.042 173.085L116.054 186.758C115.953 188.115 114.57 188.709 113.742 187.751L106.342 178.242C105.883 177.711 105.133 177.81 104.792 178.444L93.045 195.028L92.9629 192.591Z" fill="#F2F3F8"/>
<path d="M115.728 89.9647C114.145 84.7942 110.592 77.5422 98.6044 72.4477C78.8006 64.0296 69.1821 83.6483 69.1821 83.6483C63.9087 83.2533 59.6057 85.2481 57.2734 90.3866C55.0876 95.2009 57.684 104.028 58.4987 107.105L63.4352 126.629L66.5578 107.795C69.8302 95.3662 75.2684 90.1656 75.2684 90.1656L93.0379 88.1173L113.134 123.162L116.099 101.924C116.477 99.2291 116.578 96.4946 116.338 93.7843C116.2 92.2159 116.001 90.856 115.728 89.9647Z" fill="#F2F3F8"/>
<path d="M109.703 118.952C109.703 118.952 111.952 115.093 116.919 116.788C121.882 118.482 120.069 130.463 112.764 132.226C112.764 132.226 110.147 132.891 108.02 131.157C108.02 131.157 109.531 122.3 109.703 118.952Z" fill="#F2F3F8"/>
<path d="M63.8672 120.363C63.8672 120.363 60.8393 116.754 56.2464 118.829C51.4692 120.993 54.0284 132.686 61.4326 133.956C61.4326 133.956 64.0883 134.443 66.0945 132.569C66.0945 132.569 64.2632 123.691 63.8672 120.363Z" fill="#F2F3F8"/>
<path d="M113.889 107.501C114.133 114.677 113.933 129.719 109.822 138.781C105.962 147.287 99.2604 152.024 90.2859 152.594C81.3134 153.165 74.5032 149.927 68.7748 139.246C63.0443 128.568 62.6547 109.361 62.6547 109.361C62.6547 109.361 61.7908 83.7201 87.1319 82.8663C113.823 81.967 113.889 107.501 113.889 107.501Z" fill="#F2F3F8"/>
<path d="M193.453 168.772L176.678 169.578L160.334 169.888L128.515 185.759L136.859 314.768L226.627 311.744L222.719 182.244L193.453 168.772Z" fill="#142251"/>
<path d="M116.298 199.609C112.47 222.783 101.931 274.634 96.5731 300.678C94.7803 309.385 100.163 317.95 108.783 320.127C117.927 322.435 127.157 316.677 129.106 307.449L150.604 205.607C152.422 195.746 145.555 186.389 135.6 185.169C126.334 184.031 117.821 190.398 116.298 199.609Z" fill="#142251"/>
<path d="M96.5375 300.577L78.2293 388.04L110.771 395.761L129.392 306.322C131.132 296.878 124.555 287.919 115.021 286.748C106.146 285.661 97.9944 291.755 96.5375 300.577Z" fill="#142251"/>
<path d="M232.17 360.709L137.601 363.895L136.859 314.768L226.291 311.755L232.17 360.709Z" fill="#142251"/>
<path d="M180.256 189.643C170.545 189.97 162.406 182.362 162.079 172.651L160.818 135.229L195.987 134.044L197.248 171.466C197.575 181.177 189.966 189.316 180.256 189.643Z" fill="#142251"/>
<path d="M183.911 189.52L172.866 175.206C171.351 172.824 169.324 170.793 166.922 169.246L162.433 166.357C161.482 165.746 160.251 165.728 159.281 166.312L154.939 168.928C153.938 169.532 153.407 170.659 153.596 171.785L155.878 185.417C156.1 186.761 157.834 187.25 158.773 186.235L168.126 176.111C168.645 175.546 169.568 175.587 170.032 176.195L183.993 191.956L183.911 189.52Z" fill="#142251"/>
<path d="M183.911 189.527L199.733 165.101C200.174 164.427 200.194 164.383 201.023 164.907L204.72 167.249C205.575 167.791 206.076 168.883 205.991 170.021L207.003 183.693C206.902 185.051 205.519 185.644 204.691 184.687L197.29 175.178C196.832 174.646 196.081 174.746 195.741 175.379L183.993 191.964L183.911 189.527Z" fill="#142251"/>
<path d="M206.677 86.9003C205.093 81.7298 201.541 74.4778 189.553 69.3832C169.749 60.9652 160.131 80.5838 160.131 80.5838C154.857 80.1889 150.554 82.1837 148.222 87.3222C146.036 92.1365 148.633 100.964 149.447 104.04L154.384 123.564L157.506 104.731C160.779 92.3018 166.217 87.1012 166.217 87.1012L183.986 85.0528L204.083 120.097L207.048 98.8596C207.425 96.1647 207.527 93.4301 207.287 90.7199C207.149 89.1514 206.949 87.7915 206.677 86.9003Z" fill="#142251"/>
<path d="M200.651 115.888C200.651 115.888 202.901 112.029 207.868 113.724C212.831 115.417 211.017 127.398 203.713 129.162C203.713 129.162 201.095 129.827 198.968 128.092C198.968 128.092 200.48 119.235 200.651 115.888Z" fill="#142251"/>
<path d="M154.816 117.298C154.816 117.298 151.788 113.689 147.195 115.765C142.418 117.929 144.977 129.622 152.381 130.892C152.381 130.892 155.037 131.378 157.043 129.505C157.043 129.505 155.212 120.627 154.816 117.298Z" fill="#142251"/>
<path d="M204.838 104.436C205.082 111.612 204.882 126.654 200.77 135.716C196.91 144.223 190.209 148.959 181.234 149.53C172.262 150.1 165.452 146.862 159.723 136.182C153.993 125.504 153.603 106.297 153.603 106.297C153.603 106.297 152.739 80.6557 178.08 79.8019C204.772 78.9026 204.838 104.436 204.838 104.436Z" fill="#142251"/>
<g filter="url(#filter0_d_117_68)">
<path d="M320.258 192.737C325.637 215.601 339.643 266.625 346.744 292.249C349.116 300.816 344.325 309.724 335.868 312.476C326.901 315.395 317.304 310.271 314.74 301.195L286.434 201.031C283.956 191.314 290.178 181.517 300.03 179.629C309.199 177.87 318.121 183.649 320.258 192.737Z" fill="#E4E7F1"/>
<path d="M346.77 292.146L370.924 378.179L338.975 388.073L314.377 300.09C312.005 290.784 317.966 281.402 327.397 279.592C336.179 277.911 344.723 283.443 346.77 292.146Z" fill="#E4E7F1"/>
<path d="M276.406 165.977L259.631 166.783L243.287 167.093L211.468 182.964L219.812 311.973L309.58 308.949L305.672 179.449L276.406 165.977Z" fill="#E4E7F1"/>
<path d="M199.251 196.814C195.423 219.988 184.883 271.839 179.526 297.883C177.733 306.59 183.116 315.156 191.736 317.332C200.88 319.64 210.11 313.882 212.059 304.654L233.557 202.812C235.375 192.951 228.508 183.594 218.553 182.374C209.287 181.236 200.774 187.603 199.251 196.814Z" fill="#E4E7F1"/>
<path d="M179.49 297.782L161.182 385.245L193.724 392.966L212.345 303.527C214.085 294.083 207.508 285.124 197.974 283.953C189.099 282.866 180.947 288.96 179.49 297.782Z" fill="#E4E7F1"/>
<path d="M315.123 357.914L220.554 361.1L219.812 311.973L309.244 308.96L315.123 357.914Z" fill="#E4E7F1"/>
<path d="M263.208 186.848C253.498 187.175 245.359 179.567 245.032 169.856L243.771 132.434L278.94 131.249L280.2 168.671C280.528 178.382 272.919 186.521 263.208 186.848Z" fill="#E4E7F1"/>
<path d="M266.863 186.725L255.819 172.411C254.304 170.029 252.277 167.998 249.874 166.451L245.386 163.562C244.435 162.951 243.204 162.933 242.234 163.517L237.892 166.133C236.891 166.737 236.36 167.864 236.549 168.99L238.831 182.622C239.053 183.966 240.787 184.455 241.726 183.44L251.079 173.316C251.598 172.751 252.521 172.792 252.984 173.401L266.946 189.162L266.863 186.725Z" fill="#E4E7F1"/>
<path d="M266.864 186.732L282.686 162.306C283.127 161.632 283.147 161.588 283.975 162.112L287.673 164.454C288.528 164.996 289.029 166.088 288.944 167.226L289.956 180.898C289.855 182.256 288.472 182.849 287.643 181.892L280.243 172.383C279.784 171.851 279.034 171.951 278.694 172.584L266.946 189.169L266.864 186.732Z" fill="#E4E7F1"/>
<path d="M289.63 84.1053C288.046 78.9349 284.494 71.6828 272.506 66.5883C252.702 58.1703 243.083 77.7889 243.083 77.7889C237.81 77.3939 233.507 79.3888 231.175 84.5273C228.989 89.3415 231.585 98.1691 232.4 101.245L237.337 120.769L240.459 101.936C243.732 89.5068 249.17 84.3063 249.17 84.3063L266.939 82.2579L287.036 117.303L290.001 96.0647C290.378 93.3698 290.48 90.6352 290.239 87.925C290.101 86.3565 289.902 84.9966 289.63 84.1053Z" fill="#E4E7F1"/>
<path d="M283.604 113.093C283.604 113.093 285.854 109.234 290.821 110.929C295.783 112.622 293.97 124.604 286.665 126.367C286.665 126.367 284.048 127.032 281.921 125.297C281.921 125.297 283.433 116.44 283.604 113.093Z" fill="#E4E7F1"/>
<path d="M237.769 114.504C237.769 114.504 234.741 110.894 230.148 112.97C225.371 115.134 227.93 126.827 235.334 128.097C235.334 128.097 237.99 128.583 239.996 126.71C239.996 126.71 238.165 117.832 237.769 114.504Z" fill="#E4E7F1"/>
<path d="M287.791 101.641C288.035 108.818 287.835 123.859 283.723 132.921C279.863 141.428 273.162 146.164 264.187 146.735C255.215 147.305 248.405 144.067 242.676 133.387C236.946 122.709 236.556 103.502 236.556 103.502C236.556 103.502 235.692 77.8608 261.033 77.007C287.725 76.1077 287.791 101.641 287.791 101.641Z" fill="#E4E7F1"/>
<path d="M266.45 133.948C266.45 133.948 268.903 134.738 272.344 133.75L266.45 133.948Z" fill="#E4E7F1"/>
</g>
<defs>
<filter id="filter0_d_117_68" x="157.182" y="64.4893" width="217.741" height="381.677" filterUnits="userSpaceOnUse" color-interpolation-filters="sRGB">
<feFlood flood-opacity="0" result="BackgroundImageFix"/>
<feColorMatrix in="SourceAlpha" type="matrix" values="0 0 0 0 0 0 0 0 0 0 0 0 0 0 0 0 0 0 127 0" result="hardAlpha"/>
<feOffset dy="4"/>
<feGaussianBlur stdDeviation="2"/>
<feComposite in2="hardAlpha" operator="out"/>
<feColorMatrix type="matrix" values="0 0 0 0 0 0 0 0 0 0 0 0 0 0 0 0 0 0 0.25 0"/>
<feBlend mode="normal" in2="BackgroundImageFix" result="effect1_dropShadow_117_68"/>
<feBlend mode="normal" in="SourceGraphic" in2="effect1_dropShadow_117_68" result="shape"/>
</filter>
</defs>
</svg>
