<svg version="1.0" xmlns="http://www.w3.org/2000/svg"
 width="512.000000pt" height="512.000000pt" viewBox="0 0 512.000000 512.000000"
 preserveAspectRatio="xMidYMid meet">

<g transform="translate(0.000000,512.000000) scale(0.100000,-0.100000)"
fill="#fff" stroke="none">
<path d="M2321 5110 c-497 -48 -990 -251 -1376 -565 -114 -92 -294 -274 -384
-387 -229 -287 -417 -675 -495 -1023 -49 -218 -60 -325 -60 -575 0 -250 11
-357 60 -575 79 -355 272 -749 509 -1040 92 -114 274 -294 387 -384 287 -229
675 -417 1023 -495 218 -49 325 -60 575 -60 250 0 357 11 575 60 261 58 603
204 828 353 389 259 688 599 893 1016 125 255 196 484 241 775 24 161 24 539
0 700 -45 291 -116 520 -241 775 -134 272 -283 480 -498 692 -211 209 -404
346 -673 478 -252 124 -486 197 -765 240 -126 19 -468 27 -599 15z m1127
-1617 c64 -47 87 -120 62 -190 -6 -15 -172 -189 -368 -385 l-357 -358 352
-352 c194 -194 357 -366 363 -381 27 -73 0 -147 -69 -194 -37 -25 -91 -30
-138 -13 -15 6 -187 169 -380 363 l-353 352 -357 -357 c-314 -312 -363 -358
-401 -368 -115 -30 -222 77 -192 193 10 37 56 87 368 400 l357 357 -352 353
c-194 193 -357 365 -363 380 -17 47 -12 101 13 138 47 69 121 96 194 69 15 -6
187 -169 381 -363 l352 -352 358 357 c196 197 368 362 382 368 37 15 117 6
148 -17z"/>
</g>
</svg>
