<?xml version="1.0" standalone="no"?>
<!DOCTYPE svg PUBLIC "-//W3C//DTD SVG 20010904//EN"
 "http://www.w3.org/TR/2001/REC-SVG-20010904/DTD/svg10.dtd">
<svg version="1.0" xmlns="http://www.w3.org/2000/svg"
 width="512.000000pt" height="512.000000pt" viewBox="0 0 512.000000 512.000000"
 preserveAspectRatio="xMidYMid meet">

<g transform="translate(0.000000,512.000000) scale(0.100000,-0.100000)"
fill="#000000" stroke="none">
<path d="M1475 4734 c-494 -89 -907 -453 -1049 -924 -56 -188 -56 -180 -56
-1235 0 -1077 -1 -1062 66 -1263 138 -419 460 -740 878 -877 205 -67 191 -66
1286 -63 902 4 991 5 1060 22 275 65 494 185 686 376 196 194 322 427 381 700
17 80 18 167 18 1495 l0 1410 -23 57 c-51 125 -165 239 -290 290 l-57 23
-1410 2 c-1190 1 -1422 -1 -1490 -13z m385 -1672 c0 -944 -2 -915 62 -1034 39
-74 123 -157 197 -197 100 -53 157 -61 446 -61 284 0 331 6 435 58 67 33 165
129 202 198 58 107 58 109 58 822 0 727 1 739 66 849 90 153 230 223 446 223
l108 0 0 -862 c0 -568 -4 -894 -11 -953 -30 -243 -133 -449 -311 -621 -127
-123 -271 -204 -448 -252 -93 -25 -103 -26 -490 -30 -331 -3 -410 -1 -492 13
-470 78 -819 445 -877 920 -14 118 -15 1305 0 1395 27 174 157 324 323 371 41
12 98 18 174 18 l112 1 0 -858z"/>
</g>
</svg>
