<svg version="1.0" xmlns="http://www.w3.org/2000/svg"
 width="3000.000000pt" height="5814.000000pt" viewBox="0 0 3000.000000 5814.000000"
 preserveAspectRatio="xMidYMid meet">

<g transform="translate(0.000000,5814.000000) scale(0.100000,-0.100000)"
fill="#000000" stroke="none">
<path d="M7495 53806 l-7490 -4323 -3 -4327 c-1 -2380 1 -4325 5 -4323 124 75
14973 8641 14983 8644 8 2 3388 -1943 7510 -4321 l7495 -4325 3 4321 c1 2377
-1 4325 -5 4329 -17 17 -14985 8649 -14996 8649 -7 -1 -3382 -1946 -7502
-4324z"/>
<path d="M3 23333 c2 -7751 6 -10275 15 -10423 48 -788 99 -1302 183 -1840
403 -2593 1369 -4704 2958 -6465 175 -193 615 -634 801 -801 1165 -1049 2421
-1854 3855 -2471 1566 -674 3348 -1098 5280 -1257 631 -52 1105 -70 1840 -70
1498 0 2761 119 4065 383 2605 528 4911 1633 6805 3262 2312 1989 3666 4693
4070 8134 43 365 70 698 107 1305 9 148 13 2650 15 10333 l3 10137 -3927 -2
-3928 -3 -6 -9780 c-4 -7410 -8 -9810 -17 -9905 -30 -323 -45 -450 -73 -645
-183 -1284 -664 -2447 -1403 -3400 -886 -1142 -2128 -1971 -3581 -2390 -1246
-359 -2574 -387 -3845 -79 -1540 373 -2887 1212 -3824 2384 -924 1155 -1439
2590 -1526 4255 -6 123 -10 3588 -10 9878 l0 9687 -3930 0 -3930 0 3 -10227z"/>
</g>
</svg>
