<svg version="1.0" xmlns="http://www.w3.org/2000/svg"
 width="512.000000pt" height="512.000000pt" viewBox="0 0 512.000000 512.000000"
 preserveAspectRatio="xMidYMid meet">

<g transform="translate(0.000000,512.000000) scale(0.100000,-0.100000)"
fill="#000000" stroke="none">
<path d="M1438 3917 l-1117 -562 159 -104 160 -104 0 -1013 0 -1014 160 -80
160 -80 2 989 3 989 797 -509 797 -510 893 579 c1264 818 1338 866 1338 873 0
5 -2187 1091 -2225 1105 -5 2 -513 -249 -1127 -559z"/>
<path d="M3235 2124 c-363 -239 -666 -434 -674 -434 -7 0 -312 194 -677 430
-365 237 -669 430 -674 430 -6 0 -10 -8 -10 -18 0 -10 -18 -191 -40 -402 -23
-210 -40 -383 -38 -384 2 -1 55 -33 118 -70 63 -38 212 -133 330 -211 399
-265 654 -468 864 -686 l126 -132 126 132 c141 146 298 282 509 439 162 121
518 358 685 457 63 38 116 69 118 70 4 3 -94 805 -99 808 -2 2 -301 -191 -664
-429z"/>
</g>
</svg>
