<svg width="512pt" height="512pt" viewBox="0 0 512 512" version="1.1" xmlns="http://www.w3.org/2000/svg">
<g id="#ffffffff">
<path fill="#ffffff" opacity="1.00" d=" M 273.51 8.33 C 291.75 4.60 310.47 5.38 328.98 5.22 C 349.32 5.14 369.66 5.09 390.00 4.99 C 391.64 5.07 393.66 4.78 394.81 6.25 C 395.71 8.72 395.34 11.41 395.41 13.99 C 395.36 38.99 395.34 64.00 395.32 89.00 C 395.26 90.37 395.14 91.74 394.97 93.10 C 375.66 93.10 356.35 93.08 337.04 93.10 C 329.36 93.13 321.09 94.95 315.59 100.68 C 311.29 104.94 308.50 110.81 308.61 116.93 C 308.49 132.95 308.50 148.97 308.40 164.99 C 308.53 166.87 308.19 169.03 309.39 170.64 C 310.86 172.07 313.07 171.81 314.95 171.91 C 341.90 171.87 368.84 171.84 395.79 171.81 C 392.38 200.10 388.86 228.38 385.41 256.67 C 359.72 256.71 334.03 256.69 308.34 256.68 C 308.28 340.62 308.34 424.56 308.31 508.49 C 291.24 509.21 274.14 508.66 257.06 508.86 C 238.35 508.87 219.64 508.90 200.94 508.90 C 198.71 508.81 195.50 508.97 194.58 506.42 C 193.69 503.71 194.09 500.79 193.99 498.00 C 194.04 417.67 194.07 337.34 194.09 257.01 C 175.72 256.99 157.36 257.01 139.00 257.00 C 139.00 228.67 139.00 200.33 139.00 172.00 C 155.34 172.01 171.68 172.05 188.01 172.10 C 189.70 171.95 191.71 172.33 193.09 171.09 C 194.49 169.78 194.01 167.67 194.20 165.96 C 194.18 144.64 194.18 123.31 194.19 101.98 C 194.34 87.72 196.07 73.16 202.01 60.06 C 208.60 43.99 221.05 30.66 235.99 21.97 C 247.54 15.19 260.42 10.92 273.51 8.33 Z" />
</g>
</svg>
