<svg width="40pt" height="49pt" viewBox="0 0 40 49" version="1.1" xmlns="http://www.w3.org/2000/svg">
<g id="#007ee5ff">
<path fill="#007ee5" opacity="1.00" d=" M 19.50 0.00 L 20.69 0.00 C 23.21 3.67 27.42 5.57 31.62 6.53 C 34.24 7.85 37.17 7.50 39.99 7.65 L 40.00 1.21 L 40.00 20.04 C 39.57 26.97 38.29 34.26 33.78 39.78 C 30.30 44.20 25.27 47.14 20.02 48.99 C 13.85 46.89 8.00 43.11 4.56 37.43 C 1.35 32.32 0.45 26.19 0.00 20.28 L 0.00 7.73 C 7.06 7.55 14.90 5.75 19.50 0.00 M 25.30 18.72 C 22.98 21.06 20.67 23.42 18.36 25.76 C 17.13 24.53 15.91 23.29 14.69 22.06 C 13.70 23.06 12.72 24.07 11.73 25.07 C 13.93 27.32 16.14 29.56 18.36 31.79 C 21.68 28.44 24.95 25.05 28.30 21.73 C 27.30 20.73 26.29 19.73 25.30 18.72 Z" />
</g>
</svg>
