<svg width="256pt" height="256pt" viewBox="0 0 256 256" version="1.1" xmlns="http://www.w3.org/2000/svg">
<g id="#ffffffff">
<path fill="#ffffff" opacity="1.00" d=" M 30.66 33.67 C 43.53 20.73 61.76 13.41 79.97 13.45 C 102.34 13.46 124.72 13.38 147.08 13.49 C 151.07 13.32 153.79 18.40 151.41 21.64 C 149.24 24.12 146.24 25.68 143.67 27.70 C 140.31 29.98 137.25 32.73 133.67 34.65 C 131.35 35.36 128.86 34.99 126.46 35.07 C 135.18 45.86 138.51 60.33 137.18 73.98 C 135.57 88.28 126.55 100.72 115.27 109.18 C 110.74 112.95 104.44 117.21 105.51 123.98 C 112.10 136.64 126.50 141.99 135.24 152.81 C 144.03 162.60 147.16 176.11 146.86 188.99 C 146.85 203.40 139.07 216.99 127.99 225.87 C 113.21 237.86 93.75 242.58 75.01 242.56 C 57.21 242.45 38.99 239.40 23.21 230.81 C 14.24 225.84 6.09 218.44 2.47 208.63 C -1.26 198.76 0.58 187.54 5.48 178.41 C 12.12 165.78 23.84 156.45 36.76 150.78 C 48.14 145.74 60.61 143.39 73.03 143.42 C 69.57 137.18 68.61 129.77 70.31 122.84 C 55.66 122.49 40.95 116.95 30.55 106.45 C 19.34 95.33 13.73 78.99 15.41 63.33 C 16.84 52.04 22.70 41.66 30.66 33.67 M 64.39 34.57 C 56.34 37.25 51.72 45.54 50.30 53.49 C 47.84 67.85 52.41 83.11 61.80 94.17 C 66.49 99.61 72.77 104.14 80.02 105.16 C 86.17 106.02 92.58 103.36 96.37 98.46 C 102.48 90.79 103.80 80.35 102.58 70.88 C 100.94 58.85 95.19 47.02 85.52 39.45 C 79.67 34.86 71.70 32.16 64.39 34.57 M 69.19 161.18 C 59.53 162.91 49.99 166.93 42.99 173.97 C 38.74 178.22 35.57 183.92 35.53 190.05 C 35.38 197.75 39.09 205.20 44.75 210.30 C 53.12 218.00 64.78 221.29 75.98 221.07 C 86.15 220.92 96.73 219.82 105.80 214.85 C 112.16 211.40 116.88 205.08 118.20 197.95 C 119.57 191.12 119.03 183.20 113.98 177.91 C 108.27 171.82 100.97 167.53 94.13 162.85 C 86.22 159.97 77.44 159.90 69.19 161.18 Z" />
<path fill="#ffffff" opacity="1.00" d=" M 190.22 67.98 C 190.10 65.35 192.32 62.87 194.96 62.78 C 198.99 62.59 203.04 62.58 207.07 62.79 C 209.65 62.92 211.75 65.36 211.70 67.91 C 211.83 80.77 211.71 93.63 211.75 106.49 C 224.49 106.53 237.22 106.45 249.96 106.52 C 252.59 106.30 255.23 108.37 255.43 111.05 C 255.69 115.02 255.62 119.02 255.48 123.00 C 255.50 125.82 252.85 128.19 250.07 128.03 C 237.30 128.13 224.53 128.02 211.75 128.07 C 211.73 140.73 211.78 153.40 211.73 166.06 C 211.97 168.86 209.80 171.68 206.92 171.78 C 202.95 171.97 198.97 171.97 195.00 171.77 C 192.13 171.67 189.91 168.85 190.19 166.04 C 190.17 153.38 190.20 140.73 190.19 128.07 C 177.43 128.03 164.68 128.12 151.93 128.03 C 149.15 128.22 146.45 125.89 146.44 123.06 C 146.32 119.08 146.27 115.09 146.47 111.12 C 146.66 108.42 149.29 106.31 151.95 106.52 C 164.70 106.45 177.44 106.54 190.19 106.48 C 190.22 93.65 190.13 80.81 190.22 67.98 Z" />
</g>
</svg>
