<svg width="512pt" height="512pt" viewBox="0 0 512 512" version="1.1" xmlns="http://www.w3.org/2000/svg">
<g id="#000000ff">
<path fill="#000000" opacity="1.00" d=" M 43.50 5.75 C 57.70 3.65 73.21 4.46 85.64 12.34 C 99.30 20.64 107.23 36.32 108.37 51.97 C 110.18 67.63 105.10 84.38 93.50 95.31 C 83.33 105.16 68.91 109.56 54.97 109.46 C 40.70 109.61 26.13 104.25 16.34 93.67 C 2.63 79.04 -0.57 56.59 5.87 37.96 C 11.28 21.35 26.26 8.57 43.50 5.75 Z" />
<path fill="#000000" opacity="1.00" d=" M 302.00 187.17 C 321.36 170.14 347.20 160.55 373.03 161.26 C 392.21 160.68 411.79 162.30 429.85 169.19 C 458.48 180.02 481.64 203.40 493.82 231.30 C 500.63 246.56 503.51 263.16 506.28 279.53 C 508.07 289.92 508.86 300.46 508.91 311.00 C 508.93 367.33 508.96 423.67 508.99 480.00 C 508.92 489.63 509.17 499.27 508.82 508.90 C 478.54 508.94 448.26 508.95 417.97 509.00 C 414.79 508.94 411.52 509.27 408.41 508.50 C 405.65 507.66 405.77 504.31 405.69 501.99 C 405.81 450.00 405.90 398.01 405.66 346.02 C 405.49 329.94 406.21 313.68 403.18 297.81 C 400.62 283.42 393.09 269.49 380.72 261.29 C 367.07 252.31 350.13 248.96 333.97 250.17 C 325.94 251.16 317.82 252.69 310.63 256.59 C 298.78 262.61 290.09 273.28 283.79 284.74 C 277.65 296.08 276.63 309.27 276.59 321.93 C 276.54 384.15 276.45 446.36 276.41 508.58 C 242.11 508.64 207.80 508.66 173.50 508.68 C 173.50 398.45 173.49 288.22 173.50 177.99 C 173.54 176.49 173.61 174.68 175.07 173.81 C 176.65 173.31 178.33 173.33 179.97 173.30 C 206.98 173.36 233.99 173.36 261.01 173.40 C 266.04 173.45 271.08 173.19 276.10 173.74 C 276.08 186.49 276.12 199.25 276.07 212.00 C 276.06 213.48 276.26 214.94 276.69 216.37 C 284.71 206.29 292.06 195.51 302.00 187.17 Z" />
<path fill="#000000" opacity="1.00" d=" M 7.34 176.22 C 9.11 175.40 11.12 175.57 13.02 175.48 C 40.68 175.52 68.33 175.49 95.98 175.49 C 99.33 175.54 102.72 175.26 106.03 175.85 C 107.54 176.14 108.69 177.51 108.84 179.02 C 109.26 182.01 109.07 185.04 109.10 188.05 C 109.08 292.38 109.09 396.70 109.20 501.02 C 109.05 503.29 109.45 506.02 107.70 507.80 C 106.09 509.05 103.94 508.86 102.03 509.00 C 72.35 509.01 42.67 508.99 12.99 509.01 C 10.79 508.88 8.22 509.13 6.48 507.50 C 5.15 505.62 5.41 503.19 5.30 501.02 C 5.33 394.69 5.30 288.35 5.31 182.02 C 5.44 180.02 5.25 177.29 7.34 176.22 Z" />
</g>
</svg>
