<svg width="308" height="238pt" viewBox="0 0 231 238" xmlns="http://www.w3.org/2000/svg"><path fill="#ffbb05" d="M112.98 0h4.28c13.5.71 26.02 9.41 31.5 21.74 6.82-3.42 14.63-4.98 22.22-3.89 12.64 1.63 24.09 10.41 28.82 22.26 2.71 6.3 3.31 13.33 2.35 20.08 16.21 3.39 28.77 18.63 28.85 35.22v1.91c-.42 9.25-4.34 18.23-10.88 24.79 8.34 9.32 11.54 22.95 7.83 34.94-3.75 13.36-15.74 23.64-29.37 25.82 1.06 11.38-3.2 23.25-11.75 30.93-10.86 10.24-28.03 12.48-41.29 5.74-6.05 10.47-17.31 17.63-29.4 18.46h-4.87c-12.62-.79-24.31-8.56-30.19-19.71-11.33 5.04-25.18 4.19-35.48-2.86-11.74-7.56-18.07-22.13-16.09-35.89-7.77-1.68-15.06-5.7-20.3-11.72-5.45-6.05-8.5-13.99-9.21-22.05v-2.4c.07-9.4 3.92-18.55 10.33-25.38-4.72-5.31-8.13-11.85-9.27-18.9-2.14-11.91 2.19-24.74 11.11-32.92 5.13-4.84 11.69-7.95 18.57-9.35-1.83-14.24 5.37-29.16 17.91-36.26 10.31-6.17 23.57-6.52 34.39-1.44C89.02 8.24 100.58.81 112.98 0z"/></svg>