<svg width="202pt" height="44" viewBox="0 0 202 33" xmlns="http://www.w3.org/2000/svg"><g fill="#020202"><path d="M8.37 0h1.98l.86.68c.51.77 1.52 2.31 2.03 3.08-2.65-.53-5.3-1.08-7.96-1.55C6.64 3.27 8.03 4.3 9.44 5.29 8.05 6.34 6.66 7.38 5.25 8.41c.39.3 1.17.89 1.55 1.18-1.62 1.3-3.25 2.6-4.88 3.89.42.2 1.25.59 1.67.79-1.52 3.22-1.35 6.91-.09 10.2-.81 1.82-1.44 3.72-2.27 5.54C1.67 24.69 3.3 18.44 0 13.73v-.54c.82-.3 1.64-.63 2.44-.98-.59-3.02-1.08-6.19-.34-9.23C4.36.75 8.19 2.29 10.98 1.5L8.37 0zm79.29 0h2.53c.93 4.96.36 10.02.49 15.03-.03 3.11.26 6.25-.24 9.34-1.18 1.85-2.29-.07-3.34-.96-2.41 1.33-5.21 2.78-7.96 1.4-6.36-2.15-6.55-12.51-.44-15.11 2.98-1.48 6.2-.13 8.81 1.45-.21-3.72-.15-7.44.15-11.15m-7.53 12.26c-4.07 2.16-3.32 9.28 1.27 10.29 3.9 1 7.33-3.41 6.03-7.03-.7-3.08-4.54-4.89-7.3-3.26zM12.25 1.19c4.53.85 9.14.64 13.72.62 1.69.15 3.81-.29 5 1.26.32 2.61.04 5.26.38 7.88 1.67 2.2 4.37 3.67 5.32 6.38.84 2.42-.6 4.77-1.34 7.01-1.42-1.45-2.8-2.94-4.17-4.44.02 3.57.35 7.23-.66 10.71l-1.07-.01c.44-4.19-2.48-7.74-2.09-11.91-1.73-.8-3.45-1.61-5.17-2.43 3.24.08 6.39.88 9.56 1.49l-.43.67c.93.41 1.86.81 2.8 1.21.45.99.89 1.98 1.31 2.98-.03-1.84-.05-3.69-.11-5.53-1.45-1.23-2.8-2.56-4.16-3.89-1.01.38-2.02.76-3.03 1.13l1.98-3.57C25.86 4.9 18.4 3.94 12.25 1.19zm35.08 8.2c2.78-.69 6.59-.46 8.1 2.4-.87 3.4-4.38-.9-6.5-.01-5.65 1.1-5.02 11.05 1.01 10.84 1.76-.09 5.56-3.13 5.37.39-3.48 4.02-10.91 2.6-12.97-2.21-2.05-4.3.15-10.28 4.99-11.41z"/><path d="M61.43 9.61c5.06-2.18 11.85 1.59 11.55 7.38.6 6.54-7.81 10.68-12.97 7.02-5.47-3.15-4.65-12.45 1.42-14.4m.76 2.7c-3.74 2.06-3.41 8.31.53 9.97 3.43 1.61 7.45-1.66 6.97-5.31.35-3.79-4.24-6.74-7.5-4.66zm30.11 5.62c-.76-5.34 4.6-10.12 9.82-8.7 4.11.63 6.17 5.1 5.38 8.91-4.17.11-8.37-.23-12.52.44 1.25 1.49 2.27 3.61 4.39 3.99 2.49.61 4.5-1.44 6.74-2.12 2 1.32-.28 3.37-1.68 3.94-4.84 2.8-12.03-.64-12.13-6.46m3.01-2.17c3.21-.01 6.41-.03 9.62-.11-.85-1.73-1.66-3.99-3.96-4.07-2.78-.56-4.84 1.81-5.66 4.18zm18.99-6.3c2.77-.75 7.23-.68 8.32 2.51-.96 3.16-4.54-1.33-6.64-.1-4.6 1.1-5.11 8.37-.86 10.28 2.2 1.4 4.42-.79 6.67-.88 1.91.85.14 2.99-1.17 3.29-4.14 2.06-10-.03-11.33-4.61-1.49-4.11.74-9.2 5.01-10.49zm13.12.12c2.8-.84 6.47-.9 8.53 1.52 1.59 1.93 1.3 4.59 1.41 6.92-.15 2.59.59 5.62-1.44 7.69-.46-.61-1.37-1.82-1.83-2.42-2.06 1.4-4.57 2.7-7.1 1.68-3.16-.64-4.87-5.06-2.46-7.4 2.68-2.54 6.69-2.08 10.07-2.47-.68-1.59-1.57-3.43-3.57-3.52-2.14.19-4.09 1.17-6.15 1.68-1.11-1.99 1.01-3.19 2.54-3.68m-.74 11.49c2.44 3.91 8.18.55 7.86-3.52-2.66.24-8.05-.47-7.86 3.52zm16.13-9.97c1.59-.93 3.16-2.3 5.15-2.02 3.15-.18 5.59 2.89 5.42 5.89 0 3.25.44 6.61-.35 9.79-.69.04-2.07.1-2.76.13-.2-3.84.6-7.88-.63-11.58-1.4-2.66-5.47-1.79-6.39.83-1.05 3.33-.07 6.94-.68 10.36-1.04.97-2.01.9-2.93-.21-.25-4.6-.34-9.26.04-13.85.34-.47 1.01-1.42 1.35-1.89.44.64 1.33 1.91 1.78 2.55zm11.68-.29c.27-1.24 1.03-1.8 2.27-1.7 2.56 3.66 3.62 8.1 5.48 12.12 1.8-3.69 2.8-7.72 4.64-11.38.62-1.38 3.16-.69 2.71 1.02-1.74 5.03-4.02 9.85-5.9 14.84-1 2.19-1.64 4.8-3.69 6.29-1.72 1.02-3.76.26-5.59.12.5-2.23 2.88-2.19 4.48-3.21.85-1.5 2.26-3.37 1.33-5.13-1.76-4.39-4.12-8.52-5.73-12.97zm20.86-1.35c5.06-1.82 11.44 1.88 11.17 7.56.47 6.41-7.47 10.48-12.7 7.2-5.95-3.05-4.99-13.04 1.53-14.76m.75 2.67c-3.97 1.75-3.99 8.14-.09 10.01 3.4 1.92 7.64-1.41 7.27-5.13.16-3.58-3.87-6.64-7.18-4.88zm12.36-2.81c1.31-.51 2.15.74 3.11 1.38 2.97-2.07 7.94-2.49 9.65 1.4 1.04 3.95.5 8.13.78 12.18v.19c-.81.15-2.43.46-3.24.61-.28-4 .33-8.13-.72-12.04-1.75-2.45-5.69-1.31-6.46 1.39-.55 2.86-.15 5.79-.45 8.67.32 1.87-1.76 1.71-2.94 2.21.06-5.32-.86-10.74.27-15.99zM16 11.41c1.69.25 3.39.6 4.98 1.23-1.03.57-1.9 1.81-3.21 1.64-1.12-.56-1.36-1.83-1.77-2.87z"/></g><path fill="#fff" d="M11.21.68c.26.13.78.38 1.04.51 6.15 2.75 13.61 3.71 17.84 9.56l-1.98 3.57c1.01-.37 2.02-.75 3.03-1.13 1.36 1.33 2.71 2.66 4.16 3.89.06 1.84.08 3.69.11 5.53-.42-1-.86-1.99-1.31-2.98-.94-.4-1.87-.8-2.8-1.21l.43-.67c-3.17-.61-6.32-1.41-9.56-1.49 1.72.82 3.44 1.63 5.17 2.43-.39 4.17 2.53 7.72 2.09 11.91-9.01-.23-18.01 0-27.02-.12.37-2.12 1.13-4.13 1.95-6.11-.21.03-.65.08-.86.1-1.26-3.29-1.43-6.98.09-10.2-.42-.2-1.25-.59-1.67-.79 1.63-1.29 3.26-2.59 4.88-3.89-.38-.29-1.16-.88-1.55-1.18 1.41-1.03 2.8-2.07 4.19-3.12-1.41-.99-2.8-2.02-4.16-3.08 2.66.47 5.31 1.02 7.96 1.55-.51-.77-1.52-2.31-2.03-3.08M16 11.41c.41 1.04.65 2.31 1.77 2.87 1.31.17 2.18-1.07 3.21-1.64-1.59-.63-3.29-.98-4.98-1.23z"/></svg>