<svg width="512pt" height="512pt" viewBox="0 0 512 512" version="1.1" xmlns="http://www.w3.org/2000/svg">
<g id="#ffffffff">
<path fill="#ffffff" opacity="1.00" d=" M 275.49 108.52 C 301.41 79.02 344.72 66.82 382.39 77.38 C 396.87 81.71 410.32 89.31 421.61 99.35 C 425.32 102.51 429.55 106.47 434.89 105.37 C 455.79 100.59 475.84 92.50 494.79 82.51 C 491.02 94.42 485.21 105.71 477.33 115.42 C 470.46 124.08 462.16 131.47 453.46 138.25 C 465.17 136.54 476.78 134.03 488.06 130.42 C 494.90 128.41 501.56 125.82 508.57 124.43 C 495.87 143.03 479.97 159.28 462.37 173.27 C 459.59 175.25 458.04 178.54 458.30 181.96 C 458.93 220.24 452.67 258.81 438.49 294.45 C 423.85 334.74 400.60 372.00 370.31 402.37 C 343.94 428.58 312.78 450.20 278.33 464.34 C 227.88 485.01 171.88 491.41 117.96 483.80 C 87.85 479.67 58.49 470.40 31.29 456.87 C 23.71 453.20 16.50 448.83 9.07 444.89 C 6.90 443.76 4.81 442.49 2.87 441.00 C 12.22 440.04 21.63 442.09 31.02 441.22 C 66.03 440.58 100.86 430.86 131.05 413.10 C 139.62 408.63 147.27 402.67 155.29 397.31 C 143.16 396.12 131.07 393.80 119.67 389.39 C 105.84 384.12 93.13 375.84 82.97 365.05 C 71.90 353.54 63.88 339.43 57.92 324.70 C 73.03 326.52 88.57 326.89 103.38 322.87 C 90.01 318.46 76.90 312.86 65.36 304.71 C 52.21 295.57 41.23 283.27 33.99 268.97 C 26.03 253.56 22.36 236.30 21.11 219.10 C 35.84 226.07 51.64 231.32 68.07 231.68 C 59.30 224.62 50.69 217.14 43.99 208.02 C 24.25 183.09 18.13 148.65 26.01 118.07 C 28.36 109.26 32.25 101.01 36.57 93.02 C 64.83 125.87 99.02 154.06 138.30 172.72 C 173.55 189.84 212.32 199.00 251.31 201.81 C 250.26 193.24 249.08 184.65 249.29 176.00 C 249.60 151.34 259.02 126.90 275.49 108.52 Z" />
</g>
</svg>
