<svg width="13" height="13" fill="none" xmlns="http://www.w3.org/2000/svg"><path d="M11.299 1.742c-.444-.501-1.244-.532-1.778.02L4.295 7.179c-.135.14-.135.318 0 .458s.307.14.442 0l4.323-4.48a.63.63 0 01.912 0 .686.686 0 010 .946L5.65 8.582c-.64.662-1.628.662-2.267 0a1.68 1.68 0 010-2.35L8.608.819C9.62-.23 11.263-.265 12.24.828c1.002 1.048 1.031 2.743-.019 3.752l-6.12 6.342c-1.413 1.464-3.628 1.464-5.041 0a3.748 3.748 0 010-5.224L6.286.283a.63.63 0 01.912 0 .686.686 0 010 .945L1.972 6.643a2.378 2.378 0 000 3.333c.91.942 2.308.942 3.217 0l6.129-6.35a.627.627 0 01.02-.02c.484-.46.514-1.29-.02-1.843a.663.663 0 01-.02-.021z" fill="#142251"/></svg>