<svg width="13" height="14" fill="none" xmlns="http://www.w3.org/2000/svg"><path d="M9.6.232a.722.722 0 011.022 0l2.167 2.166a.722.722 0 010 1.022l-6.5 6.5a.722.722 0 01-.511.211H3.61a.722.722 0 01-.722-.722V7.242c0-.191.076-.375.211-.51l6.5-6.5zm-5.267 7.31v1.145H5.48l5.777-5.778-1.145-1.145L4.333 7.54zM0 2.908c0-.798.647-1.445 1.444-1.445h3.612a.722.722 0 010 1.445H1.444v8.667h8.667V7.964a.722.722 0 011.445 0v3.612c0 .797-.647 1.444-1.445 1.444H1.444A1.444 1.444 0 010 11.576V2.909z" fill="#142251"/></svg>