<svg width="44pt" height="60" viewBox="0 0 44 45" xmlns="http://www.w3.org/2000/svg"><g fill="#fff"><path opacity=".81" d="M5.17 1.25l1.55.04c4.38 9.62 8.14 19.54 12.29 29.27 2.67-.32 5.14.75 6.74 2.91 4.86-1.73 9.41-4.71 14.56-5.43-.51.92-1.24 1.57-2.21 1.95-3.93 1.59-7.86 3.19-11.77 4.85.4 2.75-.74 5.66-3.4 6.8-3.64 1.97-8.49-1.44-8.17-5.47-.14-2.12 1.57-3.6 2.86-5.02-3.02-6.8-5.7-13.75-8.64-20.59-2.08.05-4.23.19-6.18-.71 1.64-1.16 3.68-.89 5.57-.91-1.09-2.55-2.22-5.09-3.2-7.69m13.04 31.52c-2.6 1.65-2.54 5.54.04 7.16 2.71 2.21 6.96-.66 6.61-3.88-.18-3.04-4.12-5.11-6.65-3.28z"/><path opacity=".81" d="M12.91 10.91c3.45-1.81 7.07-3.3 10.75-4.55 1.58 3.45 3.06 6.95 4.41 10.5-3.46 1.54-6.98 2.94-10.4 4.56-1.9-3.36-3.07-7.05-4.76-10.51m2.11.59c1 2.65 2.14 5.23 3.27 7.82 2.61-1.06 5.22-2.14 7.8-3.27C25 13.42 23.9 10.79 22.7 8.2c-2.52 1.2-5.08 2.28-7.68 3.3zm2.86 11.39c6.14-2.85 12.38-5.6 18.77-7.83 1.54 3.33 2.69 6.84 4.42 10.1-3.13 2.11-6.84 3.04-10.22 4.66-1.76.61-3.88 2.35-5.55.68 4.56-2.03 9.23-3.79 13.76-5.87-1.11-2.57-2.24-5.12-3.37-7.68-5.26 2.2-10.57 4.31-15.79 6.63.53 1.68 2.12 3.29 1.64 5.16-2.34-.39-2.4-4.09-3.66-5.85zM18.64 36c.63-.4 1.9-1.2 2.54-1.6 1.17 1.66.99 3.2-1.05 3.84-.37-.56-1.12-1.68-1.49-2.24z"/></g></svg>