<svg width="60" height="56" viewBox="0 0 45 42" xmlns="http://www.w3.org/2000/svg"><g fill="#fff"><path opacity=".77" d="M.56 1.13c11.37.21 22.74-.2 34.1.07.01 8.87.03 17.74-.01 26.61-6.37.38-12.76.22-19.14.17-2.67 2.89-5.08 6.05-8.16 8.53-.46-2.82-.51-5.69-.44-8.54l-6.38-.15C.51 18.92.46 10.03.56 1.13M2.3 2.87c.06 7.74 0 15.48-.01 23.22 2.12.05 4.25.08 6.37.22.11 2.23.08 4.47.08 6.71 2.12-2.24 3.89-4.9 6.42-6.71 5.91-.27 11.84 0 17.76-.18-.13-7.76.07-15.53-.09-23.29-10.18.05-20.36-.04-30.53.03z"/><path opacity=".77" d="M7.72 10.27c5.1-.06 10.2.1 15.31.01 1.77.07 3.72-.34 5.28.73-4.13.33-8.27.04-12.41.16-2.74-.06-5.67.47-8.18-.9zm.75 2.95c5.55.18 11.1.09 16.65.06 1.09-.11 2.18.14 3.08.77-6.58.64-13.21-.01-19.82.33l.09-1.16zm-.12 3.19c6.68.44 13.48-.64 20.08.59-6.58 1.14-13.34.16-19.99.54-.02-.28-.06-.85-.09-1.13zm27.6 1.02c2.24-.11 4.49-.11 6.74-.01.23 5.04.12 10.08.07 15.12-1.12.16-2.23.32-3.35.49.04 1.13.09 2.26.13 3.39-.28.12-.84.37-1.11.49-1.23-1.26-2.38-2.6-3.72-3.75-3.43-.66-7-.07-10.48-.46.2-1.51-1.1-3.95 1.17-4.44.13.7.41 2.09.54 2.78 3.08-.02 6.15-.01 9.22 0 .76.88 1.5 1.77 2.25 2.66.13-2.17 1.68-2.82 3.6-2.95-.2-3.85-.11-7.72-.01-11.58-1.72-.43-4.75.8-5.05-1.74z"/></g></svg>