<svg xmlns="http://www.w3.org/2000/svg" xmlns:xlink="http://www.w3.org/1999/xlink" xmlns:svgjs="http://svgjs.com/svgjs" width="512pt" height="512pt"><svg width="512pt" height="512pt" viewBox="0 0 512 512" xmlns="http://www.w3.org/2000/svg"><g id="SvgjsG1000"><path d="M119.52 82.01c-.44-4.67 3.72-8.95 8.4-8.65 28.72-.05 57.44-.04 86.16-.01 3.76-.22 7.49 2.38 8.3 6.11.43 2.48.23 5 .27 7.5-.02 24.5-.01 49-.01 73.5 17.79.06 35.57-.08 53.35.07 4.34.01 7.96 4.09 7.67 8.39.04 26.22 0 52.44.02 78.67 3.36.01 6.71.01 10.07.01.04-35.2-.04-70.4.04-105.6-.05-8.65 7.65-16.39 16.3-16.37 24.63-.08 49.26 0 73.89-.03 5.33-.19 10.58 2.26 13.9 6.41 27.15 32.52 54.26 65.06 81.42 97.57 3.01 3.39 4.81 7.82 4.69 12.38.02 33.36.02 66.72 0 100.07.41 4.49-3.42 8.76-7.96 8.66-11.14.12-22.28 0-33.41.05 6.09 11.98 8.17 25.98 5.52 39.18-2.88 15.14-11.88 28.99-24.53 37.79-12.52 8.84-28.49 12.6-43.64 10.23-17.66-2.57-33.85-13.52-42.83-28.95-10.5-17.45-11.05-40.2-1.68-58.25-48.55-.01-97.1-.01-145.65 0 5.7 11.12 7.98 23.99 6.09 36.36-2.33 16.49-11.89 31.78-25.7 41.08-12.5 8.57-28.31 12.14-43.27 9.72-14.97-2.28-28.93-10.51-38.19-22.49-14.36-17.99-16.75-44.31-6.07-64.68-15.57-.03-31.14.07-46.7-.04-4.54.11-8.37-4.15-7.96-8.64-.01-28.7-.03-57.41.01-86.12-.28-4.39 3.59-8.47 8.01-8.3 7.51-.1 15.02.02 22.52-.04 0-25.86.02-51.73-.01-77.6-.63-4.58 2.81-9.4 7.6-9.46 17.78-.15 35.58-.02 53.37-.06.03-26.15-.01-52.31.01-78.46m16 7.34c0 23.7-.01 47.41.01 71.11 23.7.01 47.4 0 71.1.01.02-23.71 0-47.42.01-71.13-23.71-.01-47.42-.02-71.12.01m174.29 52.32c-.11 64.35-.04 128.71-.03 193.07 12.61-.02 25.22.01 37.83-.02 10.31-9.79 24.11-15.88 38.35-16.52 16.27-.93 32.74 5.2 44.48 16.51 12.52.06 25.03 0 37.55.03.02-6.27.01-12.54 0-18.8-6.66-.08-13.32.12-19.98-.09-8.05-.36-14.95-7.76-14.87-15.8-.04-6.39-.05-12.79.01-19.18-.09-7.99 6.77-15.34 14.75-15.74 6.69-.18 13.39 0 20.09-.07 0-7.92.04-15.85-.02-23.77-27.62-33.09-55.08-66.33-82.76-99.38-25.14-.04-50.27-.3-75.4-.24M74.56 176.48v71.11c23.7.02 47.41.01 71.11.01.01-23.71.01-47.42 0-71.13-23.7 0-47.41-.02-71.11.01m87.12 0v71.11c6.29.02 12.58.01 18.87.01.01-23.71.01-47.42 0-71.13-6.29 0-12.58-.02-18.87.01m34.88 0c-.01 23.7 0 47.41 0 71.11 23.7.02 47.41 0 71.11.01.01-23.71.02-47.42 0-71.13-23.7 0-47.41-.02-71.11.01M44 263.61c0 23.7-.01 47.41.01 71.12 16.91.01 33.82-.02 50.74.02 13.92-13.34 34.37-19.44 53.3-15.48 11.24 2.04 21.4 7.89 29.87 15.38 38.61.19 77.23.03 115.84.08.02-23.7-.02-47.4.02-71.09-83.26-.09-166.52-.02-249.78-.03m405.12 17.46v18.86c6.29.01 12.58 0 18.88 0 0-6.29 0-12.58-.01-18.86-6.29 0-12.58-.01-18.87 0m-320.6 53.73c-14.14 2.39-26.61 12.21-32.49 25.25-5.69 12.21-5.31 27.02 1.03 38.91 6.25 12.12 18.43 20.94 31.9 23.07 12.26 2.09 25.33-1.3 35.01-9.14 10.49-8.3 16.77-21.58 16.56-34.95-.05-12.58-5.82-24.97-15.4-33.13-9.88-8.61-23.72-12.36-36.61-10.01m252.98-.07c-16.19 2.61-30.25 15.02-34.87 30.76-4.31 13.84-1.17 29.68 8.07 40.85 8.65 10.72 22.53 16.97 36.31 16.22 12.93-.5 25.43-7.1 33.21-17.44 6.95-9.05 10.12-20.87 8.7-32.19-1.33-11.19-7.17-21.75-15.91-28.85-9.75-8.05-23.06-11.55-35.51-9.35z"/><path d="M335.43 160.61c12.2-.35 24.44-.04 36.65-.15 2.81-.18 5.67.76 7.53 2.93 10.54 11.12 21.05 22.28 31.58 33.4 1.62 1.67 3.08 3.73 3.07 6.16.12 6.01.1 12.03.01 18.04.05 4.31-3.94 8.01-8.22 7.79-23.05.03-46.1.03-69.14 0-4.73.27-8.77-4.18-8.27-8.85 0-16.96-.02-33.92.01-50.88-.31-4.01 2.74-7.97 6.78-8.44m9.21 15.87c0 12.1-.01 24.21.01 36.32h53.65c-.25-2.6.99-5.89-1.36-7.81-9-9.38-17.76-19.02-26.86-28.29-8.42-.56-16.97-.08-25.44-.22zM132.26 353.32c11.69-2.15 24.09 5.24 27.91 16.47 3.33 9 .9 19.77-5.95 26.48-6.72 6.89-17.52 9.31-26.53 5.94-10.66-3.67-17.95-15.05-16.66-26.27.89-11.21 10.1-21.02 21.23-22.62m1.11 16.1c-4.67 1.42-7.59 6.82-6.13 11.49 1.24 4.77 6.61 7.91 11.37 6.53 4.99-1.15 8.22-6.82 6.69-11.7-1.31-4.96-7.09-8.03-11.93-6.32zm251.9-16.14c13.15-2.37 26.82 7.51 28.8 20.69 2.53 12.75-6.41 26.34-19.12 29.05-8.74 2.19-18.48-.82-24.52-7.48-6.59-6.99-8.58-17.88-4.84-26.73 3.22-8.17 11-14.27 19.68-15.53m1.87 15.89c-6.94 1.13-9.96 10.69-4.92 15.59 4.54 5.35 14.27 2.98 15.88-3.85 2.18-6.45-4.39-13.44-10.96-11.74z"/></g></svg><style>@media (prefers-color-scheme:light){:root{filter:none}}@media (prefers-color-scheme:dark){:root{filter:invert(100%)}}</style></svg>