<svg width="56" height="46pt" viewBox="0 0 42 46" xmlns="http://www.w3.org/2000/svg"><g fill="#fefefe"><path d="M18.8 0h3.44c.02 1.39.03 2.77.04 4.16 4.68.64 8.76 2.94 12.56 5.61.47-.14 1.43-.41 1.91-.55l-1.92-2.36 2.1-1.95c1.47 1.5 2.95 2.99 4.43 4.48-.34.47-1.02 1.4-1.35 1.86-1.34-.59-2.73-1.14-4.03-.15 3.21 4.31 5.63 9.49 5.22 15-.32 10.11-8.84 19.13-18.96 19.9h-3.25C9.14 45.31.86 36.86 0 27.09v-3.71c.74-9.89 9.11-18.04 18.85-19.2-.02-1.39-.03-2.79-.05-4.18m-4.61 7.22C7.84 9.46 3.07 15.36 2 21.99.3 30.91 6.01 40.56 14.7 43.25c9.53 3.56 20.9-2.58 23.74-12.2 2.58-7.67-.35-16.83-7.03-21.46-4.87-3.6-11.55-4.34-17.22-2.37z"/><path d="M19.68 9.46c.43.05 1.3.16 1.74.21.01 4.51.02 9.03.02 13.54 3.23 2.09.62 5.02-.65 7.43-1.78-2.01-4.2-5.37-1.13-7.44.05-4.58.02-9.16.02-13.74z"/></g></svg>