<svg width="46pt" height="38pt" viewBox="0 0 46 38" version="1.1" xmlns="http://www.w3.org/2000/svg">
<g id="#a9d8ffff">
<path fill="#a9d8ff" opacity="1.00" d=" M 24.20 1.14 C 30.72 0.27 37.48 0.83 44.08 0.84 C 44.45 1.14 45.19 1.73 45.56 2.02 C 45.51 5.88 46.50 10.24 44.95 13.80 C 41.06 14.66 36.99 14.01 33.04 14.20 C 31.17 15.87 29.21 17.42 27.14 18.82 C 27.10 17.38 27.07 15.94 27.05 14.50 C 25.62 14.07 23.12 14.03 23.41 11.89 C 23.67 8.39 22.42 4.25 24.20 1.14 M 26.28 6.86 C 26.60 7.69 26.92 8.52 27.24 9.36 C 28.07 9.37 28.89 9.41 29.72 9.45 C 29.97 8.60 30.22 7.75 30.48 6.91 C 29.78 6.39 29.08 5.86 28.39 5.32 C 27.86 5.70 26.81 6.47 26.28 6.86 M 32.46 6.89 C 32.73 7.74 33.00 8.60 33.26 9.46 C 34.10 9.41 34.93 9.39 35.77 9.37 C 36.06 8.54 36.35 7.70 36.64 6.87 C 36.13 6.48 35.09 5.70 34.58 5.31 C 33.88 5.84 33.17 6.37 32.46 6.89 M 38.57 6.93 C 38.85 7.76 39.11 8.59 39.38 9.42 C 40.25 9.37 41.12 9.34 41.99 9.31 C 42.24 8.49 42.49 7.66 42.74 6.84 C 42.23 6.46 41.21 5.71 40.70 5.33 C 39.99 5.87 39.29 6.40 38.57 6.93 Z" />
<path fill="#a9d8ff" opacity="1.00" d=" M 11.52 7.73 C 15.01 6.36 20.42 7.15 21.41 11.39 C 22.17 15.35 21.53 20.50 17.68 22.68 C 14.44 24.55 10.04 22.69 8.97 19.15 C 7.62 15.42 7.07 9.56 11.52 7.73 Z" />
<path fill="#a9d8ff" opacity="1.00" d=" M 2.30 28.36 C 5.50 26.65 9.14 25.80 12.06 23.56 C 13.00 24.41 13.92 25.27 14.85 26.13 C 15.80 25.27 16.74 24.41 17.69 23.57 C 20.63 25.86 24.32 26.67 27.55 28.40 C 29.15 31.05 28.96 34.30 29.39 37.26 C 19.70 37.27 10.02 37.28 0.34 37.26 C 0.83 34.30 0.47 30.90 2.30 28.36 Z" />
</g>
</svg>
