<svg width="44pt" height="38pt" viewBox="0 0 44 38" version="1.1" xmlns="http://www.w3.org/2000/svg">
<g id="#a9d8ffff">
<path fill="#a9d8ff" opacity="1.00" d=" M 8.44 9.50 C 11.70 6.66 14.22 2.82 18.00 0.69 C 19.81 1.53 21.05 3.17 22.46 4.51 C 29.17 11.40 36.23 17.94 42.74 25.01 C 40.30 28.33 37.08 30.95 34.27 33.94 C 37.52 33.95 40.83 33.63 44.00 34.52 L 44.00 36.43 C 42.60 37.60 40.71 37.29 39.03 37.36 C 27.03 37.28 15.03 37.38 3.03 37.32 C 1.00 38.07 -1.01 35.63 0.91 34.14 C 6.65 33.64 12.44 34.08 18.20 33.93 C 12.82 28.20 6.65 23.13 1.78 17.00 C 3.04 13.89 6.31 12.04 8.44 9.50 M 6.27 16.84 C 11.96 22.54 17.69 28.21 23.37 33.92 C 25.27 33.93 27.17 33.93 29.07 33.94 C 31.60 31.40 34.15 28.87 36.69 26.32 C 32.14 25.36 27.59 24.39 23.04 23.45 C 22.03 23.13 20.61 23.18 20.14 22.03 C 18.84 16.86 17.90 11.61 16.72 6.42 C 13.23 9.88 9.75 13.37 6.27 16.84 M 23.40 19.67 C 27.21 20.47 31.02 21.31 34.84 22.07 C 30.25 17.46 25.60 12.90 21.04 8.25 C 21.71 12.08 22.62 15.86 23.40 19.67 Z" />
</g>
</svg>
