<svg width="301" height="224" fill="none" xmlns="http://www.w3.org/2000/svg"><path d="M118.42 135.332l-15.104-8.72-2.014-1.163-15.105-8.72 9.298-5.368 15.105 8.721 2.014 1.163 15.103 8.72-9.297 5.367z" fill="#CAE9F8"/><path d="M242.445 116.182c-1.794 1.356-2.761 4.032-3.446 7.16.988 2.696 2.72 4.723 5.128 6.14l5.722 7.841c1.531 2.023 3.851 3.375 6.514 4.434 2.545.616 5.241.64 8.067.151 3.672-1.19 4.819-2.455 5.978-4.672-.647-2.213-3.727-4.753-7.7-7.153l-5.514-6.653-.235-6.991-10.165-4.833-4.349 4.576z" fill="#9DC7D8"/><path d="M284.258 106.009l-.437-.97.437.97z" fill="#A2C8DA"/><path d="M91.512 73.164a5.542 5.542 0 1011.085 0 5.542 5.542 0 00-11.085 0z" fill="#142251"/><path d="M94.256 69.23c0 2.336 5.547 2.43 5.445 0v-5.733h-5.446l.001 5.733zm.36 8.643c2.026-1.161-.65-6.02-2.707-4.723L73.153 83.892l2.708 4.723 18.755-10.742z" fill="#AFB4C4"/><path d="M91.603 61.265a5.542 5.542 0 1010.902-2.001 5.542 5.542 0 00-10.902 2.001z" fill="#142251"/><path d="M107.996 60.108l-.445 2.03-12.1-.986-8.804-3.071.457-1.624 20.892 3.65z" fill="#142251"/><path d="M129.899 33.097l12.68 4.655 1.227 6.694-3.74 7.039-2.541.718-1.829-.199-1.687 6.573-4.628 3.235-38.236-3.046-11.378-4.076-2.549-5.32 1.88-7.348-1.645-.62.942-7.89 5.815-3.96 45.689 3.545z" fill="#fff"/><path d="M129.381 61.812l4.628-3.235-38.4-2.896-4.464 3.085 38.236 3.046z" fill="#142251"/><path d="M95.61 55.68l-4.465 3.086-11.378-4.077-2.549-5.32 1.88-7.347 1.853-6.924 4.273-3.112 10.448 3.808 2.316 5.424-.552 7.272-1.826 7.19z" fill="#AFB4C4"/><path d="M135.697 52.005l-1.687 6.572-38.4-2.896 1.827-7.191 1.639.706 36.621 2.809z" fill="#142251"/><path d="M143.806 44.446l-44.019-3.37-.712 8.12 36.622 2.808 1.828.199 2.542-.719 3.739-7.038z" fill="#AFB4C4"/><path d="M85.223 31.986l-.941-.33-4.57 3.04-.615 7.326 1.854-6.924 4.272-3.112z" fill="#142251"/><path d="M143.806 44.446l-1.227-6.694-45.887-3.593 3.095 6.918 44.019 3.369z" fill="#AFB4C4"/><path d="M76.974 81.253v16.58l-2.928 1.733-8.373-4.619v-16.54l3.176-1.855 8.125 4.701z" fill="#06090A"/><path d="M74.045 99.566V82.965l2.928-1.712v16.58l-2.928 1.733z" fill="#142251"/><path d="M76.974 81.253l-2.928 1.712-8.373-4.558 3.176-1.855 8.125 4.701z" fill="#fff"/><path d="M74.756.5V224H45.733V.5h29.023z" fill="#AFB4C4"/><path d="M76.909 118.183v16.584l-8.155 4.743-3.276-1.706v-16.515l8.429-4.88 3.002 1.774z" fill="#AFB4C4"/><path d="M76.909 118.183v16.584l-8.156 4.743v-16.777l8.156-4.55z" fill="#fff"/><path d="M95.353 138.624l-21.377-12.217c-1.798-.945-4.3 3.833-2.56 4.845l22.111 12.967 1.826-5.595z" fill="#AFB4C4"/><path d="M91.297 143.088a5.58 5.58 0 1011.158 0 5.58 5.58 0 00-11.158 0z" fill="#142251"/><path d="M99.805 139.067s-.602 1.569-2.928 1.398c-2.326-.17-2.659-1.351-2.697-2.262-.038-.911.235-9.783.235-9.783l5.39 10.647z" fill="#486B7C"/><path d="M76.637 115.82l42.891 45.014 2.151 1.026 10.613-6.037.956-1.267 13.239-7.502.884-.962-49.458-51.844-2.561-1.059-11.585 6.754-5.661 5.771-.907 6.601.77.748-1.332 2.757z" fill="#fff"/><path d="M76.637 115.82l42.891 45.014 2.151 1.026 10.613-6.037.956-1.267-55.142-48.842-.907 6.601.77.748-1.332 2.757z" fill="#AFB4C4"/><path d="M147.372 146.096l-.886.956-51.133-53.863 2.56 1.058 49.459 51.849z" fill="#486B7C"/><path d="M83.768 99.945l-5.665 5.767 49.308 51.918 7.393-3.954-51.036-53.73z" fill="#AFB4C4"/><path d="M68.754 122.733v16.777l-3.276-1.706v-16.515l3.276 1.444z" fill="#142251"/><path d="M43.205 96.317v16.451l8.09 4.705 3.249-1.693V99.397l-8.362-4.84-2.977 1.76z" fill="#AFB4C4"/><path d="M43.205 96.317v16.451l8.09 4.705V100.83l-8.09-4.513z" fill="#fff"/><path d="M24.91 116.593l21.207-12.119c1.783-.935 4.264 3.803 2.538 4.808l-21.934 12.863-1.811-5.552z" fill="#AFB4C4"/><path d="M51.295 100.83v16.643l3.25-1.693V99.397l-3.25 1.433z" fill="#142251"/><path d="M40.015 77.416l.216 6.73-12.073 51.1h-1.05v2.285l-4.494 2.471-14.093-1.606-4.508-3.273-.494-4.199-.617 1.605H.865L0 130.554l12.844-56.04 5.372-3.089 15.994 1.73 5.805 4.26z" fill="#fff"/><path d="M40.015 77.416l-13.03 56.039-6.257-2.181-15.891-1.688-4.837.967.865 1.976h2.037l.617-1.605 1.544-.514 15.52 1.502 4.632 1.709.803 1.584 1.09.041h1.05l12.073-51.1-.216-6.73z" fill="#142251"/><path d="M3.522 130.927l.494 4.199 4.505 3.27 14.095 1.606 4.49-2.471v-2.287l-1.086-.04-.806-1.585-.653-.242-1.995-.736-1.981-.732-11.94-1.155-3.078-.296-.504-.05-1.541.519z" fill="#AFB4C4"/><path d="M5.568 130.458c.716 4.069 5.928 6.765 11.046 7.157 4.535.348 7.346-1.749 7.948-4.238l-1.995-.736-1.982-.732-11.94-1.155-3.077-.296z" fill="#142251"/><path d="M8.645 130.754c.662 2.523 3.971 4.451 7.657 4.451 2.796 0 5.435-.637 6.265-2.563l-1.982-.732-11.94-1.156z" fill="#142251"/><path d="M34.21 73.155l-13.483 58.119 6.258 2.181 13.03-56.039-5.805-4.26zm-15.994-1.73l-13.38 58.161-4.836.968 12.844-56.04 5.372-3.088z" fill="#AFB4C4"/><path d="M197.885 184.383l-6.495 10.804s-1.224 2.704-1.475 6.816c-.252 4.11-3.021 14.429 2.014 16.696 5.033 2.265 12.585 2.432 13.676-4.195 1.09-6.628-.924-10.581-.672-12.256.251-1.672.998-7.042-.503-11.152-1.502-4.112-6.545-6.713-6.545-6.713zm84.908 22.038l.208 11.363.5 6.216h16.998s-2.939-3.26-6.295-12.544c-3.356-9.286-11.411-5.035-11.411-5.035z" fill="#142251"/><path d="M292.016 218.95c-7.035 2.175-8.726-.161-10.901-4.027-2.176-3.866-15.948-39.937-17.962-43.118-1.194-1.894-4.47-8.538-8.054-15.667-2.444-4.86-5.035-9.919-7.208-13.867-4.202-7.638-8.687-8.255-10.432-8.149a3.215 3.215 0 00-.751.094c-5.639 5.022-11.638 33.722-17.68 40.945-6.041 7.208-11.907 18.954-11.907 18.954s-1.692 4.363-9.236 5.209c-7.545.832-6.874-7.558-6.874-7.558-.348-13.25 14.767-28.862 14.767-28.862.323-28.862 11.237-54.448 11.237-54.448s28.419-.175 40.138 3.476c2.321.726 3.987 1.598 4.658 2.645 4.027 6.376 16.418 48.019 16.955 49.347 4.592 11.438 6.041 16.431 7.383 19.453.456 1.019 1.813 4.308 3.396 8.215 3.182 7.759 7.249 17.8 7.249 17.8s2.283 7.384-4.778 9.558z" fill="#AFB4C4"/><path d="M185.914 88.623l-6.804 6.988s-4.773 6.158-6.06 7.22c-1.286 1.062-4.754 8.279-4.754 8.279l-2.071 6.432c-.725 1.761 1.064 1.985 2.014.671l.504-.951c.753.273 1.287-.155 1.674-1.064l3.08-6.207-1.789 5.593c-.447 1.678 1.958 2.013 2.756-.135 0 0 .823-4.507 2.222-5.849 1.398-1.343 5.796-3.304 6.862-9.425.074-.42 3.654-10.49 3.654-10.49l-1.288-1.062z" fill="#DADCE4"/><path d="M209.739 74.48a18.45 18.45 0 01-.551 2.281c-.403 1.29-1.221 2.74-2.323 4.282-5.745 8.15-19.102 18.7-19.599 19.09-5.383 2.134-8.511-5.249-8.511-5.249 1.572-4.028 18.015-28.405 18.015-28.405V59.31c0-10.847 9.169-10.631 9.169-10.631l3.249 4.483s2.134 12.873.551 21.317z" fill="#AFB4C4"/><path d="M260.126 113.15s-6.746 4.677-22.694 8.705c-10.054 2.513-17.939-.322-23.116-6.197 0 0-1.33-19.378-2.001-22.895-.268-1.41-1.745-4.336-3.503-7.84a277.036 277.036 0 01-1.948-3.88c-2.148-4.362-4.254-9.047-4.953-12.578-.375-1.92-.335-4.054-.04-6.188.832-6.417 3.813-12.874 4.067-13.598 0 0 3.37-1.88 20.956.885 18.365 2.886 29.224 9.276 29.224 9.276l2.39 20.62 1.618 33.69z" fill="#fff"/><path d="M219.648 133.099c-6.368.858-11.84-4.556-11.84-4.556s3.184-31.763 2.517-35.29c-.267-1.41-.763-4.595-2.517-8.102-.629-1.24-1.259-3.413-1.907-4.767-2.154-4.366-3.298-8.39-3.984-11.916-.382-1.925-.807-4.051-.68-6.205.439-7.317 4.455-12.86 4.703-13.585 0 0 2.516-1.373 14.337-.018-1.181 1.964-2.613 3.717-3.298 5.414-.267.649-.439 1.296-.439 1.926 1.906 13.364 4.194 28.712 4.995 43.563.018.153.018.305.038.438v.134c.61 11.725.267 23.127-1.925 32.964zm22.154.096c.19-4.976-.381-10.161-1.392-15.481-4.309-22.669-16.778-47.625-14.051-69.035 14.604 3.145 29.761 10.162 29.761 10.162l2.383 20.61 11.648 45.298s-13.574 4.347-28.349 8.446z" fill="#AFB4C4"/><path d="M210.561 50.83l2.401 16.017 2.012-2.79 5.718 7.204.615-8.998 8.28 6.997s-.91-3.849-.742-7.373c.167-3.523.283-12.568-5.06-15.682-3.413-1.987-10.162-2.363-12.93-.341.191 2.318-.294 4.965-.294 4.965z" fill="#fff"/><path d="M211.528 55.461l5.948 10.977 2.412 2.412.402-3.216s-.516-.22 0-2.01c.514-1.79 4.333-10.88 2.861-15.845-1.31-4.418-14.995-8.44-14.995-8.44l2.985 8.517.387 7.605z" fill="#DADCE4"/><path d="M247.219 75.983l11.075 18.359s-8.055 25.592-8.726 31.387c0 0 3.189 5.591 8.726 4.939 0 0 18.29-28.676 15.941-39.918-2.35-11.244-12.585-26.232-18.122-31.91l-8.894 17.143z" fill="#AFB4C4"/><path d="M250.127 126.072s5.23 0 6.572 3.607c0 0-2.348 5.118-2.348 6.964 0 1.847-1.189 8.303-2.434 9.565-1.245 1.263-3.27 6.93-3.328 7.057-.644 1.417-1.531 1.189-1.889.597l-.824 1.491c-.622 1.316-2.293.835-1.811-.419l2.651-7.607-3.469 7.328c-.81 1.901-2.517 1.248-1.986-.616l3.273-9.117-.469-.308-3.391 8.138c-.615 1.623-2.292.895-1.706-.979 0 0 3.552-10.291 3.608-11.41.056-1.119.308-3.636-1.818-2.768 0 0-3.412 3.663-5.118 3.607-1.706-.056-2.153-.504-1.623-1.175.532-.671 3.398-2.486 4.56-4.055 1.161-1.569 3.469-3.775 6.18-4.978 2.713-1.203 5.37-4.922 5.37-4.922z" fill="#DADCE4"/><path d="M217.834 66.887l2.401 4.127s5.529 6.12 6.622 14.718c.991 7.794-2.397 17.981-3.248 20.831l4.131 6.632 4.211-7.397s2.515-12.027 0-22.076c-1.481-5.92-7.391-9.84-9.373-13.741-.16-.636-1.272-7.718-1.272-7.718l-2 5.193-1.472-.569z" fill="#142251"/><path d="M226.993 47.796l-.542-.25h.04c.192 0 .381.002.567.004a9.897 9.897 0 01-.065.246z" fill="#D9CEC9"/><path d="M225.286 52.818c-.265-2.634-.532-4.295-.713-5.235a54.05 54.05 0 011.879-.036l.542.25a38.38 38.38 0 01-1.708 5.02z" fill="#142251"/><path d="M225.164 45.714s-1.111 4.391-3.091 6.272c-1.981 1.88-7.757 4.29-7.757 4.29-2.42 1.458-6.439-.494-6.845-2.775l-2.434-12.089-.232-2.801s.306-7.9 3.027-10.848c2.722-2.947 7.387-5.464 12.499-4.522 5.112.942 9.386 3.62 10.033 9.04 1.585 13.277-5.2 13.433-5.2 13.433z" fill="#DADCE4"/><path d="M225.803 48.55c-.919-.285-1.529-1.08-.64-2.836l.854-6.891c-.994-.38-4.112-1.102-5.734-8.208-6.546 2.184-13.32-.875-15.126 4.539-2.231-.876-.53-7.088 1.031-9.098 1.714-2.206 5.725-4.532 12.259-4.107 6.725.438 10.069 2.924 12.451 8.667 2.384 5.743-1.976 16.585-5.095 17.935z" fill="#142251"/><path d="M228.5 36.616c.579.498.609 1.37.573 2.134-.041.85-.112 1.705-.363 2.519-.251.811-.696 1.585-1.372 2.102-.645.49-1.625.692-2.239.165-.467-.401-.572-1.076-.585-1.692-.024-1.22.11-2.797.743-3.88.586-1.002 2.054-2.37 3.243-1.348z" fill="#DADCE4"/><path d="M231.464 17l11.076 2.793 4.46 1.125-.464 4.33L245.387 36l-4.459-1.126 1.149-10.751L231 21.33l.464-4.33zM191 22.82l1.14-11.28.459-4.54 4.421 1.18L208 11.11l-.458 4.54-10.981-2.929L195.421 24 191 22.82zM202.536 61l-11.075-2.793L187 57.08l.465-4.328L188.613 42l4.461 1.126-1.149 10.751L203 56.671 202.536 61zM243 56.11l-1.14 10.615-.459 4.275-4.421-1.111L226 67.13l.458-4.275 10.981 2.759L238.579 55 243 56.11z" fill="#142251"/></svg>