<svg width="251pt" height="60" viewBox="0 0 251 45" xmlns="http://www.w3.org/2000/svg"><g fill="#fefefe"><path d="M59.67 0h8.07c3.18.79 5.81 3.65 5.77 7.02.15 2.7-1.91 4.66-3.54 6.51 1.56 3.09 4.97 5.91 4.23 9.62l-1.91-.4c-2.12-2.73-3.66-5.85-5.51-8.76l-4.31.03c.02 3.17.04 6.35-.27 9.51-1.69-.48-3.16-1.58-2.67-3.53.02-6.67-.11-13.34.14-20m2.78 3c.02 2.68.02 5.36.04 8.05 1.81-.05 3.64.04 5.44-.21 2.37-1.08 3.62-4.48 1.53-6.45-1.64-2.21-4.67-1.16-7.01-1.39zm53.85-3h2.67c2.23.68 5.22 2.45 4.06 5.22-1.82-.36-3.29-1.54-4.96-2.27-2.52-.17-3.94 3.32-2.14 5.03 2.11 1.33 5.11 1.23 6.61 3.48 2.9 3.3 1.7 9.05-2.33 10.85-3.84 2.14-9.14-.56-9.67-4.94 2.99-.15 5.06 3.56 8.04 2.37 3.57-1.16 3.32-7.24-.63-7.6-3.39-.51-6.54-3.52-5.75-7.16.17-2.39 2.25-3.84 4.1-4.98zm69.45 0h2.58c.25 2.17.28 4.36.31 6.54 1.24.42 2.46.9 3.66 1.44-.52 1.74-2.16 2.14-3.74 2.42.07 2.81-.14 5.65.35 8.43 1.43 1.04 5.79 1.96 3.16 4.17-2.68.46-5.76-1.09-6.23-3.93-.44-2.77-.22-5.58-.23-8.37-2.34-1.1-2.43-3.28-.03-4.37.02-2.11.07-4.22.17-6.33zM23.71 1.77c1.41-1.22 3.17-.53 4.69.02.01 1.43.01 2.85-.02 4.28-.49.41-1.47 1.21-1.96 1.62 1.65 1.7 2.98 3.66 4.47 5.5 1.63-1.54 2.39-3.56 2.89-5.68 1.11-.22 2.23-.21 1.95 1.27-1.22 2.49-2.19 5.38-4.58 7.01-1.41-.55-2.81-1.13-4.21-1.71-.29 2.28-.69 4.57-.65 6.89 3.42.42 6.25 2.46 9.24 3.99.05 4.46-2.81 8.44-2.37 12.94.53 1.68 2.51 2.32 3.69 3.53-2.51 1.43-5.08-.55-7.46-1.34 3.19-3.8.34-8.56 2.29-12.76-2.57-.38-5.13-.79-7.71-1.11-1.17 2.94-3.45 5.12-5.81 7.13-3.67 1.46-7.51 2.36-11.22 3.67-1.96 1.21-2.91 3.52-4.43 5.18-.3-2.48.38-4.9.85-7.31 4.83.95 7.98-3.54 12.5-4.29 2.43-3.82 3.29-8.48 4.61-12.8.42-1.34-.31-2.65-.74-3.88-.1-.7-.28-2.09-.38-2.79-1.46.58-2.92 1.18-4.39 1.73-.76 2.77-1.55 5.56-.61 8.38-.71.15-2.13.45-2.84.59.31-3.47-.05-7.12 1.27-10.43 2.88-2.8 6.82-4.11 10.65-5.02.13-1.52-.37-3.18.28-4.61zm53.52 6.25c.27-2.04 3.36-.85 2.89.85.34 3.85-1.34 8.88 2.85 11.15h3.05c4.54-2.43 2.18-7.95 3.03-12 .25-1.35 2.54-1.55 2.73.02.17 4.66.17 9.34 0 14.01-.54 1.83-2.26.54-3.31 0-4 2.25-9.61.39-10.97-4.13-.66-3.24-.41-6.61-.27-9.9zm17.02-.03c.42-2.01 2.11-.38 3.27-.09 4.03-2.13 9.55-.33 10.99 4.13.65 3.27.38 6.67.27 9.98-.42 1.97-3.3.87-2.86-.9-.43-3.86 1.36-8.99-3.01-11.13h-2.92c-4.22 2.25-2.53 7.3-2.87 11.15.47 1.7-2.53 2.85-2.9.86-.15-4.66-.2-9.35.03-14zm32.77-.8c3.73.71 7.81-1.35 10.89 1.75 2.29-1.78 5.54-2.89 8.13-.97 4.52 2.82 2.58 8.81 2.94 13.21.49 1.82-2.3 2.67-2.84.8-.38-3.3.09-6.63-.28-9.92-1.12-2.59-4.82-2.76-6.17-.29-.9 3.61.43 7.51-.76 11.06-.47.06-1.42.17-1.9.23-1.47-3.44-.05-7.37-.85-10.96-1.04-2.73-5.23-2.82-6.26-.04-.75 3.22.01 6.58-.45 9.83.29 1.74-2.61 1.49-2.62.09-.14-4.91-.39-9.9.17-14.79zm28.27 1.03c4.6-3.33 11.93.22 12.14 5.9-.01 2.95.44 6.03-.43 8.89-1.16.08-2.12-.34-2.87-1.25-2.94 1.54-6.81 1.9-9.46-.42-4.34-3.1-3.99-10.43.62-13.12m-.33 8.72c1.36 3.68 6.86 4.17 8.78.7 2.73-3.73-1.49-8.5-5.62-7.78-2.35 1.46-4.6 4.19-3.16 7.08zm15.19-8.88c.56-1.87 2.69-.94 3.29.39 2.7-1.91 6.09-1.79 9.01-.49-.92 3.62-5.28.93-7.42 3-3.09 2.49-1.69 6.84-2.05 10.23.48 1.83-2.4 2.69-2.84.77-.24-4.62-.26-9.28.01-13.9zm-82.86 24.5l1.67.99c.98-.15 1.9-.47 2.74-.98.29 1.75-2.49 3.05-3.93 2.33-.12-.59-.36-1.75-.48-2.34zm101.78 2.37c-.98-.25-1.2-2.96.16-2.35 2.12-1.06 1.95 3.3-.16 2.35zM59.4 40.65c-1.36-2.55-.86-5.9 1.36-7.8 1.69.14 3.46.02 4.98.91-1.87.16-3.75.29-5.63.37 2.09 1.01 5.62.97 5.61 4.07.6 3.47-4.44 5.32-6.32 2.45m2.57-4.62c-3.06.55-2.19 5.54.92 5.02 2.59-.97 1.92-5.44-.92-5.02zm5.19 4.79c-2.05-2.12-.15-6.34 2.92-5.85 2.1-.08 2.92 2.3 3.19 4-1.99.04-3.99.03-5.98.04l1.68 1.8c1.32.16 2.58.51 3.78 1.07-1.85.06-4.28.7-5.59-1.06m.91-3.09c1.16.52 2.33.54 3.51.04.91-2.17-4.37-2.28-3.51-.04zm5.45 4.29c.49-2.22-1.1-5.56 1.27-6.9.8-.06 2.4-.17 3.2-.22l.01 1.07c-.77.03-2.31.08-3.08.11-.04 1.95-.06 3.91-.09 5.86l-1.31.08zm5.79-1.32c-2.19-2.45.53-6.75 3.74-5.69 2.81 1.04 2.02 4.5 2.49 6.84-2.04-.26-4.87 1-6.23-1.15m1.97-4.66c-2.65 1.26-1.44 5.58 1.43 4.91 2.57-1.18 1.41-5.65-1.43-4.91z"/><path d="M85.72 35.04l1.23-.07c.06 2.18-.56 6.79 2.99 5.96 1.88-1.82.07-4.93 2.15-6.62.24 2.76.24 5.54.01 8.31-.22-.77-.45-1.54-.68-2.3-.03.48-.08 1.45-.11 1.93-1.65-.49-4.22.27-5.01-1.76-.95-1.62-.4-3.66-.58-5.45zm10.35 7.33c.91-2.55 2.1-5 3.42-7.36 1.25 2.38 2.39 4.83 3.26 7.38-2.02-.94-2.4-3.26-3.2-5.09-1 1.77-1.4 4.21-3.48 5.07zm7.04-3.48c-.51-3.26 3.05-4.64 5.66-3.59.28 1.28.51 2.56.75 3.85-1.43-.02-4.29-.05-5.72-.07 1.41 1.76 3.58 2.03 5.64 2.44-2.4 1.12-6.22.58-6.33-2.63m1.45-1.13c1.21.49 2.41.48 3.61-.02.93-2.24-4.38-2.06-3.61.02z"/><path d="M111.46 35.16c.98.03 3.36-1.07 3.33.6l-3.1.44c-.29 2.09.57 4.61-1.02 6.32-.11-2.39-2.6-6.27.79-7.36zm4.54-.01l.47-.64c.08.87.25 2.61.34 3.48 1.39-1.31 2.74-2.77 4.64-3.36-.93 1.46-2.14 2.69-3.35 3.91 1.22 1.18 2.45 2.36 3.34 3.82-1.8-.63-3.14-2.03-4.61-3.18-.03.7-.1 2.12-.13 2.82h-1.18c.1-2.28-.33-4.66.48-6.85z"/><path d="M123.26 35.25c2.06-1.1 4.66.53 4.88 2.73.45 2.23-1.81 4.67-4.09 4-3.19-.52-3.67-5.41-.79-6.73m.86.37c-.63 1.23-2.6 2.73-1.2 4.16.8 1.98 3.55 1.35 3.97-.56.63-2.08-1.25-2.96-2.77-3.6zm15.74-1.35c1.69 1.38 2.35 3.48 3.15 5.42.83-1.93 1.62-3.95 3.18-5.43-.96 3.7-2.46 7.24-3.99 10.74h-.93c1.94-3.65-.54-7.19-1.41-10.73zm6.67.73l1.22.01-.04 3.03c1.44-1.27 2.73-2.92 4.77-3.21a44.534 44.534 0 01-3.38 3.62c1.2 1.23 2.43 2.45 3.34 3.93-1.78-.68-3.14-2.04-4.61-3.18-.03.7-.1 2.1-.13 2.8h-1.17v-7z"/><path d="M152.53 45c.44-3.27-1.46-8.44 2.54-9.98 3.55-1.14 5.8 4 3.15 6.2-1.17 1.3-3.08.49-4.56.63.03.78.1 2.36.13 3.15h-1.26m2.77-8.91c-2.38 1.14-1.78 4.52.67 5.03 3.33-.28 2.5-6.03-.67-5.03z"/><path d="M161.92 42.17c-2.69-1.92-2.61-5.46.04-7.39 2.61-.14 4.67 1.43 4.97 4.09-2.1.09-4.19.19-6.28.3 1.29 1.89 3.6 1.77 5.58 2.29-1.41.41-2.86.57-4.31.71m-.51-4.41c1.18.5 2.35.49 3.51-.02.89-2.23-4.41-2.15-3.51.02zm5.79-2.54c2.24.02 5.46-1.08 6.34 1.84-.07 1.84.57 4.04-.62 5.64-.79-2.16.45-5.39-1.93-6.7-3.19-.21-2.45 3.85-2.54 5.92-.29.01-.87.02-1.16.03-.02-2.25-.03-4.49-.09-6.73zm9.93-.29c1.3 2.41 2.64 4.85 3.19 7.57-1.54-1.26-2.24-3.15-3.18-4.83-.74 1.52-1.46 3.04-2.18 4.56l-.85-.33c.96-2.34 1.91-4.69 3.02-6.97zm5.02.3c1.42-.2 2.85-.31 4.29-.34-.42 2.51.76 5.61-1.22 7.63-.1-.98-.29-2.95-.39-3.93-2.09.58-2.28 3.28-4.4 3.77.48-1.18.98-2.35 1.51-3.51-.49-1.21-.84-2.57.21-3.62m.84 1c-.49 1.58.11 2.1 1.8 1.56.48-1.62-.12-2.14-1.8-1.56zm4.17 4.5c-.43-2.16-.5-4.48.31-6.57.61 2.24-.46 5.23 1.61 6.87 4.17.38 1.31-4.92 3.79-6.54.17 2.47.14 4.94.14 7.41-1.95-.21-4.6.82-5.85-1.17zm9.51-5.66c1.96-.15 4.34-.48 5.5 1.52-.93 1.68.49 4.03-1.23 5.26-1.38.19-2.77.22-4.17.1 1.43-.68 2.92-1.19 4.39-1.76-.56-.44-1.66-1.3-2.21-1.73l2.25-1.65c-1.51-.59-3.06-1.08-4.53-1.74zm5.83 3.86c-.67-3.5 4.35-5.57 6.27-2.57 1.06 2.79 1.23 6.21-.8 8.63l1.01.01h-4.35c-.62-.52-1.84-1.56-2.46-2.08 2.34.83 5.04 1.77 6.57-.92-2.44.13-6.08.24-6.24-3.07m2.74-2.94c-2.66 1.17-1.41 5.94 1.49 4.92 2.61-1.17 1.32-5.62-1.49-4.92zm4.6 1.14c.75-.77 1.5-1.53 2.25-2.3 1.3.33 2.98.09 3.79 1.41 1.96 2.06.1 6.2-2.85 5.79-1.38.19-2.08-1.25-3.07-1.9l-.12-3m2.23-.77c-2.54 1.48-.01 6.22 2.38 4.11 2.48-1.33.07-5.84-2.38-4.11z"/><path d="M217.02 45c.3-3.25-1.18-7.64 1.95-9.88 3.5-1.54 6.62 3.18 4.04 5.82-1.1 1.76-3.38.64-5.01.85.13.81.39 2.41.51 3.21h-1.49m1.87-4.93c.91 1.59 2.52.49 3.84.24-.23-1.66.26-3.94-1.96-4.29-1.93-.27-3.5 2.71-1.88 4.05z"/><path d="M225.8 35.78c1.75-1.84 4.24-.45 5.61 1.13v3.18c-1.1.67-1.9 2.26-3.38 1.94-3.16.3-4.8-4.43-2.23-6.25m1.46.26c-2.63 1.26-1.4 5.6 1.46 4.9 2.57-1.18 1.4-5.64-1.46-4.9zm4.63-1.05c1.44.01 2.87.02 4.31.04.33 1.97.87 3.93.87 5.94-.94 1.79-3.55.73-5.18 1.09.07-2.35.07-4.71 0-7.07m1.44 1.23c-.5 1.58.1 2.09 1.81 1.55.5-1.56-.1-2.08-1.81-1.55m-.08 3.12c-1.13 1.49 1.63 2.34 2.51 1.32 1.11-1.49-1.63-2.33-2.51-1.32zm4.54-4.33l1.21-.02v3.03c.83-.02 2.49-.05 3.32-.07.73 1.33.64 2.73.02 4.09-1.54-.03-3.09-.05-4.63-.07-.1-2.32 0-4.64.08-6.96m1.54 4.22c-.49 1.58.14 2.08 1.9 1.51.49-1.52-.14-2.02-1.9-1.51zm5.39 1.91c-2.44-1.86-.82-6.42 2.26-6.18 2.08-.34 2.81 2.11 4.01 3.22l.01-1.12v1.44c-2.1.5-4.27.54-6.41.64.38.41 1.15 1.23 1.54 1.64 1.36.22 2.71.48 4.06.77-1.8.19-4.07 1.22-5.47-.41m.53-3.38c1.14.54 2.3.55 3.46.05.89-2.24-4.21-2.31-3.46-.05zm-113.07.98c.13-1.41 2.75-1 3.69-.5-.08 1.46-2.76 1.01-3.69.5z"/></g></svg>