<svg width="418" height="457" fill="none" xmlns="http://www.w3.org/2000/svg"><rect x="111.696" y=".624" width="319" height="379" rx="11.5" transform="rotate(16.963 111.696 .624)" fill="#fff" stroke="#989EB1"/><mask id="a" style="mask-type:alpha" maskUnits="userSpaceOnUse" x="43" y="29" width="348" height="344"><rect x="121.188" y="26.028" width="284.602" height="278.116" rx="12" transform="rotate(16.963 121.188 26.028)" fill="#E4E7F1"/></mask><g mask="url(#a)"><path d="M145.505 200.837l-16.775.806-16.344.31-31.82 15.87 8.345 129.01 89.767-3.024-3.907-129.5-29.266-13.472z" fill="#F2F3F8"/><path d="M68.35 231.673c-3.828 23.174-14.368 75.025-19.726 101.069-1.792 8.707 3.59 17.273 12.21 19.45 9.144 2.308 18.374-3.451 20.324-12.678l21.498-101.842c1.817-9.862-5.05-19.218-15.005-20.439-9.266-1.137-17.779 5.229-19.301 14.44zm63.957-9.965c-9.711.327-17.85-7.282-18.177-16.992l-1.261-37.423 35.169-1.185 1.261 37.423c.327 9.71-7.281 17.849-16.992 18.177z" fill="#F2F3F8"/><path d="M135.962 221.584l-11.045-14.314a19.635 19.635 0 00-5.944-5.96l-4.489-2.888a2.996 2.996 0 00-3.152-.045l-4.342 2.615c-1.001.605-1.531 1.731-1.342 2.858l2.281 13.632c.222 1.344 1.956 1.832 2.895.817l9.353-10.124a1.254 1.254 0 011.906.085l13.961 15.761-.082-2.437zm.001.007l15.821-24.425c.441-.675.461-.718 1.29-.195l3.698 2.343c.854.541 1.355 1.634 1.27 2.771l1.012 13.673c-.101 1.357-1.484 1.951-2.312.993l-7.401-9.509c-.458-.531-1.208-.432-1.549.202l-11.747 16.584-.082-2.437zm22.765-102.626c-1.583-5.171-5.136-12.423-17.124-17.517-19.803-8.418-29.422 11.2-29.422 11.2-5.273-.395-9.576 1.6-11.909 6.739-2.185 4.814.411 13.641 1.226 16.718l4.936 19.524 3.123-18.834c3.272-12.429 8.71-17.629 8.71-17.629l17.77-2.049 20.096 35.045 2.965-21.238c.378-2.695.479-5.429.239-8.14-.138-1.568-.337-2.928-.61-3.819z" fill="#F2F3F8"/><path d="M152.702 147.952s2.25-3.859 7.217-2.164c4.963 1.694 3.15 13.675-4.155 15.438 0 0-2.618.665-4.745-1.069 0 0 1.512-8.857 1.683-12.205zm-45.835 1.411s-3.028-3.609-7.62-1.534c-4.778 2.164-2.219 13.857 5.185 15.127 0 0 2.656.487 4.662-1.387 0 0-1.831-8.878-2.227-12.206z" fill="#F2F3F8"/><path d="M156.889 136.501c.244 7.176.044 22.218-4.067 31.28-3.86 8.506-10.562 13.243-19.536 13.813-8.973.571-15.783-2.667-21.511-13.348-5.731-10.678-6.12-29.885-6.12-29.885s-.864-25.641 24.477-26.495c26.691-.899 26.757 24.635 26.757 24.635z" fill="#F2F3F8"/><path d="M236.453 197.772l-16.775.806-16.344.31-31.819 15.871 8.344 129.01 89.768-3.025-3.908-129.5-29.266-13.472z" fill="#142251"/><path d="M159.298 228.609c-3.828 23.174-14.368 75.025-19.725 101.069-1.793 8.707 3.59 17.272 12.21 19.449 9.144 2.308 18.373-3.45 20.323-12.678l21.498-101.842c1.818-9.861-5.05-19.218-15.004-20.438-9.266-1.138-17.779 5.229-19.302 14.44zm115.872 161.1l-94.569 3.186-.742-49.127 89.431-3.013 5.88 48.954zm-51.914-171.066c-9.711.327-17.85-7.281-18.177-16.992l-1.261-37.422 35.169-1.185 1.261 37.422c.327 9.711-7.282 17.85-16.992 18.177z" fill="#142251"/><path d="M226.91 218.52l-11.045-14.314a19.612 19.612 0 00-5.944-5.96l-4.488-2.889a2.996 2.996 0 00-3.152-.045l-4.342 2.616c-1.002.604-1.532 1.731-1.343 2.857l2.282 13.632c.222 1.344 1.956 1.833 2.894.818l9.353-10.124a1.253 1.253 0 011.906.084l13.961 15.761-.082-2.436zm.001.007l15.822-24.426c.441-.674.461-.718 1.289-.194l3.698 2.342c.855.542 1.356 1.634 1.271 2.772l1.012 13.672c-.102 1.358-1.484 1.951-2.313.994l-7.4-9.509c-.459-.532-1.209-.432-1.549.201l-11.748 16.585-.082-2.437zM249.677 115.9c-1.584-5.17-5.136-12.422-17.124-17.517-19.804-8.418-29.422 11.201-29.422 11.201-5.274-.395-9.577 1.6-11.909 6.738-2.186 4.814.411 13.642 1.225 16.718l4.937 19.524 3.122-18.833c3.273-12.429 8.711-17.63 8.711-17.63l17.769-2.048 20.097 35.044 2.965-21.237c.377-2.695.479-5.43.239-8.14-.138-1.569-.338-2.928-.61-3.82z" fill="#142251"/><path d="M243.651 144.888s2.25-3.859 7.217-2.164c4.962 1.693 3.149 13.674-4.156 15.438 0 0-2.617.665-4.744-1.07 0 0 1.512-8.857 1.683-12.204zm-45.836 1.41s-3.027-3.609-7.62-1.533c-4.778 2.164-2.218 13.857 5.186 15.127 0 0 2.655.486 4.662-1.387 0 0-1.832-8.878-2.228-12.207z" fill="#142251"/><path d="M247.838 133.436c.244 7.176.044 22.218-4.068 31.28-3.86 8.507-10.561 13.243-19.536 13.814-8.972.57-15.782-2.668-21.511-13.348-5.73-10.678-6.12-29.885-6.12-29.885s-.864-25.641 24.477-26.495c26.692-.899 26.758 24.634 26.758 24.634z" fill="#142251"/><g filter="url(#filter0_d_1_10679)" fill="#E4E7F1"><path d="M363.258 221.737c5.379 22.864 19.385 73.888 26.485 99.512 2.373 8.567-2.419 17.475-10.875 20.227-8.968 2.919-18.564-2.205-21.128-11.281l-28.307-100.164c-2.477-9.717 3.745-19.514 13.597-21.402 9.169-1.759 18.091 4.02 20.228 13.108z"/><path d="M389.77 321.146l24.153 86.033-31.948 9.894-24.598-87.983c-2.372-9.306 3.589-18.688 13.02-20.498 8.782-1.681 17.325 3.851 19.373 12.554zm-70.364-126.169l-16.775.806-16.344.31-31.82 15.871 8.345 129.009 89.767-3.024-3.907-129.5-29.266-13.472z"/><path d="M242.251 225.814c-3.828 23.174-14.368 75.025-19.725 101.069-1.793 8.707 3.59 17.273 12.21 19.449 9.144 2.308 18.373-3.45 20.323-12.678l21.498-101.842c1.818-9.861-5.05-19.218-15.004-20.438-9.266-1.138-17.78 5.229-19.302 14.44z"/><path d="M222.49 326.782l-18.308 87.463 32.542 7.721 18.62-89.439c1.741-9.444-4.837-18.403-14.37-19.574-8.875-1.087-17.027 5.007-18.484 13.829zm135.632 60.132l-94.568 3.186-.742-49.127 89.431-3.013 5.879 48.954zm-51.914-171.066c-9.711.327-17.849-7.281-18.177-16.992l-1.26-37.422 35.168-1.185 1.261 37.422c.327 9.711-7.281 17.85-16.992 18.177z"/><path d="M309.863 215.725l-11.045-14.314a19.624 19.624 0 00-5.944-5.96l-4.489-2.889a2.996 2.996 0 00-3.152-.045l-4.341 2.616c-1.002.604-1.532 1.731-1.343 2.857l2.281 13.632c.222 1.344 1.957 1.833 2.895.818l9.353-10.124a1.253 1.253 0 011.906.085l13.961 15.761-.082-2.437zm.001.007l15.821-24.426c.442-.674.462-.718 1.29-.194l3.698 2.342c.855.542 1.356 1.634 1.271 2.772l1.012 13.672c-.102 1.358-1.484 1.951-2.313.994l-7.4-9.509c-.459-.532-1.209-.432-1.55.201l-11.747 16.585-.082-2.437zm22.765-102.627c-1.583-5.17-5.135-12.422-17.123-17.517-19.804-8.418-29.423 11.201-29.423 11.201-5.273-.395-9.576 1.6-11.909 6.738-2.185 4.815.411 13.642 1.226 16.718l4.936 19.524 3.123-18.833c3.272-12.429 8.71-17.63 8.71-17.63l17.77-2.048 20.096 35.045L333 125.065c.378-2.695.479-5.43.239-8.14-.138-1.568-.337-2.928-.61-3.82z"/><path d="M326.604 142.093s2.249-3.859 7.217-2.164c4.962 1.693 3.149 13.675-4.156 15.438 0 0-2.617.665-4.744-1.07 0 0 1.512-8.857 1.683-12.204zm-45.836 1.411s-3.028-3.61-7.62-1.534c-4.778 2.164-2.219 13.857 5.186 15.127 0 0 2.655.486 4.662-1.387 0 0-1.832-8.878-2.228-12.206z"/><path d="M330.791 130.641c.243 7.177.044 22.218-4.068 31.28-3.86 8.507-10.561 13.243-19.536 13.814-8.972.57-15.783-2.668-21.511-13.348-5.731-10.678-6.12-29.885-6.12-29.885s-.864-25.641 24.477-26.495c26.691-.899 26.758 24.634 26.758 24.634z"/><path d="M309.45 162.948s2.453.79 5.894-.198z"/></g><rect x="121.52" y="26.652" width="283.602" height="277.116" rx="11.5" transform="rotate(16.963 121.52 26.652)" stroke="#989EB1"/></g><defs><filter id="filter0_d_1_10679" x="200.182" y="93.489" width="217.741" height="381.677" filterUnits="userSpaceOnUse" color-interpolation-filters="sRGB"><feFlood flood-opacity="0" result="BackgroundImageFix"/><feColorMatrix in="SourceAlpha" values="0 0 0 0 0 0 0 0 0 0 0 0 0 0 0 0 0 0 127 0" result="hardAlpha"/><feOffset dy="4"/><feGaussianBlur stdDeviation="2"/><feComposite in2="hardAlpha" operator="out"/><feColorMatrix values="0 0 0 0 0 0 0 0 0 0 0 0 0 0 0 0 0 0 0.25 0"/><feBlend in2="BackgroundImageFix" result="effect1_dropShadow_1_10679"/><feBlend in="SourceGraphic" in2="effect1_dropShadow_1_10679" result="shape"/></filter></defs></svg>