<svg width="385" height="214" fill="none" xmlns="http://www.w3.org/2000/svg"><path fill-rule="evenodd" clip-rule="evenodd" d="M323.761 0h6.281a2.606 2.606 0 010 5.212h-6.173c-2.378 0-4.005.002-5.264.105-1.23.1-1.878.283-2.341.52a5.735 5.735 0 00-2.506 2.505c-.236.463-.419 1.112-.52 2.34-.103 1.26-.105 2.887-.105 5.265v6.173a2.605 2.605 0 11-5.211 0v-6.28c0-2.243 0-4.083.122-5.58.127-1.552.398-2.963 1.071-4.283a10.94 10.94 0 014.783-4.783c1.32-.673 2.731-.944 4.282-1.07C319.677 0 321.518 0 323.761 0zm49.567 5.317c-1.26-.103-2.887-.105-5.265-.105h-6.172a2.605 2.605 0 110-5.212h6.281c2.243 0 4.083 0 5.58.122 1.552.127 2.963.398 4.283 1.07a10.945 10.945 0 014.783 4.784c.673 1.32.944 2.73 1.07 4.282.123 1.498.123 3.338.123 5.58v6.282a2.606 2.606 0 01-5.212 0v-6.173c0-2.378-.002-4.004-.105-5.264-.1-1.23-.284-1.878-.52-2.341a5.727 5.727 0 00-2.505-2.506c-.463-.236-1.112-.419-2.341-.52zm-62.8 46.046a2.605 2.605 0 012.605 2.606v6.172c0 2.379.002 4.005.105 5.265.101 1.23.284 1.878.52 2.341a5.734 5.734 0 002.506 2.505c.463.237 1.111.42 2.341.52 1.259.103 2.886.105 5.264.105h6.173a2.606 2.606 0 010 5.212h-6.281c-2.243 0-4.084 0-5.581-.122-1.551-.127-2.962-.398-4.282-1.071a10.94 10.94 0 01-4.783-4.783c-.673-1.32-.944-2.731-1.071-4.283-.122-1.497-.122-3.337-.122-5.58v-6.28a2.606 2.606 0 012.606-2.606zm70.877 0a2.606 2.606 0 012.606 2.606v6.281c0 2.243 0 4.083-.123 5.58-.126 1.552-.397 2.963-1.07 4.283a10.944 10.944 0 01-4.783 4.783c-1.32.673-2.731.944-4.283 1.07-1.497.123-3.337.123-5.58.123h-6.281a2.605 2.605 0 110-5.212h6.172c2.378 0 4.005-.002 5.265-.105 1.229-.1 1.878-.284 2.341-.52a5.727 5.727 0 002.505-2.505c.236-.463.42-1.112.52-2.341.103-1.26.105-2.887.105-5.265V53.97a2.606 2.606 0 012.606-2.606z" fill="#E4E7F1"/><path d="M346.874 44.926a5.316 5.316 0 100-10.632 5.316 5.316 0 000 10.632z" fill="#AFB4C4"/><path fill-rule="evenodd" clip-rule="evenodd" d="M332.698 28.535h4.734c.94 0 1.841-.373 2.506-1.038l1.025-1.024a3.544 3.544 0 012.506-1.038h6.367c.94 0 1.841.373 2.506 1.038l1.025 1.024a3.542 3.542 0 002.505 1.038h4.291a3.543 3.543 0 013.544 3.544v16.39a3.544 3.544 0 01-3.544 3.545h-27.465a3.544 3.544 0 01-3.544-3.544V32.08a3.544 3.544 0 013.544-3.544zm23.036 11.075a8.86 8.86 0 11-17.72 0 8.86 8.86 0 0117.72 0z" fill="#AFB4C4"/><path fill="#142251" d="M9.484 103.738h4.742v13.216H9.484zm9.483 3.304h4.742v6.608h-4.742zm-18.967 0h4.742v6.608H0zm28.451 0h4.742v6.608h-4.742zm9.483 0h4.742v6.608h-4.742zm9.484-3.304h4.742v13.216h-4.742zm9.482-3.304h4.742v19.824H56.9zm9.485-26.433h4.742v72.688h-4.742zm9.482 3.305h4.742v66.08h-4.742zm9.485 13.216h4.742v39.648h-4.742zm9.482-33.041h4.742v105.728h-4.742zm9.484 9.913h4.742v85.904h-4.742zm9.483-49.56h4.742v185.024h-4.742zm9.484 9.912h4.742v165.2h-4.742zm9.483 16.52h4.742v132.16h-4.742zm9.484-9.913h4.742v151.984h-4.742zm9.484 29.737h4.742v92.512h-4.742zm9.483 19.824h4.742v52.864h-4.742zm9.484 9.912h4.742v33.04h-4.742zm9.483-13.217h4.742v59.472h-4.742zm9.484 13.217h4.742v33.04h-4.742z"/><path fill="#AFB4C4" d="M208.637 77.306h4.742v66.08h-4.742zm9.482 19.824h4.742v26.432h-4.742zm9.485-6.608h4.742v39.648h-4.742zm9.482 3.304h4.742v33.04h-4.742zm9.484 3.304h4.742v26.432h-4.742zm9.483 6.608h4.742v13.216h-4.742zm9.484-3.304h4.742v19.824h-4.742zm9.483-3.304h4.742v26.432h-4.742zm9.484 9.912h4.742v6.608h-4.742zm9.482-3.304h4.742v13.216h-4.742zm9.485 0h4.742v13.216h-4.742zm9.484 3.304h4.742v6.608h-4.742zm9.483-3.304h4.742v13.216h-4.742zm9.484 3.304h4.742v6.608h-4.742zm9.482 0h4.742v6.608h-4.742zm9.485 0h4.742v6.608h-4.742zm9.482 0h4.742v6.608h-4.742zm9.484 0h4.742v6.608h-4.742zm9.483 0h4.742v6.608h-4.742z"/><path fill="#E4E7F1" d="M199.152 16.257h4.742v191.632h-4.742z"/><circle cx="202.111" cy="16.644" r="9.511" fill="#E4E7F1"/><circle cx="202.111" cy="204.489" r="9.511" fill="#E4E7F1"/></svg>