<svg width="264" height="34pt" viewBox="0 0 198 34" xmlns="http://www.w3.org/2000/svg"><path d="M133.3 0h1.51c2.74 2.3-1.66 2.88-3.11 3.94-.8 1.74-.66 3.76-.94 5.62 1.56.19 3.12.38 4.69.58-.7 1.97-2.68 2.24-4.45 2.61.07 3.76.4 7.55-.08 11.29-.35 1.67-1.32 2.03-2.91 1.09-.46-4.08-.17-8.2-.13-12.29-1.65-.41-3.19-1.07-3.71-2.85l3.56-.32c-.32-4.04.45-9.47 5.57-9.67zM52.27 1.03l.77-.86c.51.15 1.54.44 2.06.58.44 3.58.21 7.19.04 10.78 2.29-1.95 5.79-3.34 8.43-1.17 3.62 3.12 1.89 8.52 2.25 12.69.62 1.75-1.49 3.47-2.95 2.04-.72-3.73.3-7.63-.67-11.31-1.23-2.83-5.81-1.86-6.58.91-.66 3.08-.08 6.26-.42 9.37.79 2.09-3.78 1.94-3.02-.08-.02-7.64-.21-15.31.09-22.95zM44.2 4.96c2.68-.12 1.99 2.94 2.18 4.69 1.35.48 4.06-.74 4.22 1.37-.1 2.18-2.95.97-4.34 1.49.02 3.43-.17 6.89.48 10.28 1.74-.17 5.01-.45 3.39 2.34-2.61 1.11-6.67.29-6.86-3.05-.24-5.31-.24-10.65-.02-15.96.24-.29.71-.87.95-1.16zm146.47.83c.63-.31 1.88-.94 2.51-1.26.17 1.69.32 3.39.46 5.09 1.45.13 2.91.26 4.36.45v2.03c-1.53.14-3.05.3-4.57.45.09 3.4.15 6.8.35 10.19 1.41.02 2.81.04 4.22.05v1.83c-1.8.71-3.85 1.48-5.68.39-2.1-1.2-1.83-3.91-1.94-5.97.09-4.41-.33-8.87.29-13.25zM67.89 20.93c-2.25-5.01 1.32-11.79 7.09-11.65 4.6-.68 9.45 5.11 6.78 9.13-3.9.3-7.81-.03-11.72.16 1.02 1.65 1.82 3.92 4.01 4.27 2.3.69 4.24-.97 6.25-1.75 1.15-.08 1.67.47 1.57 1.64-3.46 4.67-12 3.84-13.98-1.8m2.28-4.81c3.25.13 6.51.07 9.75-.26-.94-2.18-2.57-3.8-4.88-4.49-2.22.91-4.09 2.39-4.87 4.75zm17.27-5.02c1.76-.7 3.38-2.21 5.41-1.78 1.71.1 2.79 1.59 4.04 2.57 2.04-2.5 5.9-3.67 8.62-1.53 3.19 2.57 1.98 7.09 2.28 10.63.16 2.03.16 5.86-3 4.28-.59-3.56.08-7.2-.44-10.76-.41-3.19-5.28-3.2-6.32-.41-1.25 3.55.1 7.46-.9 11.08l-1.22.55c-.37-.24-1.13-.71-1.5-.94-.41-3.59.24-7.24-.39-10.81-.79-2.75-5.05-2.41-6.02.04-1.4 3.13-.29 6.73-.77 10.05.81 2.07-3.63 1.98-2.99-.05-.04-4.56-.36-9.19.18-13.73.36-.33 1.06-.99 1.41-1.33.4.54 1.21 1.61 1.61 2.14zm21.7 6.88c-.8-5.57 5.24-10.3 10.47-8.32 3.68 1.11 5.12 5.2 4.86 8.72-4.19.19-8.39.09-12.58.18.9 1.56 1.58 3.53 3.46 4.14 2.82 1.59 5.12-1.63 7.83-1.8 1.44 2.63-1.94 4.11-4.01 4.65-4.79 1.32-10.26-2.44-10.03-7.57m2.86-1.86c3.19.06 6.39.06 9.59-.01-.56-2.41-2.32-3.94-4.59-4.74-2.29.87-4.25 2.32-5 4.75z"/><path d="M140.37 9.53c5.61-1.74 11.76 3.51 10.42 9.38-.65 6.6-9.81 9.08-14.18 4.48-4.35-4.15-2.31-12.63 3.76-13.86m.04 2.91c-4.16 2-3.78 9.09.74 10.36 3.53 1.15 7.01-2.19 6.43-5.75.13-3.67-3.9-6.13-7.17-4.61zm15.08-.74c1.47-1.12 2.99-2.98 5.08-2.35 1.6.26.93 1.65.73 2.72-1.57.39-3.63.04-4.68 1.56-2.79 3.57.92 9.28-2.55 12.27-.39-.29-1.17-.88-1.56-1.17-.33-3.89-.07-7.8-.16-11.69-.2-1.67.4-3.2 1.62-4.35.38.75 1.14 2.26 1.52 3.01zm6.71.7c2.77-4.11 9.76-4.26 12.43.02.91 1.75 1.93 4.09.69 5.94-4 .39-8.04 0-12.05.21 1.06 1.86 2.21 4.34 4.72 4.37 2.51.39 4.37-1.94 6.84-1.88.8 3.95-4.92 5.16-7.87 4.54-5.94-.8-8.39-8.77-4.76-13.2m1.14 3.69c3.27.17 6.55.11 9.81-.23-.95-1.73-1.81-3.95-4.13-4.08-2.83-.38-4.61 2.09-5.68 4.31zm13.84-1.19c-1.01-5.07 5.93-7.06 9.44-4.65 1.63.62 2.38 2.54.4 3.4-1.39-.68-2.75-1.44-4.1-2.19-1.18.68-2.79 1.05-3.13 2.57 2.01 2.53 6.05 1.8 8.12 4.27 1.57 1.99.78 5.12-1.33 6.39-3.18 1.95-7.77 1.24-10.11-1.72.71-3.29 3.62-.39 5.49.02 1.68.85 4.45-.93 3.46-2.94-2.53-1.98-7.44-1.36-8.24-5.15z"/><path fill="#101010" d="M1.06 1.66L2.78.78c8.34.04 16.71-.34 25.03.17.29.29.85.88 1.14 1.17.59 5.02.13 10.09.16 15.13 2.98-.12 6.06-.1 8.73 1.41l-.28.45.45.27.28-.45c1.56 1.48-.24 2.55-1.25 3.56.29.43.86 1.29 1.15 1.73l-1.39 1.43c-.64 2.16-.7 5.07-3.23 5.91-4.93 1.96-10.39 2.39-15.65 2.22-3.04.04-5.39-2.06-8.02-3.25-3.28-.52-6.71.07-9.9-1.08V2.36l1.05-.7c.09 5.47-.46 10.96.02 16.41-.12 3.67 4.07 4.95 6.94 5.75 1.3-.68 1.34-2.57 2.05-3.77 1.34-4.01 3.96-7.43 7.08-10.24 1.17-1.05 2.39-2.05 3.59-3.06-1.56-1.9-2.77-4.85-5.64-4.81-4.67-.4-9.36.04-14.03-.28m20.45 7.3l-.09.42c-6.08 4-11.82 11.22-9.97 18.9l.43.72c4.56 5.01 12.15 2.73 17.91 1.6 1.33.08 2.6-.54 3.88-.83.61-2.24 1.27-4.47 1.96-6.69-.89-.42-1.78-.85-2.67-1.26.85-.17 2.56-.5 3.41-.67-.92-1.15-1.69-2.66-3.42-2.53-4.05-.46-8.04.65-12.05 1.03 1.21-2.93 5.16-.82 7.45-2.42-.04-3.43 0-6.86.04-10.29-2.4.28-4.71.95-6.88 2.02z"/><path fill="#212121" d="M1.06 1.66c4.67.32 9.36-.12 14.03.28 2.87-.04 4.08 2.91 5.64 4.81-1.2 1.01-2.42 2.01-3.59 3.06-2.61-1.94-5.44-4.83-9.03-3.75-3.89.55-4.96 5.44-3.86 8.62 1.39 2.29 3.78 3.7 5.81 5.37-.71 1.2-.75 3.09-2.05 3.77-2.87-.8-7.06-2.08-6.94-5.75-.48-5.45.07-10.94-.02-16.41z"/><path fill="#2e2e2e" d="M4.25 14.68c-1.1-3.18-.03-8.07 3.86-8.62 3.59-1.08 6.42 1.81 9.03 3.75-3.12 2.81-5.74 6.23-7.08 10.24-2.03-1.67-4.42-3.08-5.81-5.37z"/><path fill="#5b5b5b" d="M21.51 8.96c2.17-1.07 4.48-1.74 6.88-2.02-.04 3.43-.08 6.86-.04 10.29-2.29 1.6-6.24-.51-7.45 2.42 4.01-.38 8-1.49 12.05-1.03 1.73-.13 2.5 1.38 3.42 2.53-.85.17-2.56.5-3.41.67.89.41 1.78.84 2.67 1.26-.69 2.22-1.35 4.45-1.96 6.69-1.28.29-2.55.91-3.88.83-3.35-.63-6.76-.99-10.16-.75.7-2.11 2.25-4.36 1.17-6.61-.74-1.94-1.4-3.93-1.7-5.99 1.09-.11 2.18-.22 3.27-.32-1.6-2.29-1.89-4.94-.95-7.55l.09-.42z"/><path d="M11.45 28.28c-1.85-7.68 3.89-14.9 9.97-18.9-.94 2.61-.65 5.26.95 7.55-1.09.1-2.18.21-3.27.32.3 2.06.96 4.05 1.7 5.99 1.08 2.25-.47 4.5-1.17 6.61 3.4-.24 6.81.12 10.16.75-5.76 1.13-13.35 3.41-17.91-1.6 2.5.18.57-3.03-.43-.72zm26.39-9.62l.45.27-.28.45-.45-.27.28-.45z" fill="#737373"/><path fill="#a3a3a3" d="M11.45 28.28c1-2.31 2.93.9.43.72l-.43-.72z"/></svg>