<svg width="203pt" height="47pt" viewBox="0 0 203 47" xmlns="http://www.w3.org/2000/svg"><path d="M108.94.84c.75-.02 2.26-.07 3.01-.1-.06 3.59.01 7.18-.18 10.76 2.32-2.21 6.19-3.38 8.85-1.05 2.79 2.37 1.79 6.39 2.04 9.6-.05 1.92.55 5.91-2.65 4.87-1.72-3.61.46-8.07-1.25-11.76-1.53-2.14-4.87-1.53-6.08.63-1.61 3.41-.08 7.37-1.12 10.84-1.17 1.43-2.94.01-2.72-1.5.17-7.43-.24-14.87.1-22.29zm16.49 1.76c1.38-.96 2.98-.02 3.46 1.43-.13 1.69-2.32 3.22-3.65 1.62-1.15-.55-.85-2.59.19-3.05zm31.86-.29c2.32-.82 4.17 2.59 1.67 3.64-2.2 1.85-4.75-2.96-1.67-3.64zM51.77 9.79c2.85-1.25 6.36-.66 8.36 1.81.76-1.5 1.88-3.76 3.33-1.34.2 4.57.01 9.15.08 13.73.15 2.92-1.15 6.11-3.88 7.45-3.75 1.94-8.46 1.06-11.68-1.52-.01-.5-.02-1.52-.03-2.02 2.74-1.13 5.08 2.73 8.1 1.72 3.64-.09 4.65-4.14 4.61-7.11-3.01 2.94-8.34 3.4-11.29.15-3.73-3.63-2.5-10.9 2.4-12.87m1.49 2.5c-3.71 1.64-3.73 7.85-.02 9.48 3.25 1.88 7.68-1.07 7.42-4.74.17-3.62-4.16-6.61-7.4-4.74zm16.07-.79c1.49-2.09 5.28-3.73 6.44-.41-2.09 1.04-5.28.94-6.19 3.53-.74 3.07-.03 6.27-.47 9.38-.55 1.65-2.33 1.54-2.95.05-.13-4.72-.11-9.45 0-14.17 1.65-1.07 2.71-.53 3.17 1.62zm6.55 1.63c1.16-6.26 13.19-4.97 12.65 1.78-.51 3.48 1.44 7.99-1.36 10.73-.48-.62-1.44-1.87-1.93-2.5-3.04 3.81-10.88 2.19-10.49-3.21 1.15-4.85 7.2-4.4 11.04-4.71-.47-1.47-1.12-3.19-2.87-3.45-2.5-.56-4.55 1.66-7.04 1.36m2.09 7.82c2.35 3.91 8.55.78 7.72-3.5-2.61.37-7.6-.26-7.72 3.5zm16.4-9.62c2.77-2.79 7.59-2.88 10.43-.15 4.15 3.85 2.81 12.09-2.87 13.72-2.83 1.13-5.64-.31-7.94-1.9.14 3.11.13 6.22.13 9.32-.81.02-2.44.04-3.25.05.05-7.51-.22-15.03.12-22.53 1.67-.96 2.8-.46 3.38 1.49m2.81.78c-3.96 1.47-4.55 7.51-.92 9.68 2.99 2.08 7.48-.13 7.67-3.76.84-3.69-3.1-7.63-6.75-5.92zm27.87-2.3c1.11-.44 3.01-.84 3.15.95 0 4.42.05 8.84-.03 13.26-.61 1.58-2.49 1.5-3.01-.03-.24-4.72.07-9.45-.11-14.18zm4.9 9.18c-1.18-4.5 2.19-9.44 6.87-9.74 2.64-.36 7.01.51 6.57 4.03-2.52.18-4.76-2.39-7.24-1.1-4.46 1.76-3.95 9.55.96 10.28 2.08.61 3.75-1.58 5.77-1.17 1.48 1.2-.19 2.59-1.3 3.12-4.39 2.36-10.9-.27-11.63-5.42zm18.74-7.17c1.2-2.14 4.22-3.77 6.28-1.72-.2 2.81-4.15 1.4-5.41 3.46-1.99 3.2-.47 7.22-1.08 10.76-1.03 1.17-2.02 1.15-2.96-.07-.19-4.64-.19-9.31.01-13.95.39-.37 1.16-1.12 1.54-1.5.69.94 1.23 1.94 1.62 3.02zm12.65-.88c-.21-1.72 2.68-2.33 3.07-.62 1.81 3.55 2.79 7.44 4.59 10.99 1.72-3.78 2.71-7.91 4.87-11.48.96-1.63 3.78.68 2.27 2.08-2.48 4.5-3.14 10.31-7.21 13.72-.91-.81-2.08-1.46-2.5-2.68-1.69-4.01-3.53-7.95-5.09-12.01zm15.32 6.03c-.47-6.9 9.38-10.58 13.68-5.33 1.07 1.7 2.79 4.91.71 6.43-3.82.29-7.65 0-11.46.13.68 2.05 2.08 4.24 4.5 4.33 2.24.43 3.97-1.28 5.86-2.13 2.69.68.6 3.12-.87 3.73-5.12 3.36-13.16-.79-12.42-7.16m3.08-1.21c3.12-.01 6.24-.02 9.35-.07-.57-1.27-.92-2.88-2.31-3.52-2.8-1.61-6.54.51-7.04 3.59zm17.03-4.59c1.8-1.44 3.93-2.41 6.23-1.59v1.63c-2.14.99-5.39 1.06-6.05 3.83-.55 3.12.06 6.32-.48 9.44-.67.21-2.01.62-2.68.83.09-5.49-1.63-11.66 1.09-16.65.48.62 1.42 1.88 1.89 2.51zm-40.09-1.48c.6 0 1.79-.02 2.39-.03.82 4.8.77 10.27.02 15.13-.59.08-1.78.23-2.38.31-.41-5.12-.47-10.3-.03-15.41z"/><path fill="#060606" d="M12.23 5.99c-.01-1.37-.11-3.77 1.87-3.72 7.64-.3 15.3 0 22.95-.13 1.4.16 4.15-.3 4.23 1.78.37 7.35-.02 14.73.17 22.1-.3 1.53.62 4.31-1.6 4.61-6.26.87-13.17-1.33-18.76 2.55C19.92 38 18.71 42.96 15.68 47h-.43c-2.18-3.16-3.2-6.86-3.24-10.67C7.1 36.44 1.3 34.7 0 29.31v-2.7c3.77 2.04 8.01 3.46 12.35 2.92-.19-7.84-.05-15.69-.12-23.54m1.22-2.61c-.96 6.71-.9 13.54-.01 20.25.96.75 1.91 1.5 2.86 2.25 1.44-1.27 2.77-2.73 3.45-4.56 1.85-5.03 5.84-9.8 4-15.46.37-1.01.74-2.02 1.12-3.03-3.82-.28-7.66-.18-11.42.55m17.38 2.19c-5.37 5.18-7.37 12.46-10.56 18.95-2.06 2.12-3.74 4.85-6.63 5.93-2.48 1.24-5.28.32-7.91.8l-.68-.39c-1.19-.46-2.31-1.07-3.41-1.73 2.06 4.79 7.55 5.79 12.2 5.09-.01 1.29-.02 2.58-.01 3.87.57 1.95.94 3.94 1.39 5.92 2.39-2.14 2-5.69 3.72-8.22l-.24-.11c.55-1.12.9-2.31 1.24-3.5 4.49-1.98 8.81-4.37 12.62-7.5 3.61-2.95 5.9-7.06 7.61-11.32-3.19.7-3.19-2.98-3.41-5.09 1.26 1.67 2.54 3.34 4.1 4.75-.17-3.09.14-6.28-.58-9.3-2.67-2.18-7.77-1.42-9.45 1.85m-5.08-.73c-.1 1.46-.23 2.91-.35 4.37 1.18-.88 1.86-2.16 2.32-3.54l2.37-1.26c-1.45.13-2.9.27-4.34.43z"/><path fill="#202020" d="M13.45 3.38c3.76-.73 7.6-.83 11.42-.55-.38 1.01-.75 2.02-1.12 3.03-2.83 1.23-6.59 1.93-7.73 5.24-1 1.99-.11 4.16.82 5.98 1.16 1.27 2.18 2.67 2.91 4.24-.68 1.83-2.01 3.29-3.45 4.56-.95-.75-1.9-1.5-2.86-2.25-.89-6.71-.95-13.54.01-20.25z"/><path fill="#696969" d="M30.83 5.57c1.68-3.27 6.78-4.03 9.45-1.85.72 3.02.41 6.21.58 9.3-1.56-1.41-2.84-3.08-4.1-4.75.22 2.11.22 5.79 3.41 5.09-1.71 4.26-4 8.37-7.61 11.32l-3.58-.39c.05-3.74.03-7.48.02-11.21l-.76.18.42.85c-.78 1.28-1.92 2.37-3.52 2.27 1.69-3.71 3.87-7.17 5.69-10.81z"/><path d="M25.75 4.84c1.44-.16 2.89-.3 4.34-.43l-2.37 1.26c-.46 1.38-1.14 2.66-2.32 3.54.12-1.46.25-2.91.35-4.37zm-5.48 19.68c3.19-6.49 5.19-13.77 10.56-18.95-1.82 3.64-4 7.1-5.69 10.81-1.3 2.89-2.54 5.9-4.87 8.14zM1.64 29.13c1.1.66 2.22 1.27 3.41 1.73l.68.39c3.9 2.2 8.84 1.32 12.06-1.66l-.15 5.66c.26.11.79.32 1.06.43l.24.11c-1.72 2.53-1.33 6.08-3.72 8.22-.45-1.98-.82-3.97-1.39-5.92-.01-1.29 0-2.58.01-3.87-4.65.7-10.14-.3-12.2-5.09z" fill="#fff"/><path fill="#2e2e2e" d="M16.02 11.1c1.14-3.31 4.9-4.01 7.73-5.24 1.84 5.66-2.15 10.43-4 15.46-.73-1.57-1.75-2.97-2.91-4.24-.93-1.82-1.82-3.99-.82-5.98z"/><path fill="#747474" d="M28.24 13.26l.76-.18c.01 3.73.03 7.47-.02 11.21l3.58.39c-3.81 3.13-8.13 5.52-12.62 7.5-.34 1.19-.69 2.38-1.24 3.5-.27-.11-.8-.32-1.06-.43l.15-5.66c-3.22 2.98-8.16 3.86-12.06 1.66 2.63-.48 5.43.44 7.91-.8 2.89-1.08 4.57-3.81 6.63-5.93 2.33-2.24 3.57-5.25 4.87-8.14 1.6.1 2.74-.99 3.52-2.27l-.42-.85z"/></svg>