<svg width="185pt" height="35pt" viewBox="0 0 185 35" xmlns="http://www.w3.org/2000/svg"><path d="M80.52 1.25c.45-1.7 3.65-.98 3.08.84-.05 7.53.08 15.06-.06 22.59-.41.29-1.22.89-1.63 1.18-.38-.78-1.15-2.34-1.54-3.12-2.34 4.1-8.63 3.66-11.28.18-3.22-3.91-2.16-11.03 2.79-12.97 2.96-1.49 6.79-.52 8.68 2.23-.1-3.64-.22-7.29-.04-10.93M73.28 12.4c-3.91 2.18-3.61 8.91.75 10.33 3.89 1.32 7.62-2.88 6.5-6.63-.63-3.26-4.26-4.92-7.25-3.7zM164.97.83c.5-.12 1.49-.37 1.99-.49l.88.73c-.04 7.92.24 15.9-.14 23.8l-.77.66-1.96-.52c-.25-8.04-.25-16.14 0-24.18zM85.69 3.5c.92-2.07 3.84-1.37 4.35.64-.33 1-.95 1.77-1.87 2.31-1.42-.19-3.29-1.28-2.48-2.95zm26.47 2.97c-2.47.12-3.63-3.39-1.07-4.16 2.91-.89 3.82 3.34 1.07 4.16zm-72.83 3.94c3.68-2.2 10.21-1.39 10.91 3.61-.17 3.65.66 7.57-.28 11.05l-1.32.76c-.36-.66-1.06-1.99-1.41-2.65-2.3 3.42-8.07 3.27-10.17-.26-.9-1.86-.49-4.41 1.33-5.58 2.64-1.92 6.08-1.63 9.16-1.97-.42-4.5-5.9-4.03-8.47-1.71-2.13-.44-1.34-2.85.25-3.25m.38 10.55c.38 1.6 1.91 1.93 3.26 2.34 2.78-.24 4.86-2.7 4.4-5.51-2.66.2-6.91-.23-7.66 3.17zm12.2-9.04c-.59-1.73 1.83-3.61 3.04-1.82.99 3.62-.39 7.61.71 11.25 1.23 2.4 5.13 1.92 6.26-.37 1.58-3.49-.16-7.55 1.02-11.1 1.48-1.59 3.36.49 2.8 2.1-.17 4.26.17 8.55-.14 12.79-.38.25-1.13.75-1.51 1l-.93-.74c-.1-.51-.28-1.54-.37-2.06-2.25 3.35-7.93 3.79-9.95-.02-1.56-3.44-.39-7.39-.93-11.03zm45.52-2.36c5.23-1.65 11.35 2.86 10.49 8.5.11 6.62-8.94 10.03-13.61 5.69-5.1-3.76-3.16-12.94 3.12-14.19m-.05 2.93c-4.27 2.14-3.41 9.78 1.5 10.36 3.4.76 6.3-2.65 5.77-5.89.13-3.7-4.02-6.12-7.27-4.47zm36.43-.28c2.33-4.71 10.19-3.41 10.68 1.91-.29 3.64.72 7.55-.4 11.01l-1.23.55c-.32-.25-.96-.74-1.28-.99-1.13-3.97 1.43-9.12-1.86-12.36-2.06-.75-4.38-.02-5.32 2.03-.98 3.11-.27 6.42-.5 9.62.3 2-3.39 2.14-3.13.05.09-4.72-.2-9.45.16-14.16 2.08-.98 3.04-.2 2.88 2.34zm15.15-1.34c2.92-2.44 7.88-2.12 10.13 1.11.05-2.35 1.03-3.05 2.95-2.1.61 2.98.1 6.08.26 9.11-.13 3.83.73 8.18-1.89 11.39-2.6 3-7.19 3.02-10.69 1.88-1.29-.78-3.61-1.35-3.3-3.29.7-1.77 2.61-.81 3.62.01 2.23 1.63 5.65 1.86 7.67-.22 1.63-1.51 1.21-3.99 1.66-5.95-2.46 2.63-6.57 3.34-9.71 1.53-4.65-2.68-4.97-10.29-.7-13.47m3.19 1.43c-3.87 1.68-3.96 8.19-.05 9.87 3.35 2.03 7.74-1.49 7.27-5.18-.09-3.58-3.93-5.91-7.22-4.69zm19.05 10.42c-3.62-4.53-1.15-12.65 4.94-13.35 4.43-.97 8.57 2.61 8.86 6.99V18c-4.16 1-8.49-.16-12.67.66.99 3.5 5.44 5.76 8.45 3.21 1.03-1.46 3.63-1.31 3.31.86-3.14 3.9-9.78 3.95-12.89-.01m1.42-6.6c2.93-.02 5.87-.04 8.8.02 1-5.82-8.67-5.42-8.8-.02zm-86.31-5.93l.69-.74c.51.12 1.54.34 2.05.45.25 5.04.24 10.13.01 15.17-.49.11-1.47.34-1.97.45l-.75-.71c-.29-4.84-.23-9.77-.03-14.62zm24.09-.01c1.25-1.94 3.64-.08 2.95 1.82-.15 5.64.19 11.29-.05 16.93-.12 3.32-4.87 5.57-7.06 2.92.06-.32.2-.96.26-1.28 1.53-.23 3.8-.45 3.69-2.55.23-5.94-.24-11.93.21-17.84zm4.73 1.83c-.59-1.67 1.45-3.68 2.92-2.09.78 3.49-.15 7.17.46 10.7.62 2.73 4.54 3.03 6.06.94 1.75-2.12 1.05-5.02 1.16-7.54.28-1.51-.86-4.23 1.34-4.65 2.12-.22 1.82 2.29 1.79 3.64-.14 3.99.19 7.99-.15 11.97-1.87 1.1-2.91.42-3.12-2.05-1.96 3.95-8.39 3.5-9.97-.56-.93-3.37-.25-6.91-.49-10.36zM26.9 29.82c.76-1.33.62-3.66 2.67-3.77-.07 1.56-.38 3.08-.92 4.54-2.66 1.18-4.78 3.36-7.73 3.92 0-.24 0-.71.01-.94 2-1.24 4.01-2.45 5.97-3.75z"/><path fill="#111" d="M0 3.19c2.69-2.03 6.33-.74 9.45-.99l.66.18c-.88.74-1.75 1.47-2.61 2.22-4.46 4.96-5.99 12.11-4.34 18.54.24.13.71.4.94.54-.16.3-.5.91-.67 1.22 1.44 2.07 3.25 3.87 4.64 5.99 1.62.61 3.24 1.2 4.79 1.98l1.39.95c2.19-.52 4.45-.46 6.68-.25-.01.23-.01.7-.01.94l1.8.49H14.3c-2.58-.9-5.1-2-7.31-3.65-1.82 0-3.64 0-5.45-.01-.39-.31-1.16-.93-1.54-1.24V3.19z"/><path fill="#101010" d="M9.45 2.2c6.28.18 12.82-.7 18.95.42 2.1 5.14-.54 11.3 1.61 16.61-2.18-.63-2.23-3.25-4-4.36-2.09-2.12-5.19-2-7.93-1.87l-2.24 1.36-1.47-.16c1.38-2.75 4.5-3.4 7.27-3.66a83.292 83.292 0 00-3.66-5.5C10.83 6.74 6.02 15.06 9 21.97c.84 1.34 1.58 3.93 3.62 3.46 3.5-1.17 5.82-4.34 9.09-5.98-2.33-1.58-5.19-1.22-7.83-1-1.34-1.03-1.54-3.1 0-4.09.06.68.19 2.04.25 2.72 3.95-1.74 9.61-.56 10.96 3.97.94 5.53-5.31 10.02-10.44 8.3-4.36-1.61-8.18-5.5-8.09-10.4-.52-5.48 2.47-10.62 6.7-13.89 1.38-1.05 3.63-.9 4.41-2.65-2.51.09-5.08.55-7.56-.03l-.66-.18z"/><path fill="#929292" d="M7.5 4.6c.86-.75 1.73-1.48 2.61-2.22 2.48.58 5.05.12 7.56.03-.78 1.75-3.03 1.6-4.41 2.65-1.9-.34-3.83-.47-5.76-.46z"/><path fill="#727272" d="M7.5 4.6c1.93-.01 3.86.12 5.76.46-4.23 3.27-7.22 8.41-6.7 13.89-.09 4.9 3.73 8.79 8.09 10.4 1.46 1.49 3.58 1.4 5.51 1.57l-.32 1.98c-2.34.35-5.07-1.97-6.98-.03-1.55-.78-3.17-1.37-4.79-1.98-1.39-2.12-3.2-3.92-4.64-5.99.17-.31.51-.92.67-1.22-.23-.14-.7-.41-.94-.54C1.51 16.71 3.04 9.56 7.5 4.6z"/><path fill="#2c2c2c" d="M9 21.97c-2.98-6.91 1.83-15.23 8.98-16.93 1.29 1.79 2.52 3.62 3.66 5.5-2.77.26-5.89.91-7.27 3.66l1.47.16c-.75.79-1.32 1.69-1.71 2.72-.06-.68-.19-2.04-.25-2.72-1.54.99-1.34 3.06 0 4.09-1.79.94-3.39 2.17-4.88 3.52z"/><path fill="#909090" d="M15.84 14.36L18.08 13c2.74-.13 5.84-.25 7.93 1.87 1.77 1.11 1.82 3.73 4 4.36-.2.14-.61.42-.81.56 2.31 1.71.32 4.13.37 6.26-2.05.11-1.91 2.44-2.67 3.77-1.96 1.3-3.97 2.51-5.97 3.75-2.23-.21-4.49-.27-6.68.25l-1.39-.95c1.91-1.94 4.64.38 6.98.03l.32-1.98c-1.93-.17-4.05-.08-5.51-1.57 5.13 1.72 11.38-2.77 10.44-8.3-1.35-4.53-7.01-5.71-10.96-3.97.39-1.03.96-1.93 1.71-2.72z"/><path fill="#202020" d="M13.88 18.45c2.64-.22 5.5-.58 7.83 1-3.27 1.64-5.59 4.81-9.09 5.98-2.04.47-2.78-2.12-3.62-3.46 1.49-1.35 3.09-2.58 4.88-3.52z"/></svg>