<svg width="58" height="33" fill="none" xmlns="http://www.w3.org/2000/svg"><path d="M38.56 3c.956-.552 2.507-.552 3.464 0l10.392 6c.957.552.957 1.448 0 2l3.464 2c1.914 1.105 1.914 2.895 0 4L29.9 32c-1.913 1.105-5.015 1.105-6.928 0L2.186 20c-1.913-1.105-1.913-2.895 0-4l25.98-15c1.914-1.105 5.016-1.105 6.929 0l3.464 2zm-3.464 2l-3.464-2L5.65 18l20.785 12 25.98-15-3.464-2-1.732 1c-.956.552-2.507.552-3.464 0L33.364 8c-.957-.552-.957-1.448 0-2l1.732-1zm12.124 5l-6.928-4-1.732 1 6.928 4 1.732-1zm-8.809 8.5c0 .781-1.096 1.414-2.45 1.414H22.106c-1.352 0-2.45-.633-2.45-1.414v-4c0-.781 1.098-1.414 2.45-1.414 1.353 0 2.45.633 2.45 1.414v2.586h11.407c1.353 0 2.45.633 2.45 1.414z" fill="#142251"/></svg>