<svg width="296pt" height="507pt" viewBox="0 0 296 507" version="1.1" xmlns="http://www.w3.org/2000/svg">
<g id="#88c9ffff">
<path fill="#88c9ff" opacity="1.00" d=" M 9.77 32.78 C 17.38 23.60 29.04 17.88 40.99 17.69 C 52.44 17.32 63.89 21.95 71.95 30.07 C 133.83 91.85 195.68 153.67 257.53 215.48 C 263.29 221.39 269.86 226.84 273.59 234.36 C 280.03 246.58 279.87 262.02 273.06 274.05 C 269.55 280.59 263.86 285.51 258.71 290.71 C 198.86 350.53 139.01 410.35 79.15 470.15 C 73.76 475.50 68.63 481.38 61.76 484.87 C 47.51 492.64 28.84 490.93 16.17 480.82 C 6.73 473.59 1.24 462.15 0.00 450.46 L 0.00 441.74 C 1.98 432.75 5.59 423.85 12.36 417.38 C 64.03 365.71 115.73 314.07 167.43 262.42 C 170.19 259.55 173.31 257.00 175.71 253.81 C 175.10 251.40 172.53 249.91 170.95 248.04 C 118.19 195.47 65.56 142.75 12.85 90.13 C 5.76 83.35 1.41 74.11 0.00 64.45 L 0.00 55.55 C 1.08 47.25 4.29 39.16 9.77 32.78 Z" />
</g>
</svg>
