<svg width="183pt" height="19pt" viewBox="0 0 183 19" version="1.1" xmlns="http://www.w3.org/2000/svg">
<g id="#ffffffff">
<path fill="#ffffff" opacity="1.00" d=" M 0.54 0.00 L 6.39 0.00 C 8.29 2.82 10.01 5.76 11.71 8.71 C 11.53 5.81 11.51 2.90 11.52 0.00 L 16.73 0.00 C 16.74 6.17 16.72 12.34 16.74 18.51 C 14.97 18.48 13.21 18.46 11.44 18.44 C 9.52 15.32 7.55 12.23 5.71 9.06 C 5.74 12.21 5.73 15.35 5.75 18.49 C 4.00 18.48 2.26 18.47 0.52 18.47 C 0.55 12.31 0.53 6.16 0.54 0.00 Z" />
<path fill="#ffffff" opacity="1.00" d=" M 19.54 0.00 L 33.73 0.00 C 33.73 1.50 33.74 3.00 33.75 4.50 C 31.08 4.46 28.41 4.46 25.74 4.46 C 25.74 5.10 25.73 6.36 25.73 7.00 C 27.91 7.00 30.08 7.00 32.26 7.00 C 32.26 8.49 32.27 9.97 32.27 11.46 C 30.09 11.46 27.92 11.47 25.75 11.47 C 25.74 12.04 25.72 13.16 25.71 13.73 C 28.38 13.74 31.05 13.73 33.72 13.74 C 33.73 15.32 33.74 16.91 33.75 18.49 C 29.01 18.45 24.26 18.46 19.52 18.48 C 19.55 12.32 19.53 6.16 19.54 0.00 Z" />
<path fill="#ffffff" opacity="1.00" d=" M 35.54 0.00 L 49.73 0.00 C 49.73 1.50 49.74 3.00 49.75 4.50 C 47.08 4.46 44.41 4.46 41.74 4.46 C 41.74 5.10 41.73 6.36 41.73 7.00 C 43.91 7.00 46.08 7.00 48.26 7.00 C 48.26 8.49 48.27 9.97 48.27 11.46 C 46.09 11.46 43.92 11.47 41.74 11.47 C 41.74 12.23 41.73 12.98 41.72 13.73 C 44.39 13.74 47.06 13.73 49.72 13.74 C 49.73 15.32 49.74 16.91 49.75 18.49 C 45.01 18.45 40.26 18.46 35.52 18.48 C 35.55 12.32 35.53 6.16 35.54 0.00 Z" />
<path fill="#ffffff" opacity="1.00" d=" M 51.54 0.00 L 59.96 0.00 C 68.60 0.34 70.56 13.61 63.45 17.44 C 59.73 19.16 55.47 18.24 51.52 18.47 C 51.55 12.32 51.53 6.16 51.54 0.00 M 57.70 4.31 C 57.75 7.61 57.71 10.92 57.76 14.22 C 62.57 13.53 62.51 4.83 57.70 4.31 Z" />
<path fill="#ffffff" opacity="1.00" d=" M 69.54 0.00 L 75.73 0.00 C 75.73 2.24 75.73 4.49 75.73 6.73 C 76.55 6.73 78.18 6.74 79.00 6.74 C 79.00 4.49 79.00 2.25 79.00 0.00 L 85.26 0.00 C 85.26 6.15 85.26 12.31 85.27 18.46 C 83.18 18.46 81.09 18.46 79.01 18.47 C 79.00 16.13 79.00 13.79 78.99 11.45 C 77.90 11.46 76.82 11.47 75.73 11.48 C 75.73 13.82 75.73 16.15 75.74 18.49 C 73.67 18.48 71.59 18.47 69.52 18.47 C 69.55 12.31 69.53 6.16 69.54 0.00 Z" />
<path fill="#ffffff" opacity="1.00" d=" M 94.49 0.00 L 96.97 0.00 C 103.57 0.41 106.14 8.54 103.58 13.86 C 101.33 19.03 93.74 19.95 89.71 16.37 C 84.62 11.49 86.73 0.62 94.49 0.00 M 94.66 13.41 C 95.42 14.64 96.91 13.54 97.45 12.71 C 98.43 9.88 98.43 6.11 95.77 4.17 C 92.98 6.23 92.65 10.75 94.66 13.41 Z" />
<path fill="#ffffff" opacity="1.00" d=" M 112.61 0.00 L 115.56 0.00 C 118.47 0.29 120.71 2.20 122.21 4.59 C 120.51 5.16 118.80 5.70 117.09 6.23 C 115.61 4.70 113.59 3.88 111.65 5.18 C 114.17 6.44 117.06 6.53 119.62 7.65 C 123.23 9.53 123.11 15.53 119.36 17.21 C 114.55 19.81 106.37 18.91 104.97 12.70 C 106.69 12.34 108.42 11.98 110.15 11.66 C 111.69 13.34 113.83 14.00 116.08 13.78 C 115.67 11.41 112.75 12.01 111.04 11.31 C 108.12 10.94 105.29 8.26 106.07 5.12 C 106.37 1.85 109.67 0.20 112.61 0.00 Z" />
<path fill="#ffffff" opacity="1.00" d=" M 123.27 0.00 L 136.73 0.00 C 136.73 1.58 136.73 3.15 136.73 4.73 C 135.48 4.73 134.24 4.73 133.00 4.74 C 133.00 9.31 133.00 13.89 133.00 18.47 C 131.00 18.46 129.00 18.46 127.00 18.47 C 127.00 13.89 127.00 9.31 127.00 4.74 C 125.76 4.73 124.51 4.73 123.27 4.73 C 123.27 3.15 123.27 1.58 123.27 0.00 Z" />
<path fill="#ffffff" opacity="1.00" d=" M 138.54 0.00 L 144.73 0.00 C 144.74 6.16 144.72 12.33 144.74 18.49 C 142.67 18.48 140.59 18.47 138.52 18.47 C 138.55 12.31 138.53 6.16 138.54 0.00 Z" />
<path fill="#ffffff" opacity="1.00" d=" M 147.54 0.00 L 153.39 0.00 C 155.29 2.82 157.01 5.76 158.71 8.71 C 158.53 5.81 158.51 2.91 158.52 0.00 L 163.73 0.00 C 163.74 6.17 163.71 12.33 163.75 18.50 C 161.98 18.48 160.21 18.46 158.45 18.45 C 156.52 15.33 154.55 12.23 152.71 9.06 C 152.74 12.21 152.73 15.35 152.75 18.49 C 151.00 18.48 149.26 18.47 147.52 18.47 C 147.55 12.31 147.53 6.16 147.54 0.00 Z" />
<path fill="#ffffff" opacity="1.00" d=" M 172.52 0.00 L 176.33 0.00 C 179.88 0.34 182.25 3.22 182.99 6.56 C 181.01 6.80 179.03 7.03 177.05 7.24 C 176.34 6.17 175.62 5.09 174.90 4.03 C 171.29 5.26 170.65 10.50 173.04 13.07 C 174.40 14.35 176.07 13.35 177.31 12.46 C 176.48 12.40 174.83 12.27 174.00 12.20 C 174.00 10.80 174.00 9.40 174.00 8.00 C 176.91 8.00 179.82 8.01 182.73 8.00 C 182.73 11.54 182.74 15.08 182.73 18.62 C 181.29 18.38 179.53 18.75 178.57 17.39 C 174.95 19.24 170.08 18.89 167.26 15.79 C 163.21 10.70 165.27 0.77 172.52 0.00 Z" />
</g>
</svg>
