<svg width="95" height="195" fill="none" xmlns="http://www.w3.org/2000/svg"><rect opacity=".6" y=".989" width="95" height="193.732" rx="10.179" fill="#989EB1"/><rect x="7" y="13.204" width="81.429" height="87.536" rx="3.393" fill="#F3F6F9"/><path d="M31.667 44.856a1.086 1.086 0 01-.354.809 1.237 1.237 0 01-.391.246c-.146.06-.302.089-.468.089h-4.241a1.234 1.234 0 01-.858-.335 1.156 1.156 0 01-.26-.362 1.082 1.082 0 01-.095-.447v-5.712a1.092 1.092 0 01.355-.804c.11-.104.239-.186.384-.245.15-.063.308-.095.474-.095h4.241c.166 0 .322.032.468.095.15.06.28.141.39.245.11.1.197.222.26.363.064.137.095.284.095.44v5.713zm-5.454-5.712v5.712h4.241v-5.712h-4.241zm13.82 5.712a1.087 1.087 0 01-.355.809c-.11.104-.24.186-.39.246-.146.06-.302.089-.468.089h-4.242a1.234 1.234 0 01-.858-.335 1.156 1.156 0 01-.26-.362 1.082 1.082 0 01-.094-.447v-5.712a1.092 1.092 0 01.354-.804c.111-.104.24-.186.385-.245a1.21 1.21 0 01.473-.095h4.242c.166 0 .322.032.468.095.15.06.28.141.39.245.11.1.197.222.26.363.063.137.095.284.095.44v5.713zm-5.455-5.712v5.712h4.242v-5.712h-4.242zm7.035 5.188h1.769V46h-1.77v-1.668zm0-4.273h1.769v1.668h-1.77v-1.668zM46.902 38v8H45.69v-6.856h-1.456V38h2.668zm8.49 6.856c0 .157-.031.305-.095.447-.063.137-.15.258-.26.362-.11.104-.24.186-.39.246-.146.06-.302.089-.468.089h-4.241a1.234 1.234 0 01-.858-.335 1.157 1.157 0 01-.26-.362 1.082 1.082 0 01-.095-.447v-5.712a1.106 1.106 0 01.354-.804c.111-.104.24-.186.385-.245.15-.063.308-.095.474-.095h4.241c.166 0 .322.032.468.095.15.06.28.141.39.245.11.1.197.222.26.363.064.137.095.284.095.44v5.713zm-5.454-5.712v5.712h4.241v-5.712h-4.241zm7.034 5.188h1.769V46h-1.769v-1.668zm0-4.273h1.769v1.668h-1.769v-1.668zM62.261 38v8H61.05v-6.856h-1.456V38h2.668zM70 44.059c-.012.65-.185 1.138-.52 1.461-.336.32-.849.48-1.539.48h-2.277c-1.377 0-2.065-.647-2.065-1.941v-.48h1.19v.424c0 .301.07.522.212.664.142.141.375.212.698.212h2.2c.324 0 .557-.071.699-.212.142-.142.213-.363.213-.664v-1.077c0-.301-.071-.52-.213-.658-.142-.142-.375-.212-.698-.212h-4.06V38h5.94v1.144h-4.727v1.796h2.887c.694 0 1.211.16 1.55.48.34.316.509.803.509 1.462v1.177z" fill="#142251"/><rect opacity=".6" x="9" y="16" width="29" height="12" rx="1.696" fill="#989EB1"/><path d="M23.056 24.877l-1.021-1.858h-.536v1.858H20v-5.754h2.345c.597 0 1.097.19 1.498.567.408.373.612.847.612 1.422 0 .346-.09.663-.268.954a1.965 1.965 0 01-.729.682l1.206 2.129h-1.608zM21.5 20.48v1.29h.829a.578.578 0 00.452-.173.644.644 0 00.176-.468.644.644 0 00-.176-.469.603.603 0 00-.452-.18h-.83zm5.191 3.016h2.27v1.38h-3.768v-5.753h3.726v1.373H26.69v.797h2.018v1.356H26.69v.847zM32.463 25c-.882 0-1.613-.285-2.194-.855-.575-.575-.862-1.29-.862-2.145s.287-1.567.862-2.137c.58-.575 1.312-.863 2.194-.863.53 0 1.021.123 1.474.37.452.246.806.578 1.063.994l-1.298.732a1.164 1.164 0 00-.502-.477 1.495 1.495 0 00-.737-.18c-.469 0-.849.145-1.139.435-.285.285-.427.66-.427 1.126 0 .466.142.844.427 1.134.29.285.67.428 1.139.428.273 0 .519-.058.737-.173a1.2 1.2 0 00.502-.493l1.298.74a2.772 2.772 0 01-1.063 1.002 3.052 3.052 0 01-1.474.362z" fill="#F3F6F9"/><path d="M14.818 95.626l-2.037-3.85v3.85H12v-5.252h.853l2.079 3.956 2.083-3.956h.849v5.252h-.777v-3.85l-2.037 3.85h-.232zm4.455 0v-5.252h2.989c.883 0 1.325.426 1.325 1.278v.747c0 .852-.442 1.279-1.325 1.279h-2.209v1.948h-.78zm.78-2.7h2.167c.208 0 .358-.043.449-.131.091-.088.137-.232.137-.432v-.674c0-.2-.046-.345-.137-.433-.091-.088-.241-.132-.45-.132h-2.166v1.803zm4.314 1.111h.766v.278c0 .198.045.343.137.436.091.093.24.14.449.14h1.572c.209 0 .358-.047.45-.14.091-.093.137-.238.137-.436v-.407c0-.2-.046-.345-.137-.436-.092-.09-.241-.135-.45-.135h-1.614v-.733h1.592c.19-.007.326-.056.407-.146.084-.093.126-.235.126-.425v-.344c0-.2-.047-.347-.141-.44-.091-.093-.24-.14-.446-.14h-1.42c-.206 0-.354.047-.445.14-.092.093-.138.24-.138.44v.278h-.765v-.315c0-.852.442-1.278 1.325-1.278h1.466c.45 0 .782.105.998.315.218.21.327.53.327.963v.095c0 .296-.054.54-.163.733a.986.986 0 01-.469.425.883.883 0 01.53.395c.121.198.182.46.182.788v.264c0 .85-.442 1.274-1.325 1.274h-1.622c-.886 0-1.329-.425-1.329-1.274v-.315zM31.762 96l2.067-6h.754l-2.105 6h-.716zm7.425-5.626v5.252h-.781v-4.502h-.937v-.75h1.718zm2.189.75v.678h-.78v-.678a.71.71 0 01.06-.289.79.79 0 01.415-.4.763.763 0 01.305-.061h2.471a.72.72 0 01.3.062c.097.039.18.093.248.161a.707.707 0 01.168.238c.043.09.065.187.065.29v.96c0 .102-.01.193-.03.274a.67.67 0 01-.1.22.726.726 0 01-.167.172c-.069.051-.153.1-.252.146l-2.703 1.22v.758h2.57v-.674h.78v1.425h-4.13v-1.38c0-.103.01-.195.03-.275a.725.725 0 01.267-.388c.07-.054.153-.103.247-.147l2.707-1.224v-1.088h-2.471zm7.424 1.48c.191-.007.327-.056.408-.146.081-.093.122-.235.122-.425v-.344c0-.2-.046-.347-.137-.44-.091-.093-.24-.14-.445-.14h-1.42c-.206 0-.355.047-.446.14-.092.093-.137.24-.137.44v.344c0 .19.04.332.122.425.083.09.22.14.407.146h1.527zm.024 2.286c.208 0 .358-.046.449-.14.091-.092.137-.237.137-.435v-.407c0-.2-.046-.345-.137-.436-.091-.09-.241-.135-.45-.135h-1.572c-.208 0-.358.045-.45.135-.09.09-.136.236-.136.436v.407c0 .198.046.343.137.436.091.093.241.14.45.14h1.572zm-1.596.736c-.886 0-1.329-.425-1.329-1.274v-.264c0-.327.061-.59.183-.788a.883.883 0 01.53-.395 1.007 1.007 0 01-.473-.425c-.106-.193-.16-.437-.16-.733v-.095c0-.852.442-1.278 1.325-1.278h1.466c.884 0 1.325.426 1.325 1.278v.095c0 .296-.054.54-.163.733a.986.986 0 01-.469.425.883.883 0 01.53.395c.121.198.182.46.182.788v.264c0 .85-.441 1.274-1.325 1.274h-1.622zm9.139 0l-1.935-1.666v1.666h-.746v-5.403h.746v3.04l1.779-1.538h1.054l-2.178 1.883 2.334 2.018h-1.054zm5.186-.721c0 .1-.02.194-.061.282a.707.707 0 01-.16.23.776.776 0 01-.236.154.78.78 0 01-.293.055h-2.09a.77.77 0 01-.53-.208.701.701 0 01-.217-.513v-4.682h.746v2.19a.713.713 0 01.464-.634.742.742 0 01.286-.054h1.34c.105 0 .202.02.294.059a.69.69 0 01.236.154.668.668 0 01.16.227c.04.088.06.182.06.282v2.458zm-2.84-2.458v2.458h2.09v-2.458h-2.09zm6.537 2.458V94h-1.778a.781.781 0 01-.294-.055.828.828 0 01-.24-.154.703.703 0 01-.217-.513v-.831c0-.1.02-.194.058-.282a.745.745 0 01.4-.381.737.737 0 01.293-.059h2.372v.722h-2.372v.831h1.778c.104 0 .2.02.29.059a.739.739 0 01.4.38c.04.089.06.183.06.283v.905a.709.709 0 01-.46.667.75.75 0 01-.29.054h-2.528v-.721h2.528z" fill="#989EB1"/><path fill="#142251" d="M7 70.635h1.826v.714H7zm3.826-.357h1.826v1.427h-1.826zm3.826-.357h1.826v2.141h-1.826zm3.827-2.855h1.827v7.851h-1.827zm3.826.357h1.826v7.137h-1.826zm3.826 1.428h1.826v4.282h-1.826zm3.826-3.569h1.826v11.419h-1.826zm3.826 1.071h1.826v9.278h-1.826zM37.609 61h1.827v19.983h-1.827zm3.826 1.071h1.826v17.842h-1.826zm3.827 1.784h1.826v14.274h-1.826zm3.826-1.071h1.827v16.415h-1.827zm3.826 3.212h1.826v9.992h-1.826zm3.826 2.141h1.826v5.71H56.74zm3.826 1.07h1.826v3.568h-1.826zm3.827-1.427h1.826v6.423h-1.826zm3.826 1.427h1.826v3.568h-1.826zm3.826-1.784h1.826v7.137h-1.826zm3.826 2.141h1.826v2.855h-1.826zm3.826-.713h1.826v4.282h-1.826zm3.826.356h1.826v3.568h-1.826z"/><rect x="6.785" y="106.186" width="17.813" height="14.589" rx="3.393" fill="#F3F6F9"/><rect x="28.16" y="106.186" width="17.813" height="14.589" rx="3.393" fill="#F3F6F9"/><rect x="49.535" y="106.186" width="17.813" height="14.589" rx="3.393" fill="#F3F6F9"/><rect x="70.91" y="106.186" width="17.813" height="14.589" rx="3.393" fill="#F3F6F9"/><rect x="73.947" y="177.061" width="15.268" height="11.875" rx="3.393" fill="#F3F6F9"/><rect x="76.187" y="18.48" width="6.107" height="3.393" rx=".509" stroke="#989EB1" stroke-width=".339"/><rect x="79.072" y="18.989" width="2.714" height="2.375" rx=".339" fill="#989EB1"/><rect x="75.51" y="19.498" width=".679" height="1.357" rx=".339" stroke="#989EB1" stroke-width=".339"/><circle cx="15" cy="22" r="3" fill="#F3F6F9"/><path d="M45.04 7c0 .552-.463 1-1.036 1-.572 0-1.036-.448-1.036-1s.464-1 1.036-1c.573 0 1.036.448 1.036 1zm7.992 0c0 .552-.463 1-1.036 1-.572 0-1.036-.448-1.036-1s.464-1 1.036-1c.572 0 1.036.448 1.036 1zM29.056 7c0 .552-.463 1-1.036 1-.572 0-1.036-.448-1.036-1s.464-1 1.036-1c.573 0 1.036.448 1.036 1zm31.968 0c0 .552-.464 1-1.036 1-.572 0-1.036-.448-1.036-1s.464-1 1.036-1c.572 0 1.036.448 1.036 1zM37.048 7c0 .552-.464 1-1.036 1-.572 0-1.036-.448-1.036-1s.464-1 1.036-1c.572 0 1.036.448 1.036 1zm31.968 0c0 .552-.464 1-1.036 1-.572 0-1.036-.448-1.036-1s.464-1 1.036-1c.572 0 1.036.448 1.036 1z" fill="#fff"/><circle cx="15.545" cy="113.545" r="2.545" fill="#989EB1"/><path d="M37.571 113.5L33 116v-5l4.571 2.5zm0-2.5h1.143v5h-1.143v-5zm2.286 0H41v5h-1.143v-5zM62 113v1h-7v-1zm21 0v1h-7v-1z" fill="#989EB1"/><path fill="#989EB1" d="M79 110h1v7h-1z"/><path fill-rule="evenodd" clip-rule="evenodd" d="M80.315 179.024a.885.885 0 00-.44.271c-.218.228-.283.411-.283.802v.23h-1.339l-.08.044a.339.339 0 00.007.595c.056.029.092.033.268.033.157 0 .204.005.204.02 0 .078.27 5.08.277 5.13.028.198.126.398.275.556a.725.725 0 00.253.19c.078.039.178.079.221.088.054.012.629.017 1.826.017 1.94 0 1.838.005 2.053-.105a.836.836 0 00.24-.191.934.934 0 00.26-.471c.015-.073.062-.864.156-2.649l.135-2.565c0-.015.05-.02.204-.02.176 0 .212-.004.268-.033a.339.339 0 00.007-.595l-.08-.044h-1.339v-.23c0-.269-.02-.374-.1-.549a1.09 1.09 0 00-.421-.444c-.21-.107-.184-.105-1.394-.104-.897.001-1.105.005-1.178.024zm2.266.676a.4.4 0 01.1.074c.071.08.086.143.086.357v.196h-2.534v-.196c0-.214.015-.277.086-.357a.405.405 0 01.1-.074c.056-.027.118-.029 1.081-.029s1.025.002 1.08.029zm-2.216 2.673a.328.328 0 01.166.223c.012.059.015.381.012 1.122l-.005 1.04-.041.073a.336.336 0 01-.222.161.326.326 0 01-.26-.089c-.1-.111-.095-.04-.095-1.231 0-1.166-.002-1.141.079-1.233a.33.33 0 01.366-.066zm1.31.02c.04.028.074.07.1.126l.039.084-.004 1.088-.004 1.087-.046.068a.306.306 0 01-.52 0l-.046-.068v-2.211l.045-.075c.064-.109.148-.153.278-.146a.264.264 0 01.158.047zm1.223-.026c.074.033.12.08.154.156.026.059.028.126.028 1.145 0 1.195.006 1.124-.094 1.235a.326.326 0 01-.261.089.336.336 0 01-.222-.161l-.041-.073-.005-1.054c-.004-1.17-.004-1.168.09-1.262a.588.588 0 01.094-.073.361.361 0 01.257-.002z" fill="#989EB1"/><mask id="a" style="mask-type:alpha" maskUnits="userSpaceOnUse" x="10" y="119" width="75" height="75"><circle cx="47.5" cy="156.5" r="37.5" fill="#fff"/></mask><g mask="url(#a)" fill="#fff"><path d="M-62.661 92.048a.93.93 0 01-.93.932.93.93 0 01-.928-.932.93.93 0 01.929-.933.93.93 0 01.929.933zm0 86.318a.93.93 0 01-.93.932.93.93 0 01-.928-.932.93.93 0 01.929-.933c.513 0 .929.418.929.933zM52.012 92.048a.93.93 0 01-.929.932.93.93 0 01-.929-.932.93.93 0 01.93-.933.93.93 0 01.928.933zm0 86.318a.93.93 0 01-.929.932.93.93 0 01-.929-.932c0-.515.416-.933.93-.933.512 0 .928.418.928.933zM-62.661 99.24a.93.93 0 01-.93.933.93.93 0 01-.928-.932.93.93 0 01.929-.933.93.93 0 01.929.933zm0 86.319a.93.93 0 01-.93.932.93.93 0 01-.928-.932.93.93 0 01.929-.933c.513 0 .929.418.929.933zM52.012 99.24a.93.93 0 01-.929.933.93.93 0 01-.929-.932.93.93 0 01.93-.933.93.93 0 01.928.933zm0 86.319a.93.93 0 01-.929.932.93.93 0 01-.929-.932c0-.515.416-.933.93-.933.512 0 .928.418.928.933zm-114.673-79.125a.93.93 0 01-.93.932.93.93 0 01-.928-.932.93.93 0 01.929-.932.93.93 0 01.929.932zm0 86.318a.93.93 0 01-.93.932.93.93 0 01-.928-.932.93.93 0 01.929-.932.93.93 0 01.929.932zm114.673-86.318a.93.93 0 01-.929.932.93.93 0 01-.929-.932.93.93 0 01.93-.932.93.93 0 01.928.932zm-114.673 7.193a.931.931 0 01-.93.933.931.931 0 01-.928-.933.93.93 0 01.929-.932.93.93 0 01.929.932zm0 86.318a.931.931 0 01-.93.933.931.931 0 01-.928-.933.93.93 0 01.929-.932.93.93 0 01.929.932zm114.673-86.318a.931.931 0 01-.929.933.931.931 0 01-.929-.933.93.93 0 01.93-.932.93.93 0 01.928.932zm0 86.318a.931.931 0 01-.929.933.931.931 0 01-.929-.933.93.93 0 01.93-.932.93.93 0 01.928.932zM-62.661 120.82a.931.931 0 01-.93.933.931.931 0 01-.928-.933.93.93 0 01.929-.932.93.93 0 01.929.932zm0 86.318a.931.931 0 01-.93.933.931.931 0 01-.928-.933.93.93 0 01.929-.932.93.93 0 01.929.932zm114.673 0a.931.931 0 01-.929.933.931.931 0 01-.929-.933.93.93 0 01.93-.932.93.93 0 01.928.932zm-114.673-79.124a.931.931 0 01-.93.932.931.931 0 01-.928-.932.93.93 0 01.929-.933c.513 0 .929.418.929.933zm0 86.317a.931.931 0 01-.93.933.931.931 0 01-.928-.933.93.93 0 01.929-.932c.513 0 .929.418.929.932zm114.673-86.317a.931.931 0 01-.929.932.931.931 0 01-.929-.932c0-.515.416-.933.93-.933.512 0 .928.418.928.933zm0 86.317a.931.931 0 01-.929.933.931.931 0 01-.929-.933c0-.514.416-.932.93-.932a.93.93 0 01.928.932zm-114.673-79.124a.93.93 0 01-.93.932.93.93 0 01-.928-.932.93.93 0 01.929-.933c.513 0 .929.418.929.933zm0 86.318a.93.93 0 01-.93.932.93.93 0 01-.928-.932.93.93 0 01.929-.933c.513 0 .929.418.929.933zm114.673-86.318a.93.93 0 01-.929.932.93.93 0 01-.929-.932c0-.515.416-.933.93-.933.512 0 .928.418.928.933zm0 86.318a.93.93 0 01-.929.932.93.93 0 01-.929-.932c0-.515.416-.933.93-.933.512 0 .928.418.928.933zM-62.661 142.4a.93.93 0 01-.93.932.93.93 0 01-.928-.932.93.93 0 01.929-.933c.513 0 .929.418.929.933zm0 86.318a.93.93 0 01-.93.932.93.93 0 01-.928-.932.93.93 0 01.929-.933c.513 0 .929.418.929.933zM52.012 142.4a.93.93 0 01-.929.932.93.93 0 01-.929-.932c0-.515.416-.933.93-.933.512 0 .928.418.928.933zm0 86.318a.93.93 0 01-.929.932.93.93 0 01-.929-.932c0-.515.416-.933.93-.933.512 0 .928.418.928.933zm-114.673-79.125a.93.93 0 01-.93.932.93.93 0 01-.928-.932.93.93 0 01.929-.932.93.93 0 01.929.932zm0 86.318a.93.93 0 01-.93.932.93.93 0 01-.928-.932.93.93 0 01.929-.932.93.93 0 01.929.932zm114.673-86.318a.93.93 0 01-.929.932.93.93 0 01-.929-.932.93.93 0 01.93-.932.93.93 0 01.928.932zm0 86.318a.93.93 0 01-.929.932.93.93 0 01-.929-.932.93.93 0 01.93-.932.93.93 0 01.928.932zm-114.673-79.125a.931.931 0 01-.93.933.931.931 0 01-.928-.933.93.93 0 01.929-.932.93.93 0 01.929.932zm0 86.318a.931.931 0 01-.93.933.931.931 0 01-.928-.933.93.93 0 01.929-.932.93.93 0 01.929.932zm114.673-86.318a.931.931 0 01-.929.933.931.931 0 01-.929-.933.93.93 0 01.93-.932.93.93 0 01.928.932zm0 86.318a.931.931 0 01-.929.933.931.931 0 01-.929-.933.93.93 0 01.93-.932.93.93 0 01.928.932zm-114.673-79.125a.931.931 0 01-.93.933.931.931 0 01-.928-.933.93.93 0 01.929-.932.93.93 0 01.929.932zm0 86.318a.931.931 0 01-.93.933.931.931 0 01-.928-.933.93.93 0 01.929-.932.93.93 0 01.929.932zm114.673-86.318a.931.931 0 01-.929.933.931.931 0 01-.929-.933.93.93 0 01.93-.932.93.93 0 01.928.932zm0 86.318a.931.931 0 01-.929.933.931.931 0 01-.929-.933.93.93 0 01.93-.932.93.93 0 01.928.932zm-114.673-79.125a.931.931 0 01-.93.933.931.931 0 01-.928-.933.93.93 0 01.929-.932c.513 0 .929.418.929.932zm0 86.318a.931.931 0 01-.93.933.931.931 0 01-.928-.933.93.93 0 01.929-.932.93.93 0 01.929.932zm114.673-86.318a.931.931 0 01-.929.933.931.931 0 01-.929-.933c0-.514.416-.932.93-.932a.93.93 0 01.928.932zm0 86.318a.931.931 0 01-.929.933.931.931 0 01-.929-.933.93.93 0 01.93-.932.93.93 0 01.928.932zM-5.325 92.048a.93.93 0 01-.929.932.93.93 0 01-.929-.932.93.93 0 01.93-.933.93.93 0 01.928.933zm0 86.318a.93.93 0 01-.929.932.93.93 0 01-.929-.932c0-.515.416-.933.93-.933a.93.93 0 01.928.933zm114.674-86.318a.93.93 0 01-.929.932.93.93 0 01-.929-.932.93.93 0 01.929-.933.93.93 0 01.929.933zm0 86.318a.93.93 0 01-.929.932.93.93 0 01-.929-.932c0-.515.416-.933.929-.933.513 0 .929.418.929.933zM-5.325 99.24a.93.93 0 01-.929.933.93.93 0 01-.929-.932.93.93 0 01.93-.933.93.93 0 01.928.933zm0 86.319a.93.93 0 01-.929.932.93.93 0 01-.929-.932c0-.515.416-.933.93-.933a.93.93 0 01.928.933zM109.349 99.24a.93.93 0 01-.929.933.93.93 0 01-.929-.932.93.93 0 01.929-.933.93.93 0 01.929.933zm0 86.319a.93.93 0 01-.929.932.93.93 0 01-.929-.932c0-.515.416-.933.929-.933.513 0 .929.418.929.933zM-5.325 106.434a.93.93 0 01-.929.932.93.93 0 01-.929-.932.93.93 0 01.93-.932.93.93 0 01.928.932zm0 86.318a.93.93 0 01-.929.932.93.93 0 01-.929-.932.93.93 0 01.93-.932.93.93 0 01.928.932zm114.674-86.318a.93.93 0 01-.929.932.93.93 0 01-.929-.932.93.93 0 01.929-.932.93.93 0 01.929.932zm0 86.318a.93.93 0 01-.929.932.93.93 0 01-.929-.932.93.93 0 01.929-.932.93.93 0 01.929.932zM-5.325 113.627a.931.931 0 01-.929.933.931.931 0 01-.929-.933.93.93 0 01.93-.932.93.93 0 01.928.932zm0 86.318a.931.931 0 01-.929.933.931.931 0 01-.929-.933.93.93 0 01.93-.932.93.93 0 01.928.932zm114.674-86.318a.931.931 0 01-.929.933.931.931 0 01-.929-.933.93.93 0 01.929-.932.93.93 0 01.929.932zm0 86.318a.931.931 0 01-.929.933.931.931 0 01-.929-.933.93.93 0 01.929-.932.93.93 0 01.929.932zM-5.325 120.82a.931.931 0 01-.929.933.931.931 0 01-.929-.933.93.93 0 01.93-.932.93.93 0 01.928.932zm0 86.318a.931.931 0 01-.929.933.931.931 0 01-.929-.933.93.93 0 01.93-.932.93.93 0 01.928.932zm114.674-86.318a.931.931 0 01-.929.933.931.931 0 01-.929-.933.93.93 0 01.929-.932.93.93 0 01.929.932zm0 86.318a.931.931 0 01-.929.933.931.931 0 01-.929-.933.93.93 0 01.929-.932.93.93 0 01.929.932zM-5.325 128.014a.931.931 0 01-.929.932.931.931 0 01-.929-.932c0-.515.416-.933.93-.933a.93.93 0 01.928.933zm0 86.317a.931.931 0 01-.929.933.931.931 0 01-.929-.933.93.93 0 111.858 0zm114.674-86.317a.931.931 0 01-.929.932.931.931 0 01-.929-.932c0-.515.416-.933.929-.933.513 0 .929.418.929.933zm0 86.317a.931.931 0 01-.929.933.931.931 0 01-.929-.933c0-.514.416-.932.929-.932.513 0 .929.418.929.932zM-5.325 135.207a.93.93 0 01-.929.932.93.93 0 01-.929-.932c0-.515.416-.933.93-.933a.93.93 0 01.928.933zm0 86.318a.93.93 0 01-.929.932.93.93 0 01-.929-.932c0-.515.416-.933.93-.933a.93.93 0 01.928.933zm114.674-86.318a.93.93 0 01-.929.932.93.93 0 01-.929-.932c0-.515.416-.933.929-.933.513 0 .929.418.929.933zm0 86.318a.93.93 0 01-.929.932.93.93 0 01-.929-.932c0-.515.416-.933.929-.933.513 0 .929.418.929.933zM-5.325 142.4a.93.93 0 01-.929.932.93.93 0 01-.929-.932c0-.515.416-.933.93-.933a.93.93 0 01.928.933zm0 86.318a.93.93 0 01-.929.932.93.93 0 01-.929-.932c0-.515.416-.933.93-.933a.93.93 0 01.928.933zM109.349 142.4a.93.93 0 01-.929.932.93.93 0 01-.929-.932c0-.515.416-.933.929-.933.513 0 .929.418.929.933zm0 86.318a.93.93 0 01-.929.932.93.93 0 01-.929-.932c0-.515.416-.933.929-.933.513 0 .929.418.929.933zM-5.325 149.593a.93.93 0 01-.929.932.93.93 0 01-.929-.932.93.93 0 01.93-.932.93.93 0 01.928.932zm0 86.318a.93.93 0 01-.929.932.93.93 0 01-.929-.932.93.93 0 01.93-.932.93.93 0 01.928.932zm114.674-86.318a.93.93 0 01-.929.932.93.93 0 01-.929-.932.93.93 0 01.929-.932.93.93 0 01.929.932zm0 86.318a.93.93 0 01-.929.932.93.93 0 01-.929-.932.93.93 0 01.929-.932.93.93 0 01.929.932zM-5.325 156.786a.931.931 0 01-.929.933.931.931 0 01-.929-.933.93.93 0 01.93-.932.93.93 0 01.928.932zm0 86.318a.931.931 0 01-.929.933.931.931 0 01-.929-.933.93.93 0 01.93-.932.93.93 0 01.928.932zm114.674-86.318a.931.931 0 01-.929.933.931.931 0 01-.929-.933.93.93 0 01.929-.932.93.93 0 01.929.932zm0 86.318a.931.931 0 01-.929.933.931.931 0 01-.929-.933.93.93 0 01.929-.932.93.93 0 01.929.932zM-5.325 163.979a.931.931 0 01-.929.933.931.931 0 01-.929-.933.93.93 0 01.93-.932.93.93 0 01.928.932zm0 86.318a.931.931 0 01-.929.933.931.931 0 01-.929-.933.93.93 0 01.93-.932.93.93 0 01.928.932zm114.674-86.318a.931.931 0 01-.929.933.931.931 0 01-.929-.933.93.93 0 01.929-.932.93.93 0 01.929.932zm0 86.318a.931.931 0 01-.929.933.931.931 0 01-.929-.933.93.93 0 01.929-.932.93.93 0 01.929.932zM-5.325 171.172a.931.931 0 01-.929.933.931.931 0 01-.929-.933.93.93 0 111.858 0zm0 86.318a.931.931 0 01-.929.933.931.931 0 01-.929-.933.93.93 0 01.93-.932.93.93 0 01.928.932zm114.674-86.318a.931.931 0 01-.929.933.931.931 0 01-.929-.933c0-.514.416-.932.929-.932.513 0 .929.418.929.932zm0 86.318a.931.931 0 01-.929.933.931.931 0 01-.929-.933.93.93 0 01.929-.932.93.93 0 01.929.932zM-33.993 92.048a.93.93 0 01-.929.932.93.93 0 01-.93-.932.93.93 0 01.93-.933.93.93 0 01.929.933zm0 86.318a.93.93 0 01-.929.932.93.93 0 01-.93-.932c0-.515.417-.933.93-.933.513 0 .929.418.929.933zM80.68 92.048a.93.93 0 01-.928.932.93.93 0 01-.93-.932.93.93 0 01.93-.933.93.93 0 01.929.933zm0 86.318a.93.93 0 01-.928.932.93.93 0 01-.93-.932c0-.515.417-.933.93-.933.513 0 .929.418.929.933zM-33.993 99.24a.93.93 0 01-.929.933.93.93 0 01-.93-.932.93.93 0 01.93-.933.93.93 0 01.929.933zm0 86.319a.93.93 0 01-.929.932.93.93 0 01-.93-.932c0-.515.417-.933.93-.933.513 0 .929.418.929.933zM80.68 99.24a.93.93 0 01-.928.933.93.93 0 01-.93-.932.93.93 0 01.93-.933.93.93 0 01.929.933zm0 86.319a.93.93 0 01-.928.932.93.93 0 01-.93-.932c0-.515.417-.933.93-.933.513 0 .929.418.929.933zm-114.673-79.125a.93.93 0 01-.929.932.93.93 0 01-.93-.932.93.93 0 01.93-.932.93.93 0 01.929.932zm0 86.318a.93.93 0 01-.929.932.93.93 0 01-.93-.932.93.93 0 01.93-.932.93.93 0 01.929.932zM80.68 106.434a.93.93 0 01-.928.932.93.93 0 01-.93-.932.93.93 0 01.93-.932.93.93 0 01.929.932zm0 86.318a.93.93 0 01-.928.932.93.93 0 01-.93-.932.93.93 0 01.93-.932.93.93 0 01.929.932zm-114.673-79.125a.931.931 0 01-.929.933.931.931 0 01-.93-.933.93.93 0 01.93-.932.93.93 0 01.929.932zm0 86.318a.931.931 0 01-.929.933.931.931 0 01-.93-.933.93.93 0 01.93-.932.93.93 0 01.929.932zM80.68 113.627a.931.931 0 01-.928.933.931.931 0 01-.93-.933.93.93 0 01.93-.932.93.93 0 01.929.932zm0 86.318a.931.931 0 01-.928.933.931.931 0 01-.93-.933.93.93 0 01.93-.932.93.93 0 01.929.932zM-33.993 120.82a.931.931 0 01-.929.933.931.931 0 01-.93-.933.93.93 0 01.93-.932.93.93 0 01.929.932zm0 86.318a.931.931 0 01-.929.933.931.931 0 01-.93-.933.93.93 0 01.93-.932.93.93 0 01.929.932zM80.68 120.82a.931.931 0 01-.928.933.931.931 0 01-.93-.933.93.93 0 01.93-.932.93.93 0 01.929.932zm0 86.318a.931.931 0 01-.928.933.931.931 0 01-.93-.933.93.93 0 01.93-.932.93.93 0 01.929.932zm-114.673-79.124a.931.931 0 01-.929.932.931.931 0 01-.93-.932c0-.515.417-.933.93-.933.513 0 .929.418.929.933zm0 86.317a.931.931 0 01-.929.933.931.931 0 01-.93-.933c0-.514.417-.932.93-.932.513 0 .929.418.929.932zM80.68 128.014a.931.931 0 01-.928.932.931.931 0 01-.93-.932c0-.515.417-.933.93-.933.513 0 .929.418.929.933zm0 86.317a.931.931 0 01-.928.933.931.931 0 01-.93-.933c0-.514.417-.932.93-.932.513 0 .929.418.929.932zm-114.673-79.124a.93.93 0 01-.929.932.93.93 0 01-.93-.932c0-.515.417-.933.93-.933.513 0 .929.418.929.933zm0 86.318a.93.93 0 01-.929.932.93.93 0 01-.93-.932c0-.515.417-.933.93-.933.513 0 .929.418.929.933zM80.68 135.207a.93.93 0 01-.928.932.93.93 0 01-.93-.932c0-.515.417-.933.93-.933.513 0 .929.418.929.933zm0 86.318a.93.93 0 01-.928.932.93.93 0 01-.93-.932c0-.515.417-.933.93-.933.513 0 .929.418.929.933zM-33.993 142.4a.93.93 0 01-.929.932.93.93 0 01-.93-.932c0-.515.417-.933.93-.933.513 0 .929.418.929.933zm0 86.318a.93.93 0 01-.929.932.93.93 0 01-.93-.932c0-.515.417-.933.93-.933.513 0 .929.418.929.933zM80.68 142.4a.93.93 0 01-.928.932.93.93 0 01-.93-.932c0-.515.417-.933.93-.933.513 0 .929.418.929.933zm0 86.318a.93.93 0 01-.928.932.93.93 0 01-.93-.932c0-.515.417-.933.93-.933.513 0 .929.418.929.933zm-114.673-79.125a.93.93 0 01-.929.932.93.93 0 01-.93-.932.93.93 0 01.93-.932.93.93 0 01.929.932zm0 86.318a.93.93 0 01-.929.932.93.93 0 01-.93-.932.93.93 0 01.93-.932.93.93 0 01.929.932zM80.68 149.593a.93.93 0 01-.928.932.93.93 0 01-.93-.932.93.93 0 01.93-.932.93.93 0 01.929.932zm0 86.318a.93.93 0 01-.928.932.93.93 0 01-.93-.932.93.93 0 01.93-.932.93.93 0 01.929.932zm-114.673-79.125a.931.931 0 01-.929.933.931.931 0 01-.93-.933.93.93 0 01.93-.932.93.93 0 01.929.932zm0 86.318a.931.931 0 01-.929.933.931.931 0 01-.93-.933.93.93 0 01.93-.932.93.93 0 01.929.932zM80.68 156.786a.931.931 0 01-.928.933.931.931 0 01-.93-.933.93.93 0 01.93-.932.93.93 0 01.929.932zm0 86.318a.931.931 0 01-.928.933.931.931 0 01-.93-.933.93.93 0 01.93-.932.93.93 0 01.929.932zm-114.673-79.125a.931.931 0 01-.929.933.931.931 0 01-.93-.933.93.93 0 01.93-.932.93.93 0 01.929.932zm0 86.318a.931.931 0 01-.929.933.931.931 0 01-.93-.933.93.93 0 01.93-.932.93.93 0 01.929.932zM80.68 163.979a.931.931 0 01-.928.933.931.931 0 01-.93-.933.93.93 0 01.93-.932.93.93 0 01.929.932zm0 86.318a.931.931 0 01-.928.933.931.931 0 01-.93-.933.93.93 0 01.93-.932.93.93 0 01.929.932zm-114.673-79.125a.931.931 0 01-.929.933.931.931 0 01-.93-.933c0-.514.417-.932.93-.932.513 0 .929.418.929.932zm0 86.318a.931.931 0 01-.929.933.931.931 0 01-.93-.933.93.93 0 01.93-.932.93.93 0 01.929.932zM80.68 171.172a.931.931 0 01-.928.933.931.931 0 01-.93-.933c0-.514.417-.932.93-.932.513 0 .929.418.929.932zm0 86.318a.931.931 0 01-.928.933.931.931 0 01-.93-.933.93.93 0 01.93-.932.93.93 0 01.929.932zM23.344 92.048a.93.93 0 01-.93.932.93.93 0 01-.928-.932.93.93 0 01.929-.933.93.93 0 01.929.933zm0 86.318a.93.93 0 01-.93.932.93.93 0 01-.928-.932c0-.515.416-.933.929-.933.513 0 .929.418.929.933zm114.674-86.318a.93.93 0 11-1.859 0c0-.515.416-.933.93-.933a.93.93 0 01.929.933zm0 86.318a.93.93 0 11-1.859 0c0-.515.416-.933.93-.933.513 0 .929.418.929.933zM23.344 99.24a.93.93 0 01-.93.933.93.93 0 01-.928-.932.93.93 0 01.929-.933.93.93 0 01.929.933zm0 86.319a.93.93 0 01-.93.932.93.93 0 01-.928-.932c0-.515.416-.933.929-.933.513 0 .929.418.929.933zM138.018 99.24a.93.93 0 11-1.859 0c0-.514.416-.932.93-.932a.93.93 0 01.929.933zm0 86.319a.93.93 0 11-1.859 0c0-.515.416-.933.93-.933.513 0 .929.418.929.933zM23.344 106.434a.93.93 0 01-.93.932.93.93 0 01-.928-.932.93.93 0 01.929-.932.93.93 0 01.929.932zm0 86.318a.93.93 0 01-.93.932.93.93 0 01-.928-.932.93.93 0 01.929-.932.93.93 0 01.929.932zm114.674-86.318a.93.93 0 11-1.859 0 .93.93 0 111.859 0zm0 86.318a.93.93 0 11-1.859 0 .93.93 0 111.859 0zM23.344 113.627a.931.931 0 01-.93.933.931.931 0 01-.928-.933.93.93 0 01.929-.932.93.93 0 01.929.932zm0 86.318a.931.931 0 01-.93.933.931.931 0 01-.928-.933.93.93 0 01.929-.932.93.93 0 01.929.932zm114.674-86.318a.931.931 0 01-.929.933.931.931 0 01-.93-.933.93.93 0 111.859 0zm0 86.318a.931.931 0 01-.929.933.931.931 0 01-.93-.933.93.93 0 111.859 0zM23.344 120.82a.931.931 0 01-.93.933.931.931 0 01-.928-.933.93.93 0 01.929-.932.93.93 0 01.929.932zm0 86.318a.931.931 0 01-.93.933.931.931 0 01-.928-.933.93.93 0 01.929-.932.93.93 0 01.929.932zm114.674-86.318a.931.931 0 01-.929.933.931.931 0 01-.93-.933.93.93 0 111.859 0zm0 86.318a.931.931 0 01-.929.933.931.931 0 01-.93-.933.93.93 0 111.859 0zm-114.674 7.193a.931.931 0 01-.93.933.931.931 0 01-.928-.933c0-.514.416-.932.929-.932.513 0 .929.418.929.932zm114.674-86.317a.931.931 0 01-.929.932.931.931 0 010-1.865c.513 0 .929.418.929.933zm0 86.317a.931.931 0 01-.929.933.931.931 0 010-1.865c.513 0 .929.418.929.932zM23.344 135.207a.93.93 0 01-.93.932.93.93 0 01-.928-.932c0-.515.416-.933.929-.933.513 0 .929.418.929.933zm0 86.318a.93.93 0 01-.93.932.93.93 0 01-.928-.932c0-.515.416-.933.929-.933.513 0 .929.418.929.933zm114.674-86.318a.93.93 0 11-1.859 0c0-.515.416-.933.93-.933.513 0 .929.418.929.933zm0 86.318a.93.93 0 11-1.859 0c0-.515.416-.933.93-.933.513 0 .929.418.929.933zM23.344 142.4a.93.93 0 01-.93.932.93.93 0 01-.928-.932c0-.515.416-.933.929-.933.513 0 .929.418.929.933zm0 86.318a.93.93 0 01-.93.932.93.93 0 01-.928-.932c0-.515.416-.933.929-.933.513 0 .929.418.929.933zM138.018 142.4a.93.93 0 11-1.859 0c0-.515.416-.933.93-.933.513 0 .929.418.929.933zm0 86.318a.93.93 0 11-1.859 0c0-.515.416-.933.93-.933.513 0 .929.418.929.933zM23.344 149.593a.93.93 0 01-.93.932.93.93 0 01-.928-.932.93.93 0 01.929-.932.93.93 0 01.929.932zm0 86.318a.93.93 0 01-.93.932.93.93 0 01-.928-.932.93.93 0 01.929-.932.93.93 0 01.929.932zm114.674-86.318a.93.93 0 11-1.859 0 .93.93 0 111.859 0zm0 86.318a.93.93 0 11-1.859 0 .93.93 0 111.859 0zM23.344 156.786a.931.931 0 01-.93.933.931.931 0 01-.928-.933.93.93 0 01.929-.932.93.93 0 01.929.932zm0 86.318a.931.931 0 01-.93.933.931.931 0 01-.928-.933.93.93 0 01.929-.932.93.93 0 01.929.932zm114.674-86.318a.931.931 0 01-.929.933.931.931 0 01-.93-.933.93.93 0 111.859 0zm0 86.318a.931.931 0 01-.929.933.931.931 0 01-.93-.933.93.93 0 111.859 0zM23.344 163.979a.931.931 0 01-.93.933.931.931 0 01-.928-.933.93.93 0 01.929-.932.93.93 0 01.929.932zm0 86.318a.931.931 0 01-.93.933.931.931 0 01-.928-.933.93.93 0 01.929-.932.93.93 0 01.929.932zm114.674-86.318a.931.931 0 01-.929.933.931.931 0 01-.93-.933.93.93 0 111.859 0zm0 86.318a.931.931 0 01-.929.933.931.931 0 01-.93-.933.93.93 0 111.859 0zM23.344 171.172a.931.931 0 01-.93.933.931.931 0 01-.928-.933c0-.514.416-.932.929-.932.513 0 .929.418.929.932zm0 86.318a.931.931 0 01-.93.933.931.931 0 01-.928-.933.93.93 0 01.929-.932.93.93 0 01.929.932zm114.674-86.318a.931.931 0 01-.929.933.931.931 0 010-1.865c.513 0 .929.418.929.932zm0 86.318a.931.931 0 01-.929.933.931.931 0 01-.93-.933.93.93 0 111.859 0zM-55.494 92.048a.93.93 0 01-.93.932.93.93 0 01-.928-.932.93.93 0 01.929-.933.93.93 0 01.929.933zm0 86.318a.93.93 0 01-.93.932.93.93 0 01-.928-.932.93.93 0 01.929-.933c.513 0 .929.418.929.933zM59.18 92.048a.93.93 0 01-.93.932.93.93 0 01-.929-.932.93.93 0 01.93-.933.93.93 0 01.928.933zm0 86.318a.93.93 0 01-.93.932.93.93 0 01-.929-.932c0-.515.416-.933.93-.933a.93.93 0 01.928.933zM-55.494 99.24a.93.93 0 01-.93.933.93.93 0 01-.928-.932.93.93 0 01.929-.933.93.93 0 01.929.933zm0 86.319a.93.93 0 01-.93.932.93.93 0 01-.928-.932.93.93 0 01.929-.933c.513 0 .929.418.929.933zM59.18 99.24a.93.93 0 01-.93.933.93.93 0 01-.929-.932.93.93 0 01.93-.933.93.93 0 01.928.933zm0 86.319a.93.93 0 01-.93.932.93.93 0 01-.929-.932c0-.515.416-.933.93-.933a.93.93 0 01.928.933zm-114.674-79.125a.93.93 0 01-.93.932.93.93 0 01-.928-.932.93.93 0 01.929-.932.93.93 0 01.929.932zm0 86.318a.93.93 0 01-.93.932.93.93 0 01-.928-.932.93.93 0 01.929-.932.93.93 0 01.929.932zM59.18 106.434a.93.93 0 01-.93.932.93.93 0 01-.929-.932.93.93 0 01.93-.932.93.93 0 01.928.932zm-114.674 7.193a.931.931 0 01-.93.933.931.931 0 01-.928-.933.93.93 0 01.929-.932.93.93 0 01.929.932zm0 86.318a.931.931 0 01-.93.933.931.931 0 01-.928-.933.93.93 0 01.929-.932.93.93 0 01.929.932zM59.18 113.627a.931.931 0 01-.93.933.931.931 0 01-.929-.933.93.93 0 01.93-.932.93.93 0 01.928.932zm0 86.318a.931.931 0 01-.93.933.931.931 0 01-.929-.933.93.93 0 01.93-.932.93.93 0 01.928.932zM-55.494 120.82a.931.931 0 01-.93.933.931.931 0 01-.928-.933.93.93 0 01.929-.932.93.93 0 01.929.932zm0 86.318a.931.931 0 01-.93.933.931.931 0 01-.928-.933.93.93 0 01.929-.932.93.93 0 01.929.932zm114.674 0a.931.931 0 01-.93.933.931.931 0 01-.929-.933.93.93 0 01.93-.932.93.93 0 01.928.932zm-114.674-79.124a.931.931 0 01-.93.932.931.931 0 01-.928-.932.93.93 0 01.929-.933c.513 0 .929.418.929.933zm0 86.317a.931.931 0 01-.93.933.931.931 0 01-.928-.933.93.93 0 01.929-.932c.513 0 .929.418.929.932zM59.18 128.014a.931.931 0 01-.93.932.931.931 0 01-.929-.932c0-.515.416-.933.93-.933a.93.93 0 01.928.933zm0 86.317a.931.931 0 01-.93.933.931.931 0 01-.929-.933.93.93 0 111.858 0zm-114.674-79.124a.93.93 0 01-.93.932.93.93 0 01-.928-.932.93.93 0 01.929-.933c.513 0 .929.418.929.933zm0 86.318a.93.93 0 01-.93.932.93.93 0 01-.928-.932.93.93 0 01.929-.933c.513 0 .929.418.929.933zM59.18 135.207a.93.93 0 01-.93.932.93.93 0 01-.929-.932c0-.515.416-.933.93-.933a.93.93 0 01.928.933zm0 86.318a.93.93 0 01-.93.932.93.93 0 01-.929-.932c0-.515.416-.933.93-.933a.93.93 0 01.928.933zM-55.494 142.4a.93.93 0 01-.93.932.93.93 0 01-.928-.932.93.93 0 01.929-.933c.513 0 .929.418.929.933zm0 86.318a.93.93 0 01-.93.932.93.93 0 01-.928-.932.93.93 0 01.929-.933c.513 0 .929.418.929.933zM59.18 142.4a.93.93 0 01-.93.932.93.93 0 01-.929-.932c0-.515.416-.933.93-.933a.93.93 0 01.928.933zm0 86.318a.93.93 0 01-.93.932.93.93 0 01-.929-.932c0-.515.416-.933.93-.933a.93.93 0 01.928.933zm-114.674-79.125a.93.93 0 01-.93.932.93.93 0 01-.928-.932.93.93 0 01.929-.932.93.93 0 01.929.932zm0 86.318a.93.93 0 01-.93.932.93.93 0 01-.928-.932.93.93 0 01.929-.932.93.93 0 01.929.932zM59.18 149.593a.93.93 0 01-.93.932.93.93 0 01-.929-.932.93.93 0 01.93-.932.93.93 0 01.928.932zm0 86.318a.93.93 0 01-.93.932.93.93 0 01-.929-.932.93.93 0 01.93-.932.93.93 0 01.928.932zm-114.674-79.125a.931.931 0 01-.93.933.931.931 0 01-.928-.933.93.93 0 01.929-.932.93.93 0 01.929.932zm0 86.318a.931.931 0 01-.93.933.931.931 0 01-.928-.933.93.93 0 01.929-.932.93.93 0 01.929.932zM59.18 156.786a.931.931 0 01-.93.933.931.931 0 01-.929-.933.93.93 0 01.93-.932.93.93 0 01.928.932zm0 86.318a.931.931 0 01-.93.933.931.931 0 01-.929-.933.93.93 0 01.93-.932.93.93 0 01.928.932zm-114.674-79.125a.931.931 0 01-.93.933.931.931 0 01-.928-.933.93.93 0 01.929-.932.93.93 0 01.929.932zm0 86.318a.931.931 0 01-.93.933.931.931 0 01-.928-.933.93.93 0 01.929-.932.93.93 0 01.929.932zM59.18 163.979a.931.931 0 01-.93.933.931.931 0 01-.929-.933.93.93 0 01.93-.932.93.93 0 01.928.932zm0 86.318a.931.931 0 01-.93.933.931.931 0 01-.929-.933.93.93 0 01.93-.932.93.93 0 01.928.932zm-114.674-79.125a.931.931 0 01-.93.933.931.931 0 01-.928-.933.93.93 0 01.929-.932c.513 0 .929.418.929.932zm0 86.318a.931.931 0 01-.93.933.931.931 0 01-.928-.933.93.93 0 01.929-.932.93.93 0 01.929.932zM59.18 171.172a.931.931 0 01-.93.933.931.931 0 01-.929-.933.93.93 0 111.858 0zm0 86.318a.931.931 0 01-.93.933.931.931 0 01-.929-.933.93.93 0 01.93-.932.93.93 0 01.928.932zM1.843 92.048a.93.93 0 01-.93.932.93.93 0 01-.929-.932.93.93 0 01.93-.933.93.93 0 01.929.933zm0 86.318a.93.93 0 01-.93.932.93.93 0 01-.929-.932c0-.515.416-.933.93-.933.513 0 .929.418.929.933zm114.673-86.318a.93.93 0 01-.929.932.93.93 0 01-.929-.932.93.93 0 01.929-.933.93.93 0 01.929.933zm0 86.318a.93.93 0 01-.929.932.93.93 0 01-.929-.932c0-.515.416-.933.929-.933.513 0 .929.418.929.933zM1.843 99.24a.93.93 0 01-.93.933.93.93 0 01-.929-.932.93.93 0 01.93-.933.93.93 0 01.929.933zm0 86.319a.93.93 0 01-.93.932.93.93 0 01-.929-.932c0-.515.416-.933.93-.933.513 0 .929.418.929.933zM116.516 99.24a.93.93 0 01-.929.933.93.93 0 01-.929-.932.93.93 0 01.929-.933.93.93 0 01.929.933zm0 86.319a.93.93 0 01-.929.932.93.93 0 01-.929-.932c0-.515.416-.933.929-.933.513 0 .929.418.929.933zM1.843 106.434a.93.93 0 01-.93.932.93.93 0 01-.929-.932.93.93 0 01.93-.932.93.93 0 01.929.932zm0 86.318a.93.93 0 01-.93.932.93.93 0 01-.929-.932.93.93 0 01.93-.932.93.93 0 01.929.932zm114.673-86.318a.93.93 0 01-.929.932.93.93 0 01-.929-.932.93.93 0 01.929-.932.93.93 0 01.929.932zm0 86.318a.93.93 0 01-.929.932.93.93 0 01-.929-.932.93.93 0 01.929-.932.93.93 0 01.929.932zM1.843 113.627a.931.931 0 01-.93.933.931.931 0 01-.929-.933.93.93 0 01.93-.932.93.93 0 01.929.932zm0 86.318a.931.931 0 01-.93.933.931.931 0 01-.929-.933.93.93 0 01.93-.932.93.93 0 01.929.932zm114.673-86.318a.931.931 0 01-.929.933.931.931 0 01-.929-.933.93.93 0 01.929-.932.93.93 0 01.929.932zm0 86.318a.931.931 0 01-.929.933.931.931 0 01-.929-.933.93.93 0 01.929-.932.93.93 0 01.929.932zM1.843 120.82a.931.931 0 01-.93.933.931.931 0 01-.929-.933.93.93 0 01.93-.932.93.93 0 01.929.932zm0 86.318a.931.931 0 01-.93.933.931.931 0 01-.929-.933.93.93 0 01.93-.932.93.93 0 01.929.932zm114.673-86.318a.931.931 0 01-.929.933.931.931 0 01-.929-.933.93.93 0 01.929-.932.93.93 0 01.929.932zm0 86.318a.931.931 0 01-.929.933.931.931 0 01-.929-.933.93.93 0 01.929-.932.93.93 0 01.929.932zM1.843 128.014a.931.931 0 01-.93.932.931.931 0 01-.929-.932c0-.515.416-.933.93-.933.513 0 .929.418.929.933zm0 86.317a.931.931 0 01-.93.933.931.931 0 01-.929-.933c0-.514.416-.932.93-.932.513 0 .929.418.929.932zm114.673-86.317a.931.931 0 01-.929.932.931.931 0 01-.929-.932c0-.515.416-.933.929-.933.513 0 .929.418.929.933zm0 86.317a.931.931 0 01-.929.933.931.931 0 01-.929-.933c0-.514.416-.932.929-.932.513 0 .929.418.929.932zM1.843 135.207a.93.93 0 01-.93.932.93.93 0 01-.929-.932c0-.515.416-.933.93-.933.513 0 .929.418.929.933zm0 86.318a.93.93 0 01-.93.932.93.93 0 01-.929-.932c0-.515.416-.933.93-.933.513 0 .929.418.929.933zm114.673-86.318a.93.93 0 01-.929.932.93.93 0 01-.929-.932c0-.515.416-.933.929-.933.513 0 .929.418.929.933zm0 86.318a.93.93 0 01-.929.932.93.93 0 01-.929-.932c0-.515.416-.933.929-.933.513 0 .929.418.929.933zM1.843 142.4a.93.93 0 01-.93.932.93.93 0 01-.929-.932c0-.515.416-.933.93-.933.513 0 .929.418.929.933zm0 86.318a.93.93 0 01-.93.932.93.93 0 01-.929-.932c0-.515.416-.933.93-.933.513 0 .929.418.929.933zM116.516 142.4a.93.93 0 01-.929.932.93.93 0 01-.929-.932c0-.515.416-.933.929-.933.513 0 .929.418.929.933zm0 86.318a.93.93 0 01-.929.932.93.93 0 01-.929-.932c0-.515.416-.933.929-.933.513 0 .929.418.929.933zM1.843 149.593a.93.93 0 01-.93.932.93.93 0 01-.929-.932.93.93 0 01.93-.932.93.93 0 01.929.932zm0 86.318a.93.93 0 01-.93.932.93.93 0 01-.929-.932.93.93 0 01.93-.932.93.93 0 01.929.932zm114.673-86.318a.93.93 0 01-.929.932.93.93 0 01-.929-.932.93.93 0 01.929-.932.93.93 0 01.929.932zm0 86.318a.93.93 0 01-.929.932.93.93 0 01-.929-.932.93.93 0 01.929-.932.93.93 0 01.929.932zM1.843 156.786a.931.931 0 01-.93.933.931.931 0 01-.929-.933.93.93 0 01.93-.932.93.93 0 01.929.932zm0 86.318a.931.931 0 01-.93.933.931.931 0 01-.929-.933.93.93 0 01.93-.932.93.93 0 01.929.932zm114.673-86.318a.931.931 0 01-.929.933.931.931 0 01-.929-.933.93.93 0 01.929-.932.93.93 0 01.929.932zm0 86.318a.931.931 0 01-.929.933.931.931 0 01-.929-.933.93.93 0 01.929-.932.93.93 0 01.929.932zM1.843 163.979a.931.931 0 01-.93.933.931.931 0 01-.929-.933.93.93 0 01.93-.932.93.93 0 01.929.932zm0 86.318a.931.931 0 01-.93.933.931.931 0 01-.929-.933.93.93 0 01.93-.932.93.93 0 01.929.932zm114.673-86.318a.931.931 0 01-.929.933.931.931 0 01-.929-.933.93.93 0 01.929-.932.93.93 0 01.929.932zm0 86.318a.931.931 0 01-.929.933.931.931 0 01-.929-.933.93.93 0 01.929-.932.93.93 0 01.929.932zM1.843 171.172a.931.931 0 01-.93.933.931.931 0 01-.929-.933c0-.514.416-.932.93-.932.513 0 .929.418.929.932zm0 86.318a.931.931 0 01-.93.933.931.931 0 01-.929-.933.93.93 0 01.93-.932.93.93 0 01.929.932zm114.673-86.318a.931.931 0 01-.929.933.931.931 0 01-.929-.933c0-.514.416-.932.929-.932.513 0 .929.418.929.932zm0 86.318a.931.931 0 01-.929.933.931.931 0 01-.929-.933.93.93 0 01.929-.932.93.93 0 01.929.932zM-26.826 92.048a.93.93 0 01-.929.932.93.93 0 01-.929-.932.93.93 0 01.93-.933.93.93 0 01.928.933zm0 86.318a.93.93 0 01-.929.932.93.93 0 01-.929-.932c0-.515.416-.933.93-.933.512 0 .928.418.928.933zM87.848 92.048a.93.93 0 01-.93.932.93.93 0 01-.928-.932.93.93 0 01.929-.933.93.93 0 01.929.933zm0 86.318a.93.93 0 01-.93.932.93.93 0 01-.928-.932c0-.515.416-.933.929-.933.513 0 .929.418.929.933zM-26.826 99.24a.93.93 0 01-.929.933.93.93 0 01-.929-.932.93.93 0 01.93-.933.93.93 0 01.928.933zm0 86.319a.93.93 0 01-.929.932.93.93 0 01-.929-.932c0-.515.416-.933.93-.933.512 0 .928.418.928.933zM87.848 99.24a.93.93 0 01-.93.933.93.93 0 01-.928-.932.93.93 0 01.929-.933.93.93 0 01.929.933zm0 86.319a.93.93 0 01-.93.932.93.93 0 01-.928-.932c0-.515.416-.933.929-.933.513 0 .929.418.929.933zm-114.674-79.125a.93.93 0 01-.929.932.93.93 0 01-.929-.932.93.93 0 01.93-.932.93.93 0 01.928.932zm0 86.318a.93.93 0 01-.929.932.93.93 0 01-.929-.932.93.93 0 01.93-.932.93.93 0 01.928.932zm114.674-86.318a.93.93 0 01-.93.932.93.93 0 01-.928-.932.93.93 0 01.929-.932.93.93 0 01.929.932zm0 86.318a.93.93 0 01-.93.932.93.93 0 01-.928-.932.93.93 0 01.929-.932.93.93 0 01.929.932zm-114.674-79.125a.931.931 0 01-.929.933.931.931 0 01-.929-.933.93.93 0 01.93-.932.93.93 0 01.928.932zm0 86.318a.931.931 0 01-.929.933.931.931 0 01-.929-.933.93.93 0 01.93-.932.93.93 0 01.928.932zm114.674-86.318a.931.931 0 01-.93.933.931.931 0 01-.928-.933.93.93 0 01.929-.932.93.93 0 01.929.932zm0 86.318a.931.931 0 01-.93.933.931.931 0 01-.928-.933.93.93 0 01.929-.932.93.93 0 01.929.932zM-26.826 120.82a.931.931 0 01-.929.933.931.931 0 01-.929-.933.93.93 0 01.93-.932.93.93 0 01.928.932zm0 86.318a.931.931 0 01-.929.933.931.931 0 01-.929-.933.93.93 0 01.93-.932.93.93 0 01.928.932zM87.848 120.82a.931.931 0 01-.93.933.931.931 0 01-.928-.933.93.93 0 01.929-.932.93.93 0 01.929.932zm0 86.318a.931.931 0 01-.93.933.931.931 0 01-.928-.933.93.93 0 01.929-.932.93.93 0 01.929.932zm-114.674-79.124a.931.931 0 01-.929.932.931.931 0 01-.929-.932c0-.515.416-.933.93-.933.512 0 .928.418.928.933zm0 86.317a.931.931 0 01-.929.933.931.931 0 01-.929-.933c0-.514.416-.932.93-.932a.93.93 0 01.928.932zm114.674-86.317a.931.931 0 01-.93.932.931.931 0 01-.928-.932c0-.515.416-.933.929-.933.513 0 .929.418.929.933zm0 86.317a.931.931 0 01-.93.933.931.931 0 01-.928-.933c0-.514.416-.932.929-.932.513 0 .929.418.929.932zm-114.674-79.124a.93.93 0 01-.929.932.93.93 0 01-.929-.932c0-.515.416-.933.93-.933.512 0 .928.418.928.933zm0 86.318a.93.93 0 01-.929.932.93.93 0 01-.929-.932c0-.515.416-.933.93-.933.512 0 .928.418.928.933zm114.674-86.318a.93.93 0 01-.93.932.93.93 0 01-.928-.932c0-.515.416-.933.929-.933.513 0 .929.418.929.933zm0 86.318a.93.93 0 01-.93.932.93.93 0 01-.928-.932c0-.515.416-.933.929-.933.513 0 .929.418.929.933zM-26.826 142.4a.93.93 0 01-.929.932.93.93 0 01-.929-.932c0-.515.416-.933.93-.933.512 0 .928.418.928.933zm0 86.318a.93.93 0 01-.929.932.93.93 0 01-.929-.932c0-.515.416-.933.93-.933.512 0 .928.418.928.933zM87.848 142.4a.93.93 0 01-.93.932.93.93 0 01-.928-.932c0-.515.416-.933.929-.933.513 0 .929.418.929.933zm0 86.318a.93.93 0 01-.93.932.93.93 0 01-.928-.932c0-.515.416-.933.929-.933.513 0 .929.418.929.933zm-114.674-79.125a.93.93 0 01-.929.932.93.93 0 01-.929-.932.93.93 0 01.93-.932.93.93 0 01.928.932zm0 86.318a.93.93 0 01-.929.932.93.93 0 01-.929-.932.93.93 0 01.93-.932.93.93 0 01.928.932zm114.674-86.318a.93.93 0 01-.93.932.93.93 0 01-.928-.932.93.93 0 01.929-.932.93.93 0 01.929.932zm0 86.318a.93.93 0 01-.93.932.93.93 0 01-.928-.932.93.93 0 01.929-.932.93.93 0 01.929.932zm-114.674-79.125a.931.931 0 01-.929.933.931.931 0 01-.929-.933.93.93 0 01.93-.932.93.93 0 01.928.932zm0 86.318a.931.931 0 01-.929.933.931.931 0 01-.929-.933.93.93 0 01.93-.932.93.93 0 01.928.932zm114.674-86.318a.931.931 0 01-.93.933.931.931 0 01-.928-.933.93.93 0 01.929-.932.93.93 0 01.929.932zm0 86.318a.931.931 0 01-.93.933.931.931 0 01-.928-.933.93.93 0 01.929-.932.93.93 0 01.929.932zm-114.674-79.125a.931.931 0 01-.929.933.931.931 0 01-.929-.933.93.93 0 01.93-.932.93.93 0 01.928.932zm0 86.318a.931.931 0 01-.929.933.931.931 0 01-.929-.933.93.93 0 01.93-.932.93.93 0 01.928.932zm114.674-86.318a.931.931 0 01-.93.933.931.931 0 01-.928-.933.93.93 0 01.929-.932.93.93 0 01.929.932zm0 86.318a.931.931 0 01-.93.933.931.931 0 01-.928-.933.93.93 0 01.929-.932.93.93 0 01.929.932zm-114.674-79.125a.931.931 0 01-.929.933.931.931 0 01-.929-.933c0-.514.416-.932.93-.932a.93.93 0 01.928.932zm0 86.318a.931.931 0 01-.929.933.931.931 0 01-.929-.933.93.93 0 01.93-.932.93.93 0 01.928.932zm114.674-86.318a.931.931 0 01-.93.933.931.931 0 01-.928-.933c0-.514.416-.932.929-.932.513 0 .929.418.929.932zm0 86.318a.931.931 0 01-.93.933.931.931 0 01-.928-.933.93.93 0 01.929-.932.93.93 0 01.929.932zM30.511 92.048a.93.93 0 01-.93.932.93.93 0 01-.928-.932.93.93 0 01.929-.933.93.93 0 01.929.933zm0 86.318a.93.93 0 01-.93.932.93.93 0 01-.928-.932c0-.515.416-.933.929-.933.513 0 .929.418.929.933zm114.674-86.318a.93.93 0 01-.929.932.93.93 0 01-.929-.932.93.93 0 01.929-.933.93.93 0 01.929.933zm0 86.318a.93.93 0 01-.929.932.93.93 0 01-.929-.932c0-.515.416-.933.929-.933.513 0 .929.418.929.933zM30.511 99.24a.93.93 0 01-.93.933.93.93 0 01-.928-.932.93.93 0 01.929-.933.93.93 0 01.929.933zm0 86.319a.93.93 0 01-.93.932.93.93 0 01-.928-.932c0-.515.416-.933.929-.933.513 0 .929.418.929.933zM145.185 99.24a.93.93 0 01-.929.933.93.93 0 01-.929-.932.93.93 0 01.929-.933.93.93 0 01.929.933zm0 86.319a.93.93 0 01-.929.932.93.93 0 01-.929-.932c0-.515.416-.933.929-.933.513 0 .929.418.929.933zM30.511 106.434a.93.93 0 01-.93.932.93.93 0 01-.928-.932.93.93 0 01.929-.932.93.93 0 01.929.932zm0 86.318a.93.93 0 01-.93.932.93.93 0 01-.928-.932.93.93 0 01.929-.932.93.93 0 01.929.932zm114.674-86.318a.93.93 0 01-.929.932.93.93 0 01-.929-.932.93.93 0 01.929-.932.93.93 0 01.929.932zm0 86.318a.93.93 0 01-.929.932.93.93 0 01-.929-.932.93.93 0 01.929-.932.93.93 0 01.929.932zM30.511 113.627a.931.931 0 01-.93.933.931.931 0 01-.928-.933.93.93 0 01.929-.932.93.93 0 01.929.932zm0 86.318a.931.931 0 01-.93.933.931.931 0 01-.928-.933.93.93 0 01.929-.932.93.93 0 01.929.932zm114.674-86.318a.931.931 0 01-.929.933.931.931 0 01-.929-.933.93.93 0 01.929-.932.93.93 0 01.929.932zm0 86.318a.931.931 0 01-.929.933.931.931 0 01-.929-.933.93.93 0 01.929-.932.93.93 0 01.929.932zM30.511 120.82a.931.931 0 01-.93.933.931.931 0 01-.928-.933.93.93 0 01.929-.932.93.93 0 01.929.932zm0 86.318a.931.931 0 01-.93.933.931.931 0 01-.928-.933.93.93 0 01.929-.932.93.93 0 01.929.932zm114.674-86.318a.931.931 0 01-.929.933.931.931 0 01-.929-.933.93.93 0 01.929-.932.93.93 0 01.929.932zm0 86.318a.931.931 0 01-.929.933.931.931 0 01-.929-.933.93.93 0 01.929-.932.93.93 0 01.929.932zM30.511 128.014a.931.931 0 01-.93.932.931.931 0 01-.928-.932c0-.515.416-.933.929-.933.513 0 .929.418.929.933zm0 86.317a.931.931 0 01-.93.933.931.931 0 01-.928-.933c0-.514.416-.932.929-.932.513 0 .929.418.929.932zm114.674-86.317a.931.931 0 01-.929.932.931.931 0 01-.929-.932c0-.515.416-.933.929-.933.513 0 .929.418.929.933zm0 86.317a.931.931 0 01-.929.933.931.931 0 01-.929-.933c0-.514.416-.932.929-.932.513 0 .929.418.929.932zM30.511 135.207a.93.93 0 01-.93.932.93.93 0 01-.928-.932c0-.515.416-.933.929-.933.513 0 .929.418.929.933zm0 86.318a.93.93 0 01-.93.932.93.93 0 01-.928-.932c0-.515.416-.933.929-.933.513 0 .929.418.929.933zm114.674-86.318a.93.93 0 01-.929.932.93.93 0 01-.929-.932c0-.515.416-.933.929-.933.513 0 .929.418.929.933zm0 86.318a.93.93 0 01-.929.932.93.93 0 01-.929-.932c0-.515.416-.933.929-.933.513 0 .929.418.929.933zM30.511 142.4a.93.93 0 01-.93.932.93.93 0 01-.928-.932c0-.515.416-.933.929-.933.513 0 .929.418.929.933zm0 86.318a.93.93 0 01-.93.932.93.93 0 01-.928-.932c0-.515.416-.933.929-.933.513 0 .929.418.929.933zM145.185 142.4a.93.93 0 01-.929.932.93.93 0 01-.929-.932c0-.515.416-.933.929-.933.513 0 .929.418.929.933zm0 86.318a.93.93 0 01-.929.932.93.93 0 01-.929-.932c0-.515.416-.933.929-.933.513 0 .929.418.929.933zM30.511 149.593a.93.93 0 01-.93.932.93.93 0 01-.928-.932.93.93 0 01.929-.932.93.93 0 01.929.932zm0 86.318a.93.93 0 01-.93.932.93.93 0 01-.928-.932.93.93 0 01.929-.932.93.93 0 01.929.932zm114.674-86.318a.93.93 0 01-.929.932.93.93 0 01-.929-.932.93.93 0 01.929-.932.93.93 0 01.929.932zm0 86.318a.93.93 0 01-.929.932.93.93 0 01-.929-.932.93.93 0 01.929-.932.93.93 0 01.929.932zM30.511 156.786a.931.931 0 01-.93.933.931.931 0 01-.928-.933.93.93 0 01.929-.932.93.93 0 01.929.932zm0 86.318a.931.931 0 01-.93.933.931.931 0 01-.928-.933.93.93 0 01.929-.932.93.93 0 01.929.932zm114.674-86.318a.931.931 0 01-.929.933.931.931 0 01-.929-.933.93.93 0 01.929-.932.93.93 0 01.929.932zm0 86.318a.931.931 0 01-.929.933.931.931 0 01-.929-.933.93.93 0 01.929-.932.93.93 0 01.929.932zM30.511 163.979a.931.931 0 01-.93.933.931.931 0 01-.928-.933.93.93 0 01.929-.932.93.93 0 01.929.932zm0 86.318a.931.931 0 01-.93.933.931.931 0 01-.928-.933.93.93 0 01.929-.932.93.93 0 01.929.932zm114.674-86.318a.931.931 0 01-.929.933.931.931 0 01-.929-.933.93.93 0 01.929-.932.93.93 0 01.929.932zm0 86.318a.931.931 0 01-.929.933.931.931 0 01-.929-.933.93.93 0 01.929-.932.93.93 0 01.929.932zM30.511 171.172a.931.931 0 01-.93.933.931.931 0 01-.928-.933c0-.514.416-.932.929-.932.513 0 .929.418.929.932zm0 86.318a.931.931 0 01-.93.933.931.931 0 01-.928-.933.93.93 0 01.929-.932.93.93 0 01.929.932zm114.674-86.318a.931.931 0 01-.929.933.931.931 0 01-.929-.933c0-.514.416-.932.929-.932.513 0 .929.418.929.932zm0 86.318a.931.931 0 01-.929.933.931.931 0 01-.929-.933.93.93 0 01.929-.932.93.93 0 01.929.932zM-48.327 92.048a.93.93 0 01-.93.932.93.93 0 01-.928-.932.93.93 0 01.929-.933.93.93 0 01.929.933zm0 86.318a.93.93 0 01-.93.932.93.93 0 01-.928-.932c0-.515.416-.933.929-.933.513 0 .929.418.929.933zM66.347 92.048a.93.93 0 01-.93.932.93.93 0 01-.929-.932.93.93 0 01.93-.933.93.93 0 01.928.933zm0 86.318a.93.93 0 01-.93.932.93.93 0 01-.929-.932c0-.515.416-.933.93-.933a.93.93 0 01.928.933zM-48.327 99.24a.93.93 0 01-.93.933.93.93 0 01-.928-.932.93.93 0 01.929-.933.93.93 0 01.929.933zm0 86.319a.93.93 0 01-.93.932.93.93 0 01-.928-.932c0-.515.416-.933.929-.933.513 0 .929.418.929.933zM66.347 99.24a.93.93 0 01-.93.933.93.93 0 01-.929-.932.93.93 0 01.93-.933.93.93 0 01.928.933zm0 86.319a.93.93 0 01-.93.932.93.93 0 01-.929-.932c0-.515.416-.933.93-.933a.93.93 0 01.928.933zm-114.674-79.125a.93.93 0 01-.93.932.93.93 0 01-.928-.932.93.93 0 01.929-.932.93.93 0 01.929.932zm0 86.318a.93.93 0 01-.93.932.93.93 0 01-.928-.932.93.93 0 01.929-.932.93.93 0 01.929.932zm114.674-86.318a.93.93 0 01-.93.932.93.93 0 01-.929-.932.93.93 0 01.93-.932.93.93 0 01.928.932zm0 86.318a.93.93 0 01-.93.932.93.93 0 01-.929-.932.93.93 0 01.93-.932.93.93 0 01.928.932zm-114.674-79.125a.931.931 0 01-.93.933.931.931 0 01-.928-.933.93.93 0 01.929-.932.93.93 0 01.929.932zm0 86.318a.931.931 0 01-.93.933.931.931 0 01-.928-.933.93.93 0 01.929-.932.93.93 0 01.929.932zm114.674-86.318a.931.931 0 01-.93.933.931.931 0 01-.929-.933.93.93 0 01.93-.932.93.93 0 01.928.932zm0 86.318a.931.931 0 01-.93.933.931.931 0 01-.929-.933.93.93 0 01.93-.932.93.93 0 01.928.932zM-48.327 120.82a.931.931 0 01-.93.933.931.931 0 01-.928-.933.93.93 0 01.929-.932.93.93 0 01.929.932zm0 86.318a.931.931 0 01-.93.933.931.931 0 01-.928-.933.93.93 0 01.929-.932.93.93 0 01.929.932zM66.347 120.82a.931.931 0 01-.93.933.931.931 0 01-.929-.933.93.93 0 01.93-.932.93.93 0 01.928.932zm0 86.318a.931.931 0 01-.93.933.931.931 0 01-.929-.933.93.93 0 01.93-.932.93.93 0 01.928.932zm-114.674-79.124a.931.931 0 01-.93.932.931.931 0 01-.928-.932c0-.515.416-.933.929-.933.513 0 .929.418.929.933zm0 86.317a.931.931 0 01-.93.933.931.931 0 01-.928-.933c0-.514.416-.932.929-.932.513 0 .929.418.929.932zm114.674-86.317a.931.931 0 01-.93.932.931.931 0 01-.929-.932c0-.515.416-.933.93-.933a.93.93 0 01.928.933zm0 86.317a.931.931 0 01-.93.933.931.931 0 01-.929-.933.93.93 0 111.858 0zm-114.674-79.124a.93.93 0 01-.93.932.93.93 0 01-.928-.932c0-.515.416-.933.929-.933.513 0 .929.418.929.933zm0 86.318a.93.93 0 01-.93.932.93.93 0 01-.928-.932c0-.515.416-.933.929-.933.513 0 .929.418.929.933zm114.674-86.318a.93.93 0 01-.93.932.93.93 0 01-.929-.932c0-.515.416-.933.93-.933a.93.93 0 01.928.933zm0 86.318a.93.93 0 01-.93.932.93.93 0 01-.929-.932c0-.515.416-.933.93-.933a.93.93 0 01.928.933zM-48.327 142.4a.93.93 0 01-.93.932.93.93 0 01-.928-.932c0-.515.416-.933.929-.933.513 0 .929.418.929.933zm0 86.318a.93.93 0 01-.93.932.93.93 0 01-.928-.932c0-.515.416-.933.929-.933.513 0 .929.418.929.933zM66.347 142.4a.93.93 0 01-.93.932.93.93 0 01-.929-.932c0-.515.416-.933.93-.933a.93.93 0 01.928.933zm0 86.318a.93.93 0 01-.93.932.93.93 0 01-.929-.932c0-.515.416-.933.93-.933a.93.93 0 01.928.933zm-114.674-79.125a.93.93 0 01-.93.932.93.93 0 01-.928-.932.93.93 0 01.929-.932.93.93 0 01.929.932zm0 86.318a.93.93 0 01-.93.932.93.93 0 01-.928-.932.93.93 0 01.929-.932.93.93 0 01.929.932zm114.674-86.318a.93.93 0 01-.93.932.93.93 0 01-.929-.932.93.93 0 01.93-.932.93.93 0 01.928.932zm0 86.318a.93.93 0 01-.93.932.93.93 0 01-.929-.932.93.93 0 01.93-.932.93.93 0 01.928.932zm-114.674-79.125a.931.931 0 01-.93.933.931.931 0 01-.928-.933.93.93 0 01.929-.932.93.93 0 01.929.932zm0 86.318a.931.931 0 01-.93.933.931.931 0 01-.928-.933.93.93 0 01.929-.932.93.93 0 01.929.932zm114.674-86.318a.931.931 0 01-.93.933.931.931 0 01-.929-.933.93.93 0 01.93-.932.93.93 0 01.928.932zm0 86.318a.931.931 0 01-.93.933.931.931 0 01-.929-.933.93.93 0 01.93-.932.93.93 0 01.928.932zm-114.674-79.125a.931.931 0 01-.93.933.931.931 0 01-.928-.933.93.93 0 01.929-.932.93.93 0 01.929.932zm0 86.318a.931.931 0 01-.93.933.931.931 0 01-.928-.933.93.93 0 01.929-.932.93.93 0 01.929.932zm114.674-86.318a.931.931 0 01-.93.933.931.931 0 01-.929-.933.93.93 0 01.93-.932.93.93 0 01.928.932zm0 86.318a.931.931 0 01-.93.933.931.931 0 01-.929-.933.93.93 0 01.93-.932.93.93 0 01.928.932zm-114.674-79.125a.931.931 0 01-.93.933.931.931 0 01-.928-.933c0-.514.416-.932.929-.932.513 0 .929.418.929.932zm0 86.318a.931.931 0 01-.93.933.931.931 0 01-.928-.933.93.93 0 01.929-.932.93.93 0 01.929.932zm114.674-86.318a.931.931 0 01-.93.933.931.931 0 01-.929-.933.93.93 0 111.858 0zm0 86.318a.931.931 0 01-.93.933.931.931 0 01-.929-.933.93.93 0 01.93-.932.93.93 0 01.928.932zM9.01 92.048a.93.93 0 01-.93.932.93.93 0 01-.928-.932.93.93 0 01.929-.933.93.93 0 01.929.933zm0 86.318a.93.93 0 01-.93.932.93.93 0 01-.928-.932.93.93 0 01.929-.933c.513 0 .929.418.929.933zm114.673-86.318a.93.93 0 01-.929.932.93.93 0 01-.929-.932.93.93 0 01.929-.933.93.93 0 01.929.933zm0 86.318a.93.93 0 01-.929.932.93.93 0 01-.929-.932c0-.515.416-.933.929-.933.513 0 .929.418.929.933zM9.01 99.24a.93.93 0 01-.93.933.93.93 0 01-.928-.932.93.93 0 01.929-.933.93.93 0 01.929.933zm0 86.319a.93.93 0 01-.93.932.93.93 0 01-.928-.932.93.93 0 01.929-.933c.513 0 .929.418.929.933zM123.683 99.24a.93.93 0 01-.929.933.93.93 0 01-.929-.932.93.93 0 01.929-.933.93.93 0 01.929.933zm0 86.319a.93.93 0 01-.929.932.93.93 0 01-.929-.932c0-.515.416-.933.929-.933.513 0 .929.418.929.933zM9.01 106.434a.93.93 0 01-.93.932.93.93 0 01-.928-.932.93.93 0 01.929-.932.93.93 0 01.929.932zm0 86.318a.93.93 0 01-.93.932.93.93 0 01-.928-.932.93.93 0 01.929-.932.93.93 0 01.929.932zm114.673-86.318a.93.93 0 01-.929.932.93.93 0 01-.929-.932.93.93 0 01.929-.932.93.93 0 01.929.932zm0 86.318a.93.93 0 01-.929.932.93.93 0 01-.929-.932.93.93 0 01.929-.932.93.93 0 01.929.932zM9.01 113.627a.931.931 0 01-.93.933.931.931 0 01-.928-.933.93.93 0 01.929-.932.93.93 0 01.929.932zm0 86.318a.931.931 0 01-.93.933.931.931 0 01-.928-.933.93.93 0 01.929-.932.93.93 0 01.929.932zm114.673-86.318a.931.931 0 01-.929.933.931.931 0 01-.929-.933.93.93 0 01.929-.932.93.93 0 01.929.932zm0 86.318a.931.931 0 01-.929.933.931.931 0 01-.929-.933.93.93 0 01.929-.932.93.93 0 01.929.932zM9.01 120.82a.931.931 0 01-.93.933.931.931 0 01-.928-.933.93.93 0 01.929-.932.93.93 0 01.929.932zm0 86.318a.931.931 0 01-.93.933.931.931 0 01-.928-.933.93.93 0 01.929-.932.93.93 0 01.929.932zm114.673-86.318a.931.931 0 01-.929.933.931.931 0 01-.929-.933.93.93 0 01.929-.932.93.93 0 01.929.932zm0 86.318a.931.931 0 01-.929.933.931.931 0 01-.929-.933.93.93 0 01.929-.932.93.93 0 01.929.932zM9.01 128.014a.931.931 0 01-.93.932.931.931 0 01-.928-.932.93.93 0 01.929-.933c.513 0 .929.418.929.933zm0 86.317a.931.931 0 01-.93.933.931.931 0 01-.928-.933.93.93 0 01.929-.932c.513 0 .929.418.929.932zm114.673-86.317a.931.931 0 01-.929.932.931.931 0 01-.929-.932c0-.515.416-.933.929-.933.513 0 .929.418.929.933zm0 86.317a.931.931 0 01-.929.933.931.931 0 01-.929-.933c0-.514.416-.932.929-.932.513 0 .929.418.929.932zM9.01 135.207a.93.93 0 01-.93.932.93.93 0 01-.928-.932.93.93 0 01.929-.933c.513 0 .929.418.929.933zm0 86.318a.93.93 0 01-.93.932.93.93 0 01-.928-.932.93.93 0 01.929-.933c.513 0 .929.418.929.933zm114.673-86.318a.93.93 0 01-.929.932.93.93 0 01-.929-.932c0-.515.416-.933.929-.933.513 0 .929.418.929.933zm0 86.318a.93.93 0 01-.929.932.93.93 0 01-.929-.932c0-.515.416-.933.929-.933.513 0 .929.418.929.933zM9.01 142.4a.93.93 0 01-.93.932.93.93 0 01-.928-.932.93.93 0 01.929-.933c.513 0 .929.418.929.933zm0 86.318a.93.93 0 01-.93.932.93.93 0 01-.928-.932.93.93 0 01.929-.933c.513 0 .929.418.929.933zM123.683 142.4a.93.93 0 01-.929.932.93.93 0 01-.929-.932c0-.515.416-.933.929-.933.513 0 .929.418.929.933zm0 86.318a.93.93 0 01-.929.932.93.93 0 01-.929-.932c0-.515.416-.933.929-.933.513 0 .929.418.929.933zM9.01 149.593a.93.93 0 01-.93.932.93.93 0 01-.928-.932.93.93 0 01.929-.932.93.93 0 01.929.932zm0 86.318a.93.93 0 01-.93.932.93.93 0 01-.928-.932.93.93 0 01.929-.932.93.93 0 01.929.932zm114.673-86.318a.93.93 0 01-.929.932.93.93 0 01-.929-.932.93.93 0 01.929-.932.93.93 0 01.929.932zm0 86.318a.93.93 0 01-.929.932.93.93 0 01-.929-.932.93.93 0 01.929-.932.93.93 0 01.929.932zM9.01 156.786a.931.931 0 01-.93.933.931.931 0 01-.928-.933.93.93 0 01.929-.932.93.93 0 01.929.932zm0 86.318a.931.931 0 01-.93.933.931.931 0 01-.928-.933.93.93 0 01.929-.932.93.93 0 01.929.932zm114.673-86.318a.931.931 0 01-.929.933.931.931 0 01-.929-.933.93.93 0 01.929-.932.93.93 0 01.929.932zm0 86.318a.931.931 0 01-.929.933.931.931 0 01-.929-.933.93.93 0 01.929-.932.93.93 0 01.929.932zM9.01 163.979a.931.931 0 01-.93.933.931.931 0 01-.928-.933.93.93 0 01.929-.932.93.93 0 01.929.932zm0 86.318a.931.931 0 01-.93.933.931.931 0 01-.928-.933.93.93 0 01.929-.932.93.93 0 01.929.932zm114.673-86.318a.931.931 0 01-.929.933.931.931 0 01-.929-.933.93.93 0 01.929-.932.93.93 0 01.929.932zm0 86.318a.931.931 0 01-.929.933.931.931 0 01-.929-.933.93.93 0 01.929-.932.93.93 0 01.929.932zM9.01 171.172a.931.931 0 01-.93.933.931.931 0 01-.928-.933.93.93 0 01.929-.932c.513 0 .929.418.929.932zm0 86.318a.931.931 0 01-.93.933.931.931 0 01-.928-.933.93.93 0 01.929-.932.93.93 0 01.929.932zm114.673-86.318a.931.931 0 01-.929.933.931.931 0 01-.929-.933c0-.514.416-.932.929-.932.513 0 .929.418.929.932zm0 86.318a.931.931 0 01-.929.933.931.931 0 01-.929-.933.93.93 0 01.929-.932.93.93 0 01.929.932zM-19.659 92.048a.93.93 0 01-.929.932.93.93 0 01-.929-.932.93.93 0 01.93-.933.93.93 0 01.928.933zm0 86.318a.93.93 0 01-.929.932.93.93 0 01-.929-.932c0-.515.416-.933.93-.933.512 0 .928.418.928.933zM95.015 92.048a.93.93 0 01-.93.932.93.93 0 01-.928-.932.93.93 0 01.929-.933.93.93 0 01.929.933zm0 86.318a.93.93 0 01-.93.932.93.93 0 01-.928-.932c0-.515.416-.933.929-.933.513 0 .929.418.929.933zM-19.659 99.24a.93.93 0 01-.929.933.93.93 0 01-.929-.932.93.93 0 01.93-.933.93.93 0 01.928.933zm0 86.319a.93.93 0 01-.929.932.93.93 0 01-.929-.932c0-.515.416-.933.93-.933.512 0 .928.418.928.933zM95.015 99.24a.93.93 0 01-.93.933.93.93 0 01-.928-.932.93.93 0 01.929-.933.93.93 0 01.929.933zm0 86.319a.93.93 0 01-.93.932.93.93 0 01-.928-.932c0-.515.416-.933.929-.933.513 0 .929.418.929.933zm-114.674-79.125a.93.93 0 01-.929.932.93.93 0 01-.929-.932.93.93 0 01.93-.932.93.93 0 01.928.932zm0 86.318a.93.93 0 01-.929.932.93.93 0 01-.929-.932.93.93 0 01.93-.932.93.93 0 01.928.932zm114.674-86.318a.93.93 0 01-.93.932.93.93 0 01-.928-.932.93.93 0 01.929-.932.93.93 0 01.929.932zm0 86.318a.93.93 0 01-.93.932.93.93 0 01-.928-.932.93.93 0 01.929-.932.93.93 0 01.929.932zm-114.674-79.125a.931.931 0 01-.929.933.931.931 0 01-.929-.933.93.93 0 01.93-.932.93.93 0 01.928.932zm0 86.318a.931.931 0 01-.929.933.931.931 0 01-.929-.933.93.93 0 01.93-.932.93.93 0 01.928.932zm114.674-86.318a.931.931 0 01-.93.933.931.931 0 01-.928-.933.93.93 0 01.929-.932.93.93 0 01.929.932zm0 86.318a.931.931 0 01-.93.933.931.931 0 01-.928-.933.93.93 0 01.929-.932.93.93 0 01.929.932zM-19.659 120.82a.931.931 0 01-.929.933.931.931 0 01-.929-.933.93.93 0 01.93-.932.93.93 0 01.928.932zm0 86.318a.931.931 0 01-.929.933.931.931 0 01-.929-.933.93.93 0 01.93-.932.93.93 0 01.928.932zM95.015 120.82a.931.931 0 01-.93.933.931.931 0 01-.928-.933.93.93 0 01.929-.932.93.93 0 01.929.932zm0 86.318a.931.931 0 01-.93.933.931.931 0 01-.928-.933.93.93 0 01.929-.932.93.93 0 01.929.932zm-114.674-79.124a.931.931 0 01-.929.932.931.931 0 01-.929-.932c0-.515.416-.933.93-.933.512 0 .928.418.928.933zm0 86.317a.931.931 0 01-.929.933.931.931 0 01-.929-.933c0-.514.416-.932.93-.932a.93.93 0 01.928.932zm114.674-86.317a.931.931 0 01-.93.932.931.931 0 01-.928-.932c0-.515.416-.933.929-.933.513 0 .929.418.929.933zm0 86.317a.931.931 0 01-.93.933.931.931 0 01-.928-.933c0-.514.416-.932.929-.932.513 0 .929.418.929.932zm-114.674-79.124a.93.93 0 01-.929.932.93.93 0 01-.929-.932c0-.515.416-.933.93-.933.512 0 .928.418.928.933zm0 86.318a.93.93 0 01-.929.932.93.93 0 01-.929-.932c0-.515.416-.933.93-.933.512 0 .928.418.928.933zm114.674-86.318a.93.93 0 01-.93.932.93.93 0 01-.928-.932c0-.515.416-.933.929-.933.513 0 .929.418.929.933zm0 86.318a.93.93 0 01-.93.932.93.93 0 01-.928-.932c0-.515.416-.933.929-.933.513 0 .929.418.929.933zM-19.659 142.4a.93.93 0 01-.929.932.93.93 0 01-.929-.932c0-.515.416-.933.93-.933.512 0 .928.418.928.933zm0 86.318a.93.93 0 01-.929.932.93.93 0 01-.929-.932c0-.515.416-.933.93-.933.512 0 .928.418.928.933zM95.015 142.4a.93.93 0 01-.93.932.93.93 0 01-.928-.932c0-.515.416-.933.929-.933.513 0 .929.418.929.933zm0 86.318a.93.93 0 01-.93.932.93.93 0 01-.928-.932c0-.515.416-.933.929-.933.513 0 .929.418.929.933zm-114.674-79.125a.93.93 0 01-.929.932.93.93 0 01-.929-.932.93.93 0 01.93-.932.93.93 0 01.928.932zm0 86.318a.93.93 0 01-.929.932.93.93 0 01-.929-.932.93.93 0 01.93-.932.93.93 0 01.928.932zm114.674-86.318a.93.93 0 01-.93.932.93.93 0 01-.928-.932.93.93 0 01.929-.932.93.93 0 01.929.932zm0 86.318a.93.93 0 01-.93.932.93.93 0 01-.928-.932.93.93 0 01.929-.932.93.93 0 01.929.932zm-114.674-79.125a.931.931 0 01-.929.933.931.931 0 01-.929-.933.93.93 0 01.93-.932.93.93 0 01.928.932zm0 86.318a.931.931 0 01-.929.933.931.931 0 01-.929-.933.93.93 0 01.93-.932.93.93 0 01.928.932zm114.674-86.318a.931.931 0 01-.93.933.931.931 0 01-.928-.933.93.93 0 01.929-.932.93.93 0 01.929.932zm0 86.318a.931.931 0 01-.93.933.931.931 0 01-.928-.933.93.93 0 01.929-.932.93.93 0 01.929.932zm-114.674-79.125a.931.931 0 01-.929.933.931.931 0 01-.929-.933.93.93 0 01.93-.932.93.93 0 01.928.932zm0 86.318a.931.931 0 01-.929.933.931.931 0 01-.929-.933.93.93 0 01.93-.932.93.93 0 01.928.932zm114.674-86.318a.931.931 0 01-.93.933.931.931 0 01-.928-.933.93.93 0 01.929-.932.93.93 0 01.929.932zm0 86.318a.931.931 0 01-.93.933.931.931 0 01-.928-.933.93.93 0 01.929-.932.93.93 0 01.929.932zm-114.674-79.125a.931.931 0 01-.929.933.931.931 0 01-.929-.933c0-.514.416-.932.93-.932a.93.93 0 01.928.932zm0 86.318a.931.931 0 01-.929.933.931.931 0 01-.929-.933.93.93 0 01.93-.932.93.93 0 01.928.932zm114.674-86.318a.931.931 0 01-.93.933.931.931 0 01-.928-.933c0-.514.416-.932.929-.932.513 0 .929.418.929.932zm0 86.318a.931.931 0 01-.93.933.931.931 0 01-.928-.933.93.93 0 01.929-.932.93.93 0 01.929.932zM37.678 92.048a.93.93 0 01-.929.932.93.93 0 01-.929-.932.93.93 0 01.929-.933.93.93 0 01.93.933zm0 86.318a.93.93 0 01-.929.932.93.93 0 01-.929-.932c0-.515.416-.933.929-.933.513 0 .93.418.93.933zm114.674-86.318a.93.93 0 01-.929.932.93.93 0 01-.929-.932.93.93 0 01.929-.933.93.93 0 01.929.933zm0 86.318a.93.93 0 01-.929.932.93.93 0 01-.929-.932c0-.515.416-.933.929-.933.513 0 .929.418.929.933zM37.678 99.24a.93.93 0 01-.929.933.93.93 0 01-.929-.932.93.93 0 01.929-.933.93.93 0 01.93.933zm0 86.319a.93.93 0 01-.929.932.93.93 0 01-.929-.932c0-.515.416-.933.929-.933.513 0 .93.418.93.933zM152.352 99.24a.93.93 0 01-.929.933.93.93 0 01-.929-.932.93.93 0 01.929-.933.93.93 0 01.929.933zm0 86.319a.93.93 0 01-.929.932.93.93 0 01-.929-.932c0-.515.416-.933.929-.933.513 0 .929.418.929.933zM37.678 106.434a.93.93 0 01-.929.932.93.93 0 01-.929-.932.93.93 0 01.929-.932.93.93 0 01.93.932zm114.674 0a.93.93 0 01-.929.932.93.93 0 01-.929-.932.93.93 0 01.929-.932.93.93 0 01.929.932zm0 86.318a.93.93 0 01-.929.932.93.93 0 01-.929-.932.93.93 0 01.929-.932.93.93 0 01.929.932zM37.678 113.627a.931.931 0 01-.929.933.931.931 0 01-.929-.933.93.93 0 01.929-.932.93.93 0 01.93.932zm0 86.318a.931.931 0 01-.929.933.931.931 0 01-.929-.933.93.93 0 01.929-.932.93.93 0 01.93.932zm114.674-86.318a.931.931 0 01-.929.933.931.931 0 01-.929-.933.93.93 0 01.929-.932.93.93 0 01.929.932zm0 86.318a.931.931 0 01-.929.933.931.931 0 01-.929-.933.93.93 0 01.929-.932.93.93 0 01.929.932zm-114.674 7.193a.931.931 0 01-.929.933.931.931 0 01-.929-.933.93.93 0 01.929-.932.93.93 0 01.93.932zm114.674-86.318a.931.931 0 01-.929.933.931.931 0 01-.929-.933.93.93 0 01.929-.932.93.93 0 01.929.932zm0 86.318a.931.931 0 01-.929.933.931.931 0 01-.929-.933.93.93 0 01.929-.932.93.93 0 01.929.932zM37.678 128.014a.931.931 0 01-.929.932.931.931 0 01-.929-.932c0-.515.416-.933.929-.933.513 0 .93.418.93.933zm0 86.317a.931.931 0 01-.929.933.931.931 0 01-.929-.933c0-.514.416-.932.929-.932.513 0 .93.418.93.932zm114.674-86.317a.931.931 0 01-.929.932.931.931 0 01-.929-.932c0-.515.416-.933.929-.933.513 0 .929.418.929.933zm0 86.317a.931.931 0 01-.929.933.931.931 0 01-.929-.933c0-.514.416-.932.929-.932.513 0 .929.418.929.932zM37.678 135.207a.93.93 0 01-.929.932.93.93 0 01-.929-.932c0-.515.416-.933.929-.933.513 0 .93.418.93.933zm0 86.318a.93.93 0 01-.929.932.93.93 0 01-.929-.932c0-.515.416-.933.929-.933.513 0 .93.418.93.933zm114.674-86.318a.93.93 0 01-.929.932.93.93 0 01-.929-.932c0-.515.416-.933.929-.933.513 0 .929.418.929.933zm0 86.318a.93.93 0 01-.929.932.93.93 0 01-.929-.932c0-.515.416-.933.929-.933.513 0 .929.418.929.933zM37.678 142.4a.93.93 0 01-.929.932.93.93 0 01-.929-.932c0-.515.416-.933.929-.933.513 0 .93.418.93.933zm0 86.318a.93.93 0 01-.929.932.93.93 0 01-.929-.932c0-.515.416-.933.929-.933.513 0 .93.418.93.933zM152.352 142.4a.93.93 0 01-.929.932.93.93 0 01-.929-.932c0-.515.416-.933.929-.933.513 0 .929.418.929.933zm0 86.318a.93.93 0 01-.929.932.93.93 0 01-.929-.932c0-.515.416-.933.929-.933.513 0 .929.418.929.933zM37.678 149.593a.93.93 0 01-.929.932.93.93 0 01-.929-.932.93.93 0 01.929-.932.93.93 0 01.93.932zm0 86.318a.93.93 0 01-.929.932.93.93 0 01-.929-.932.93.93 0 01.929-.932.93.93 0 01.93.932zm114.674-86.318a.93.93 0 01-.929.932.93.93 0 01-.929-.932.93.93 0 01.929-.932.93.93 0 01.929.932zm0 86.318a.93.93 0 01-.929.932.93.93 0 01-.929-.932.93.93 0 01.929-.932.93.93 0 01.929.932zM37.678 156.786a.931.931 0 01-.929.933.931.931 0 01-.929-.933.93.93 0 01.929-.932.93.93 0 01.93.932zm0 86.318a.931.931 0 01-.929.933.931.931 0 01-.929-.933.93.93 0 01.929-.932.93.93 0 01.93.932zm114.674-86.318a.931.931 0 01-.929.933.931.931 0 01-.929-.933.93.93 0 01.929-.932.93.93 0 01.929.932zm0 86.318a.931.931 0 01-.929.933.931.931 0 01-.929-.933.93.93 0 01.929-.932.93.93 0 01.929.932zM37.678 163.979a.931.931 0 01-.929.933.931.931 0 01-.929-.933.93.93 0 01.929-.932.93.93 0 01.93.932zm0 86.318a.931.931 0 01-.929.933.931.931 0 01-.929-.933.93.93 0 01.929-.932.93.93 0 01.93.932zm114.674-86.318a.931.931 0 01-.929.933.931.931 0 01-.929-.933.93.93 0 01.929-.932.93.93 0 01.929.932zm0 86.318a.931.931 0 01-.929.933.931.931 0 01-.929-.933.93.93 0 01.929-.932.93.93 0 01.929.932zM37.678 171.172a.931.931 0 01-.929.933.931.931 0 01-.929-.933c0-.514.416-.932.929-.932.513 0 .93.418.93.932zm0 86.318a.931.931 0 01-.929.933.931.931 0 01-.929-.933.93.93 0 01.929-.932.93.93 0 01.93.932zm114.674-86.318a.931.931 0 01-.929.933.931.931 0 01-.929-.933c0-.514.416-.932.929-.932.513 0 .929.418.929.932zm0 86.318a.931.931 0 01-.929.933.931.931 0 01-.929-.933.93.93 0 01.929-.932.93.93 0 01.929.932zM-41.16 92.048a.93.93 0 01-.93.932.93.93 0 01-.928-.932.93.93 0 01.929-.933.93.93 0 01.929.933zm0 86.318a.93.93 0 01-.93.932.93.93 0 01-.928-.932c0-.515.416-.933.929-.933.513 0 .929.418.929.933zM73.514 92.048a.93.93 0 01-.93.932.93.93 0 01-.928-.932.93.93 0 01.929-.933.93.93 0 01.929.933zM-41.16 99.24a.93.93 0 01-.93.933.93.93 0 01-.928-.932.93.93 0 01.929-.933.93.93 0 01.929.933zm0 86.319a.93.93 0 01-.93.932.93.93 0 01-.928-.932c0-.515.416-.933.929-.933.513 0 .929.418.929.933zM73.514 99.24a.93.93 0 01-.93.933.93.93 0 01-.928-.932.93.93 0 01.929-.933.93.93 0 01.929.933zm0 86.319a.93.93 0 01-.93.932.93.93 0 01-.928-.932.93.93 0 01.929-.933c.513 0 .929.418.929.933zM-41.16 106.434a.93.93 0 01-.93.932.93.93 0 01-.928-.932.93.93 0 01.929-.932.93.93 0 01.929.932zm0 86.318a.93.93 0 01-.93.932.93.93 0 01-.928-.932.93.93 0 01.929-.932.93.93 0 01.929.932zm114.674-86.318a.93.93 0 01-.93.932.93.93 0 01-.928-.932.93.93 0 01.929-.932.93.93 0 01.929.932zm0 86.318a.93.93 0 01-.93.932.93.93 0 01-.928-.932.93.93 0 01.929-.932.93.93 0 01.929.932zM-41.16 113.627a.931.931 0 01-.93.933.931.931 0 01-.928-.933.93.93 0 01.929-.932.93.93 0 01.929.932zm0 86.318a.931.931 0 01-.93.933.931.931 0 01-.928-.933.93.93 0 01.929-.932.93.93 0 01.929.932zm114.674-86.318a.931.931 0 01-.93.933.931.931 0 01-.928-.933.93.93 0 01.929-.932.93.93 0 01.929.932zm0 86.318a.931.931 0 01-.93.933.931.931 0 01-.928-.933.93.93 0 01.929-.932.93.93 0 01.929.932zM-41.16 120.82a.931.931 0 01-.93.933.931.931 0 01-.928-.933.93.93 0 01.929-.932.93.93 0 01.929.932zm0 86.318a.931.931 0 01-.93.933.931.931 0 01-.928-.933.93.93 0 01.929-.932.93.93 0 01.929.932zM73.514 120.82a.931.931 0 01-.93.933.931.931 0 01-.928-.933.93.93 0 01.929-.932.93.93 0 01.929.932zm0 86.318a.931.931 0 01-.93.933.931.931 0 01-.928-.933.93.93 0 01.929-.932.93.93 0 01.929.932zM-41.16 128.014a.931.931 0 01-.93.932.931.931 0 01-.928-.932c0-.515.416-.933.929-.933.513 0 .929.418.929.933zm0 86.317a.931.931 0 01-.93.933.931.931 0 01-.928-.933c0-.514.416-.932.929-.932.513 0 .929.418.929.932zm114.674 0a.931.931 0 01-.93.933.931.931 0 01-.928-.933.93.93 0 01.929-.932c.513 0 .929.418.929.932zM-41.16 135.207a.93.93 0 01-.93.932.93.93 0 01-.928-.932c0-.515.416-.933.929-.933.513 0 .929.418.929.933zm0 86.318a.93.93 0 01-.93.932.93.93 0 01-.928-.932c0-.515.416-.933.929-.933.513 0 .929.418.929.933zm114.674-86.318a.93.93 0 01-.93.932.93.93 0 01-.928-.932.93.93 0 01.929-.933c.513 0 .929.418.929.933zm0 86.318a.93.93 0 01-.93.932.93.93 0 01-.928-.932.93.93 0 01.929-.933c.513 0 .929.418.929.933zM-41.16 142.4a.93.93 0 01-.93.932.93.93 0 01-.928-.932c0-.515.416-.933.929-.933.513 0 .929.418.929.933zm0 86.318a.93.93 0 01-.93.932.93.93 0 01-.928-.932c0-.515.416-.933.929-.933.513 0 .929.418.929.933zM73.514 142.4a.93.93 0 01-.93.932.93.93 0 01-.928-.932.93.93 0 01.929-.933c.513 0 .929.418.929.933zm0 86.318a.93.93 0 01-.93.932.93.93 0 01-.928-.932.93.93 0 01.929-.933c.513 0 .929.418.929.933zM-41.16 149.593a.93.93 0 01-.93.932.93.93 0 01-.928-.932.93.93 0 01.929-.932.93.93 0 01.929.932zm0 86.318a.93.93 0 01-.93.932.93.93 0 01-.928-.932.93.93 0 01.929-.932.93.93 0 01.929.932zm114.674-86.318a.93.93 0 01-.93.932.93.93 0 01-.928-.932.93.93 0 01.929-.932.93.93 0 01.929.932zm0 86.318a.93.93 0 01-.93.932.93.93 0 01-.928-.932.93.93 0 01.929-.932.93.93 0 01.929.932zM-41.16 156.786a.931.931 0 01-.93.933.931.931 0 01-.928-.933.93.93 0 01.929-.932.93.93 0 01.929.932zm0 86.318a.931.931 0 01-.93.933.931.931 0 01-.928-.933.93.93 0 01.929-.932.93.93 0 01.929.932zm114.674-86.318a.931.931 0 01-.93.933.931.931 0 01-.928-.933.93.93 0 01.929-.932.93.93 0 01.929.932zm0 86.318a.931.931 0 01-.93.933.931.931 0 01-.928-.933.93.93 0 01.929-.932.93.93 0 01.929.932zM-41.16 163.979a.931.931 0 01-.93.933.931.931 0 01-.928-.933.93.93 0 01.929-.932.93.93 0 01.929.932zm0 86.318a.931.931 0 01-.93.933.931.931 0 01-.928-.933.93.93 0 01.929-.932.93.93 0 01.929.932zm114.674-86.318a.931.931 0 01-.93.933.931.931 0 01-.928-.933.93.93 0 01.929-.932.93.93 0 01.929.932zm0 86.318a.931.931 0 01-.93.933.931.931 0 01-.928-.933.93.93 0 01.929-.932.93.93 0 01.929.932zM-41.16 171.172a.931.931 0 01-.93.933.931.931 0 01-.928-.933c0-.514.416-.932.929-.932.513 0 .929.418.929.932zm0 86.318a.931.931 0 01-.93.933.931.931 0 01-.928-.933.93.93 0 01.929-.932.93.93 0 01.929.932zm114.674-86.318a.931.931 0 01-.93.933.931.931 0 01-.928-.933.93.93 0 01.929-.932c.513 0 .929.418.929.932zm0 86.318a.931.931 0 01-.93.933.931.931 0 01-.928-.933.93.93 0 01.929-.932.93.93 0 01.929.932zM16.177 92.048a.93.93 0 01-.93.932.93.93 0 01-.928-.932.93.93 0 01.929-.933.93.93 0 01.929.933zm0 86.318a.93.93 0 01-.93.932.93.93 0 01-.928-.932c0-.515.416-.933.929-.933.513 0 .929.418.929.933zM130.85 92.048a.93.93 0 11-1.858 0 .93.93 0 111.858 0zm0 86.318a.93.93 0 11-1.858 0c0-.515.416-.933.929-.933a.93.93 0 01.929.933zM16.177 99.24a.93.93 0 01-.93.933.93.93 0 01-.928-.932.93.93 0 01.929-.933.93.93 0 01.929.933zm0 86.319a.93.93 0 01-.93.932.93.93 0 01-.928-.932c0-.515.416-.933.929-.933.513 0 .929.418.929.933zM130.85 99.24a.93.93 0 11-1.858 0 .93.93 0 111.858 0zm0 86.319a.93.93 0 11-1.858 0c0-.515.416-.933.929-.933a.93.93 0 01.929.933zM16.177 106.434a.93.93 0 01-.93.932.93.93 0 01-.928-.932.93.93 0 01.929-.932.93.93 0 01.929.932zm0 86.318a.93.93 0 01-.93.932.93.93 0 01-.928-.932.93.93 0 01.929-.932.93.93 0 01.929.932zm114.673-86.318a.93.93 0 11-1.858 0 .93.93 0 111.858 0zm0 86.318a.93.93 0 11-1.858 0 .93.93 0 111.858 0zM16.177 113.627a.931.931 0 01-.93.933.931.931 0 01-.928-.933.93.93 0 01.929-.932.93.93 0 01.929.932zm0 86.318a.931.931 0 01-.93.933.931.931 0 01-.928-.933.93.93 0 01.929-.932.93.93 0 01.929.932zm114.673-86.318a.93.93 0 01-.929.933.931.931 0 01-.929-.933.93.93 0 111.858 0zm0 86.318a.93.93 0 01-.929.933.931.931 0 01-.929-.933.93.93 0 111.858 0zM16.177 120.82a.931.931 0 01-.93.933.931.931 0 01-.928-.933.93.93 0 01.929-.932.93.93 0 01.929.932zm0 86.318a.931.931 0 01-.93.933.931.931 0 01-.928-.933.93.93 0 01.929-.932.93.93 0 01.929.932zM130.85 120.82a.93.93 0 01-.929.933.931.931 0 01-.929-.933.93.93 0 111.858 0zm0 86.318a.93.93 0 01-.929.933.931.931 0 01-.929-.933.93.93 0 111.858 0zM16.177 128.014a.931.931 0 01-.93.932.931.931 0 01-.928-.932c0-.515.416-.933.929-.933.513 0 .929.418.929.933zm0 86.317a.931.931 0 01-.93.933.931.931 0 01-.928-.933c0-.514.416-.932.929-.932.513 0 .929.418.929.932zm114.673-86.317a.93.93 0 01-.929.932.931.931 0 01-.929-.932c0-.515.416-.933.929-.933a.93.93 0 01.929.933zm0 86.317a.93.93 0 01-.929.933.931.931 0 01-.929-.933c0-.514.416-.932.929-.932a.93.93 0 01.929.932zM16.177 135.207a.93.93 0 01-.93.932.93.93 0 01-.928-.932c0-.515.416-.933.929-.933.513 0 .929.418.929.933zm0 86.318a.93.93 0 01-.93.932.93.93 0 01-.928-.932c0-.515.416-.933.929-.933.513 0 .929.418.929.933zm114.673-86.318a.93.93 0 11-1.858 0c0-.515.416-.933.929-.933a.93.93 0 01.929.933zm0 86.318a.93.93 0 11-1.858 0c0-.515.416-.933.929-.933a.93.93 0 01.929.933zM16.177 142.4a.93.93 0 01-.93.932.93.93 0 01-.928-.932c0-.515.416-.933.929-.933.513 0 .929.418.929.933zm0 86.318a.93.93 0 01-.93.932.93.93 0 01-.928-.932c0-.515.416-.933.929-.933.513 0 .929.418.929.933zM130.85 142.4a.93.93 0 11-1.858 0c0-.515.416-.933.929-.933a.93.93 0 01.929.933zm0 86.318a.93.93 0 11-1.858 0c0-.515.416-.933.929-.933a.93.93 0 01.929.933zM16.177 149.593a.93.93 0 01-.93.932.93.93 0 01-.928-.932.93.93 0 01.929-.932.93.93 0 01.929.932zm0 86.318a.93.93 0 01-.93.932.93.93 0 01-.928-.932.93.93 0 01.929-.932.93.93 0 01.929.932zm114.673-86.318a.93.93 0 11-1.858 0 .93.93 0 111.858 0zm0 86.318a.93.93 0 11-1.858 0 .93.93 0 111.858 0zM16.177 156.786a.931.931 0 01-.93.933.931.931 0 01-.928-.933.93.93 0 01.929-.932.93.93 0 01.929.932zm0 86.318a.931.931 0 01-.93.933.931.931 0 01-.928-.933.93.93 0 01.929-.932.93.93 0 01.929.932zm114.673-86.318a.93.93 0 01-.929.933.931.931 0 01-.929-.933.93.93 0 111.858 0zm0 86.318a.93.93 0 01-.929.933.931.931 0 01-.929-.933.93.93 0 111.858 0zM16.177 163.979a.931.931 0 01-.93.933.931.931 0 01-.928-.933.93.93 0 01.929-.932.93.93 0 01.929.932zm0 86.318a.931.931 0 01-.93.933.931.931 0 01-.928-.933.93.93 0 01.929-.932.93.93 0 01.929.932zm114.673-86.318a.93.93 0 01-.929.933.931.931 0 01-.929-.933.93.93 0 111.858 0zm0 86.318a.93.93 0 01-.929.933.931.931 0 01-.929-.933.93.93 0 111.858 0zM16.177 171.172a.931.931 0 01-.93.933.931.931 0 01-.928-.933c0-.514.416-.932.929-.932.513 0 .929.418.929.932zm0 86.318a.931.931 0 01-.93.933.931.931 0 01-.928-.933.93.93 0 01.929-.932.93.93 0 01.929.932zm114.673-86.318a.93.93 0 01-.929.933.931.931 0 01-.929-.933c0-.514.416-.932.929-.932a.93.93 0 01.929.932zm0 86.318a.93.93 0 01-.929.933.931.931 0 01-.929-.933.93.93 0 111.858 0zM-12.492 92.048a.93.93 0 01-.929.932.93.93 0 01-.929-.932.93.93 0 01.93-.933.93.93 0 01.928.933zm0 86.318a.93.93 0 01-.929.932.93.93 0 01-.929-.932c0-.515.416-.933.93-.933.512 0 .928.418.928.933zm114.674-86.318a.93.93 0 01-.929.932.93.93 0 01-.929-.932.93.93 0 01.929-.933.93.93 0 01.929.933zm0 86.318a.93.93 0 01-.929.932.93.93 0 01-.929-.932c0-.515.416-.933.929-.933.513 0 .929.418.929.933zM-12.492 99.24a.93.93 0 01-.929.933.93.93 0 01-.929-.932.93.93 0 01.93-.933.93.93 0 01.928.933zm0 86.319a.93.93 0 01-.929.932.93.93 0 01-.929-.932c0-.515.416-.933.93-.933.512 0 .928.418.928.933zM102.182 99.24a.93.93 0 01-.929.933.93.93 0 01-.929-.932.93.93 0 01.929-.933.93.93 0 01.929.933zm0 86.319a.93.93 0 01-.929.932.93.93 0 01-.929-.932c0-.515.416-.933.929-.933.513 0 .929.418.929.933zm-114.674-79.125a.93.93 0 01-.929.932.93.93 0 01-.929-.932.93.93 0 01.93-.932.93.93 0 01.928.932zm0 86.318a.93.93 0 01-.929.932.93.93 0 01-.929-.932.93.93 0 01.93-.932.93.93 0 01.928.932zm114.674-86.318a.93.93 0 01-.929.932.93.93 0 01-.929-.932.93.93 0 01.929-.932.93.93 0 01.929.932zm0 86.318a.93.93 0 01-.929.932.93.93 0 01-.929-.932.93.93 0 01.929-.932.93.93 0 01.929.932zm-114.674-79.125a.931.931 0 01-.929.933.931.931 0 01-.929-.933.93.93 0 01.93-.932.93.93 0 01.928.932zm0 86.318a.931.931 0 01-.929.933.931.931 0 01-.929-.933.93.93 0 01.93-.932.93.93 0 01.928.932zm114.674-86.318a.931.931 0 01-.929.933.931.931 0 01-.929-.933.93.93 0 01.929-.932.93.93 0 01.929.932zm0 86.318a.931.931 0 01-.929.933.931.931 0 01-.929-.933.93.93 0 01.929-.932.93.93 0 01.929.932zM-12.492 120.82a.931.931 0 01-.929.933.931.931 0 01-.929-.933.93.93 0 01.93-.932.93.93 0 01.928.932zm0 86.318a.931.931 0 01-.929.933.931.931 0 01-.929-.933.93.93 0 01.93-.932.93.93 0 01.928.932zm114.674-86.318a.931.931 0 01-.929.933.931.931 0 01-.929-.933.93.93 0 01.929-.932.93.93 0 01.929.932zm0 86.318a.931.931 0 01-.929.933.931.931 0 01-.929-.933.93.93 0 01.929-.932.93.93 0 01.929.932zm-114.674-79.124a.931.931 0 01-.929.932.931.931 0 01-.929-.932c0-.515.416-.933.93-.933.512 0 .928.418.928.933zm0 86.317a.931.931 0 01-.929.933.931.931 0 01-.929-.933c0-.514.416-.932.93-.932a.93.93 0 01.928.932zm114.674-86.317a.931.931 0 01-.929.932.931.931 0 01-.929-.932c0-.515.416-.933.929-.933.513 0 .929.418.929.933zm0 86.317a.931.931 0 01-.929.933.931.931 0 01-.929-.933c0-.514.416-.932.929-.932.513 0 .929.418.929.932zm-114.674-79.124a.93.93 0 01-.929.932.93.93 0 01-.929-.932c0-.515.416-.933.93-.933.512 0 .928.418.928.933zm0 86.318a.93.93 0 01-.929.932.93.93 0 01-.929-.932c0-.515.416-.933.93-.933.512 0 .928.418.928.933zm114.674-86.318a.93.93 0 01-.929.932.93.93 0 01-.929-.932c0-.515.416-.933.929-.933.513 0 .929.418.929.933zm0 86.318a.93.93 0 01-.929.932.93.93 0 01-.929-.932c0-.515.416-.933.929-.933.513 0 .929.418.929.933zM-12.492 142.4a.93.93 0 01-.929.932.93.93 0 01-.929-.932c0-.515.416-.933.93-.933.512 0 .928.418.928.933zm0 86.318a.93.93 0 01-.929.932.93.93 0 01-.929-.932c0-.515.416-.933.93-.933.512 0 .928.418.928.933zM102.182 142.4a.93.93 0 01-.929.932.93.93 0 01-.929-.932c0-.515.416-.933.929-.933.513 0 .929.418.929.933zm0 86.318a.93.93 0 01-.929.932.93.93 0 01-.929-.932c0-.515.416-.933.929-.933.513 0 .929.418.929.933zm-114.674-79.125a.93.93 0 01-.929.932.93.93 0 01-.929-.932.93.93 0 01.93-.932.93.93 0 01.928.932zm0 86.318a.93.93 0 01-.929.932.93.93 0 01-.929-.932.93.93 0 01.93-.932.93.93 0 01.928.932zm114.674-86.318a.93.93 0 01-.929.932.93.93 0 01-.929-.932.93.93 0 01.929-.932.93.93 0 01.929.932zm0 86.318a.93.93 0 01-.929.932.93.93 0 01-.929-.932.93.93 0 01.929-.932.93.93 0 01.929.932zm-114.674-79.125a.931.931 0 01-.929.933.931.931 0 01-.929-.933.93.93 0 01.93-.932.93.93 0 01.928.932zm0 86.318a.931.931 0 01-.929.933.931.931 0 01-.929-.933.93.93 0 01.93-.932.93.93 0 01.928.932zm114.674-86.318a.931.931 0 01-.929.933.931.931 0 01-.929-.933.93.93 0 01.929-.932.93.93 0 01.929.932zm0 86.318a.931.931 0 01-.929.933.931.931 0 01-.929-.933.93.93 0 01.929-.932.93.93 0 01.929.932zm-114.674-79.125a.931.931 0 01-.929.933.931.931 0 01-.929-.933.93.93 0 01.93-.932.93.93 0 01.928.932zm0 86.318a.931.931 0 01-.929.933.931.931 0 01-.929-.933.93.93 0 01.93-.932.93.93 0 01.928.932zm114.674-86.318a.931.931 0 01-.929.933.931.931 0 01-.929-.933.93.93 0 01.929-.932.93.93 0 01.929.932zm0 86.318a.931.931 0 01-.929.933.931.931 0 01-.929-.933.93.93 0 01.929-.932.93.93 0 01.929.932zm-114.674-79.125a.931.931 0 01-.929.933.931.931 0 01-.929-.933c0-.514.416-.932.93-.932a.93.93 0 01.928.932zm0 86.318a.931.931 0 01-.929.933.931.931 0 01-.929-.933.93.93 0 01.93-.932.93.93 0 01.928.932zm114.674-86.318a.931.931 0 01-.929.933.931.931 0 01-.929-.933c0-.514.416-.932.929-.932.513 0 .929.418.929.932zm0 86.318a.931.931 0 01-.929.933.931.931 0 01-.929-.933.93.93 0 01.929-.932.93.93 0 01.929.932zM44.845 92.048a.93.93 0 01-.929.932.93.93 0 01-.929-.932.93.93 0 01.93-.933.93.93 0 01.928.933zm0 86.318a.93.93 0 01-.929.932.93.93 0 01-.929-.932c0-.515.416-.933.93-.933.512 0 .928.418.928.933zm114.674-86.318a.93.93 0 01-.929.932.93.93 0 01-.929-.932.93.93 0 01.929-.933.93.93 0 01.929.933zm0 86.318a.93.93 0 01-.929.932.93.93 0 01-.929-.932c0-.515.416-.933.929-.933.513 0 .929.418.929.933zM44.845 99.24a.93.93 0 01-.929.933.93.93 0 01-.929-.932.93.93 0 01.93-.933.93.93 0 01.928.933zm0 86.319a.93.93 0 01-.929.932.93.93 0 01-.929-.932c0-.515.416-.933.93-.933.512 0 .928.418.928.933zM159.519 99.24a.93.93 0 01-.929.933.93.93 0 01-.929-.932.93.93 0 01.929-.933.93.93 0 01.929.933zm0 86.319a.93.93 0 01-.929.932.93.93 0 01-.929-.932c0-.515.416-.933.929-.933.513 0 .929.418.929.933zM44.845 106.434a.93.93 0 01-.929.932.93.93 0 01-.929-.932.93.93 0 01.93-.932.93.93 0 01.928.932zm114.674 0a.93.93 0 01-.929.932.93.93 0 01-.929-.932.93.93 0 01.929-.932.93.93 0 01.929.932zm0 86.318a.93.93 0 01-.929.932.93.93 0 01-.929-.932.93.93 0 01.929-.932.93.93 0 01.929.932zM44.845 113.627a.931.931 0 01-.929.933.931.931 0 01-.929-.933.93.93 0 01.93-.932.93.93 0 01.928.932zm0 86.318a.931.931 0 01-.929.933.931.931 0 01-.929-.933.93.93 0 01.93-.932.93.93 0 01.928.932zm114.674-86.318a.931.931 0 01-.929.933.931.931 0 01-.929-.933.93.93 0 01.929-.932.93.93 0 01.929.932zm0 86.318a.931.931 0 01-.929.933.931.931 0 01-.929-.933.93.93 0 01.929-.932.93.93 0 01.929.932zm-114.674 7.193a.931.931 0 01-.929.933.931.931 0 01-.929-.933.93.93 0 01.93-.932.93.93 0 01.928.932zm114.674-86.318a.931.931 0 01-.929.933.931.931 0 01-.929-.933.93.93 0 01.929-.932.93.93 0 01.929.932zm0 86.318a.931.931 0 01-.929.933.931.931 0 01-.929-.933.93.93 0 01.929-.932.93.93 0 01.929.932zM44.845 128.014a.931.931 0 01-.929.932.931.931 0 01-.929-.932c0-.515.416-.933.93-.933.512 0 .928.418.928.933zm0 86.317a.931.931 0 01-.929.933.931.931 0 01-.929-.933c0-.514.416-.932.93-.932a.93.93 0 01.928.932zm114.674-86.317a.931.931 0 01-.929.932.931.931 0 01-.929-.932c0-.515.416-.933.929-.933.513 0 .929.418.929.933zm0 86.317a.931.931 0 01-.929.933.931.931 0 01-.929-.933c0-.514.416-.932.929-.932.513 0 .929.418.929.932zM44.845 135.207a.93.93 0 01-.929.932.93.93 0 01-.929-.932c0-.515.416-.933.93-.933.512 0 .928.418.928.933zm0 86.318a.93.93 0 01-.929.932.93.93 0 01-.929-.932c0-.515.416-.933.93-.933.512 0 .928.418.928.933zm114.674-86.318a.93.93 0 01-.929.932.93.93 0 01-.929-.932c0-.515.416-.933.929-.933.513 0 .929.418.929.933zm0 86.318a.93.93 0 01-.929.932.93.93 0 01-.929-.932c0-.515.416-.933.929-.933.513 0 .929.418.929.933zM44.845 142.4a.93.93 0 01-.929.932.93.93 0 01-.929-.932c0-.515.416-.933.93-.933.512 0 .928.418.928.933zm0 86.318a.93.93 0 01-.929.932.93.93 0 01-.929-.932c0-.515.416-.933.93-.933.512 0 .928.418.928.933zM159.519 142.4a.93.93 0 01-.929.932.93.93 0 01-.929-.932c0-.515.416-.933.929-.933.513 0 .929.418.929.933zm0 86.318a.93.93 0 01-.929.932.93.93 0 01-.929-.932c0-.515.416-.933.929-.933.513 0 .929.418.929.933zM44.845 149.593a.93.93 0 01-.929.932.93.93 0 01-.929-.932.93.93 0 01.93-.932.93.93 0 01.928.932zm0 86.318a.93.93 0 01-.929.932.93.93 0 01-.929-.932.93.93 0 01.93-.932.93.93 0 01.928.932zm114.674-86.318a.93.93 0 01-.929.932.93.93 0 01-.929-.932.93.93 0 01.929-.932.93.93 0 01.929.932zm0 86.318a.93.93 0 01-.929.932.93.93 0 01-.929-.932.93.93 0 01.929-.932.93.93 0 01.929.932zM44.845 156.786a.931.931 0 01-.929.933.931.931 0 01-.929-.933.93.93 0 01.93-.932.93.93 0 01.928.932zm0 86.318a.931.931 0 01-.929.933.931.931 0 01-.929-.933.93.93 0 01.93-.932.93.93 0 01.928.932zm114.674-86.318a.931.931 0 01-.929.933.931.931 0 01-.929-.933.93.93 0 01.929-.932.93.93 0 01.929.932zm0 86.318a.931.931 0 01-.929.933.931.931 0 01-.929-.933.93.93 0 01.929-.932.93.93 0 01.929.932zM44.845 163.979a.931.931 0 01-.929.933.931.931 0 01-.929-.933.93.93 0 01.93-.932.93.93 0 01.928.932zm0 86.318a.931.931 0 01-.929.933.931.931 0 01-.929-.933.93.93 0 01.93-.932.93.93 0 01.928.932zm114.674-86.318a.931.931 0 01-.929.933.931.931 0 01-.929-.933.93.93 0 01.929-.932.93.93 0 01.929.932zm0 86.318a.931.931 0 01-.929.933.931.931 0 01-.929-.933.93.93 0 01.929-.932.93.93 0 01.929.932zM44.845 171.172a.931.931 0 01-.929.933.931.931 0 01-.929-.933c0-.514.416-.932.93-.932a.93.93 0 01.928.932zm0 86.318a.931.931 0 01-.929.933.931.931 0 01-.929-.933.93.93 0 01.93-.932.93.93 0 01.928.932zm114.674-86.318a.931.931 0 01-.929.933.931.931 0 01-.929-.933c0-.514.416-.932.929-.932.513 0 .929.418.929.932zm0 86.318a.931.931 0 01-.929.933.931.931 0 01-.929-.933.93.93 0 01.929-.932.93.93 0 01.929.932z"/></g></svg>