<svg width="258" height="183" fill="none" xmlns="http://www.w3.org/2000/svg"><path d="M8 67H.06L0 66.957v-1.914L.06 65H8v2z" fill="#142251"/><path d="M10 72H4.046L4 71.957v-1.914L4.046 70H10v2zM181.381 0l53.233 30.997c2.774 1.77 1.006 5.003-1.982 5.003L31.127 31.718 14 9.283 181.381 0" fill="#989EB1"/><path d="M178.766 44.518L177 1l45 26.304L220.39 59l-41.624-14.482" fill="#F3F6F9"/><path d="M180.543 42l45.967 18.073c2.399.946 1.741 4.045-.83 3.923L36.348 55.023 13 42h167.543zM181 0L13 9.383 13.109 42h167.617L181 0z" fill="#989EB1"/><path d="M20.08 38L20 13.9 126.899 7 127 37.448 20.08 38" fill="#fff"/><path d="M8 183h196v-47H8v47z" fill="#142251"/><path d="M12.5 136.5h195v-45h-195v45z" fill="#F3F6F9" stroke="#989EB1"/><path d="M17 91h195V75H17v16z" fill="#989EB1"/><path d="M8 79h196V63H8v16z" fill="#142251"/><mask id="a" fill="#fff"><path d="M209 56H13a21.472 21.472 0 000-9l196 4.5V56"/></mask><path d="M209 56H13a21.472 21.472 0 000-9l196 4.5V56" fill="#F3F6F9"/><path d="M13 56v1h-1.238l.26-1.21L13 56zm0-9l-.978.21-.266-1.239 1.267.03L13 47zm196 4.5l.023-1 .977.022v.978h-1zm0 5.5H13v-2h196v2zM12.022 55.79a20.473 20.473 0 000-8.58l1.956-.42a22.473 22.473 0 010 9.42l-1.956-.42zM13.023 46l196 4.5-.046 2-196-4.5.046-2zM210 51.5V56h-2v-4.5h2z" fill="#989EB1" mask="url(#a)"/><path d="M17.697 56.5a10.37 10.37 0 010 6H212.5v-6H17.697z" fill="#F3F6F9" stroke="#142251"/><path d="M143 176H21v-32h122v32" fill="#F3F6F9"/><path d="M180.5 151.017c-5.254 0-9.529 4.479-9.529 9.983 0 5.504 4.275 9.983 9.529 9.983 5.255 0 9.529-4.479 9.529-9.983 0-5.504-4.274-9.983-9.529-9.983zm0 20.983c-5.79 0-10.5-4.934-10.5-11s4.71-11 10.5-11 10.5 4.934 10.5 11-4.71 11-10.5 11z" fill="#989EB1"/><path d="M179.5 103.971c-5.255 0-9.529 4.275-9.529 9.529s4.274 9.529 9.529 9.529 9.529-4.275 9.529-9.529-4.274-9.529-9.529-9.529zm0 20.029c-5.79 0-10.5-4.71-10.5-10.5s4.71-10.5 10.5-10.5 10.5 4.71 10.5 10.5-4.71 10.5-10.5 10.5z" fill="#142251"/><path d="M153 10.97c-5.004 0-9.075 4.276-9.075 9.53 0 5.255 4.071 9.53 9.075 9.53s9.075-4.275 9.075-9.53c0-5.254-4.071-9.53-9.075-9.53zM153 31c-5.514 0-10-4.71-10-10.5S147.486 10 153 10s10 4.71 10 10.5S158.514 31 153 31zm28-4.034s11.604 5.39 43.181-10.966L258 29.417s-34.732 19.68-38.003 18.535C195.814 39.492 181 26.967 181 26.967" fill="#fff"/><path d="M202.43 42.983L228 52.095V53l-48-15 22.43 4.983z" fill="#F0F0F0"/><path d="M171 91h-41.721a78.989 78.989 0 00-.298-.172h41.611L171 91zM77.603 63.035h-1.53A105.34 105.34 0 0076 63c.526.004 1.06.016 1.603.035z" fill="#CCC"/><path d="M196.313 115c-21.714-17.109-46.239-30.08-72.41-38.302L76 63h178l-57.687 52z" fill="#fff"/><path d="M25.5 103.5v6.351c2.73.995 4.676 3.669 4.676 6.804 0 3.135-1.946 5.809-4.676 6.803v7.042h37v-27h-37z" fill="#fff" stroke="#989EB1"/><path d="M53 127h-1v-21h1v21z" fill="#142251"/><path d="M60 127h-5v-21h5v21z" fill="#989EB1"/></svg>