<svg width="455" height="294" fill="none" xmlns="http://www.w3.org/2000/svg"><g filter="url(#filter0_b_1_11030)"><g clip-path="url(#clip0_1_11030)"><rect x=".498" y=".994" width="454" height="293" rx="22" fill="#F2F3F8"/><path d="M60.562 30.85c1.328.544 1.992 1.496 1.992 2.856 0 1.008-.4 1.864-1.2 2.568-.8.688-1.936 1.032-3.408 1.032-2.4 0-4.008-.96-4.824-2.88l1.752-1.032c.464 1.312 1.496 1.968 3.096 1.968.8 0 1.416-.168 1.848-.504.448-.352.672-.8.672-1.344 0-.48-.184-.872-.552-1.176-.352-.304-.832-.456-1.44-.456h-1.752v-1.896h1.296c.608 0 1.08-.144 1.416-.432.336-.304.504-.712.504-1.224s-.2-.928-.6-1.248c-.384-.32-.92-.48-1.608-.48-1.344 0-2.256.568-2.736 1.704l-1.704-.984c.848-1.76 2.328-2.64 4.44-2.64 1.312 0 2.344.336 3.096 1.008.768.672 1.152 1.496 1.152 2.472 0 1.216-.48 2.112-1.44 2.688zm13.23-5.856h2.088v12h-2.088V34.93c-1.04 1.584-2.552 2.376-4.536 2.376-1.68 0-3.112-.608-4.296-1.824-1.184-1.232-1.776-2.728-1.776-4.488 0-1.76.592-3.248 1.776-4.464 1.184-1.232 2.616-1.848 4.296-1.848 1.984 0 3.496.792 4.536 2.376v-2.064zM69.52 35.29c1.216 0 2.232-.408 3.048-1.224.816-.832 1.224-1.856 1.224-3.072s-.408-2.232-1.224-3.048c-.816-.832-1.832-1.248-3.048-1.248-1.2 0-2.208.416-3.024 1.248-.816.816-1.224 1.832-1.224 3.048s.408 2.24 1.224 3.072c.816.816 1.824 1.224 3.024 1.224zm20.564-10.296v12h-2.04v-8.712l-3.816 6.144h-.264l-3.816-6.144v8.712h-2.064v-12h2.232l3.768 6.072 3.768-6.072h2.232zm3.691 6.96c.208 1.072.696 1.904 1.464 2.496.784.592 1.744.888 2.88.888 1.584 0 2.736-.584 3.456-1.752l1.776 1.008c-1.168 1.808-2.928 2.712-5.28 2.712-1.904 0-3.456-.592-4.656-1.776-1.184-1.2-1.776-2.712-1.776-4.536 0-1.808.584-3.312 1.752-4.512 1.168-1.2 2.68-1.8 4.536-1.8 1.76 0 3.192.624 4.296 1.872 1.12 1.232 1.68 2.72 1.68 4.464 0 .304-.024.616-.072.936H93.775zm4.152-5.304c-1.12 0-2.048.32-2.784.96-.736.624-1.192 1.464-1.368 2.52h8.016c-.176-1.136-.624-2-1.344-2.592-.72-.592-1.56-.888-2.52-.888zm15.876-1.656v2.016h-4.08v9.984h-2.088V27.01h-4.104v-2.016h10.272zm11.022 12h-2.592l-5.472-5.688v5.688h-2.088v-12h2.088v5.304l5.184-5.304h2.688l-5.736 5.808 5.928 6.192zm9.816-12h2.088v12h-2.088V34.93c-1.04 1.584-2.552 2.376-4.536 2.376-1.68 0-3.112-.608-4.296-1.824-1.184-1.232-1.776-2.728-1.776-4.488 0-1.76.592-3.248 1.776-4.464 1.184-1.232 2.616-1.848 4.296-1.848 1.984 0 3.496.792 4.536 2.376v-2.064zm-4.272 10.296c1.216 0 2.232-.408 3.048-1.224.816-.832 1.224-1.856 1.224-3.072s-.408-2.232-1.224-3.048c-.816-.832-1.832-1.248-3.048-1.248-1.2 0-2.208.416-3.024 1.248-.816.816-1.224 1.832-1.224 3.048s.408 2.24 1.224 3.072c.816.816 1.824 1.224 3.024 1.224zM35.962 22.57c-.688-.75-1.929-.796-2.756.031l-8.1 8.1c-.21.21-.21.477 0 .686.21.21.476.21.685 0l6.7-6.7a1 1 0 011.415 1.414l-6.7 6.7a2.45 2.45 0 01-3.514 0 2.45 2.45 0 010-3.514l8.1-8.1c1.567-1.568 4.114-1.619 5.629.015 1.552 1.569 1.598 4.104-.03 5.613l-9.485 9.486c-2.19 2.19-5.624 2.19-7.814 0-2.191-2.19-2.191-5.623 0-7.814l8.1-8.1a1 1 0 011.414 1.414l-8.1 8.1c-1.41 1.41-1.41 3.577 0 4.986 1.41 1.41 3.576 1.41 4.985 0l9.5-9.5a.99.99 0 01.032-.03c.75-.687.796-1.928-.032-2.756l-.03-.031zm383.38-.283a1 1 0 011.414 0l5.293 5.293 5.293-5.293a1 1 0 111.414 1.414l-5.293 5.293 5.293 5.293a1 1 0 11-1.414 1.414l-5.293-5.293-5.293 5.293a1 1 0 11-1.414-1.414l5.293-5.293-5.293-5.293a1 1 0 010-1.414zm-45.001-2a1 1 0 011.414 0l3 3a1 1 0 010 1.414l-9 9a.999.999 0 01-.707.293h-3a1 1 0 01-1-1v-3c0-.265.105-.52.293-.707l9-9zm-7.293 10.121v1.586h1.586l8-8-1.586-1.586-8 8zm-6-6.414a2 2 0 012-2h5a1 1 0 010 2h-5v12h12v-5a1 1 0 012 0v5a2 2 0 01-2 2h-12a2 2 0 01-2-2v-12z" opacity=".44" fill="#142251"/><path d="M417.756 269.015a1 1 0 010-1.414l9.9-9.9a.999.999 0 111.414 1.414l-9.899 9.9c-.391.39-1.024.39-1.415 0zm4.95 2.121a1 1 0 010-1.414l7.071-7.071a.999.999 0 111.414 1.414l-7.071 7.071a.999.999 0 01-1.414 0zm4.95 2.121a.999.999 0 010-1.414l4.242-4.242a1 1 0 111.415 1.414l-4.243 4.242a.999.999 0 01-1.414 0z" fill="#142251" fill-opacity=".44"/><path fill="#E4E7F1" d="M.498 56.994h454v1h-454z"/><path d="M235.911 153.202c3.165 12.846-4.846 27.309-20.706 40.33-15.828 12.995-39.338 24.427-66.78 31.189-27.441 6.762-53.57 7.561-73.625 3.407-20.093-4.161-33.907-13.247-37.073-26.093-3.165-12.847 4.846-27.31 20.706-40.33 15.829-12.995 39.339-24.428 66.78-31.189 27.441-6.762 53.571-7.561 73.625-3.408 20.094 4.162 33.908 13.247 37.073 26.094z" stroke="#C3C7CF"/></g></g><defs><clipPath id="clip0_1_11030"><rect x=".498" y=".994" width="454" height="293" rx="22" fill="#fff"/></clipPath><filter id="filter0_b_1_11030" x="-39.502" y="-39.006" width="534" height="373" filterUnits="userSpaceOnUse" color-interpolation-filters="sRGB"><feFlood flood-opacity="0" result="BackgroundImageFix"/><feGaussianBlur in="BackgroundImage" stdDeviation="20"/><feComposite in2="SourceAlpha" operator="in" result="effect1_backgroundBlur_1_11030"/><feBlend in="SourceGraphic" in2="effect1_backgroundBlur_1_11030" result="shape"/></filter></defs></svg>