<svg width="512pt" height="512pt" viewBox="0 0 512 512" version="1.1" xmlns="http://www.w3.org/2000/svg">
<g id="#91989dff">
<path fill="#91989d" opacity="1.00" d=" M 165.33 0.00 L 168.70 0.00 C 177.35 0.15 186.04 1.03 194.39 3.42 C 209.06 7.42 222.08 15.54 235.38 22.64 C 243.56 26.53 252.62 30.78 261.88 28.37 C 276.26 24.73 288.13 15.28 301.61 9.49 C 314.80 2.92 329.56 -0.08 344.26 0.00 L 347.42 0.00 C 371.05 1.24 394.21 9.68 413.10 23.93 C 424.93 32.23 435.49 42.35 444.36 53.76 C 421.93 74.62 399.54 95.51 377.07 116.32 C 296.34 116.31 215.62 116.30 134.89 116.33 C 112.40 95.53 90.02 74.61 67.58 53.76 C 76.45 42.31 87.07 32.23 98.90 23.89 C 118.01 9.56 141.43 1.00 165.33 0.00 Z" />
<path fill="#91989d" opacity="1.00" d=" M 69.08 211.13 C 82.63 191.10 98.22 172.22 116.76 156.61 C 209.58 156.62 302.39 156.66 395.21 156.59 C 402.62 162.54 409.23 169.39 415.71 176.33 C 454.80 219.42 481.44 273.93 490.25 331.53 C 496.81 373.08 494.34 415.82 484.87 456.73 C 478.81 474.93 466.11 490.98 449.41 500.53 C 436.18 508.32 420.77 511.46 405.57 512.00 L 106.51 512.00 C 90.78 511.46 74.83 508.07 61.30 499.74 C 45.22 490.13 33.06 474.41 27.14 456.70 C 18.88 420.88 15.85 383.70 19.73 347.09 C 24.51 298.57 41.90 251.53 69.08 211.13 M 244.44 234.20 C 244.44 238.20 244.44 242.21 244.43 246.21 C 238.94 247.13 233.32 247.52 228.03 249.36 C 214.94 252.91 203.01 261.22 195.87 272.82 C 189.05 284.56 188.70 299.34 193.00 312.00 C 196.98 322.92 205.23 332.04 215.33 337.67 C 224.24 343.20 234.39 346.20 244.41 348.98 C 244.46 365.88 244.45 382.77 244.42 399.66 C 233.37 394.80 224.51 384.80 221.83 372.92 C 209.35 373.81 196.92 375.20 184.44 376.11 C 186.73 388.85 191.95 401.51 201.54 410.49 C 212.87 421.83 228.84 426.89 244.44 428.70 C 244.44 436.04 244.44 443.37 244.44 450.71 C 251.35 450.75 258.26 450.67 265.18 450.75 C 265.33 443.21 265.21 435.66 265.24 428.12 C 271.83 426.80 278.60 426.09 284.89 423.57 C 290.21 422.16 294.93 419.31 299.74 416.73 C 312.06 409.17 321.67 396.54 323.87 382.06 C 325.85 369.16 323.83 354.86 315.36 344.53 C 308.26 334.97 296.80 330.18 285.95 326.24 C 279.24 323.52 272.06 322.32 265.21 320.08 C 265.37 304.38 265.24 288.67 265.27 272.97 C 268.55 274.47 271.91 275.96 274.52 278.52 C 278.78 282.03 280.83 287.27 282.64 292.30 C 294.68 290.84 306.75 289.66 318.79 288.32 C 317.65 284.48 316.84 280.52 315.02 276.93 C 310.21 265.82 300.72 257.04 289.62 252.38 C 281.95 248.77 273.51 247.47 265.23 246.12 C 265.32 242.14 265.28 238.16 265.26 234.18 C 258.32 234.20 251.38 234.17 244.44 234.20 Z" />
<path fill="#91989d" opacity="1.00" d=" M 228.79 283.85 C 232.26 278.19 238.13 274.41 244.42 272.58 C 244.46 286.55 244.44 300.52 244.43 314.48 C 239.01 312.00 233.17 309.55 229.68 304.44 C 225.07 298.64 224.73 290.02 228.79 283.85 Z" />
<path fill="#91989d" opacity="1.00" d=" M 265.28 354.14 C 272.81 356.18 280.88 358.95 285.70 365.49 C 291.24 372.82 290.49 383.74 284.70 390.71 C 280.05 396.76 272.75 400.06 265.39 401.41 C 265.13 385.66 265.35 369.90 265.28 354.14 Z" />
</g>
</svg>
