<svg width="32" height="32" viewBox="0 0 32 32" fill="none" xmlns="http://www.w3.org/2000/svg">
<g filter="url(#filter0_i_1_11024)">
<path d="M16.3334 3C16.8384 3 17.3001 3.28534 17.5259 3.73705L20.9645 10.6141L28.5253 11.7139C29.0275 11.7869 29.4446 12.1387 29.6014 12.6213C29.7583 13.1039 29.6275 13.6337 29.2642 13.988L23.7613 19.3533L24.9992 26.918C25.081 27.418 24.8724 27.9211 24.4609 28.2165C24.0493 28.5119 23.5059 28.5486 23.0584 28.3111L16.3334 24.7427L9.60833 28.3111C9.16082 28.5486 8.61741 28.5119 8.20586 28.2165C7.79431 27.9211 7.58573 27.418 7.66754 26.918L8.90541 19.3533L3.40257 13.988C3.03923 13.6337 2.90848 13.1039 3.06529 12.6213C3.2221 12.1387 3.63928 11.7869 4.14145 11.7139L11.7023 10.6141L15.1408 3.73705C15.3667 3.28534 15.8283 3 16.3334 3ZM16.3334 22.6667L13.6014 15.3111C13.4063 15.7014 13.2071 13.09 12.7753 13.1528L19.6014 17.8111L11.2642 17.9287C11.5758 18.2325 11.1717 15.8817 11.1014 16.3111L15.8334 17.5549L17.7863 17.8367C18.1772 17.6293 16.5675 21.8482 16.9583 22.0555L21.9334 24.6953L19.1014 23.8111C19.0312 23.3817 16.2899 23.197 16.6014 22.8932L25.4689 13.964L15.8334 23.6667C15.4016 23.6039 17.2966 18.7014 17.1014 18.3111L16.3334 22.6667Z" fill="#142251"/>
</g>
<defs>
<filter id="filter0_i_1_11024" x="3" y="3" width="26.6667" height="25.4668" filterUnits="userSpaceOnUse" color-interpolation-filters="sRGB">
<feFlood flood-opacity="0" result="BackgroundImageFix"/>
<feBlend mode="normal" in="SourceGraphic" in2="BackgroundImageFix" result="shape"/>
<feColorMatrix in="SourceAlpha" type="matrix" values="0 0 0 0 0 0 0 0 0 0 0 0 0 0 0 0 0 0 127 0" result="hardAlpha"/>
<feOffset/>
<feGaussianBlur stdDeviation="2"/>
<feComposite in2="hardAlpha" operator="arithmetic" k2="-1" k3="1"/>
<feColorMatrix type="matrix" values="0 0 0 0 1 0 0 0 0 1 0 0 0 0 1 0 0 0 1 0"/>
<feBlend mode="normal" in2="shape" result="effect1_innerShadow_1_11024"/>
</filter>
</defs>
</svg>
