<svg width="30" height="30" viewBox="0 0 30 30" fill="none" xmlns="http://www.w3.org/2000/svg">
<path d="M15 3C8.37258 3 3 8.37258 3 15C3 21.6274 8.37258 27 15 27C21.6274 27 27 21.6274 27 15C27 8.37258 21.6274 3 15 3ZM0 15C0 6.71573 6.71573 0 15 0C23.2843 0 30 6.71573 30 15C30 23.2843 23.2843 30 15 30C6.71573 30 0 23.2843 0 15ZM21.9965 10.1289C22.6157 10.6793 22.6715 11.6274 22.1211 12.2465L14.1211 21.2465C13.8365 21.5668 13.4285 21.75 13 21.75C12.5715 21.75 12.1635 21.5668 11.8789 21.2465L7.87889 16.7465C7.32851 16.1274 7.38428 15.1793 8.00345 14.6289C8.62263 14.0785 9.57074 14.1343 10.1211 14.7535L13 17.9922L19.8789 10.2535C20.4293 9.63428 21.3774 9.57851 21.9965 10.1289Z" fill="#989EB1"/>
</svg>
