<?xml version="1.0" encoding="UTF-8" ?>
<!DOCTYPE svg PUBLIC "-//W3C//DTD SVG 1.1//EN" "http://www.w3.org/Graphics/SVG/1.1/DTD/svg11.dtd">
<svg width="512pt" height="512pt" viewBox="0 0 512 512" version="1.1" xmlns="http://www.w3.org/2000/svg">
<g id="#000000ff">
<path fill="#C11C2C" opacity="1.00" d=" M 119.03 73.16 C 155.91 52.14 198.62 41.58 241.04 42.81 C 279.60 43.73 317.88 54.44 351.30 73.70 C 381.04 90.74 406.96 114.39 426.65 142.44 C 455.44 183.10 470.56 233.16 469.21 282.95 C 468.30 325.23 455.63 367.20 432.89 402.86 C 412.39 435.29 383.78 462.54 350.41 481.46 C 316.48 500.88 277.60 511.25 238.55 512.00 L 230.57 512.00 C 180.63 511.09 131.13 493.93 91.64 463.31 C 66.73 444.18 45.73 419.97 30.29 392.62 C 11.09 358.89 0.80 320.29 0.00 281.51 L 0.00 273.49 C 0.69 238.09 9.21 202.83 25.33 171.28 C 46.03 130.32 79.07 95.73 119.03 73.16 M 224.45 85.63 C 200.67 86.88 177.12 92.58 155.44 102.45 C 118.68 119.01 87.49 147.57 67.63 182.65 C 48.80 215.58 40.30 254.23 43.26 292.04 C 45.77 326.20 57.75 359.61 77.52 387.59 C 97.32 415.82 124.85 438.59 156.36 452.62 C 200.18 472.39 251.52 474.66 296.94 458.97 C 333.88 446.40 366.66 422.13 389.64 390.62 C 416.28 354.53 429.40 308.85 426.17 264.12 C 424.07 232.36 413.85 201.18 396.70 174.36 C 377.84 144.64 350.64 120.27 319.01 104.81 C 289.82 90.43 256.92 83.91 224.45 85.63 Z" />
<path fill="#C11C2C" opacity="1.00" d=" M 142.81 171.70 C 150.39 169.15 159.22 171.45 164.72 177.22 C 188.06 200.52 211.34 223.87 234.69 247.15 C 256.77 225.07 278.85 202.99 300.93 180.91 C 303.60 178.28 306.10 175.37 309.39 173.50 C 316.22 169.50 325.26 169.79 331.81 174.25 C 338.22 178.43 342.00 186.27 341.23 193.89 C 340.82 198.82 338.57 203.53 335.11 207.05 C 311.75 230.59 288.08 253.83 264.87 277.51 C 288.01 300.27 310.78 323.40 333.81 346.27 C 337.41 349.64 340.21 354.02 340.99 358.96 C 342.46 366.71 339.11 375.11 332.75 379.76 C 326.64 384.40 317.96 385.31 311.03 382.01 C 306.84 380.16 303.82 376.61 300.63 373.46 C 278.64 351.48 256.68 329.48 234.68 307.51 C 211.31 330.86 187.96 354.23 164.59 377.58 C 159.83 382.47 152.65 384.87 145.92 383.71 C 138.35 382.56 131.70 376.98 129.22 369.75 C 126.43 362.13 128.57 353.08 134.40 347.45 C 157.76 324.07 181.16 300.73 204.50 277.32 C 181.06 253.88 157.62 230.45 134.19 207.01 C 129.52 202.32 127.21 195.40 128.24 188.85 C 129.34 180.99 135.22 174.05 142.81 171.70 Z" />
</g>
</svg>
