<svg width="40" height="50" viewBox="0 0 40 50" fill="none" xmlns="http://www.w3.org/2000/svg">
<circle cx="9.99927" cy="44.0005" r="4" fill="#142251"/>
<ellipse cx="19.5041" cy="25.713" rx="11.5" ry="8" transform="rotate(25.8444 19.5041 25.713)" fill="#AFB4C4"/>
<path d="M29.4039 30.5082C28.5321 32.308 26.6719 33.4768 24.2785 33.8551C21.8871 34.233 19.0122 33.8083 16.2346 32.4629C13.457 31.1175 11.3415 29.1249 10.1556 27.0143C8.96859 24.9018 8.73252 22.7176 9.60429 20.9178C10.476 19.118 12.3362 17.9492 14.7297 17.571C17.121 17.1931 19.9959 17.6178 22.7735 18.9632C25.5512 20.3086 27.6666 22.3011 28.8526 24.4117C30.0396 26.5243 30.2756 28.7085 29.4039 30.5082Z" stroke="#142251" stroke-opacity="0.44"/>
<mask id="path-4-inside-1_1_11082" fill="white">
<path fill-rule="evenodd" clip-rule="evenodd" d="M28.8131 19.1108L18.9133 14.3156L14.6806 23.0543C14.6744 23.0662 14.6685 23.0783 14.6626 23.0904C14.6567 23.1025 14.651 23.1147 14.6454 23.1269L14.4606 23.5083L14.5104 23.5324C14.1667 25.116 15.702 27.205 18.1957 28.4129C20.6895 29.6209 23.2803 29.5304 24.31 28.279L24.3604 28.3035L28.8131 19.1108Z"/>
</mask>
<path fill-rule="evenodd" clip-rule="evenodd" d="M28.8131 19.1108L18.9133 14.3156L14.6806 23.0543C14.6744 23.0662 14.6685 23.0783 14.6626 23.0904C14.6567 23.1025 14.651 23.1147 14.6454 23.1269L14.4606 23.5083L14.5104 23.5324C14.1667 25.116 15.702 27.205 18.1957 28.4129C20.6895 29.6209 23.2803 29.5304 24.31 28.279L24.3604 28.3035L28.8131 19.1108Z" fill="#AFB4C4"/>
<path d="M18.9133 14.3156L19.3493 13.4156L18.4493 12.9797L18.0134 13.8797L18.9133 14.3156ZM28.8131 19.1108L29.7131 19.5468L30.149 18.6468L29.2491 18.2108L28.8131 19.1108ZM14.6806 23.0543L15.5714 23.5086L15.576 23.4995L15.5805 23.4902L14.6806 23.0543ZM14.6454 23.1269L15.5453 23.5628L15.5498 23.5536L15.5541 23.5442L14.6454 23.1269ZM14.4606 23.5083L13.5607 23.0723L13.1247 23.9723L14.0247 24.4083L14.4606 23.5083ZM14.5104 23.5324L15.4876 23.7444L15.6545 22.9754L14.9463 22.6324L14.5104 23.5324ZM24.31 28.279L24.7459 27.3791L24.0377 27.036L23.5378 27.6437L24.31 28.279ZM24.3604 28.3035L23.9245 29.2035L24.8245 29.6394L25.2604 28.7394L24.3604 28.3035ZM18.4774 15.2156L28.3772 20.0108L29.2491 18.2108L19.3493 13.4156L18.4774 15.2156ZM15.5805 23.4902L19.8133 14.7515L18.0134 13.8797L13.7806 22.6183L15.5805 23.4902ZM15.5626 23.5263C15.5654 23.5204 15.5684 23.5145 15.5714 23.5086L13.7897 22.5999C13.7805 22.618 13.7715 22.6362 13.7626 22.6545L15.5626 23.5263ZM15.5541 23.5442C15.5569 23.5382 15.5597 23.5323 15.5626 23.5263L13.7626 22.6545C13.7537 22.6728 13.7451 22.6912 13.7366 22.7096L15.5541 23.5442ZM15.3606 23.9442L15.5453 23.5628L13.7454 22.691L13.5607 23.0723L15.3606 23.9442ZM14.9463 22.6324L14.8966 22.6083L14.0247 24.4083L14.0744 24.4323L14.9463 22.6324ZM18.6316 27.513C17.5082 26.9688 16.6335 26.2405 16.0894 25.5141C15.5303 24.7677 15.4009 24.1439 15.4876 23.7444L13.5331 23.3203C13.2762 24.5045 13.7426 25.7171 14.4887 26.7131C15.2496 27.729 16.3895 28.6492 17.7598 29.3129L18.6316 27.513ZM23.5378 27.6437C23.278 27.9594 22.7084 28.2445 21.7761 28.2686C20.8688 28.292 19.7551 28.0571 18.6316 27.513L17.7598 29.3129C19.1301 29.9767 20.5587 30.3006 21.8277 30.2679C23.0717 30.2359 24.3123 29.8501 25.0822 28.9144L23.5378 27.6437ZM24.7964 27.4035L24.7459 27.3791L23.874 29.179L23.9245 29.2035L24.7964 27.4035ZM27.9132 18.6749L23.4605 27.8676L25.2604 28.7394L29.7131 19.5468L27.9132 18.6749Z" fill="#142251" fill-opacity="0.44" mask="url(#path-4-inside-1_1_11082)"/>
<ellipse cx="26.2619" cy="11.7633" rx="9.5" ry="7.5" transform="rotate(25.8444 26.2619 11.7633)" fill="#AFB4C4"/>
<path d="M34.3618 15.6866C32.7217 19.0726 27.7888 20.2808 23.2104 18.0631C18.6321 15.8455 16.522 11.2259 18.1621 7.83989C19.8022 4.4539 24.7351 3.24574 29.3134 5.46338C33.8918 7.68103 36.0018 12.3006 34.3618 15.6866Z" stroke="#142251" stroke-opacity="0.44"/>
<g filter="url(#filter0_f_1_11082)">
<ellipse cx="23.5479" cy="9.3375" rx="4" ry="3.5" transform="rotate(25.8444 23.5479 9.3375)" fill="#E4E7F1"/>
</g>
<rect x="14.6671" y="32.2593" width="2" height="13" transform="rotate(25.8444 14.6671 32.2593)" fill="#9DA7CA"/>
<defs>
<filter id="filter0_f_1_11082" x="15.637" y="1.73633" width="15.8219" height="15.2021" filterUnits="userSpaceOnUse" color-interpolation-filters="sRGB">
<feFlood flood-opacity="0" result="BackgroundImageFix"/>
<feBlend mode="normal" in="SourceGraphic" in2="BackgroundImageFix" result="shape"/>
<feGaussianBlur stdDeviation="2" result="effect1_foregroundBlur_1_11082"/>
</filter>
</defs>
</svg>
