<?xml version="1.0" standalone="no"?>
<!DOCTYPE svg PUBLIC "-//W3C//DTD SVG 20010904//EN"
 "http://www.w3.org/TR/2001/REC-SVG-20010904/DTD/svg10.dtd">
<svg version="1.0" xmlns="http://www.w3.org/2000/svg"
 width="544.000000pt" height="203.000000pt" viewBox="0 0 544.000000 203.000000"
 preserveAspectRatio="xMidYMid meet">

<g transform="translate(0.000000,203.000000) scale(0.100000,-0.100000)"
fill="#000" stroke="none">
<path d="M3947 1793 c-4 -6 -424 -1097 -548 -1421 -8 -21 -7 -22 59 -22 l67 0
278 718 c152 395 277 721 277 725 0 10 -128 9 -133 0z"/>
<path d="M1940 1550 l0 -30 70 0 70 0 0 -205 0 -205 30 0 30 0 0 205 0 205 70
0 70 0 0 30 0 30 -170 0 -170 0 0 -30z"/>
<path d="M2320 1550 c0 -28 3 -30 35 -30 32 0 35 2 35 30 0 28 -3 30 -35 30
-32 0 -35 -2 -35 -30z"/>
<path d="M777 1256 c-246 -128 -452 -237 -458 -243 -5 -5 -9 -32 -7 -58 l3
-47 255 -132 c140 -72 348 -180 463 -239 l207 -107 0 70 0 70 -392 196 -393
197 393 196 392 196 0 67 c0 38 -3 68 -7 67 -5 0 -209 -105 -456 -233z"/>
<path d="M4210 1422 l0 -68 398 -196 397 -195 -397 -199 -398 -199 0 -68 0
-68 347 178 c191 98 401 205 466 238 l118 60 -3 58 -3 58 -455 234 c-250 129
-458 234 -462 235 -5 0 -8 -31 -8 -68z"/>
<path d="M2320 1280 l0 -170 35 0 35 0 0 170 0 170 -35 0 -35 0 0 -170z"/>
<path d="M2490 1280 l0 -170 35 0 35 0 0 124 c0 118 1 126 22 140 34 24 73 20
97 -10 18 -23 21 -41 21 -140 l0 -114 30 0 30 0 0 130 c0 144 -9 177 -55 198
-39 18 -89 14 -119 -9 l-26 -20 0 20 c0 17 -6 21 -35 21 l-35 0 0 -170z"/>
<path d="M2820 1446 c0 -3 27 -80 60 -170 59 -161 60 -166 46 -200 -10 -23
-23 -37 -40 -42 -20 -5 -26 -12 -26 -35 0 -26 4 -29 30 -29 53 0 71 31 148
253 40 115 72 213 72 218 0 6 -14 9 -32 7 -31 -3 -32 -6 -67 -110 -20 -59 -38
-109 -41 -112 -3 -3 -24 45 -45 107 -39 110 -41 112 -72 115 -18 2 -33 1 -33
-2z"/>
<path d="M1380 1143 c0 -4 51 -165 112 -356 l113 -348 49 3 49 3 113 350 c63
192 114 351 114 352 0 2 -24 3 -53 3 l-53 0 -84 -275 c-46 -151 -85 -273 -87
-271 -2 2 -41 125 -86 272 l-82 269 -53 3 c-28 2 -52 -1 -52 -5z"/>
<path d="M3070 1020 c0 -68 -1 -70 -25 -70 -23 0 -25 -4 -25 -45 0 -41 2 -45
25 -45 l25 0 0 -160 c0 -222 19 -260 127 -260 l53 0 0 45 c0 43 -1 45 -28 45
-49 0 -52 12 -52 177 l0 153 40 0 40 0 0 45 0 45 -40 0 -40 0 0 70 0 70 -50 0
-50 0 0 -70z"/>
<path d="M2094 938 c-17 -6 -44 -20 -59 -33 l-28 -22 37 -25 c35 -24 39 -25
66 -11 93 46 166 17 185 -74 l7 -33 -94 0 c-115 0 -159 -12 -192 -51 -22 -26
-26 -40 -26 -98 0 -100 38 -141 145 -155 48 -7 78 -1 148 29 12 5 17 3 17 -9
0 -12 10 -16 46 -16 l46 0 -4 198 c-3 185 -4 199 -26 234 -32 52 -92 78 -173
77 -35 -1 -78 -6 -95 -11z m206 -324 c0 -25 -5 -54 -10 -64 -22 -41 -151 -50
-192 -13 -11 10 -18 30 -18 54 0 56 24 69 132 69 l88 0 0 -46z"/>
<path d="M2605 931 c-55 -29 -75 -65 -75 -140 0 -97 30 -118 204 -139 57 -7
84 -15 93 -28 18 -25 16 -39 -11 -71 -22 -26 -30 -28 -93 -28 -56 0 -77 5
-118 28 l-50 28 -27 -32 c-16 -18 -28 -37 -28 -40 0 -4 30 -23 67 -41 60 -29
75 -32 152 -32 137 1 199 44 209 142 10 108 -43 154 -192 166 -97 9 -116 18
-116 56 0 63 108 85 199 41 l45 -21 28 27 c15 15 28 32 28 38 0 6 -21 22 -47
35 -69 34 -211 40 -268 11z"/>
</g>
</svg>
