<svg width="512pt" height="512pt" viewBox="0 0 512 512" xmlns="http://www.w3.org/2000/svg"><g fill="#fff"><path d="M153.23 9.31c6.59-.47 13.19-.28 19.79-.33 52-.11 103.99-.12 155.98.12 18.08.17 36.33-.55 54.2 2.68 28.66 4.06 55.81 17.37 76.97 37.06 17.58 16.39 32.1 36.67 39.1 59.86 4.07 13.01 5.68 26.67 5.72 40.28-.01 52.98.12 105.97-.23 158.96.07 19.01.4 38.03.39 57.05.1 20.01-4.44 40.01-13.12 58.04-16.38 33.83-47.09 60.01-82.47 72.3-18.02 6.81-37.35 9.56-56.56 9.6-55.65.09-111.3.7-166.95.05-18.77-.35-37.67.21-56.28-2.65-27.57-4.36-53.86-16.74-74.41-35.68-21.06-19.3-37.86-44.3-43.43-72.66-3.65-16.42-2.73-33.32-2.84-50.02.02-64.33-.05-128.66.04-192.99.01-26.24 6.37-52.89 20.94-74.95 11.39-17.56 27.29-31.84 44.96-42.89 23.16-15.1 50.55-23.45 78.2-23.83m-8.69 37.44c-29.92 3.62-59.08 18.12-77.85 42.07-13.74 17.2-21.17 39.19-20.97 61.18.16 16.7.73 33.39.58 50.09-.32 48.31-.34 96.62-.3 144.93.09 10.34-.31 20.7.52 31.02 1.32 15.25 6.75 30.16 15.85 42.51 16.13 24.59 42.61 42.2 71.73 46.84 16.44 3.19 33.28 2.13 49.93 2.45 57.99.51 115.98.38 173.96.02 15.51-.16 31.02-3.28 45.17-9.71 18.76-8.89 36.66-21.13 48.39-38.6 11.92-17.33 16.8-38.67 16.53-59.5-.15-70.03-.2-140.06-.08-210.08.12-12.27-1.65-24.63-6.16-36.08-5.07-13.35-13.77-25.03-23.81-35.06-15.57-15.78-36.11-26.55-57.94-30.35-16.18-3.13-32.73-2.14-49.11-2.41-58.01-.39-116.01-.3-174.02-.04-4.15.13-8.3.26-12.42.72z"/><path d="M382.48 98.62c6.96-1.56 14.52.32 20.01 4.84 7.91 6.36 11.34 17.63 8.39 27.34-2.53 9.03-10.41 16.47-19.78 17.83-8.68 1.48-17.8-2.58-22.91-9.66-5.61-7.43-6.55-17.94-2.65-26.35 3.09-6.94 9.48-12.39 16.94-14zM244.5 133.78c35.86-4.17 73.29 9.27 97.96 35.69 13.94 14.6 23.88 32.98 28.47 52.65 5.17 22.12 3.58 45.81-4.74 66.96-12.98 33.97-43.07 60.63-78.21 69.81-27.09 7.31-56.82 4.57-82.01-7.85-29.75-14.3-52.77-42-61-74.01-7.15-26.45-4.36-55.52 8.1-79.97 17.18-34.77 52.9-59.28 91.43-63.28m2.03 36.93c-26.16 3.37-50.14 20.61-61.26 44.58-7.71 16.16-9.35 35.04-4.7 52.32 5.19 19.8 18.67 37.17 36.36 47.41 26.51 15.84 62.17 14.29 87.15-3.88 14.65-10.35 25.58-25.86 30.2-43.2 4.22-15.61 3.39-32.57-2.51-47.64-6.33-16.47-18.52-30.54-33.73-39.42-15.38-9.07-33.85-12.6-51.51-10.17z"/></g></svg>