<svg width="512pt" height="512pt" viewBox="0 0 512 512" xmlns="http://www.w3.org/2000/svg"><path fill="#fff" d="M162.99 39.88c34.19-23.94 76.58-34.78 118.05-33.8 24.35.27 48.59 5.87 70.64 16.2 40.71 18.6 72.64 54.96 86.43 97.48 3.04 10.17 6.21 20.46 6.78 31.14.94 17.35 2.61 34.84.06 52.13-3.13 21.27-6.09 42.83-13.96 62.97-9.64 26.21-23.96 51.3-44.84 70.18-26.99 24.82-65.5 38.65-102.02 31.3-15.71-3.23-30.35-11.64-40.8-23.84-2.24-2.69-4.59-5.29-7.02-7.81-5.2 20.31-9.94 40.74-14.51 61.21-3.59 14.9-8.32 29.52-13.87 43.8-3.99 11.32-9.95 21.8-15.94 32.16-5.8 10.32-12.21 20.3-18.82 30.12-1.67 2.76-3.7 5.61-7.11 6.22-1.4-1.48-2.98-3.01-3.17-5.16-3.12-24.55-4.75-49.36-3.35-74.1 1.21-23.52 8-46.21 12.26-69.25 7.69-36.63 15.92-73.15 24.47-109.59 1-4.6 2.74-9.39 1.38-14.12-6.69-21.14-10.36-44.09-5.19-65.99 3.41-16.94 11.02-33.96 25-44.73 12.95-10 33.02-11.57 46.09-1 9.87 8.04 13.46 21.35 13.76 33.62.69 12.06-1.93 23.97-4.93 35.58-4.91 18.36-9.61 36.78-14.64 55.12-3.43 12.05-6.78 24.85-3.79 37.37 2.89 13.59 13.48 24.7 26.23 29.73 9.13 3.82 19.45 3.37 28.93 1.17 13.57-3.32 25.53-11.78 34.2-22.62 16.14-18.77 24.99-42.56 30.64-66.36 4.11-16.36 6.1-33.16 6.95-49.98.21-12.75.62-25.62-1.84-38.21-5.07-28.38-21.6-55.45-47.04-69.8-8.72-4.73-17.83-8.85-27.43-11.44-6.07-1.69-12.4-2.09-18.65-2.58-9.64-.64-19.3-1.74-28.97-1.06-22.51 2.06-44.71 9.55-63.13 22.8-20.81 15.2-37.12 36.56-46.31 60.65-8.18 22.53-11.73 46.91-8.81 70.78 1.4 11.34 4.95 22.46 10.91 32.23 3.39 5.43 8.8 9.97 9.66 16.66 1.02 8.54-2.38 16.71-4.13 24.93-1.2 3.94-1.7 8.44-4.6 11.57-2.87 2.96-7.49 2.38-10.94.87-14.96-6.66-27.27-18.52-35.5-32.6-14.09-23.96-19.48-52.24-18.6-79.81.42-23.73 5.48-47.42 15.38-69.02 13.6-29.89 34.8-56.64 62.09-75.12z"/></svg>