<svg width="50pt" height="39pt" viewBox="0 0 50 39" version="1.1" xmlns="http://www.w3.org/2000/svg">
<g id="#007ee5ff">
<path fill="#007ee5" opacity="1.00" d=" M 36.42 0.00 L 37.83 0.00 C 41.81 3.27 47.17 4.93 50.00 9.49 L 50.00 10.67 C 47.41 15.41 44.34 20.19 39.15 22.38 C 40.61 28.13 36.62 33.28 37.39 39.00 L 20.23 39.00 C 18.42 36.36 16.58 33.75 14.81 31.08 C 10.38 33.97 4.74 33.41 0.00 31.62 L 0.00 30.22 C 0.68 25.07 4.02 20.88 7.01 16.84 C 8.61 14.46 11.87 15.32 14.30 14.85 C 14.54 16.52 15.88 19.09 13.78 20.10 C 12.12 20.18 10.54 19.41 8.93 19.08 C 7.96 21.24 7.16 23.48 6.52 25.76 C 10.56 24.22 14.67 22.85 18.81 21.57 C 20.71 21.02 21.32 18.72 21.18 16.96 C 19.97 13.68 17.26 10.73 17.84 6.98 C 18.68 2.89 24.23 0.95 27.55 3.35 C 29.09 5.19 29.67 7.62 31.07 9.56 C 31.13 11.47 31.16 13.37 31.20 15.28 C 30.02 15.54 28.86 15.82 27.71 16.14 C 28.25 17.70 29.18 19.01 30.64 19.84 C 32.27 17.72 34.45 16.19 36.89 15.15 C 38.46 13.11 40.45 11.47 42.72 10.26 C 41.78 7.61 40.48 5.10 38.52 3.06 C 37.17 4.34 36.00 6.27 34.02 6.58 C 31.62 7.06 32.46 3.73 31.84 2.29 C 33.35 1.49 34.86 0.69 36.42 0.00 Z" />
</g>
</svg>
