<svg xmlns="http://www.w3.org/2000/svg" version="1.1" xmlns:xlink="http://www.w3.org/1999/xlink" xmlns:svgjs="http://svgjs.com/svgjs" width="512pt" height="512pt"><svg width="512pt" height="512pt" viewBox="0 0 512 512" version="1.1" xmlns="http://www.w3.org/2000/svg">
<g id="SvgjsG1000">
<path fill="#000000" opacity="1.00" d=" M 68.93 60.89 C 85.09 49.13 105.01 42.67 125.00 42.68 C 211.99 42.66 298.99 42.67 385.98 42.67 C 402.20 42.55 418.44 46.55 432.68 54.32 C 453.78 65.72 470.22 85.36 477.72 108.14 C 480.74 116.83 481.89 125.99 483.49 135.01 C 491.71 183.03 499.93 231.05 508.16 279.06 C 509.59 287.65 511.33 296.20 512.00 304.89 L 512.00 313.70 C 510.86 331.34 505.37 348.78 495.31 363.38 C 477.74 389.60 446.56 405.85 415.01 405.33 C 312.67 405.34 210.34 405.33 108.00 405.33 C 99.64 405.29 91.24 405.63 82.95 404.41 C 59.22 401.22 36.93 388.74 21.80 370.18 C 8.44 354.04 0.83 333.43 0.00 312.53 L 0.00 305.73 C 0.31 301.19 0.78 296.65 1.61 292.18 C 11.34 235.50 21.01 178.81 30.75 122.13 C 34.86 97.77 48.86 75.30 68.93 60.89 M 128.09 158.87 C 127.31 164.64 132.10 170.39 137.93 170.59 C 148.82 170.76 159.73 170.63 170.62 170.65 C 170.75 209.76 170.60 248.86 170.70 287.97 C 170.54 293.57 175.45 298.62 181.04 298.63 C 186.79 298.94 192.05 293.86 191.96 288.11 C 192.06 248.96 191.96 209.82 192.01 170.67 C 202.66 170.64 213.31 170.71 223.96 170.64 C 229.64 170.78 234.77 165.74 234.63 160.03 C 234.82 154.32 229.69 149.23 224.00 149.36 C 195.64 149.31 167.28 149.32 138.93 149.35 C 133.56 149.12 128.53 153.51 128.09 158.87 M 260.42 151.37 C 256.44 154.18 254.89 159.80 256.91 164.25 C 274.62 206.82 292.36 249.37 310.10 291.92 C 311.73 296.19 316.31 299.07 320.87 298.62 C 325.12 298.34 328.80 295.24 330.19 291.28 C 347.81 248.91 365.52 206.56 383.12 164.18 C 385.30 159.30 383.18 153.02 378.39 150.60 C 373.23 147.71 365.98 150.10 363.67 155.58 C 348.95 190.34 334.83 225.38 319.89 260.04 C 305.50 225.43 291.08 190.82 276.64 156.22 C 274.42 149.85 265.77 147.27 260.42 151.37 Z"></path>
<path fill="#000000" opacity="1.00" d=" M 0.00 376.71 C 20.29 405.96 54.51 424.89 90.07 426.48 C 103.38 426.88 116.69 426.57 130.01 426.67 C 220.66 426.67 311.31 426.67 401.96 426.67 C 411.97 426.62 422.04 427.01 431.98 425.54 C 463.90 421.32 493.69 403.16 512.00 376.68 L 512.00 419.49 C 511.25 435.58 506.68 451.54 498.29 465.33 C 487.67 483.09 471.15 497.22 451.98 505.00 C 442.15 509.05 431.65 511.12 421.09 512.00 L 92.54 512.00 C 68.56 511.06 45.07 500.90 28.17 483.82 C 11.43 467.32 1.46 444.50 0.00 421.10 L 0.00 376.71 Z"></path>
</g>
</svg><style>@media (prefers-color-scheme: light) { :root { filter: none; } }
@media (prefers-color-scheme: dark) { :root { filter: invert(100%); } }
</style></svg>