<svg xmlns="http://www.w3.org/2000/svg" xmlns:xlink="http://www.w3.org/1999/xlink" xmlns:svgjs="http://svgjs.com/svgjs" width="68" height="80"><svg width="68" height="80" viewBox="0 0 51 60" xmlns="http://www.w3.org/2000/svg"><path d="M31.66 2.57c1.52-1.99 4.22-.67 6.25-.5-.08 2.98.81 6.59-2.53 8.12 1.99 2.45 3.88 4.99 6.07 7.27 1.85-2.26 2.98-4.94 3.8-7.72.69.25 2.05.76 2.74 1.01-1.44 3.8-3.25 7.52-6.22 10.37-1.91-.84-3.87-1.58-5.84-2.25-.44 3.01-.71 6.04-.86 9.08 4.5.7 8.45 3.07 12.32 5.32-.19 5.97-3.43 11.36-3.21 17.4 1.31 1.9 3.21 3.21 5.11 4.47-3.29 1.78-6.64-.57-9.86-1.36 3.25-5.35.83-11.65 2.76-17.31-3.37-.54-6.75-1.1-10.16-1.42-1.94 3.79-4.77 7.11-8.23 9.59-4.29 1.61-8.7 2.93-13.11 4.22-3.56 1.05-4.97 4.89-7.43 7.32.09-3.21.46-6.41 1.27-9.52 6.4.78 10.85-4.64 16.68-6.05 3.14-5.51 4.78-11.76 6.28-17.88-.63-2.62-1.43-5.22-1.69-7.92-1.84.9-3.78 1.55-5.72 2.2-1.26 3.68-1.76 7.56-1.13 11.42-1.19.2-2.38.41-3.57.62.28-4.64.1-9.39 1.63-13.85 3.92-3.65 9.04-5.5 14.18-6.67.12-1.98-.18-4.06.47-5.96z" id="SvgjsG1000"/></svg><style>@media (prefers-color-scheme:light){:root{filter:none}}@media (prefers-color-scheme:dark){:root{filter:invert(100%)}}</style></svg>