<?xml version="1.0" encoding="UTF-8"?>
<!DOCTYPE svg PUBLIC "-//W3C//DTD SVG 1.1//EN" "http://www.w3.org/Graphics/SVG/1.1/DTD/svg11.dtd">
<svg xmlns="http://www.w3.org/2000/svg" version="1.1" width="96px" height="100px" style="shape-rendering:geometricPrecision; text-rendering:geometricPrecision; image-rendering:optimizeQuality; fill-rule:evenodd; clip-rule:evenodd" xmlns:xlink="http://www.w3.org/1999/xlink">
<g><path style="opacity:0.587" fill="#fefffe" d="M 37.5,-0.5 C 38.1667,-0.5 38.8333,-0.5 39.5,-0.5C 40.5,3.5 41.5,3.5 42.5,-0.5C 44.8333,-0.5 47.1667,-0.5 49.5,-0.5C 49.8333,3.5 50.1667,3.5 50.5,-0.5C 51.5,-0.5 52.5,-0.5 53.5,-0.5C 52.8505,1.43525 52.5172,3.43525 52.5,5.5C 53.9778,5.23798 55.3112,5.57131 56.5,6.5C 53.7293,7.21746 51.0626,7.5508 48.5,7.5C 47.1476,6.48249 46.1476,5.14916 45.5,3.5C 44.0753,8.72979 42.9086,8.72979 42,3.5C 41.7811,4.93801 41.2811,6.27135 40.5,7.5C 36.4152,8.37572 32.4152,9.54239 28.5,11C 24.4493,13.0185 20.7827,15.5185 17.5,18.5C 14.3115,17.1523 13.1448,14.8189 14,11.5C 16.4284,10.355 18.7617,9.02163 21,7.5C 22.7007,10.5187 24.8673,11.0187 27.5,9C 24.5249,5.44381 25.3583,3.27714 30,2.5C 32.7329,4.42762 33.8995,3.76095 33.5,0.5C 35.099,0.767809 36.4324,0.434475 37.5,-0.5 Z M 29.5,4.5 C 31.3675,5.78615 31.5342,7.11948 30,8.5C 29.51,7.20677 29.3433,5.87344 29.5,4.5 Z M 16.5,12.5 C 17.9221,12.7496 18.9221,13.583 19.5,15C 17.5106,15.5192 16.5106,14.6859 16.5,12.5 Z"/></g>
<g><path style="opacity:0.587" fill="#fefffe" d="M 61.5,2.5 C 63.5273,2.33788 65.5273,2.50454 67.5,3C 67.983,6.46213 69.1496,6.96213 71,4.5C 74.5281,5.67311 75.8614,8.00645 75,11.5C 72.6124,12.1169 70.279,12.4503 68,12.5C 66.0166,11.0915 63.85,10.0915 61.5,9.5C 60.4249,7.18886 60.4249,4.85553 61.5,2.5 Z M 63.5,4.5 C 65.9732,4.94731 66.1399,5.94731 64,7.5C 63.5172,6.55198 63.3505,5.55198 63.5,4.5 Z"/></g>
<g><path style="opacity:0.531" fill="#fefffe" d="M 76.5,9.5 C 79.1678,9.83375 81.1678,11.1671 82.5,13.5C 81.3493,14.731 80.1827,14.731 79,13.5C 78.0201,15.0589 77.1867,16.7256 76.5,18.5C 75.1667,17.8333 74.1667,16.8333 73.5,15.5C 75.415,13.9288 76.415,11.9288 76.5,9.5 Z"/></g>
<g><path style="opacity:0.653" fill="#fefffe" d="M 48.5,17.5 C 52.2154,17.1961 55.7154,17.8627 59,19.5C 64.1204,19.0142 67.9537,21.1808 70.5,26C 68.1935,33.7558 66.6935,33.9225 66,26.5C 65.9464,29.8612 64.9464,32.8612 63,35.5C 62.4574,28.9072 59.2908,24.0739 53.5,21C 51.7015,21.0058 50.0348,21.3391 48.5,22C 47.2721,20.5098 47.2721,19.0098 48.5,17.5 Z"/></g>
<g><path style="opacity:0.564" fill="#fefffe" d="M -0.5,55.5 C -0.5,51.1667 -0.5,46.8333 -0.5,42.5C 0.785849,33.9213 4.28585,26.2547 10,19.5C 10.6924,20.0253 11.1924,20.6919 11.5,21.5C -1.01109,40.9822 -0.344425,59.9822 13.5,78.5C 13.1924,79.3081 12.6924,79.9747 12,80.5C 5.24776,73.3795 1.08109,65.0462 -0.5,55.5 Z"/></g>
<g><path style="opacity:0.558" fill="#fefffe" d="M 95.5,40.5 C 95.5,45.8333 95.5,51.1667 95.5,56.5C 93.8349,65.1637 90.0015,72.8303 84,79.5C 83.3076,78.9747 82.8076,78.3081 82.5,77.5C 92.2997,64.9597 95.1331,50.9597 91,35.5C 89.278,30.3878 86.778,25.7211 83.5,21.5C 85.2592,20.246 86.7592,20.5794 88,22.5C 91.3926,28.2657 93.8926,34.2657 95.5,40.5 Z"/></g>
<g><path style="opacity:0.453" fill="#fefffe" d="M 54.5,24.5 C 58.3172,25.5335 59.3172,27.8668 57.5,31.5C 56.2172,29.2699 55.2172,26.9366 54.5,24.5 Z"/></g>
<g><path style="opacity:0.514" fill="#fefffe" d="M 38.5,27.5 C 39.552,27.3505 40.552,27.5172 41.5,28C 38.3333,30.5 35.1667,33 32,35.5C 29.3977,39.7057 27.0643,44.039 25,48.5C 22.961,50.8745 20.6277,52.8745 18,54.5C 21.4389,48.9559 24.4389,42.9559 27,36.5C 30.733,33.2546 34.5663,30.2546 38.5,27.5 Z"/></g>
<g><path style="opacity:0.611" fill="#fefffe" d="M 45.5,28.5 C 48.1347,31.5316 48.1347,34.6983 45.5,38C 46.6382,42.1357 47.6382,46.3023 48.5,50.5C 49.8139,51.3128 50.9805,52.3128 52,53.5C 52.1667,53.1667 52.3333,52.8333 52.5,52.5C 48.892,47.2213 48.7254,41.888 52,36.5C 53.0088,42.5663 54.3422,48.5663 56,54.5C 57.4798,60.3375 55.3132,63.1708 49.5,63C 53.0067,61.1387 54.1734,58.3054 53,54.5C 52.7104,56.0441 52.0437,57.3774 51,58.5C 47.8774,52.1242 43.5441,51.1242 38,55.5C 37.2195,54.0563 37.3861,52.723 38.5,51.5C 40.3817,50.9067 42.2151,50.2401 44,49.5C 43.8761,47.1568 43.3761,44.8235 42.5,42.5C 42.5698,41.2284 42.9032,40.0617 43.5,39C 42.5509,38.3828 41.7175,38.5494 41,39.5C 39.6667,42.8333 38.3333,46.1667 37,49.5C 36.6667,47.8333 36.3333,46.1667 36,44.5C 34.1684,45.8583 32.3351,46.1916 30.5,45.5C 34.5181,40.6482 39.0181,36.3149 44,32.5C 44.4101,31.0993 44.9101,29.766 45.5,28.5 Z"/></g>
<g><path style="opacity:0.726" fill="#fefffe" d="M 69.5,40.5 C 76.8632,47.6107 79.3632,56.2774 77,66.5C 76.4208,69.5881 75.0875,72.2548 73,74.5C 71.6487,72.981 70.1487,71.6477 68.5,70.5C 71.4526,66.1433 73.1192,61.31 73.5,56C 72.6673,50.6748 71.334,45.5082 69.5,40.5 Z"/></g>
<g><path style="opacity:0.544" fill="#fefffe" d="M 58.5,45.5 C 64.3239,50.8228 67.1573,57.4895 67,65.5C 66.4169,67.0016 65.5836,68.3349 64.5,69.5C 64.4185,66.6669 64.2518,63.6669 64,60.5C 61.5901,55.6862 59.7568,50.6862 58.5,45.5 Z"/></g>
<g><path style="opacity:0.542" fill="#fefffe" d="M 21.5,56.5 C 22.3764,56.3691 23.0431,56.7025 23.5,57.5C 23.0879,59.8867 22.0879,61.8867 20.5,63.5C 17.7644,60.7666 18.0978,58.4333 21.5,56.5 Z"/></g>
<g><path style="opacity:0.671" fill="#fefffe" d="M 41.5,61.5 C 44.3892,61.999 45.0558,63.499 43.5,66C 42.2713,66.7811 40.938,67.2811 39.5,67.5C 34.0176,67.0468 28.6843,66.2134 23.5,65C 29.8078,64.7496 35.8078,63.583 41.5,61.5 Z"/></g>
<g><path style="opacity:0.554" fill="#fefffe" d="M 46.5,66.5 C 47.0431,66.56 47.3764,66.8933 47.5,67.5C 43.4983,71.6671 38.665,74.3337 33,75.5C 28.9416,75.107 26.4416,72.9403 25.5,69C 28.0752,70.175 30.9086,71.0083 34,71.5C 38.5928,70.6959 42.7594,69.0293 46.5,66.5 Z"/></g>
<g><path style="opacity:0.528" fill="#fefffe" d="M 49.5,99.5 C 48.5,99.5 47.5,99.5 46.5,99.5C 40.7573,98.5802 35.0907,97.0802 29.5,95C 24.9402,92.1603 20.4402,89.3269 16,86.5C 15.1985,83.7713 16.1985,82.1046 19,81.5C 23.749,85.1277 28.9157,88.1277 34.5,90.5C 35.2978,92.0777 35.7978,93.7444 36,95.5C 36.1118,92.5529 37.6118,91.2196 40.5,91.5C 40.2148,93.288 40.5481,94.9547 41.5,96.5C 42.5896,95.6086 42.5896,94.6086 41.5,93.5C 44.6115,91.9547 47.1115,92.6213 49,95.5C 49.2492,94.376 49.7492,93.376 50.5,92.5C 52.5082,97.9789 53.8416,97.8122 54.5,92C 62.3781,89.9777 69.5447,86.4777 76,81.5C 78.8032,82.1086 79.8032,83.7753 79,86.5C 76.6667,88.1667 74.3333,89.8333 72,91.5C 71.6667,91.1667 71.3333,90.8333 71,90.5C 70.5172,91.448 70.3505,92.448 70.5,93.5C 63.6006,95.9737 56.6006,97.9737 49.5,99.5 Z"/></g>
</svg>
