<svg width="244" height="19pt" viewBox="0 0 183 19" xmlns="http://www.w3.org/2000/svg"><g fill="#fff"><path d="M.54 0h5.85c1.9 2.82 3.62 5.76 5.32 8.71-.18-2.9-.2-5.81-.19-8.71h5.21c.01 6.17-.01 12.34.01 18.51-1.77-.03-3.53-.05-5.3-.07-1.92-3.12-3.89-6.21-5.73-9.38.03 3.15.02 6.29.04 9.43-1.75-.01-3.49-.02-5.23-.02C.55 12.31.53 6.16.54 0zm19 0h14.19c0 1.5.01 3 .02 4.5-2.67-.04-5.34-.04-8.01-.04 0 .64-.01 1.9-.01 2.54h6.53c0 1.49.01 2.97.01 4.46-2.18 0-4.35.01-6.52.01l-.04 2.26c2.67.01 5.34 0 8.01.01l.03 4.75c-4.74-.04-9.49-.03-14.23-.01.03-6.16.01-12.32.02-18.48zm16 0h14.19c0 1.5.01 3 .02 4.5-2.67-.04-5.34-.04-8.01-.04 0 .64-.01 1.9-.01 2.54h6.53c0 1.49.01 2.97.01 4.46-2.18 0-4.35.01-6.53.01 0 .76-.01 1.51-.02 2.26 2.67.01 5.34 0 8 .01l.03 4.75c-4.74-.04-9.49-.03-14.23-.01.03-6.16.01-12.32.02-18.48zm16 0h8.42c8.64.34 10.6 13.61 3.49 17.44-3.72 1.72-7.98.8-11.93 1.03.03-6.15.01-12.31.02-18.47m6.16 4.31c.05 3.3.01 6.61.06 9.91 4.81-.69 4.75-9.39-.06-9.91z"/><path d="M69.54 0h6.19v6.73c.82 0 2.45.01 3.27.01V0h6.26c0 6.15 0 12.31.01 18.46-2.09 0-4.18 0-6.26.01-.01-2.34-.01-4.68-.02-7.02l-3.26.03c0 2.34 0 4.67.01 7.01-2.07-.01-4.15-.02-6.22-.02.03-6.16.01-12.31.02-18.47zm24.95 0h2.48c6.6.41 9.17 8.54 6.61 13.86-2.25 5.17-9.84 6.09-13.87 2.51C84.62 11.49 86.73.62 94.49 0m.17 13.41c.76 1.23 2.25.13 2.79-.7.98-2.83.98-6.6-1.68-8.54-2.79 2.06-3.12 6.58-1.11 9.24zM112.61 0h2.95c2.91.29 5.15 2.2 6.65 4.59-1.7.57-3.41 1.11-5.12 1.64-1.48-1.53-3.5-2.35-5.44-1.05 2.52 1.26 5.41 1.35 7.97 2.47 3.61 1.88 3.49 7.88-.26 9.56-4.81 2.6-12.99 1.7-14.39-4.51 1.72-.36 3.45-.72 5.18-1.04 1.54 1.68 3.68 2.34 5.93 2.12-.41-2.37-3.33-1.77-5.04-2.47-2.92-.37-5.75-3.05-4.97-6.19.3-3.27 3.6-4.92 6.54-5.12zm10.66 0h13.46v4.73c-1.25 0-2.49 0-3.73.01v13.73c-2-.01-4-.01-6 0V4.74c-1.24-.01-2.49-.01-3.73-.01V0zm15.27 0h6.19c.01 6.16-.01 12.33.01 18.49-2.07-.01-4.15-.02-6.22-.02.03-6.16.01-12.31.02-18.47zm9 0h5.85c1.9 2.82 3.62 5.76 5.32 8.71-.18-2.9-.2-5.8-.19-8.71h5.21c.01 6.17-.02 12.33.02 18.5-1.77-.02-3.54-.04-5.3-.05-1.93-3.12-3.9-6.22-5.74-9.39.03 3.15.02 6.29.04 9.43-1.75-.01-3.49-.02-5.23-.02.03-6.16.01-12.31.02-18.47zm24.98 0h3.81c3.55.34 5.92 3.22 6.66 6.56-1.98.24-3.96.47-5.94.68-.71-1.07-1.43-2.15-2.15-3.21-3.61 1.23-4.25 6.47-1.86 9.04 1.36 1.28 3.03.28 4.27-.61-.83-.06-2.48-.19-3.31-.26V8c2.91 0 5.82.01 8.73 0 0 3.54.01 7.08 0 10.62-1.44-.24-3.2.13-4.16-1.23-3.62 1.85-8.49 1.5-11.31-1.6C163.21 10.7 165.27.77 172.52 0z"/></g></svg>