<svg version="1.0" xmlns="http://www.w3.org/2000/svg"
 width="512.000000pt" height="512.000000pt" viewBox="0 0 512.000000 512.000000"
 preserveAspectRatio="xMidYMid meet">

<g transform="translate(0.000000,512.000000) scale(0.100000,-0.100000)"
fill="#fff" stroke="none">
<path d="M2325 5030 c-585 -65 -1080 -294 -1489 -690 -406 -393 -657 -893
-737 -1470 -18 -124 -18 -496 0 -620 56 -404 191 -758 412 -1085 317 -469 807
-826 1350 -984 703 -205 1460 -91 2062 309 701 466 1117 1237 1117 2070 0
1221 -897 2265 -2105 2451 -148 23 -481 33 -610 19z m1390 -1494 c44 -19 68
-65 67 -131 -1 -55 -402 -1965 -428 -2032 -8 -24 -27 -52 -41 -63 -30 -24 -89
-26 -136 -6 -18 8 -169 116 -337 240 -168 124 -308 226 -312 226 -3 0 -80 -71
-170 -159 -171 -165 -191 -181 -231 -181 -22 0 -23 3 -20 53 2 28 12 169 22
312 l18 259 54 51 c30 27 291 263 579 524 289 260 526 482 528 492 3 15 -3 19
-23 19 -14 0 -36 -5 -48 -11 -12 -7 -336 -209 -719 -451 -383 -241 -704 -441
-711 -444 -12 -4 -558 159 -649 195 -38 15 -68 47 -68 74 0 60 30 74 741 348
371 143 908 351 1194 461 707 273 631 248 690 224z"/>
</g>
</svg>
