<svg width="45pt" height="42pt" viewBox="0 0 45 42" version="1.1" xmlns="http://www.w3.org/2000/svg">
<g id="#007ee5ff">
<path fill="#007ee5" opacity="1.00" d=" M 29.77 0.00 L 32.45 0.00 C 37.89 0.55 41.13 5.60 41.55 10.65 C 42.95 11.67 45.42 12.85 44.60 15.01 C 44.38 16.60 42.53 17.08 41.49 18.06 C 41.14 20.56 40.09 22.93 37.53 23.84 C 41.57 25.08 44.00 28.71 45.00 32.63 L 45.00 34.43 C 39.77 35.87 34.27 34.85 28.93 35.11 C 27.56 33.13 26.03 31.28 24.26 29.64 C 24.72 28.17 25.15 26.68 25.57 25.19 C 28.03 23.99 30.15 25.85 32.12 27.08 C 33.02 26.69 33.91 26.29 34.80 25.90 C 34.63 25.27 34.29 24.00 34.12 23.37 C 36.08 22.61 39.50 22.54 39.80 19.84 C 39.72 16.88 39.38 13.93 39.60 10.97 C 40.02 5.69 34.11 1.58 29.21 3.07 C 25.68 3.78 24.02 7.24 21.91 9.75 C 20.93 4.85 25.36 0.94 29.77 0.00 Z" />
<path fill="#007ee5" opacity="1.00" d=" M 25.54 16.26 C 22.96 11.37 26.41 3.11 32.63 4.35 C 39.33 6.99 39.88 17.46 34.69 21.86 C 32.75 22.20 30.80 22.45 28.87 22.83 C 29.19 20.11 28.12 17.44 25.54 16.26 Z" />
<path fill="#007ee5" opacity="1.00" d=" M 3.80 17.38 C 3.45 11.02 9.70 5.49 15.97 6.87 C 20.91 7.77 23.96 12.62 24.09 17.41 C 25.54 18.16 27.57 19.06 27.37 21.05 C 27.50 23.00 25.52 23.82 24.09 24.53 C 23.74 26.16 23.77 28.15 22.30 29.24 C 20.59 30.40 18.47 30.69 16.62 31.58 C 15.24 32.86 13.53 32.10 13.78 30.16 C 16.62 30.04 19.72 29.79 22.01 27.92 C 23.30 25.06 21.43 21.91 22.16 18.91 C 22.99 15.41 20.71 11.88 17.65 10.32 C 14.04 8.44 9.23 9.73 7.01 13.13 C 4.06 16.66 6.90 21.39 5.22 25.35 C 3.41 24.27 0.47 23.56 0.48 20.95 C 0.35 18.95 2.40 18.20 3.80 17.38 Z" />
<path fill="#007ee5" opacity="1.00" d=" M 8.50 14.49 C 9.95 11.40 14.15 9.78 17.05 11.92 C 21.40 15.18 21.50 21.83 19.25 26.35 C 18.07 29.00 14.67 28.31 12.54 29.68 C 6.77 27.29 6.02 19.50 8.50 14.49 Z" />
<path fill="#007ee5" opacity="1.00" d=" M 32.21 23.22 C 33.93 22.58 34.52 25.20 32.81 25.57 C 31.21 26.23 30.53 23.49 32.21 23.22 Z" />
<path fill="#007ee5" opacity="1.00" d=" M 0.00 39.71 C 0.69 35.13 3.94 31.35 8.41 30.17 C 10.59 31.33 12.79 32.46 14.92 33.72 C 17.37 32.80 19.88 32.03 22.35 31.17 C 25.39 33.48 29.57 38.28 26.64 42.00 L 0.49 42.00 C 0.37 41.91 0.12 41.73 0.00 41.64 L 0.00 39.71 Z" />
</g>
</svg>
