<svg width="45pt" height="45pt" viewBox="0 0 45 45" version="1.1" xmlns="http://www.w3.org/2000/svg">
<g id="#007ee5ff">
<path fill="#007ee5" opacity="1.00" d=" M 14.05 0.00 L 18.91 0.00 C 23.39 0.70 29.06 0.66 32.19 4.48 C 33.41 8.58 33.51 13.13 32.35 17.27 C 38.70 18.71 44.63 23.43 45.00 30.36 L 45.00 32.34 C 44.61 38.84 39.19 44.44 32.70 45.00 L 30.75 45.00 C 27.42 44.74 24.47 43.08 21.95 40.98 C 14.50 41.50 4.49 41.87 0.00 34.68 L 0.00 9.13 C -0.65 1.28 8.46 0.64 14.05 0.00 M 1.76 6.00 C 3.98 8.72 7.61 9.42 10.90 9.91 C 16.42 10.54 22.19 10.48 27.50 8.67 C 28.91 7.98 31.54 7.36 30.75 5.26 C 26.62 2.05 21.02 1.94 16.02 1.81 C 11.12 2.08 5.39 2.18 1.76 6.00 M 1.68 10.29 C 2.01 12.24 1.10 14.76 2.83 16.23 C 6.16 19.09 10.76 19.73 14.99 20.02 C 20.02 20.14 25.47 19.68 29.73 16.72 C 32.03 15.39 31.20 12.48 31.44 10.31 C 22.36 14.87 10.76 14.86 1.68 10.29 M 1.70 19.52 C 1.97 21.89 0.97 25.08 3.46 26.55 C 7.75 29.51 13.20 29.90 18.25 29.82 C 18.76 27.51 19.59 25.29 20.86 23.28 C 14.33 23.94 7.23 23.42 1.70 19.52 M 27.36 21.42 C 24.17 22.82 21.78 25.85 21.15 29.27 C 19.70 35.41 24.66 42.05 30.98 42.27 C 37.53 42.86 43.35 36.41 42.24 29.96 C 41.63 23.12 33.60 18.34 27.36 21.42 M 1.70 29.19 C 2.00 31.40 0.99 34.35 3.10 35.92 C 8.08 39.62 14.69 39.65 20.63 39.35 C 19.59 37.40 18.81 35.34 18.27 33.20 C 12.54 33.32 6.51 32.59 1.70 29.19 Z" />
<path fill="#007ee5" opacity="1.00" d=" M 27.95 24.23 C 30.28 24.20 32.60 24.20 34.92 24.22 C 34.94 27.13 34.95 30.05 34.94 32.98 C 35.76 32.99 37.39 33.03 38.21 33.05 C 36.05 35.46 33.81 37.80 31.53 40.09 C 29.20 37.82 26.83 35.60 24.67 33.16 C 25.49 33.15 27.12 33.13 27.94 33.12 C 27.93 30.16 27.95 27.19 27.95 24.23 Z" />
</g>
</svg>
