<svg width="536" height="309" fill="none" xmlns="http://www.w3.org/2000/svg"><g clip-path="url(#clip0_1_10610)"><path d="M166.766 11.483l-146.878 84.8c-9.295 5.366-9.3 14.063-.014 19.425l314.918 181.818c9.287 5.362 24.35 5.358 33.645-.008l146.878-84.8c9.295-5.367 9.301-14.064.014-19.426L200.412 11.475c-9.287-5.362-24.351-5.359-33.646.008z" fill="#fff" stroke="#142251" stroke-width="2"/><path d="M122.399 35.333L61.2 70.667c-5.915 3.415-5.919 8.95-.009 12.361 5.91 3.412 15.496 3.41 21.411-.005l61.199-35.333c5.915-3.415 5.919-8.95.009-12.362-5.91-3.412-15.496-3.41-21.411.005z" fill="#142251"/><path d="M111.68 52.112L90.26 64.48c-.845.488-.845 1.278 0 1.766.843.487 2.213.487 3.058 0l21.42-12.368c.845-.487.845-1.278.001-1.765-.844-.488-2.214-.488-3.059 0z" fill="#fff"/><path d="M326.508 117.843l-68.849 39.75c-4.647 2.683-4.65 7.032-.007 9.713l24.46 14.121c4.643 2.681 12.175 2.679 16.823-.004l68.849-39.75c4.647-2.683 4.65-7.031.006-9.712l-24.459-14.122c-4.644-2.681-12.176-2.679-16.823.004zm-67.336 62.707c-11.398-6.581-29.885-6.577-41.293.009-11.407 6.586-11.415 17.26-.017 23.841 11.398 6.58 29.886 6.576 41.293-.01 11.407-6.586 11.415-17.26.017-23.84z" stroke="#E4E7F1"/><path d="M221.748 117.426l-68.849 39.75c-5.07 2.927-5.074 7.671-.008 10.596l24.46 14.121c5.065 2.925 13.282 2.923 18.352-.004l68.849-39.75c5.07-2.927 5.073-7.671.007-10.596L240.1 117.422c-5.066-2.925-13.282-2.923-18.352.004zm82.601-22.976c-11.82-6.825-30.992-6.82-42.822.01-11.83 6.829-11.838 17.898-.017 24.723 11.82 6.824 30.992 6.819 42.821-.01 11.83-6.83 11.838-17.899.018-24.724zM220.26 58.267l-119.338 68.9c-5.07 2.927-5.073 7.671-.007 10.596l24.459 14.122c5.066 2.924 13.282 2.922 18.352-.005l119.339-68.9c5.07-2.927 5.073-7.67.007-10.595l-24.459-14.122c-5.066-2.925-13.283-2.923-18.353.004zm155.93 90.027l-119.338 68.9c-5.07 2.927-5.074 7.671-.008 10.595l24.46 14.122c5.066 2.925 13.282 2.923 18.352-.004l119.338-68.9c5.07-2.927 5.074-7.671.008-10.596l-24.46-14.122c-5.065-2.924-13.282-2.922-18.352.005z" fill="#E4E7F1"/><path d="M411.516 252.256c-8.285 2.117-17.414 2.886-26.398 2.227-8.985-.66-17.485-2.723-24.583-5.966-7.099-3.245-12.528-7.548-15.701-12.445-3.171-4.896-3.968-10.201-2.301-15.342 1.667-5.141 5.733-9.923 11.759-13.83 6.026-3.907 13.785-6.79 22.438-8.339 8.653-1.55 17.873-1.706 26.665-.452 8.792 1.254 16.821 3.869 23.223 7.566" stroke="#142251" stroke-width="2" stroke-linecap="round"/><path d="M329.617 232.165c-2.433-8.158.05-16.553 7.035-23.787 6.984-7.234 18.05-12.87 31.353-15.967 13.302-3.099 28.038-3.473 41.751-1.061 13.716 2.414 25.579 7.467 33.617 14.32" stroke="#E4E7F1" stroke-width="2" stroke-linecap="round"/><path d="M368.399 241.578c-4.911-2.418-8.585-5.565-10.626-9.102-2.04-3.537-2.368-7.33-.949-10.968 1.419-3.639 4.533-6.984 9.002-9.678 4.47-2.694 10.127-4.632 16.364-5.606a60.69 60.69 0 0119.019.078c6.209 1.026 11.813 3.01 16.208 5.74 4.395 2.73 7.415 6.102 8.734 9.752 1.319 3.649.887 7.438-1.25 10.958" stroke="#AFB4C4" stroke-width="2" stroke-linecap="round"/><path d="M372.774 217.475c2.688-1.962 6.253-3.464 10.31-4.343s8.45-1.103 12.709-.645c4.259.457 8.219 1.576 11.455 3.238 3.235 1.661 5.624 3.801 6.906 6.189 1.281 2.388 1.411 4.935.37 7.363-1.039 2.428-3.207 4.647-6.27 6.418-3.063 1.77-6.904 3.024-11.108 3.627a40.692 40.692 0 01-12.753-.206" stroke="#142251" stroke-width="2" stroke-linecap="round"/><path d="M378.007 231.032c-1.724-1.531-2.623-3.324-2.583-5.152.041-1.827 1.02-3.607 2.811-5.114 1.792-1.508 4.318-2.675 7.258-3.354 2.94-.679 6.161-.84 9.257-.462 3.097.378 5.929 1.278 8.139 2.586 2.209 1.307 3.697 2.964 4.275 4.761.578 1.797.22 3.652-1.03 5.332-1.247 1.681-3.331 3.109-5.986 4.106" stroke="#AFB4C4" stroke-width="2" stroke-linecap="round"/></g><defs><clipPath id="clip0_1_10610"><path fill="#fff" transform="matrix(.86603 -.5 .86603 .5 0 106)" d="M0 0h212v406H0z"/></clipPath></defs></svg>