<svg width="434" height="584" fill="none" xmlns="http://www.w3.org/2000/svg"><g clip-path="url(#clip0_1_10625)"><path d="M1.443 35.833L431.57 284.166V562.5c0 10.125-7.108 14.229-15.877 9.166l-398.372-230c-8.768-5.062-15.877-17.375-15.877-27.5V35.833z" fill="#fff" stroke="#989EB1" stroke-width="2"/><path d="M0 20C0 8.954 7.755 4.477 17.32 10l28.868 16.667c9.566 5.523 17.32 18.954 17.32 30v16.666L0 36.667V20z" fill="#E4E7F1"/><path d="M199.186 342.5l-158.77-91.667c-4.385-2.531-7.94-.479-7.94 4.584v26.666c0 5.063 3.555 11.219 7.94 13.75l158.77 91.667c4.385 2.531 7.939.479 7.939-4.583V356.25c0-5.063-3.554-11.219-7.939-13.75zm135.678 78.334L233.827 362.5c-4.384-2.531-7.938-.479-7.938 4.584v26.666c0 5.063 3.554 11.219 7.938 13.75l101.037 58.334c4.384 2.531 7.938.479 7.938-4.584v-26.666c0-5.063-3.554-11.219-7.938-13.75zm65.674 60.416c0-12.426-8.724-27.537-19.486-33.75-10.762-6.213-19.486-1.176-19.486 11.25s8.724 27.537 19.486 33.75c10.762 6.213 19.486 1.176 19.486-11.25z" stroke="#E4E7F1"/><path d="M199.185 275l-158.77-91.667c-4.784-2.761-8.661-.523-8.661 5V215c0 5.523 3.877 12.238 8.66 15l158.771 91.666c4.783 2.762 8.661.523 8.661-5V290c0-5.523-3.878-12.239-8.661-15zm193.413 45L40.414 116.667c-4.783-2.762-8.66-.523-8.66 5v26.666c0 5.523 3.877 12.239 8.66 15l352.184 203.334c4.783 2.761 8.66.522 8.66-5V335c0-5.523-3.877-12.239-8.66-15zm-57.735 33.333L233.826 295c-4.783-2.761-8.66-.523-8.66 5v26.667c0 5.523 3.877 12.238 8.66 15L334.863 400c4.783 2.761 8.66.523 8.66-5v-26.667c0-5.523-3.877-12.238-8.66-15zM401.258 415c0-12.887-9.047-28.557-20.207-35-11.16-6.444-20.207-1.22-20.207 11.666 0 12.887 9.047 28.557 20.207 35 11.16 6.444 20.207 1.22 20.207-11.666z" fill="#E4E7F1"/><g filter="url(#filter0_i_1_10625)"><path d="M0 20C0 8.954 7.755 4.477 17.32 10l398.372 230c9.565 5.522 17.321 18.954 17.321 30v16.667L0 36.667V20z" fill="#989EB1"/></g><path d="M18.764 34.167c2.391 1.38 4.33.261 4.33-2.5s-1.939-6.12-4.33-7.5c-2.392-1.38-4.33-.261-4.33 2.5s1.938 6.12 4.33 7.5zm12.99 7.5c2.391 1.38 4.33.261 4.33-2.5s-1.939-6.12-4.33-7.5c-2.392-1.38-4.33-.261-4.33 2.5s1.939 6.12 4.33 7.5zm12.99 7.5c2.392 1.38 4.33.261 4.33-2.5s-1.938-6.12-4.33-7.5c-2.391-1.38-4.33-.261-4.33 2.5s1.939 6.12 4.33 7.5z" fill="#fff"/></g><defs><clipPath id="clip0_1_10625"><path fill="#fff" transform="skewY(30) scale(.86603 1)" d="M0 0h500v333.333H0z"/></clipPath><filter id="filter0_i_1_10625" x="0" y="7.634" width="433.013" height="283.032" filterUnits="userSpaceOnUse" color-interpolation-filters="sRGB"><feFlood flood-opacity="0" result="BackgroundImageFix"/><feBlend in="SourceGraphic" in2="BackgroundImageFix" result="shape"/><feColorMatrix in="SourceAlpha" values="0 0 0 0 0 0 0 0 0 0 0 0 0 0 0 0 0 0 127 0" result="hardAlpha"/><feOffset dy="4"/><feGaussianBlur stdDeviation="2"/><feComposite in2="hardAlpha" operator="arithmetic" k2="-1" k3="1"/><feColorMatrix values="0 0 0 0 1 0 0 0 0 1 0 0 0 0 1 0 0 0 0.25 0"/><feBlend in2="shape" result="effect1_innerShadow_1_10625"/></filter></defs></svg>